%TF.GenerationSoftware,KiCad,Pcbnew,(6.0.5)*%
%TF.CreationDate,2022-05-25T01:16:53-04:00*%
%TF.ProjectId,in-16-carrier-rounded,696e2d31-362d-4636-9172-726965722d72,rev?*%
%TF.SameCoordinates,Original*%
%TF.FileFunction,Copper,L1,Top*%
%TF.FilePolarity,Positive*%
%FSLAX46Y46*%
G04 Gerber Fmt 4.6, Leading zero omitted, Abs format (unit mm)*
G04 Created by KiCad (PCBNEW (6.0.5)) date 2022-05-25 01:16:53*
%MOMM*%
%LPD*%
G01*
G04 APERTURE LIST*
%ADD10C,0.200000*%
%TA.AperFunction,NonConductor*%
%ADD11C,0.200000*%
%TD*%
%TA.AperFunction,ComponentPad*%
%ADD12C,1.137920*%
%TD*%
%TA.AperFunction,ComponentPad*%
%ADD13C,1.600000*%
%TD*%
%TA.AperFunction,ComponentPad*%
%ADD14O,1.600000X1.600000*%
%TD*%
%TA.AperFunction,ComponentPad*%
%ADD15R,1.700000X1.700000*%
%TD*%
%TA.AperFunction,ComponentPad*%
%ADD16O,1.700000X1.700000*%
%TD*%
%TA.AperFunction,ViaPad*%
%ADD17C,0.600000*%
%TD*%
%TA.AperFunction,Conductor*%
%ADD18C,0.250000*%
%TD*%
G04 APERTURE END LIST*
D10*
D11*
X64692142Y-40547857D02*
X64692142Y-39347857D01*
X65263571Y-40547857D02*
X65263571Y-39347857D01*
X65949285Y-40547857D01*
X65949285Y-39347857D01*
X66520714Y-40090714D02*
X67435000Y-40090714D01*
X68635000Y-40547857D02*
X67949285Y-40547857D01*
X68292142Y-40547857D02*
X68292142Y-39347857D01*
X68177857Y-39519285D01*
X68063571Y-39633571D01*
X67949285Y-39690714D01*
X69663571Y-39347857D02*
X69435000Y-39347857D01*
X69320714Y-39405000D01*
X69263571Y-39462142D01*
X69149285Y-39633571D01*
X69092142Y-39862142D01*
X69092142Y-40319285D01*
X69149285Y-40433571D01*
X69206428Y-40490714D01*
X69320714Y-40547857D01*
X69549285Y-40547857D01*
X69663571Y-40490714D01*
X69720714Y-40433571D01*
X69777857Y-40319285D01*
X69777857Y-40033571D01*
X69720714Y-39919285D01*
X69663571Y-39862142D01*
X69549285Y-39805000D01*
X69320714Y-39805000D01*
X69206428Y-39862142D01*
X69149285Y-39919285D01*
X69092142Y-40033571D01*
X71892142Y-40433571D02*
X71835000Y-40490714D01*
X71663571Y-40547857D01*
X71549285Y-40547857D01*
X71377857Y-40490714D01*
X71263571Y-40376428D01*
X71206428Y-40262142D01*
X71149285Y-40033571D01*
X71149285Y-39862142D01*
X71206428Y-39633571D01*
X71263571Y-39519285D01*
X71377857Y-39405000D01*
X71549285Y-39347857D01*
X71663571Y-39347857D01*
X71835000Y-39405000D01*
X71892142Y-39462142D01*
X72920714Y-40547857D02*
X72920714Y-39919285D01*
X72863571Y-39805000D01*
X72749285Y-39747857D01*
X72520714Y-39747857D01*
X72406428Y-39805000D01*
X72920714Y-40490714D02*
X72806428Y-40547857D01*
X72520714Y-40547857D01*
X72406428Y-40490714D01*
X72349285Y-40376428D01*
X72349285Y-40262142D01*
X72406428Y-40147857D01*
X72520714Y-40090714D01*
X72806428Y-40090714D01*
X72920714Y-40033571D01*
X73492142Y-40547857D02*
X73492142Y-39747857D01*
X73492142Y-39976428D02*
X73549285Y-39862142D01*
X73606428Y-39805000D01*
X73720714Y-39747857D01*
X73835000Y-39747857D01*
X74235000Y-40547857D02*
X74235000Y-39747857D01*
X74235000Y-39976428D02*
X74292142Y-39862142D01*
X74349285Y-39805000D01*
X74463571Y-39747857D01*
X74577857Y-39747857D01*
X74977857Y-40547857D02*
X74977857Y-39747857D01*
X74977857Y-39347857D02*
X74920714Y-39405000D01*
X74977857Y-39462142D01*
X75035000Y-39405000D01*
X74977857Y-39347857D01*
X74977857Y-39462142D01*
X76006428Y-40490714D02*
X75892142Y-40547857D01*
X75663571Y-40547857D01*
X75549285Y-40490714D01*
X75492142Y-40376428D01*
X75492142Y-39919285D01*
X75549285Y-39805000D01*
X75663571Y-39747857D01*
X75892142Y-39747857D01*
X76006428Y-39805000D01*
X76063571Y-39919285D01*
X76063571Y-40033571D01*
X75492142Y-40147857D01*
X76577857Y-40547857D02*
X76577857Y-39747857D01*
X76577857Y-39976428D02*
X76635000Y-39862142D01*
X76692142Y-39805000D01*
X76806428Y-39747857D01*
X76920714Y-39747857D01*
X78635000Y-39919285D02*
X78806428Y-39976428D01*
X78863571Y-40033571D01*
X78920714Y-40147857D01*
X78920714Y-40319285D01*
X78863571Y-40433571D01*
X78806428Y-40490714D01*
X78692142Y-40547857D01*
X78235000Y-40547857D01*
X78235000Y-39347857D01*
X78635000Y-39347857D01*
X78749285Y-39405000D01*
X78806428Y-39462142D01*
X78863571Y-39576428D01*
X78863571Y-39690714D01*
X78806428Y-39805000D01*
X78749285Y-39862142D01*
X78635000Y-39919285D01*
X78235000Y-39919285D01*
X79606428Y-40547857D02*
X79492142Y-40490714D01*
X79435000Y-40433571D01*
X79377857Y-40319285D01*
X79377857Y-39976428D01*
X79435000Y-39862142D01*
X79492142Y-39805000D01*
X79606428Y-39747857D01*
X79777857Y-39747857D01*
X79892142Y-39805000D01*
X79949285Y-39862142D01*
X80006428Y-39976428D01*
X80006428Y-40319285D01*
X79949285Y-40433571D01*
X79892142Y-40490714D01*
X79777857Y-40547857D01*
X79606428Y-40547857D01*
X81035000Y-40547857D02*
X81035000Y-39919285D01*
X80977857Y-39805000D01*
X80863571Y-39747857D01*
X80635000Y-39747857D01*
X80520714Y-39805000D01*
X81035000Y-40490714D02*
X80920714Y-40547857D01*
X80635000Y-40547857D01*
X80520714Y-40490714D01*
X80463571Y-40376428D01*
X80463571Y-40262142D01*
X80520714Y-40147857D01*
X80635000Y-40090714D01*
X80920714Y-40090714D01*
X81035000Y-40033571D01*
X81606428Y-40547857D02*
X81606428Y-39747857D01*
X81606428Y-39976428D02*
X81663571Y-39862142D01*
X81720714Y-39805000D01*
X81835000Y-39747857D01*
X81949285Y-39747857D01*
X82863571Y-40547857D02*
X82863571Y-39347857D01*
X82863571Y-40490714D02*
X82749285Y-40547857D01*
X82520714Y-40547857D01*
X82406428Y-40490714D01*
X82349285Y-40433571D01*
X82292142Y-40319285D01*
X82292142Y-39976428D01*
X82349285Y-39862142D01*
X82406428Y-39805000D01*
X82520714Y-39747857D01*
X82749285Y-39747857D01*
X82863571Y-39805000D01*
X85035000Y-40547857D02*
X84635000Y-39976428D01*
X84349285Y-40547857D02*
X84349285Y-39347857D01*
X84806428Y-39347857D01*
X84920714Y-39405000D01*
X84977857Y-39462142D01*
X85035000Y-39576428D01*
X85035000Y-39747857D01*
X84977857Y-39862142D01*
X84920714Y-39919285D01*
X84806428Y-39976428D01*
X84349285Y-39976428D01*
X86006428Y-40490714D02*
X85892142Y-40547857D01*
X85663571Y-40547857D01*
X85549285Y-40490714D01*
X85492142Y-40376428D01*
X85492142Y-39919285D01*
X85549285Y-39805000D01*
X85663571Y-39747857D01*
X85892142Y-39747857D01*
X86006428Y-39805000D01*
X86063571Y-39919285D01*
X86063571Y-40033571D01*
X85492142Y-40147857D01*
X86463571Y-39747857D02*
X86749285Y-40547857D01*
X87035000Y-39747857D01*
X89035000Y-40547857D02*
X88349285Y-40547857D01*
X88692142Y-40547857D02*
X88692142Y-39347857D01*
X88577857Y-39519285D01*
X88463571Y-39633571D01*
X88349285Y-39690714D01*
D12*
%TO.P,N2,0,0*%
%TO.N,/C0*%
X42707560Y-28722320D03*
%TO.P,N2,1,1*%
%TO.N,/C1*%
X46192440Y-28722320D03*
%TO.P,N2,2,2*%
%TO.N,/C2*%
X41960800Y-22590760D03*
%TO.P,N2,3,3*%
%TO.N,/C3*%
X48176180Y-25852120D03*
%TO.P,N2,4,4*%
%TO.N,/C4*%
X46939200Y-22590760D03*
%TO.P,N2,5,5*%
%TO.N,/C5*%
X45346620Y-21755100D03*
%TO.P,N2,6,6*%
%TO.N,/C6*%
X43553380Y-21755100D03*
%TO.P,N2,7,7*%
%TO.N,/C7*%
X47538640Y-27531060D03*
%TO.P,N2,8,8*%
%TO.N,/C8*%
X40723820Y-25852120D03*
%TO.P,N2,9,9*%
%TO.N,/C9*%
X41361360Y-27531060D03*
%TO.P,N2,A,A*%
%TO.N,Net-(N2-PadA)*%
X44450000Y-29154120D03*
%TO.P,N2,LHDP,LHDP*%
%TO.N,/CA*%
X40939720Y-24069040D03*
%TO.P,N2,RHDP,RHDP*%
%TO.N,/CB*%
X47960280Y-24069040D03*
%TD*%
D13*
%TO.P,R3,1*%
%TO.N,Net-(N3-PadA)*%
X58420000Y-34925000D03*
D14*
%TO.P,R3,2*%
%TO.N,/A2*%
X68580000Y-34925000D03*
%TD*%
D13*
%TO.P,R1,1*%
%TO.N,Net-(N1-PadA)*%
X20320000Y-34925000D03*
D14*
%TO.P,R1,2*%
%TO.N,/A0*%
X30480000Y-34925000D03*
%TD*%
D12*
%TO.P,N4,0,0*%
%TO.N,/C0*%
X80807560Y-28722320D03*
%TO.P,N4,1,1*%
%TO.N,/C1*%
X84292440Y-28722320D03*
%TO.P,N4,2,2*%
%TO.N,/C2*%
X80060800Y-22590760D03*
%TO.P,N4,3,3*%
%TO.N,/C3*%
X86276180Y-25852120D03*
%TO.P,N4,4,4*%
%TO.N,/C4*%
X85039200Y-22590760D03*
%TO.P,N4,5,5*%
%TO.N,/C5*%
X83446620Y-21755100D03*
%TO.P,N4,6,6*%
%TO.N,/C6*%
X81653380Y-21755100D03*
%TO.P,N4,7,7*%
%TO.N,/C7*%
X85638640Y-27531060D03*
%TO.P,N4,8,8*%
%TO.N,/C8*%
X78823820Y-25852120D03*
%TO.P,N4,9,9*%
%TO.N,/C9*%
X79461360Y-27531060D03*
%TO.P,N4,A,A*%
%TO.N,Net-(N4-PadA)*%
X82550000Y-29154120D03*
%TO.P,N4,LHDP,LHDP*%
%TO.N,/CA*%
X79039720Y-24069040D03*
%TO.P,N4,RHDP,RHDP*%
%TO.N,/CB*%
X86060280Y-24069040D03*
%TD*%
D15*
%TO.P,J1,1,Pin_1*%
%TO.N,/C0*%
X20320000Y-39370000D03*
D16*
%TO.P,J1,2,Pin_2*%
%TO.N,/C1*%
X22860000Y-39370000D03*
%TO.P,J1,3,Pin_3*%
%TO.N,/C2*%
X25400000Y-39370000D03*
%TO.P,J1,4,Pin_4*%
%TO.N,/C3*%
X27940000Y-39370000D03*
%TO.P,J1,5,Pin_5*%
%TO.N,/C4*%
X30480000Y-39370000D03*
%TO.P,J1,6,Pin_6*%
%TO.N,/C5*%
X33020000Y-39370000D03*
%TO.P,J1,7,Pin_7*%
%TO.N,/C6*%
X35560000Y-39370000D03*
%TO.P,J1,8,Pin_8*%
%TO.N,/C7*%
X38100000Y-39370000D03*
%TO.P,J1,9,Pin_9*%
%TO.N,/C8*%
X40640000Y-39370000D03*
%TO.P,J1,10,Pin_10*%
%TO.N,/C9*%
X43180000Y-39370000D03*
%TO.P,J1,11,Pin_11*%
%TO.N,/CA*%
X45720000Y-39370000D03*
%TO.P,J1,12,Pin_12*%
%TO.N,/CB*%
X48260000Y-39370000D03*
%TO.P,J1,13,Pin_13*%
%TO.N,/A0*%
X50800000Y-39370000D03*
%TO.P,J1,14,Pin_14*%
%TO.N,/A1*%
X53340000Y-39370000D03*
%TO.P,J1,15,Pin_15*%
%TO.N,/A2*%
X55880000Y-39370000D03*
%TO.P,J1,16,Pin_16*%
%TO.N,/A3*%
X58420000Y-39370000D03*
%TD*%
D13*
%TO.P,R2,1*%
%TO.N,Net-(N2-PadA)*%
X39370000Y-35090880D03*
D14*
%TO.P,R2,2*%
%TO.N,/A1*%
X49530000Y-35090880D03*
%TD*%
D12*
%TO.P,N1,0,0*%
%TO.N,/C0*%
X23657560Y-28722320D03*
%TO.P,N1,1,1*%
%TO.N,/C1*%
X27142440Y-28722320D03*
%TO.P,N1,2,2*%
%TO.N,/C2*%
X22910800Y-22590760D03*
%TO.P,N1,3,3*%
%TO.N,/C3*%
X29126180Y-25852120D03*
%TO.P,N1,4,4*%
%TO.N,/C4*%
X27889200Y-22590760D03*
%TO.P,N1,5,5*%
%TO.N,/C5*%
X26296620Y-21755100D03*
%TO.P,N1,6,6*%
%TO.N,/C6*%
X24503380Y-21755100D03*
%TO.P,N1,7,7*%
%TO.N,/C7*%
X28488640Y-27531060D03*
%TO.P,N1,8,8*%
%TO.N,/C8*%
X21673820Y-25852120D03*
%TO.P,N1,9,9*%
%TO.N,/C9*%
X22311360Y-27531060D03*
%TO.P,N1,A,A*%
%TO.N,Net-(N1-PadA)*%
X25400000Y-29154120D03*
%TO.P,N1,LHDP,LHDP*%
%TO.N,/CA*%
X21889720Y-24069040D03*
%TO.P,N1,RHDP,RHDP*%
%TO.N,/CB*%
X28910280Y-24069040D03*
%TD*%
D13*
%TO.P,R4,1*%
%TO.N,Net-(N4-PadA)*%
X77470000Y-34980880D03*
D14*
%TO.P,R4,2*%
%TO.N,/A3*%
X87630000Y-34980880D03*
%TD*%
D12*
%TO.P,N3,0,0*%
%TO.N,/C0*%
X61757560Y-28722320D03*
%TO.P,N3,1,1*%
%TO.N,/C1*%
X65242440Y-28722320D03*
%TO.P,N3,2,2*%
%TO.N,/C2*%
X61010800Y-22590760D03*
%TO.P,N3,3,3*%
%TO.N,/C3*%
X67226180Y-25852120D03*
%TO.P,N3,4,4*%
%TO.N,/C4*%
X65989200Y-22590760D03*
%TO.P,N3,5,5*%
%TO.N,/C5*%
X64396620Y-21755100D03*
%TO.P,N3,6,6*%
%TO.N,/C6*%
X62603380Y-21755100D03*
%TO.P,N3,7,7*%
%TO.N,/C7*%
X66588640Y-27531060D03*
%TO.P,N3,8,8*%
%TO.N,/C8*%
X59773820Y-25852120D03*
%TO.P,N3,9,9*%
%TO.N,/C9*%
X60411360Y-27531060D03*
%TO.P,N3,A,A*%
%TO.N,Net-(N3-PadA)*%
X63500000Y-29154120D03*
%TO.P,N3,LHDP,LHDP*%
%TO.N,/CA*%
X59989720Y-24069040D03*
%TO.P,N3,RHDP,RHDP*%
%TO.N,/CB*%
X67010280Y-24069040D03*
%TD*%
D17*
%TO.N,/C0*%
X41910000Y-17145000D03*
X72390000Y-17145000D03*
X76835000Y-17145000D03*
X60960000Y-17145000D03*
X39370000Y-17145000D03*
X58420000Y-17145000D03*
%TO.N,/C1*%
X38100000Y-27305000D03*
%TO.N,/C2*%
X44450000Y-19685000D03*
X79375000Y-19685000D03*
X74930000Y-19685000D03*
X63500000Y-19685000D03*
X36830000Y-19685000D03*
X55880000Y-19685000D03*
%TO.N,/C3*%
X64770000Y-33020000D03*
X68580000Y-33020000D03*
X45755000Y-33030500D03*
X32385000Y-33020000D03*
X49530000Y-33020000D03*
X86995000Y-33020000D03*
X83820000Y-33020000D03*
%TO.N,/C4*%
X69850000Y-31750000D03*
X66040000Y-31750000D03*
X33020000Y-31750000D03*
X46990000Y-31750000D03*
X50800000Y-31750000D03*
X88265000Y-31750000D03*
X85090000Y-31760500D03*
%TO.N,/C5*%
X70485000Y-31115000D03*
X47625000Y-31115000D03*
X33655000Y-31115000D03*
X88900000Y-31115000D03*
X66675000Y-31115000D03*
X51435000Y-31115000D03*
X85725000Y-31115000D03*
%TO.N,/C6*%
X75565000Y-20320000D03*
X36195000Y-20320000D03*
X64135000Y-20320000D03*
X55245000Y-20320000D03*
X45085000Y-20320000D03*
X80010000Y-20320000D03*
%TO.N,/C8*%
X78105000Y-18415000D03*
X38100000Y-18415000D03*
X73660000Y-18415000D03*
X57150000Y-18415000D03*
X43180000Y-18415000D03*
X62230000Y-18415000D03*
%TO.N,/C9*%
X57785000Y-17780000D03*
X38735000Y-17780000D03*
X77470000Y-17780000D03*
X73025000Y-17780000D03*
X42545000Y-17780000D03*
X61595000Y-17780000D03*
%TO.N,/CA*%
X78740000Y-19050000D03*
X56515000Y-19050000D03*
X43815000Y-19050000D03*
X62865000Y-19050000D03*
X37465000Y-19050000D03*
X74260000Y-19060500D03*
%TO.N,/CB*%
X84455000Y-32385000D03*
X87630000Y-32385000D03*
X69215000Y-32385000D03*
X50165000Y-32385000D03*
X46355000Y-32385000D03*
X65405000Y-32385000D03*
%TD*%
D18*
%TO.N,/C0*%
X59158412Y-28043412D02*
X58811160Y-27696160D01*
X41747440Y-28722320D02*
X42707560Y-28722320D01*
X41910000Y-17145000D02*
X58420000Y-17145000D01*
X60960000Y-17145000D02*
X72390000Y-17145000D01*
X76835000Y-25218790D02*
X76835000Y-17145000D01*
X77861160Y-27696160D02*
X78208412Y-28043412D01*
X60797440Y-28722320D02*
X61757560Y-28722320D01*
X41910000Y-17145000D02*
X40322500Y-18732500D01*
X40108412Y-28043412D02*
X39761160Y-27696160D01*
X21058412Y-28043412D02*
X20711160Y-27696160D01*
X60960000Y-17145000D02*
X59372500Y-18732500D01*
X23657560Y-33778476D02*
X23657560Y-29682440D01*
X22063767Y-37626232D02*
X20320000Y-39370000D01*
X19685000Y-22565064D02*
X19685000Y-25218790D01*
X79847440Y-28722320D02*
X80807560Y-28722320D01*
X38735000Y-25218790D02*
X38735000Y-22565064D01*
X25105064Y-17145000D02*
X39370000Y-17145000D01*
X57785000Y-25218790D02*
X57785000Y-22565064D01*
X22063766Y-37626231D02*
G75*
G03*
X23657560Y-33778476I-3847766J3847761D01*
G01*
X22697440Y-28722296D02*
G75*
G02*
X21058412Y-28043412I-40J2317896D01*
G01*
X57784986Y-22565064D02*
G75*
G02*
X59372501Y-18732501I5420114J-36D01*
G01*
X22697440Y-28722320D02*
G75*
G02*
X23657560Y-29682440I0J-960120D01*
G01*
X39761161Y-27696159D02*
G75*
G02*
X38735000Y-25218790I2477339J2477359D01*
G01*
X77861161Y-27696159D02*
G75*
G02*
X76835000Y-25218790I2477339J2477359D01*
G01*
X79847440Y-28722296D02*
G75*
G02*
X78208412Y-28043412I-40J2317896D01*
G01*
X21272501Y-18732501D02*
G75*
G02*
X25105064Y-17145000I3832559J-3832549D01*
G01*
X38734986Y-22565064D02*
G75*
G02*
X40322501Y-18732501I5420114J-36D01*
G01*
X19684999Y-22565064D02*
G75*
G02*
X21272500Y-18732500I5420051J4D01*
G01*
X41747440Y-28722296D02*
G75*
G02*
X40108412Y-28043412I-40J2317896D01*
G01*
X60797440Y-28722296D02*
G75*
G02*
X59158412Y-28043412I-40J2317896D01*
G01*
X58811161Y-27696159D02*
G75*
G02*
X57785000Y-25218790I2477339J2477359D01*
G01*
X20711161Y-27696159D02*
G75*
G02*
X19685000Y-25218790I2477339J2477359D01*
G01*
%TO.N,/C1*%
X76200000Y-20298732D02*
X76200000Y-25059935D01*
X61904880Y-30480000D02*
X62241892Y-30480000D01*
X60007500Y-16510000D02*
X72338431Y-16510000D01*
X22860000Y-38770560D02*
X22860000Y-39370000D01*
X25953720Y-29911040D02*
X27142440Y-28722320D01*
X40157856Y-29362856D02*
X38100000Y-27305000D01*
X64363600Y-29601160D02*
X65242440Y-28722320D01*
X59372500Y-16510000D02*
X60007500Y-16510000D01*
X24765000Y-34919081D02*
X24765000Y-32780863D01*
X73293675Y-16905675D02*
X75855828Y-19467828D01*
X23812499Y-37218619D02*
X23283868Y-37747251D01*
X45313600Y-29601160D02*
X46192440Y-28722320D01*
X39687500Y-18097500D02*
X40813919Y-16971081D01*
X38100000Y-26352500D02*
X38100000Y-26987500D01*
X38100000Y-26987500D02*
X38100000Y-27305000D01*
X78257856Y-29362856D02*
X77787500Y-28892500D01*
X58419999Y-18414999D02*
X59465493Y-17369506D01*
X83413600Y-29601160D02*
X84292440Y-28722320D01*
X57150000Y-25059935D02*
X57150000Y-21481051D01*
X80954880Y-30480000D02*
X81291892Y-30480000D01*
X59372500Y-16510000D02*
X41927067Y-16510000D01*
X59207856Y-29362856D02*
X58737500Y-28892500D01*
X38100000Y-26352500D02*
X38100000Y-21930064D01*
X42854880Y-30480000D02*
X43191892Y-30480000D01*
X22859978Y-38770560D02*
G75*
G02*
X23283868Y-37747251I1447222J-40D01*
G01*
X62241892Y-30479979D02*
G75*
G03*
X64363600Y-29601160I8J3000579D01*
G01*
X57150020Y-21481051D02*
G75*
G02*
X58419999Y-18414999I4335980J51D01*
G01*
X58737499Y-28892501D02*
G75*
G02*
X57150000Y-25059935I3832561J3832561D01*
G01*
X38099986Y-21930064D02*
G75*
G02*
X39687501Y-18097501I5420114J-36D01*
G01*
X61904880Y-30480004D02*
G75*
G02*
X59207856Y-29362856I20J3814204D01*
G01*
X80954880Y-30480004D02*
G75*
G02*
X78257856Y-29362856I20J3814204D01*
G01*
X42854880Y-30480004D02*
G75*
G02*
X40157856Y-29362856I20J3814204D01*
G01*
X23812500Y-37218620D02*
G75*
G03*
X24765000Y-34919081I-2299540J2299540D01*
G01*
X72338431Y-16509973D02*
G75*
G02*
X73293675Y-16905675I-31J-1350927D01*
G01*
X59372500Y-16510000D02*
G75*
G02*
X59690000Y-16827500I0J-317500D01*
G01*
X40813942Y-16971104D02*
G75*
G02*
X41927067Y-16510000I1113158J-1113096D01*
G01*
X81291892Y-30479979D02*
G75*
G03*
X83413600Y-29601160I8J3000579D01*
G01*
X43191892Y-30479979D02*
G75*
G03*
X45313600Y-29601160I8J3000579D01*
G01*
X24764962Y-32780863D02*
G75*
G02*
X25953720Y-29911040I4058538J-37D01*
G01*
X59690000Y-16827500D02*
G75*
G02*
X60007500Y-16510000I317500J0D01*
G01*
X59465491Y-17369504D02*
G75*
G03*
X59690000Y-16827500I-541991J542004D01*
G01*
X75855849Y-19467807D02*
G75*
G02*
X76200000Y-20298732I-830949J-830893D01*
G01*
X77787511Y-28892489D02*
G75*
G02*
X76200000Y-25059935I3832589J3832589D01*
G01*
%TO.N,/C2*%
X42529776Y-21217153D02*
X43924726Y-19822203D01*
X63500000Y-19685000D02*
X63305965Y-19685000D01*
X79375000Y-19685000D02*
X79375000Y-21420026D01*
X23479742Y-21217187D02*
X23961365Y-20735565D01*
X44450000Y-19685000D02*
X55880000Y-19685000D01*
X61579750Y-21217179D02*
X62974726Y-19822203D01*
X44450000Y-19685000D02*
X44255965Y-19685000D01*
X79717900Y-22247860D02*
X80060800Y-22590760D01*
X26497653Y-19685000D02*
X36830000Y-19685000D01*
X63500000Y-19685000D02*
X74930000Y-19685000D01*
X43924753Y-19822230D02*
G75*
G02*
X44255965Y-19685000I331247J-331170D01*
G01*
X79717920Y-22247840D02*
G75*
G02*
X79375000Y-21420026I827780J827840D01*
G01*
X22910828Y-22590760D02*
G75*
G02*
X23479742Y-21217187I1942472J60D01*
G01*
X61010828Y-22590760D02*
G75*
G02*
X61579750Y-21217179I1942472J60D01*
G01*
X23961349Y-20735549D02*
G75*
G02*
X26497653Y-19685000I2536251J-2536251D01*
G01*
X62974753Y-19822230D02*
G75*
G02*
X63305965Y-19685000I331247J-331170D01*
G01*
X41960787Y-22590760D02*
G75*
G02*
X42529777Y-21217154I1942613J-40D01*
G01*
%TO.N,/C3*%
X64770000Y-33020000D02*
X49530000Y-33020000D01*
X29128898Y-25854838D02*
X29126180Y-25852120D01*
X48895000Y-27587487D02*
X48895000Y-31486978D01*
X67945000Y-27587561D02*
X67945000Y-31487054D01*
X86995000Y-27587549D02*
X86995000Y-33020000D01*
X45755000Y-33030500D02*
X45749750Y-33025250D01*
X30929012Y-33020000D02*
X45737075Y-33020000D01*
X83820000Y-33020000D02*
X68580000Y-33020000D01*
X29845000Y-31935987D02*
X29845000Y-27583662D01*
X45737075Y-33020011D02*
G75*
G02*
X45749749Y-33025251I25J-17889D01*
G01*
X29845034Y-27583662D02*
G75*
G03*
X29128897Y-25854839I-2444934J-38D01*
G01*
X67945039Y-27587561D02*
G75*
G03*
X67226180Y-25852120I-2454339J-39D01*
G01*
X86994968Y-27587549D02*
G75*
G03*
X86276180Y-25852120I-2454268J49D01*
G01*
X49529992Y-33020008D02*
G75*
G02*
X48895000Y-31486978I1533008J1533008D01*
G01*
X30162496Y-32702504D02*
G75*
G02*
X29845000Y-31935987I766504J766504D01*
G01*
X30929012Y-33019994D02*
G75*
G02*
X30162500Y-32702500I-12J1083994D01*
G01*
X68579984Y-33020016D02*
G75*
G02*
X67945000Y-31487054I1532816J1532916D01*
G01*
X48894997Y-27587487D02*
G75*
G03*
X48176179Y-25852121I-2454197J-13D01*
G01*
%TO.N,/C4*%
X67784354Y-23334354D02*
X68127880Y-23677880D01*
X69215000Y-26302419D02*
X69215000Y-30216980D01*
X69850000Y-31750000D02*
X85072075Y-31750000D01*
X29684349Y-23334349D02*
X30027880Y-23677880D01*
X33020000Y-31750000D02*
X46990000Y-31750000D01*
X86834323Y-23334323D02*
X87177880Y-23677880D01*
X49077880Y-23677880D02*
X48734353Y-23334353D01*
X88265000Y-31750000D02*
X88265000Y-26302419D01*
X50800000Y-31750000D02*
X66040000Y-31750000D01*
X50165000Y-26302419D02*
X50165000Y-30216990D01*
X32198761Y-31749853D02*
X33019749Y-31749853D01*
X33020000Y-31750000D02*
X33019926Y-31749926D01*
X31115000Y-30666091D02*
X31115000Y-26302419D01*
X85090000Y-31760500D02*
X85084750Y-31755250D01*
X88264974Y-26302419D02*
G75*
G03*
X87177880Y-23677880I-3711674J19D01*
G01*
X65989200Y-22590775D02*
G75*
G02*
X67784354Y-23334354I0J-2538725D01*
G01*
X33019757Y-31749890D02*
G75*
G02*
X33019926Y-31749927I43J-210D01*
G01*
X85039200Y-22590746D02*
G75*
G02*
X86834322Y-23334324I0J-2538654D01*
G01*
X27889200Y-22590775D02*
G75*
G02*
X29684349Y-23334349I0J-2538725D01*
G01*
X31432414Y-31432438D02*
G75*
G02*
X31115000Y-30666091I766386J766338D01*
G01*
X69214974Y-26302419D02*
G75*
G03*
X68127880Y-23677880I-3711674J19D01*
G01*
X32198761Y-31749882D02*
G75*
G02*
X31432426Y-31432426I39J1083782D01*
G01*
X69849992Y-31750008D02*
G75*
G02*
X69215000Y-30216980I1533008J1533008D01*
G01*
X46939200Y-22590775D02*
G75*
G02*
X48734353Y-23334353I0J-2538725D01*
G01*
X50164974Y-26302419D02*
G75*
G03*
X49077880Y-23677880I-3711674J19D01*
G01*
X31114974Y-26302419D02*
G75*
G03*
X30027880Y-23677880I-3711674J19D01*
G01*
X85072075Y-31750011D02*
G75*
G02*
X85084749Y-31755251I25J-17889D01*
G01*
X50799992Y-31750008D02*
G75*
G02*
X50165000Y-30216990I1533008J1533008D01*
G01*
%TO.N,/C5*%
X31783937Y-30088921D02*
X31783937Y-26269556D01*
X67592233Y-21872233D02*
X68378070Y-22658070D01*
X65770207Y-21186141D02*
X65935860Y-21186141D01*
X32810015Y-31115000D02*
X33655000Y-31115000D01*
X86642233Y-21872233D02*
X87428070Y-22658070D01*
X69850000Y-26211622D02*
X69850000Y-29581942D01*
X33655000Y-31115000D02*
X47625000Y-31115000D01*
X70485000Y-31115000D02*
X85725000Y-31115000D01*
X51435000Y-31115000D02*
X66675000Y-31115000D01*
X29492233Y-21872233D02*
X30295039Y-22675039D01*
X84820236Y-21186141D02*
X84985860Y-21186141D01*
X50800000Y-26211622D02*
X50800000Y-29581981D01*
X48542233Y-21872233D02*
X49328070Y-22658070D01*
X27835860Y-21186141D02*
X27670224Y-21186141D01*
X88900000Y-31115000D02*
X88900000Y-26211622D01*
X46885860Y-21186141D02*
X46720224Y-21186141D01*
X32810015Y-31114982D02*
G75*
G02*
X32084468Y-30814468I-15J1026082D01*
G01*
X31783961Y-26269556D02*
G75*
G03*
X30295039Y-22675039I-5083461J-44D01*
G01*
X32084482Y-30814454D02*
G75*
G02*
X31783937Y-30088921I725518J725554D01*
G01*
X88899978Y-26211622D02*
G75*
G03*
X87428070Y-22658070I-5025478J22D01*
G01*
X84985860Y-21186168D02*
G75*
G02*
X86642233Y-21872233I40J-2342432D01*
G01*
X70485022Y-31114978D02*
G75*
G02*
X69850000Y-29581942I1533078J1533078D01*
G01*
X27835860Y-21186168D02*
G75*
G02*
X29492233Y-21872233I40J-2342432D01*
G01*
X26296613Y-21755093D02*
G75*
G02*
X27670224Y-21186141I1373587J-1373607D01*
G01*
X64396613Y-21755093D02*
G75*
G02*
X65770207Y-21186141I1373587J-1373607D01*
G01*
X51434992Y-31115008D02*
G75*
G02*
X50800000Y-29581981I1533008J1533008D01*
G01*
X46885860Y-21186168D02*
G75*
G02*
X48542233Y-21872233I40J-2342432D01*
G01*
X69849978Y-26211622D02*
G75*
G03*
X68378070Y-22658070I-5025478J22D01*
G01*
X83446613Y-21755093D02*
G75*
G02*
X84820236Y-21186141I1373587J-1373607D01*
G01*
X50799978Y-26211622D02*
G75*
G03*
X49328070Y-22658070I-5025478J22D01*
G01*
X65935860Y-21186168D02*
G75*
G02*
X67592233Y-21872233I40J-2342432D01*
G01*
X45346613Y-21755093D02*
G75*
G02*
X46720224Y-21186141I1373587J-1373607D01*
G01*
%TO.N,/C6*%
X80010000Y-20637500D02*
X80010000Y-20320000D01*
X64135000Y-20320000D02*
X75565000Y-20320000D01*
X80511955Y-21456955D02*
X80234506Y-21179506D01*
X25220930Y-21037550D02*
X24503380Y-21755100D01*
X64004355Y-20354124D02*
X62603380Y-21755100D01*
X81231740Y-21755100D02*
X81653380Y-21755100D01*
X44954355Y-20354124D02*
X43553380Y-21755100D01*
X45085000Y-20320000D02*
X55245000Y-20320000D01*
X64135000Y-20320000D02*
X64086740Y-20320000D01*
X36195000Y-20320000D02*
X26953248Y-20320000D01*
X45085000Y-20320000D02*
X45036740Y-20320000D01*
X80234509Y-21179503D02*
G75*
G02*
X80010000Y-20637500I541991J542003D01*
G01*
X44954338Y-20354107D02*
G75*
G02*
X45036740Y-20320000I82362J-82393D01*
G01*
X25220899Y-21037519D02*
G75*
G02*
X26953248Y-20320000I1732301J-1732381D01*
G01*
X81231740Y-21755080D02*
G75*
G02*
X80511955Y-21456955I-40J1017880D01*
G01*
X64004338Y-20354107D02*
G75*
G02*
X64086740Y-20320000I82362J-82393D01*
G01*
%TO.N,/C7*%
X48260000Y-33020000D02*
X48260000Y-33337500D01*
X37782500Y-33655000D02*
X30294012Y-33655000D01*
X48260000Y-29272674D02*
X48260000Y-33020000D01*
X67310000Y-33337500D02*
X67310000Y-33020000D01*
X38417500Y-33655000D02*
X47942500Y-33655000D01*
X86360000Y-32570987D02*
X86360000Y-29272616D01*
X37782500Y-33655000D02*
X38417500Y-33655000D01*
X38100000Y-33972500D02*
X38100000Y-39370000D01*
X29210000Y-32570987D02*
X29210000Y-29272559D01*
X85275987Y-33655000D02*
X67627500Y-33655000D01*
X48577500Y-33655000D02*
X47942500Y-33655000D01*
X67627500Y-33655000D02*
X66992500Y-33655000D01*
X66992500Y-33655000D02*
X48577500Y-33655000D01*
X67310000Y-31115000D02*
X67310000Y-33020000D01*
X67310000Y-29272606D02*
X67310000Y-31115000D01*
X85275987Y-33654994D02*
G75*
G03*
X86042500Y-33337500I13J1083994D01*
G01*
X29210038Y-29272559D02*
G75*
G03*
X28488639Y-27531061I-2462838J-41D01*
G01*
X48260000Y-33337500D02*
G75*
G02*
X47942500Y-33655000I-317500J0D01*
G01*
X67627500Y-33655000D02*
G75*
G02*
X67310000Y-33337500I0J317500D01*
G01*
X29527496Y-33337504D02*
G75*
G02*
X29210000Y-32570987I766504J766504D01*
G01*
X48260021Y-29272674D02*
G75*
G03*
X47538640Y-27531060I-2463121J-26D01*
G01*
X37782500Y-33655000D02*
G75*
G02*
X38100000Y-33972500I0J-317500D01*
G01*
X38100000Y-33972500D02*
G75*
G02*
X38417500Y-33655000I317500J0D01*
G01*
X30294012Y-33654994D02*
G75*
G02*
X29527500Y-33337500I-12J1083994D01*
G01*
X48577500Y-33655000D02*
G75*
G02*
X48260000Y-33337500I0J317500D01*
G01*
X67310009Y-29272606D02*
G75*
G03*
X66588640Y-27531060I-2462909J6D01*
G01*
X86042504Y-33337504D02*
G75*
G03*
X86360000Y-32570987I-766504J766504D01*
G01*
X67310000Y-33337500D02*
G75*
G02*
X66992500Y-33655000I-317500J0D01*
G01*
X86359980Y-29272616D02*
G75*
G03*
X85638640Y-27531060I-2462980J16D01*
G01*
%TO.N,/C8*%
X78105000Y-24116801D02*
X78105000Y-23177500D01*
X60307745Y-20337254D02*
X62230000Y-18415000D01*
X41257745Y-20337254D02*
X43180000Y-18415000D01*
X40005000Y-23361650D02*
X40005000Y-24116658D01*
X38100000Y-18415000D02*
X26375064Y-18415000D01*
X62230000Y-18415000D02*
X73660000Y-18415000D01*
X78105000Y-20002500D02*
X78105000Y-23177500D01*
X78105000Y-18415000D02*
X78105000Y-20002500D01*
X22207745Y-20337254D02*
X22542500Y-20002500D01*
X43180000Y-18415000D02*
X57150000Y-18415000D01*
X20955000Y-24116700D02*
X20955000Y-23361650D01*
X59055000Y-23361650D02*
X59055000Y-24116835D01*
X59055023Y-23361650D02*
G75*
G02*
X60307745Y-20337254I4277077J50D01*
G01*
X40005023Y-23361650D02*
G75*
G02*
X41257745Y-20337254I4277077J50D01*
G01*
X40723797Y-25852143D02*
G75*
G02*
X40005000Y-24116658I1735603J1735443D01*
G01*
X20955023Y-23361650D02*
G75*
G02*
X22207745Y-20337254I4277077J50D01*
G01*
X22542501Y-20002501D02*
G75*
G02*
X26375064Y-18415000I3832559J-3832549D01*
G01*
X59773830Y-25852110D02*
G75*
G02*
X59055000Y-24116835I1735170J1735310D01*
G01*
X21673818Y-25852122D02*
G75*
G02*
X20955000Y-24116700I1735482J1735422D01*
G01*
X78823830Y-25852110D02*
G75*
G02*
X78105000Y-24116801I1735170J1735310D01*
G01*
%TO.N,/C9*%
X39370000Y-25505185D02*
X39370000Y-23200064D01*
X73025000Y-17780000D02*
X61595000Y-17780000D01*
X60007500Y-19367500D02*
X61595000Y-17780000D01*
X58420000Y-23200064D02*
X58420000Y-25505185D01*
X20320000Y-25505185D02*
X20320000Y-23200064D01*
X20937719Y-26962049D02*
X20913365Y-26937695D01*
X39963365Y-26937695D02*
X40272250Y-27246580D01*
X40957500Y-19367500D02*
X42545000Y-17780000D01*
X40959045Y-27531060D02*
X41361360Y-27531060D01*
X25740064Y-17780000D02*
X38735000Y-17780000D01*
X77470000Y-17780000D02*
X77470000Y-25505185D01*
X42545000Y-17780000D02*
X57785000Y-17780000D01*
X59037796Y-26962126D02*
X59013365Y-26937695D01*
X78087766Y-26962096D02*
X78063365Y-26937695D01*
X20913352Y-26937708D02*
G75*
G02*
X20320000Y-25505185I1432548J1432508D01*
G01*
X22311360Y-27531026D02*
G75*
G02*
X20937719Y-26962049I40J1942726D01*
G01*
X20319999Y-23200064D02*
G75*
G02*
X21907500Y-19367500I5420051J4D01*
G01*
X58419986Y-23200064D02*
G75*
G02*
X60007501Y-19367501I5420114J-36D01*
G01*
X39369986Y-23200064D02*
G75*
G02*
X40957501Y-19367501I5420114J-36D01*
G01*
X21907501Y-19367501D02*
G75*
G02*
X25740064Y-17780000I3832559J-3832549D01*
G01*
X60411360Y-27531043D02*
G75*
G02*
X59037796Y-26962126I-60J1942443D01*
G01*
X40959045Y-27531032D02*
G75*
G02*
X40272250Y-27246580I-45J971232D01*
G01*
X79461360Y-27531084D02*
G75*
G02*
X78087767Y-26962095I40J1942584D01*
G01*
X39963352Y-26937708D02*
G75*
G02*
X39370000Y-25505185I1432548J1432508D01*
G01*
X59013352Y-26937708D02*
G75*
G02*
X58420000Y-25505185I1432548J1432508D01*
G01*
X78063352Y-26937708D02*
G75*
G02*
X77470000Y-25505185I1432548J1432508D01*
G01*
%TO.N,/A0*%
X31750000Y-39627107D02*
X31750000Y-38998025D01*
X50129440Y-40040560D02*
X50800000Y-39370000D01*
X32834012Y-40711120D02*
X48510564Y-40711120D01*
X30480000Y-35931974D02*
X30480000Y-34925000D01*
X32834012Y-40711108D02*
G75*
G02*
X32067501Y-40393619I-12J1084008D01*
G01*
X48510564Y-40711099D02*
G75*
G03*
X50129440Y-40040560I36J2289399D01*
G01*
X31114992Y-37465008D02*
G75*
G02*
X30480000Y-35931974I1533008J1533008D01*
G01*
X31749989Y-38998025D02*
G75*
G03*
X31115000Y-37465000I-2167989J25D01*
G01*
X32067506Y-40393614D02*
G75*
G02*
X31750000Y-39627107I766494J766514D01*
G01*
%TO.N,/CA*%
X22338199Y-21476800D02*
X23177500Y-20637500D01*
X78740000Y-19050000D02*
X78740000Y-23208102D01*
X56515000Y-19050000D02*
X43815000Y-19050000D01*
X74249500Y-19050000D02*
X74260000Y-19060500D01*
X59989720Y-23931880D02*
X59989720Y-24069040D01*
X43815000Y-19050000D02*
X41335281Y-21529718D01*
X62865000Y-19050000D02*
X74249500Y-19050000D01*
X59839860Y-23644860D02*
X59892733Y-23697733D01*
X37465000Y-19050000D02*
X27010064Y-19050000D01*
X62865000Y-19050000D02*
X60438158Y-21476841D01*
X21792733Y-23697733D02*
X21739825Y-23644825D01*
X79039720Y-23931880D02*
X79039720Y-24069040D01*
X21889720Y-23931880D02*
X21889720Y-24069040D01*
X40939720Y-23931880D02*
X40939720Y-24069040D01*
X21590006Y-23283065D02*
G75*
G02*
X22338199Y-21476800I2554494J-35D01*
G01*
X59839833Y-23644887D02*
G75*
G02*
X59690000Y-23283065I361867J361787D01*
G01*
X40639972Y-23208302D02*
G75*
G02*
X41335282Y-21529719I2373828J2D01*
G01*
X40939738Y-23931880D02*
G75*
G03*
X40842733Y-23697733I-331138J-20D01*
G01*
X40842724Y-23697742D02*
G75*
G02*
X40640000Y-23208302I489476J489442D01*
G01*
X21889738Y-23931880D02*
G75*
G03*
X21792733Y-23697733I-331138J-20D01*
G01*
X78942741Y-23697725D02*
G75*
G02*
X78740000Y-23208102I489859J489625D01*
G01*
X59689977Y-23283065D02*
G75*
G02*
X60438159Y-21476842I2554423J-35D01*
G01*
X23177501Y-20637501D02*
G75*
G02*
X27010064Y-19050000I3832559J-3832549D01*
G01*
X79039738Y-23931880D02*
G75*
G03*
X78942733Y-23697733I-331138J-20D01*
G01*
X59989738Y-23931880D02*
G75*
G03*
X59892733Y-23697733I-331138J-20D01*
G01*
X21739840Y-23644810D02*
G75*
G02*
X21590000Y-23283065I361660J361710D01*
G01*
%TO.N,/CB*%
X49530000Y-30851996D02*
X49530000Y-26748719D01*
X87630000Y-32385000D02*
X87630000Y-26748719D01*
X30480000Y-31300987D02*
X30480000Y-26748719D01*
X29695140Y-24853900D02*
X28910280Y-24069040D01*
X86845140Y-24853900D02*
X86060280Y-24069040D01*
X68580000Y-30851996D02*
X68580000Y-26748719D01*
X69215000Y-32385000D02*
X84455000Y-32385000D01*
X46355000Y-32385000D02*
X31564012Y-32385000D01*
X67795140Y-24853900D02*
X67010280Y-24069040D01*
X50165000Y-32385000D02*
X65405000Y-32385000D01*
X48745140Y-24853900D02*
X47960280Y-24069040D01*
X31564012Y-32384994D02*
G75*
G02*
X30797500Y-32067500I-12J1083994D01*
G01*
X69214992Y-32385008D02*
G75*
G02*
X68580000Y-30851996I1533008J1533008D01*
G01*
X68579980Y-26748719D02*
G75*
G03*
X67795140Y-24853900I-2679680J19D01*
G01*
X50164992Y-32385008D02*
G75*
G02*
X49530000Y-30851996I1533008J1533008D01*
G01*
X49529980Y-26748719D02*
G75*
G03*
X48745140Y-24853900I-2679680J19D01*
G01*
X87629980Y-26748719D02*
G75*
G03*
X86845140Y-24853900I-2679680J19D01*
G01*
X30797496Y-32067504D02*
G75*
G02*
X30480000Y-31300987I766504J766504D01*
G01*
X30479980Y-26748719D02*
G75*
G03*
X29695140Y-24853900I-2679680J19D01*
G01*
%TO.N,/A1*%
X49530000Y-36452107D02*
X49530000Y-35090880D01*
X53340000Y-38620132D02*
X53340000Y-39370000D01*
X50614012Y-37536120D02*
X52255987Y-37536120D01*
X50614012Y-37536108D02*
G75*
G02*
X49847501Y-37218619I-12J1084008D01*
G01*
X52255987Y-37536120D02*
G75*
G02*
X53022500Y-37853620I13J-1083980D01*
G01*
X53339980Y-38620132D02*
G75*
G03*
X53022500Y-37853620I-1083980J32D01*
G01*
X49847506Y-37218614D02*
G75*
G02*
X49530000Y-36452107I766494J766514D01*
G01*
%TO.N,/A2*%
X58048025Y-36901120D02*
X67495987Y-36901120D01*
X68580000Y-35817107D02*
X68580000Y-34925000D01*
X55880000Y-38770560D02*
X55880000Y-39370000D01*
X56514999Y-37536119D02*
X56303868Y-37747251D01*
X55879978Y-38770560D02*
G75*
G02*
X56303868Y-37747251I1447222J-40D01*
G01*
X68262494Y-36583614D02*
G75*
G03*
X68580000Y-35817107I-766494J766514D01*
G01*
X56514997Y-37536117D02*
G75*
G02*
X58048025Y-36901120I1533003J-1532983D01*
G01*
X67495987Y-36901108D02*
G75*
G03*
X68262499Y-36583619I13J1084008D01*
G01*
%TO.N,/A3*%
X59504012Y-37536120D02*
X86545987Y-37536120D01*
X87630000Y-36452107D02*
X87630000Y-34980880D01*
X58420000Y-38620132D02*
X58420000Y-39370000D01*
X87312494Y-37218614D02*
G75*
G03*
X87630000Y-36452107I-766494J766514D01*
G01*
X86545987Y-37536108D02*
G75*
G03*
X87312499Y-37218619I13J1084008D01*
G01*
X58420020Y-38620132D02*
G75*
G02*
X58737500Y-37853620I1083980J32D01*
G01*
X58737500Y-37853620D02*
G75*
G02*
X59504012Y-37536120I766500J-766480D01*
G01*
%TD*%
M02*
