M48
; DRILL file {KiCad (6.0.5)} date Wed 25 May 2022 01:16:23 AM EDT
; FORMAT={-:-/ absolute / inch / decimal}
; #@! TF.CreationDate,2022-05-25T01:16:23-04:00
; #@! TF.GenerationSoftware,Kicad,Pcbnew,(6.0.5)
; #@! TF.FileFunction,MixedPlating,1,2
FMAT,2
INCH
; #@! TA.AperFunction,Plated,PTH,ViaDrill
T1C0.0118
; #@! TA.AperFunction,Plated,PTH,ComponentDrill
T2C0.0300
; #@! TA.AperFunction,Plated,PTH,ComponentDrill
T3C0.0315
; #@! TA.AperFunction,Plated,PTH,ComponentDrill
T4C0.0394
%
G90
G05
T1
X1.275Y-1.3
X1.3Y-1.25
X1.325Y-1.225
X1.425Y-0.8
X1.45Y-0.775
X1.475Y-0.75
X1.5Y-0.725
X1.5Y-1.075
X1.525Y-0.7
X1.55Y-0.675
X1.65Y-0.675
X1.675Y-0.7
X1.7Y-0.725
X1.725Y-0.75
X1.75Y-0.775
X1.775Y-0.8
X1.8014Y-1.3004
X1.825Y-1.275
X1.85Y-1.25
X1.875Y-1.225
X1.95Y-1.3
X1.975Y-1.275
X2.0Y-1.25
X2.025Y-1.225
X2.175Y-0.8
X2.2Y-0.775
X2.225Y-0.75
X2.25Y-0.725
X2.275Y-0.7
X2.3Y-0.675
X2.4Y-0.675
X2.425Y-0.7
X2.45Y-0.725
X2.475Y-0.75
X2.5Y-0.775
X2.525Y-0.8
X2.55Y-1.3
X2.575Y-1.275
X2.6Y-1.25
X2.625Y-1.225
X2.7Y-1.3
X2.725Y-1.275
X2.75Y-1.25
X2.775Y-1.225
X2.85Y-0.675
X2.875Y-0.7
X2.9Y-0.725
X2.9236Y-0.7504
X2.95Y-0.775
X2.975Y-0.8
X3.025Y-0.675
X3.05Y-0.7
X3.075Y-0.725
X3.1Y-0.75
X3.125Y-0.775
X3.15Y-0.8
X3.3Y-1.3
X3.325Y-1.275
X3.35Y-1.2504
X3.375Y-1.225
X3.425Y-1.3
X3.45Y-1.275
X3.475Y-1.25
X3.5Y-1.225
T2
X0.8533Y-1.0178
X0.8618Y-0.9476
X0.8784Y-1.0839
X0.902Y-0.8894
X0.9314Y-1.1308
X0.9647Y-0.8565
X1.0Y-1.1478
X1.0353Y-0.8565
X1.0686Y-1.1308
X1.098Y-0.8894
X1.1216Y-1.0839
X1.1382Y-0.9476
X1.1467Y-1.0178
X1.6033Y-1.0178
X1.6118Y-0.9476
X1.6284Y-1.0839
X1.652Y-0.8894
X1.6814Y-1.1308
X1.7147Y-0.8565
X1.75Y-1.1478
X1.7853Y-0.8565
X1.8186Y-1.1308
X1.848Y-0.8894
X1.8716Y-1.0839
X1.8882Y-0.9476
X1.8967Y-1.0178
X2.3533Y-1.0178
X2.3618Y-0.9476
X2.3784Y-1.0839
X2.402Y-0.8894
X2.4314Y-1.1308
X2.4647Y-0.8565
X2.5Y-1.1478
X2.5353Y-0.8565
X2.5686Y-1.1308
X2.598Y-0.8894
X2.6216Y-1.0839
X2.6382Y-0.9476
X2.6467Y-1.0178
X3.1033Y-1.0178
X3.1118Y-0.9476
X3.1284Y-1.0839
X3.152Y-0.8894
X3.1814Y-1.1308
X3.2147Y-0.8565
X3.25Y-1.1478
X3.2853Y-0.8565
X3.3186Y-1.1308
X3.348Y-0.8894
X3.3716Y-1.0839
X3.3882Y-0.9476
X3.3967Y-1.0178
T3
X0.8Y-1.375
X1.2Y-1.375
X1.55Y-1.3815
X1.95Y-1.3815
X2.3Y-1.375
X2.7Y-1.375
X3.05Y-1.3772
X3.45Y-1.3772
T4
X0.8Y-1.55
X0.9Y-1.55
X1.0Y-1.55
X1.1Y-1.55
X1.2Y-1.55
X1.3Y-1.55
X1.4Y-1.55
X1.5Y-1.55
X1.6Y-1.55
X1.7Y-1.55
X1.8Y-1.55
X1.9Y-1.55
X2.0Y-1.55
X2.1Y-1.55
X2.2Y-1.55
X2.3Y-1.55
T0
M30
