%TF.GenerationSoftware,KiCad,Pcbnew,(6.0.5)*%
%TF.CreationDate,2022-05-25T01:16:54-04:00*%
%TF.ProjectId,in-16-carrier-rounded,696e2d31-362d-4636-9172-726965722d72,rev?*%
%TF.SameCoordinates,Original*%
%TF.FileFunction,Soldermask,Bot*%
%TF.FilePolarity,Negative*%
%FSLAX46Y46*%
G04 Gerber Fmt 4.6, Leading zero omitted, Abs format (unit mm)*
G04 Created by KiCad (PCBNEW (6.0.5)) date 2022-05-25 01:16:54*
%MOMM*%
%LPD*%
G01*
G04 APERTURE LIST*
%ADD10C,1.137920*%
%ADD11C,1.600000*%
%ADD12O,1.600000X1.600000*%
%ADD13R,1.700000X1.700000*%
%ADD14O,1.700000X1.700000*%
G04 APERTURE END LIST*
D10*
%TO.C,N2*%
X42707560Y-28722320D03*
X46192440Y-28722320D03*
X41960800Y-22590760D03*
X48176180Y-25852120D03*
X46939200Y-22590760D03*
X45346620Y-21755100D03*
X43553380Y-21755100D03*
X47538640Y-27531060D03*
X40723820Y-25852120D03*
X41361360Y-27531060D03*
X44450000Y-29154120D03*
X40939720Y-24069040D03*
X47960280Y-24069040D03*
%TD*%
D11*
%TO.C,R3*%
X58420000Y-34925000D03*
D12*
X68580000Y-34925000D03*
%TD*%
D11*
%TO.C,R1*%
X20320000Y-34925000D03*
D12*
X30480000Y-34925000D03*
%TD*%
D10*
%TO.C,N4*%
X80807560Y-28722320D03*
X84292440Y-28722320D03*
X80060800Y-22590760D03*
X86276180Y-25852120D03*
X85039200Y-22590760D03*
X83446620Y-21755100D03*
X81653380Y-21755100D03*
X85638640Y-27531060D03*
X78823820Y-25852120D03*
X79461360Y-27531060D03*
X82550000Y-29154120D03*
X79039720Y-24069040D03*
X86060280Y-24069040D03*
%TD*%
D13*
%TO.C,J1*%
X20320000Y-39370000D03*
D14*
X22860000Y-39370000D03*
X25400000Y-39370000D03*
X27940000Y-39370000D03*
X30480000Y-39370000D03*
X33020000Y-39370000D03*
X35560000Y-39370000D03*
X38100000Y-39370000D03*
X40640000Y-39370000D03*
X43180000Y-39370000D03*
X45720000Y-39370000D03*
X48260000Y-39370000D03*
X50800000Y-39370000D03*
X53340000Y-39370000D03*
X55880000Y-39370000D03*
X58420000Y-39370000D03*
%TD*%
D11*
%TO.C,R2*%
X39370000Y-35090880D03*
D12*
X49530000Y-35090880D03*
%TD*%
D10*
%TO.C,N1*%
X23657560Y-28722320D03*
X27142440Y-28722320D03*
X22910800Y-22590760D03*
X29126180Y-25852120D03*
X27889200Y-22590760D03*
X26296620Y-21755100D03*
X24503380Y-21755100D03*
X28488640Y-27531060D03*
X21673820Y-25852120D03*
X22311360Y-27531060D03*
X25400000Y-29154120D03*
X21889720Y-24069040D03*
X28910280Y-24069040D03*
%TD*%
D11*
%TO.C,R4*%
X77470000Y-34980880D03*
D12*
X87630000Y-34980880D03*
%TD*%
D10*
%TO.C,N3*%
X61757560Y-28722320D03*
X65242440Y-28722320D03*
X61010800Y-22590760D03*
X67226180Y-25852120D03*
X65989200Y-22590760D03*
X64396620Y-21755100D03*
X62603380Y-21755100D03*
X66588640Y-27531060D03*
X59773820Y-25852120D03*
X60411360Y-27531060D03*
X63500000Y-29154120D03*
X59989720Y-24069040D03*
X67010280Y-24069040D03*
%TD*%
M02*
