%TF.GenerationSoftware,KiCad,Pcbnew,(6.0.5)*%
%TF.CreationDate,2022-05-25T01:16:54-04:00*%
%TF.ProjectId,in-16-carrier-rounded,696e2d31-362d-4636-9172-726965722d72,rev?*%
%TF.SameCoordinates,Original*%
%TF.FileFunction,Soldermask,Top*%
%TF.FilePolarity,Negative*%
%FSLAX46Y46*%
G04 Gerber Fmt 4.6, Leading zero omitted, Abs format (unit mm)*
G04 Created by KiCad (PCBNEW (6.0.5)) date 2022-05-25 01:16:54*
%MOMM*%
%LPD*%
G01*
G04 APERTURE LIST*
%ADD10C,0.200000*%
%ADD11C,1.137920*%
%ADD12C,1.600000*%
%ADD13O,1.600000X1.600000*%
%ADD14R,1.700000X1.700000*%
%ADD15O,1.700000X1.700000*%
G04 APERTURE END LIST*
D10*
X64692142Y-40547857D02*
X64692142Y-39347857D01*
X65263571Y-40547857D02*
X65263571Y-39347857D01*
X65949285Y-40547857D01*
X65949285Y-39347857D01*
X66520714Y-40090714D02*
X67435000Y-40090714D01*
X68635000Y-40547857D02*
X67949285Y-40547857D01*
X68292142Y-40547857D02*
X68292142Y-39347857D01*
X68177857Y-39519285D01*
X68063571Y-39633571D01*
X67949285Y-39690714D01*
X69663571Y-39347857D02*
X69435000Y-39347857D01*
X69320714Y-39405000D01*
X69263571Y-39462142D01*
X69149285Y-39633571D01*
X69092142Y-39862142D01*
X69092142Y-40319285D01*
X69149285Y-40433571D01*
X69206428Y-40490714D01*
X69320714Y-40547857D01*
X69549285Y-40547857D01*
X69663571Y-40490714D01*
X69720714Y-40433571D01*
X69777857Y-40319285D01*
X69777857Y-40033571D01*
X69720714Y-39919285D01*
X69663571Y-39862142D01*
X69549285Y-39805000D01*
X69320714Y-39805000D01*
X69206428Y-39862142D01*
X69149285Y-39919285D01*
X69092142Y-40033571D01*
X71892142Y-40433571D02*
X71835000Y-40490714D01*
X71663571Y-40547857D01*
X71549285Y-40547857D01*
X71377857Y-40490714D01*
X71263571Y-40376428D01*
X71206428Y-40262142D01*
X71149285Y-40033571D01*
X71149285Y-39862142D01*
X71206428Y-39633571D01*
X71263571Y-39519285D01*
X71377857Y-39405000D01*
X71549285Y-39347857D01*
X71663571Y-39347857D01*
X71835000Y-39405000D01*
X71892142Y-39462142D01*
X72920714Y-40547857D02*
X72920714Y-39919285D01*
X72863571Y-39805000D01*
X72749285Y-39747857D01*
X72520714Y-39747857D01*
X72406428Y-39805000D01*
X72920714Y-40490714D02*
X72806428Y-40547857D01*
X72520714Y-40547857D01*
X72406428Y-40490714D01*
X72349285Y-40376428D01*
X72349285Y-40262142D01*
X72406428Y-40147857D01*
X72520714Y-40090714D01*
X72806428Y-40090714D01*
X72920714Y-40033571D01*
X73492142Y-40547857D02*
X73492142Y-39747857D01*
X73492142Y-39976428D02*
X73549285Y-39862142D01*
X73606428Y-39805000D01*
X73720714Y-39747857D01*
X73835000Y-39747857D01*
X74235000Y-40547857D02*
X74235000Y-39747857D01*
X74235000Y-39976428D02*
X74292142Y-39862142D01*
X74349285Y-39805000D01*
X74463571Y-39747857D01*
X74577857Y-39747857D01*
X74977857Y-40547857D02*
X74977857Y-39747857D01*
X74977857Y-39347857D02*
X74920714Y-39405000D01*
X74977857Y-39462142D01*
X75035000Y-39405000D01*
X74977857Y-39347857D01*
X74977857Y-39462142D01*
X76006428Y-40490714D02*
X75892142Y-40547857D01*
X75663571Y-40547857D01*
X75549285Y-40490714D01*
X75492142Y-40376428D01*
X75492142Y-39919285D01*
X75549285Y-39805000D01*
X75663571Y-39747857D01*
X75892142Y-39747857D01*
X76006428Y-39805000D01*
X76063571Y-39919285D01*
X76063571Y-40033571D01*
X75492142Y-40147857D01*
X76577857Y-40547857D02*
X76577857Y-39747857D01*
X76577857Y-39976428D02*
X76635000Y-39862142D01*
X76692142Y-39805000D01*
X76806428Y-39747857D01*
X76920714Y-39747857D01*
X78635000Y-39919285D02*
X78806428Y-39976428D01*
X78863571Y-40033571D01*
X78920714Y-40147857D01*
X78920714Y-40319285D01*
X78863571Y-40433571D01*
X78806428Y-40490714D01*
X78692142Y-40547857D01*
X78235000Y-40547857D01*
X78235000Y-39347857D01*
X78635000Y-39347857D01*
X78749285Y-39405000D01*
X78806428Y-39462142D01*
X78863571Y-39576428D01*
X78863571Y-39690714D01*
X78806428Y-39805000D01*
X78749285Y-39862142D01*
X78635000Y-39919285D01*
X78235000Y-39919285D01*
X79606428Y-40547857D02*
X79492142Y-40490714D01*
X79435000Y-40433571D01*
X79377857Y-40319285D01*
X79377857Y-39976428D01*
X79435000Y-39862142D01*
X79492142Y-39805000D01*
X79606428Y-39747857D01*
X79777857Y-39747857D01*
X79892142Y-39805000D01*
X79949285Y-39862142D01*
X80006428Y-39976428D01*
X80006428Y-40319285D01*
X79949285Y-40433571D01*
X79892142Y-40490714D01*
X79777857Y-40547857D01*
X79606428Y-40547857D01*
X81035000Y-40547857D02*
X81035000Y-39919285D01*
X80977857Y-39805000D01*
X80863571Y-39747857D01*
X80635000Y-39747857D01*
X80520714Y-39805000D01*
X81035000Y-40490714D02*
X80920714Y-40547857D01*
X80635000Y-40547857D01*
X80520714Y-40490714D01*
X80463571Y-40376428D01*
X80463571Y-40262142D01*
X80520714Y-40147857D01*
X80635000Y-40090714D01*
X80920714Y-40090714D01*
X81035000Y-40033571D01*
X81606428Y-40547857D02*
X81606428Y-39747857D01*
X81606428Y-39976428D02*
X81663571Y-39862142D01*
X81720714Y-39805000D01*
X81835000Y-39747857D01*
X81949285Y-39747857D01*
X82863571Y-40547857D02*
X82863571Y-39347857D01*
X82863571Y-40490714D02*
X82749285Y-40547857D01*
X82520714Y-40547857D01*
X82406428Y-40490714D01*
X82349285Y-40433571D01*
X82292142Y-40319285D01*
X82292142Y-39976428D01*
X82349285Y-39862142D01*
X82406428Y-39805000D01*
X82520714Y-39747857D01*
X82749285Y-39747857D01*
X82863571Y-39805000D01*
X85035000Y-40547857D02*
X84635000Y-39976428D01*
X84349285Y-40547857D02*
X84349285Y-39347857D01*
X84806428Y-39347857D01*
X84920714Y-39405000D01*
X84977857Y-39462142D01*
X85035000Y-39576428D01*
X85035000Y-39747857D01*
X84977857Y-39862142D01*
X84920714Y-39919285D01*
X84806428Y-39976428D01*
X84349285Y-39976428D01*
X86006428Y-40490714D02*
X85892142Y-40547857D01*
X85663571Y-40547857D01*
X85549285Y-40490714D01*
X85492142Y-40376428D01*
X85492142Y-39919285D01*
X85549285Y-39805000D01*
X85663571Y-39747857D01*
X85892142Y-39747857D01*
X86006428Y-39805000D01*
X86063571Y-39919285D01*
X86063571Y-40033571D01*
X85492142Y-40147857D01*
X86463571Y-39747857D02*
X86749285Y-40547857D01*
X87035000Y-39747857D01*
X89035000Y-40547857D02*
X88349285Y-40547857D01*
X88692142Y-40547857D02*
X88692142Y-39347857D01*
X88577857Y-39519285D01*
X88463571Y-39633571D01*
X88349285Y-39690714D01*
D11*
%TO.C,N2*%
X42707560Y-28722320D03*
X46192440Y-28722320D03*
X41960800Y-22590760D03*
X48176180Y-25852120D03*
X46939200Y-22590760D03*
X45346620Y-21755100D03*
X43553380Y-21755100D03*
X47538640Y-27531060D03*
X40723820Y-25852120D03*
X41361360Y-27531060D03*
X44450000Y-29154120D03*
X40939720Y-24069040D03*
X47960280Y-24069040D03*
%TD*%
D12*
%TO.C,R3*%
X58420000Y-34925000D03*
D13*
X68580000Y-34925000D03*
%TD*%
D12*
%TO.C,R1*%
X20320000Y-34925000D03*
D13*
X30480000Y-34925000D03*
%TD*%
D11*
%TO.C,N4*%
X80807560Y-28722320D03*
X84292440Y-28722320D03*
X80060800Y-22590760D03*
X86276180Y-25852120D03*
X85039200Y-22590760D03*
X83446620Y-21755100D03*
X81653380Y-21755100D03*
X85638640Y-27531060D03*
X78823820Y-25852120D03*
X79461360Y-27531060D03*
X82550000Y-29154120D03*
X79039720Y-24069040D03*
X86060280Y-24069040D03*
%TD*%
D14*
%TO.C,J1*%
X20320000Y-39370000D03*
D15*
X22860000Y-39370000D03*
X25400000Y-39370000D03*
X27940000Y-39370000D03*
X30480000Y-39370000D03*
X33020000Y-39370000D03*
X35560000Y-39370000D03*
X38100000Y-39370000D03*
X40640000Y-39370000D03*
X43180000Y-39370000D03*
X45720000Y-39370000D03*
X48260000Y-39370000D03*
X50800000Y-39370000D03*
X53340000Y-39370000D03*
X55880000Y-39370000D03*
X58420000Y-39370000D03*
%TD*%
D12*
%TO.C,R2*%
X39370000Y-35090880D03*
D13*
X49530000Y-35090880D03*
%TD*%
D11*
%TO.C,N1*%
X23657560Y-28722320D03*
X27142440Y-28722320D03*
X22910800Y-22590760D03*
X29126180Y-25852120D03*
X27889200Y-22590760D03*
X26296620Y-21755100D03*
X24503380Y-21755100D03*
X28488640Y-27531060D03*
X21673820Y-25852120D03*
X22311360Y-27531060D03*
X25400000Y-29154120D03*
X21889720Y-24069040D03*
X28910280Y-24069040D03*
%TD*%
D12*
%TO.C,R4*%
X77470000Y-34980880D03*
D13*
X87630000Y-34980880D03*
%TD*%
D11*
%TO.C,N3*%
X61757560Y-28722320D03*
X65242440Y-28722320D03*
X61010800Y-22590760D03*
X67226180Y-25852120D03*
X65989200Y-22590760D03*
X64396620Y-21755100D03*
X62603380Y-21755100D03*
X66588640Y-27531060D03*
X59773820Y-25852120D03*
X60411360Y-27531060D03*
X63500000Y-29154120D03*
X59989720Y-24069040D03*
X67010280Y-24069040D03*
%TD*%
M02*
