%TF.GenerationSoftware,KiCad,Pcbnew,7.0.7*%
%TF.CreationDate,2023-10-03T22:28:34+01:00*%
%TF.ProjectId,nixie-controller-breakaway,6e697869-652d-4636-9f6e-74726f6c6c65,rev?*%
%TF.SameCoordinates,Original*%
%TF.FileFunction,Legend,Bot*%
%TF.FilePolarity,Positive*%
%FSLAX46Y46*%
G04 Gerber Fmt 4.6, Leading zero omitted, Abs format (unit mm)*
G04 Created by KiCad (PCBNEW 7.0.7) date 2023-10-03 22:28:34*
%MOMM*%
%LPD*%
G01*
G04 APERTURE LIST*
%ADD10C,0.120000*%
%ADD11C,0.100000*%
%ADD12C,0.150000*%
G04 APERTURE END LIST*
D10*
X44750000Y-54750000D02*
X44750000Y-55850000D01*
X44750000Y-55850000D02*
X44750000Y-30500000D01*
D11*
X94719508Y-34209234D02*
X94696740Y-34258061D01*
X94696740Y-34258061D02*
X94700030Y-34378484D01*
X94700030Y-34378484D02*
X94726089Y-34450080D01*
X94726089Y-34450080D02*
X94800975Y-34544444D01*
X94800975Y-34544444D02*
X94898629Y-34589981D01*
X94898629Y-34589981D02*
X94983254Y-34599720D01*
X94983254Y-34599720D02*
X95139474Y-34583401D01*
X95139474Y-34583401D02*
X95246868Y-34544313D01*
X95246868Y-34544313D02*
X95377030Y-34456397D01*
X95377030Y-34456397D02*
X95435596Y-34394541D01*
X95435596Y-34394541D02*
X95481133Y-34296887D01*
X95481133Y-34296887D02*
X95477843Y-34176464D01*
X95477843Y-34176464D02*
X95451784Y-34104868D01*
X95451784Y-34104868D02*
X95376898Y-34010504D01*
X95376898Y-34010504D02*
X95328071Y-33987736D01*
X94921134Y-33649367D02*
X94982991Y-33707933D01*
X94982991Y-33707933D02*
X95031818Y-33730702D01*
X95031818Y-33730702D02*
X95116443Y-33740441D01*
X95116443Y-33740441D02*
X95152241Y-33727412D01*
X95152241Y-33727412D02*
X95210807Y-33665555D01*
X95210807Y-33665555D02*
X95233576Y-33616728D01*
X95233576Y-33616728D02*
X95243315Y-33532103D01*
X95243315Y-33532103D02*
X95191197Y-33388912D01*
X95191197Y-33388912D02*
X95129341Y-33330346D01*
X95129341Y-33330346D02*
X95080514Y-33307577D01*
X95080514Y-33307577D02*
X94995889Y-33297838D01*
X94995889Y-33297838D02*
X94960091Y-33310867D01*
X94960091Y-33310867D02*
X94901525Y-33372724D01*
X94901525Y-33372724D02*
X94878756Y-33421551D01*
X94878756Y-33421551D02*
X94869017Y-33506176D01*
X94869017Y-33506176D02*
X94921134Y-33649367D01*
X94921134Y-33649367D02*
X94911395Y-33733992D01*
X94911395Y-33733992D02*
X94888627Y-33782819D01*
X94888627Y-33782819D02*
X94830060Y-33844676D01*
X94830060Y-33844676D02*
X94686869Y-33896793D01*
X94686869Y-33896793D02*
X94602244Y-33887054D01*
X94602244Y-33887054D02*
X94553417Y-33864286D01*
X94553417Y-33864286D02*
X94491561Y-33805719D01*
X94491561Y-33805719D02*
X94439443Y-33662528D01*
X94439443Y-33662528D02*
X94449182Y-33577903D01*
X94449182Y-33577903D02*
X94471951Y-33529076D01*
X94471951Y-33529076D02*
X94530517Y-33467219D01*
X94530517Y-33467219D02*
X94673708Y-33415102D01*
X94673708Y-33415102D02*
X94758333Y-33424841D01*
X94758333Y-33424841D02*
X94807161Y-33447610D01*
X94807161Y-33447610D02*
X94869017Y-33506176D01*
X99799508Y-34209234D02*
X99776740Y-34258061D01*
X99776740Y-34258061D02*
X99780030Y-34378484D01*
X99780030Y-34378484D02*
X99806089Y-34450080D01*
X99806089Y-34450080D02*
X99880975Y-34544444D01*
X99880975Y-34544444D02*
X99978629Y-34589981D01*
X99978629Y-34589981D02*
X100063254Y-34599720D01*
X100063254Y-34599720D02*
X100219474Y-34583401D01*
X100219474Y-34583401D02*
X100326868Y-34544313D01*
X100326868Y-34544313D02*
X100457030Y-34456397D01*
X100457030Y-34456397D02*
X100515596Y-34394541D01*
X100515596Y-34394541D02*
X100561133Y-34296887D01*
X100561133Y-34296887D02*
X100557843Y-34176464D01*
X100557843Y-34176464D02*
X100531784Y-34104868D01*
X100531784Y-34104868D02*
X100456898Y-34010504D01*
X100456898Y-34010504D02*
X100408071Y-33987736D01*
X100245139Y-33317316D02*
X100297256Y-33460508D01*
X100297256Y-33460508D02*
X100287517Y-33545132D01*
X100287517Y-33545132D02*
X100264748Y-33593960D01*
X100264748Y-33593960D02*
X100183414Y-33704643D01*
X100183414Y-33704643D02*
X100053252Y-33792558D01*
X100053252Y-33792558D02*
X99766869Y-33896793D01*
X99766869Y-33896793D02*
X99682244Y-33887054D01*
X99682244Y-33887054D02*
X99633417Y-33864286D01*
X99633417Y-33864286D02*
X99571561Y-33805719D01*
X99571561Y-33805719D02*
X99519443Y-33662528D01*
X99519443Y-33662528D02*
X99529182Y-33577903D01*
X99529182Y-33577903D02*
X99551951Y-33529076D01*
X99551951Y-33529076D02*
X99610517Y-33467219D01*
X99610517Y-33467219D02*
X99789506Y-33402073D01*
X99789506Y-33402073D02*
X99874131Y-33411812D01*
X99874131Y-33411812D02*
X99922958Y-33434580D01*
X99922958Y-33434580D02*
X99984815Y-33493147D01*
X99984815Y-33493147D02*
X100036932Y-33636338D01*
X100036932Y-33636338D02*
X100027193Y-33720963D01*
X100027193Y-33720963D02*
X100004425Y-33769790D01*
X100004425Y-33769790D02*
X99945858Y-33831646D01*
D12*
X84269695Y-40485219D02*
X84269695Y-39485219D01*
X84269695Y-39485219D02*
X83698267Y-40485219D01*
X83698267Y-40485219D02*
X83698267Y-39485219D01*
X83222076Y-40485219D02*
X83222076Y-39818552D01*
X83222076Y-39485219D02*
X83269695Y-39532838D01*
X83269695Y-39532838D02*
X83222076Y-39580457D01*
X83222076Y-39580457D02*
X83174457Y-39532838D01*
X83174457Y-39532838D02*
X83222076Y-39485219D01*
X83222076Y-39485219D02*
X83222076Y-39580457D01*
X82841124Y-40485219D02*
X82317315Y-39818552D01*
X82841124Y-39818552D02*
X82317315Y-40485219D01*
X81936362Y-40485219D02*
X81936362Y-39818552D01*
X81936362Y-39485219D02*
X81983981Y-39532838D01*
X81983981Y-39532838D02*
X81936362Y-39580457D01*
X81936362Y-39580457D02*
X81888743Y-39532838D01*
X81888743Y-39532838D02*
X81936362Y-39485219D01*
X81936362Y-39485219D02*
X81936362Y-39580457D01*
X81079220Y-40437600D02*
X81174458Y-40485219D01*
X81174458Y-40485219D02*
X81364934Y-40485219D01*
X81364934Y-40485219D02*
X81460172Y-40437600D01*
X81460172Y-40437600D02*
X81507791Y-40342361D01*
X81507791Y-40342361D02*
X81507791Y-39961409D01*
X81507791Y-39961409D02*
X81460172Y-39866171D01*
X81460172Y-39866171D02*
X81364934Y-39818552D01*
X81364934Y-39818552D02*
X81174458Y-39818552D01*
X81174458Y-39818552D02*
X81079220Y-39866171D01*
X81079220Y-39866171D02*
X81031601Y-39961409D01*
X81031601Y-39961409D02*
X81031601Y-40056647D01*
X81031601Y-40056647D02*
X81507791Y-40151885D01*
X79841124Y-40485219D02*
X79841124Y-39485219D01*
X79841124Y-39485219D02*
X79603029Y-39485219D01*
X79603029Y-39485219D02*
X79460172Y-39532838D01*
X79460172Y-39532838D02*
X79364934Y-39628076D01*
X79364934Y-39628076D02*
X79317315Y-39723314D01*
X79317315Y-39723314D02*
X79269696Y-39913790D01*
X79269696Y-39913790D02*
X79269696Y-40056647D01*
X79269696Y-40056647D02*
X79317315Y-40247123D01*
X79317315Y-40247123D02*
X79364934Y-40342361D01*
X79364934Y-40342361D02*
X79460172Y-40437600D01*
X79460172Y-40437600D02*
X79603029Y-40485219D01*
X79603029Y-40485219D02*
X79841124Y-40485219D01*
X78841124Y-40485219D02*
X78841124Y-39818552D01*
X78841124Y-40009028D02*
X78793505Y-39913790D01*
X78793505Y-39913790D02*
X78745886Y-39866171D01*
X78745886Y-39866171D02*
X78650648Y-39818552D01*
X78650648Y-39818552D02*
X78555410Y-39818552D01*
X78222076Y-40485219D02*
X78222076Y-39818552D01*
X78222076Y-39485219D02*
X78269695Y-39532838D01*
X78269695Y-39532838D02*
X78222076Y-39580457D01*
X78222076Y-39580457D02*
X78174457Y-39532838D01*
X78174457Y-39532838D02*
X78222076Y-39485219D01*
X78222076Y-39485219D02*
X78222076Y-39580457D01*
X77841124Y-39818552D02*
X77603029Y-40485219D01*
X77603029Y-40485219D02*
X77364934Y-39818552D01*
X76603029Y-40437600D02*
X76698267Y-40485219D01*
X76698267Y-40485219D02*
X76888743Y-40485219D01*
X76888743Y-40485219D02*
X76983981Y-40437600D01*
X76983981Y-40437600D02*
X77031600Y-40342361D01*
X77031600Y-40342361D02*
X77031600Y-39961409D01*
X77031600Y-39961409D02*
X76983981Y-39866171D01*
X76983981Y-39866171D02*
X76888743Y-39818552D01*
X76888743Y-39818552D02*
X76698267Y-39818552D01*
X76698267Y-39818552D02*
X76603029Y-39866171D01*
X76603029Y-39866171D02*
X76555410Y-39961409D01*
X76555410Y-39961409D02*
X76555410Y-40056647D01*
X76555410Y-40056647D02*
X77031600Y-40151885D01*
X76126838Y-40485219D02*
X76126838Y-39818552D01*
X76126838Y-40009028D02*
X76079219Y-39913790D01*
X76079219Y-39913790D02*
X76031600Y-39866171D01*
X76031600Y-39866171D02*
X75936362Y-39818552D01*
X75936362Y-39818552D02*
X75841124Y-39818552D01*
X74412552Y-39961409D02*
X74269695Y-40009028D01*
X74269695Y-40009028D02*
X74222076Y-40056647D01*
X74222076Y-40056647D02*
X74174457Y-40151885D01*
X74174457Y-40151885D02*
X74174457Y-40294742D01*
X74174457Y-40294742D02*
X74222076Y-40389980D01*
X74222076Y-40389980D02*
X74269695Y-40437600D01*
X74269695Y-40437600D02*
X74364933Y-40485219D01*
X74364933Y-40485219D02*
X74745885Y-40485219D01*
X74745885Y-40485219D02*
X74745885Y-39485219D01*
X74745885Y-39485219D02*
X74412552Y-39485219D01*
X74412552Y-39485219D02*
X74317314Y-39532838D01*
X74317314Y-39532838D02*
X74269695Y-39580457D01*
X74269695Y-39580457D02*
X74222076Y-39675695D01*
X74222076Y-39675695D02*
X74222076Y-39770933D01*
X74222076Y-39770933D02*
X74269695Y-39866171D01*
X74269695Y-39866171D02*
X74317314Y-39913790D01*
X74317314Y-39913790D02*
X74412552Y-39961409D01*
X74412552Y-39961409D02*
X74745885Y-39961409D01*
X73603028Y-40485219D02*
X73698266Y-40437600D01*
X73698266Y-40437600D02*
X73745885Y-40389980D01*
X73745885Y-40389980D02*
X73793504Y-40294742D01*
X73793504Y-40294742D02*
X73793504Y-40009028D01*
X73793504Y-40009028D02*
X73745885Y-39913790D01*
X73745885Y-39913790D02*
X73698266Y-39866171D01*
X73698266Y-39866171D02*
X73603028Y-39818552D01*
X73603028Y-39818552D02*
X73460171Y-39818552D01*
X73460171Y-39818552D02*
X73364933Y-39866171D01*
X73364933Y-39866171D02*
X73317314Y-39913790D01*
X73317314Y-39913790D02*
X73269695Y-40009028D01*
X73269695Y-40009028D02*
X73269695Y-40294742D01*
X73269695Y-40294742D02*
X73317314Y-40389980D01*
X73317314Y-40389980D02*
X73364933Y-40437600D01*
X73364933Y-40437600D02*
X73460171Y-40485219D01*
X73460171Y-40485219D02*
X73603028Y-40485219D01*
X72412552Y-40485219D02*
X72412552Y-39961409D01*
X72412552Y-39961409D02*
X72460171Y-39866171D01*
X72460171Y-39866171D02*
X72555409Y-39818552D01*
X72555409Y-39818552D02*
X72745885Y-39818552D01*
X72745885Y-39818552D02*
X72841123Y-39866171D01*
X72412552Y-40437600D02*
X72507790Y-40485219D01*
X72507790Y-40485219D02*
X72745885Y-40485219D01*
X72745885Y-40485219D02*
X72841123Y-40437600D01*
X72841123Y-40437600D02*
X72888742Y-40342361D01*
X72888742Y-40342361D02*
X72888742Y-40247123D01*
X72888742Y-40247123D02*
X72841123Y-40151885D01*
X72841123Y-40151885D02*
X72745885Y-40104266D01*
X72745885Y-40104266D02*
X72507790Y-40104266D01*
X72507790Y-40104266D02*
X72412552Y-40056647D01*
X71936361Y-40485219D02*
X71936361Y-39818552D01*
X71936361Y-40009028D02*
X71888742Y-39913790D01*
X71888742Y-39913790D02*
X71841123Y-39866171D01*
X71841123Y-39866171D02*
X71745885Y-39818552D01*
X71745885Y-39818552D02*
X71650647Y-39818552D01*
X70888742Y-40485219D02*
X70888742Y-39485219D01*
X70888742Y-40437600D02*
X70983980Y-40485219D01*
X70983980Y-40485219D02*
X71174456Y-40485219D01*
X71174456Y-40485219D02*
X71269694Y-40437600D01*
X71269694Y-40437600D02*
X71317313Y-40389980D01*
X71317313Y-40389980D02*
X71364932Y-40294742D01*
X71364932Y-40294742D02*
X71364932Y-40009028D01*
X71364932Y-40009028D02*
X71317313Y-39913790D01*
X71317313Y-39913790D02*
X71269694Y-39866171D01*
X71269694Y-39866171D02*
X71174456Y-39818552D01*
X71174456Y-39818552D02*
X70983980Y-39818552D01*
X70983980Y-39818552D02*
X70888742Y-39866171D01*
X69079218Y-40485219D02*
X69412551Y-40009028D01*
X69650646Y-40485219D02*
X69650646Y-39485219D01*
X69650646Y-39485219D02*
X69269694Y-39485219D01*
X69269694Y-39485219D02*
X69174456Y-39532838D01*
X69174456Y-39532838D02*
X69126837Y-39580457D01*
X69126837Y-39580457D02*
X69079218Y-39675695D01*
X69079218Y-39675695D02*
X69079218Y-39818552D01*
X69079218Y-39818552D02*
X69126837Y-39913790D01*
X69126837Y-39913790D02*
X69174456Y-39961409D01*
X69174456Y-39961409D02*
X69269694Y-40009028D01*
X69269694Y-40009028D02*
X69650646Y-40009028D01*
X68269694Y-40437600D02*
X68364932Y-40485219D01*
X68364932Y-40485219D02*
X68555408Y-40485219D01*
X68555408Y-40485219D02*
X68650646Y-40437600D01*
X68650646Y-40437600D02*
X68698265Y-40342361D01*
X68698265Y-40342361D02*
X68698265Y-39961409D01*
X68698265Y-39961409D02*
X68650646Y-39866171D01*
X68650646Y-39866171D02*
X68555408Y-39818552D01*
X68555408Y-39818552D02*
X68364932Y-39818552D01*
X68364932Y-39818552D02*
X68269694Y-39866171D01*
X68269694Y-39866171D02*
X68222075Y-39961409D01*
X68222075Y-39961409D02*
X68222075Y-40056647D01*
X68222075Y-40056647D02*
X68698265Y-40151885D01*
X67888741Y-39818552D02*
X67650646Y-40485219D01*
X67650646Y-40485219D02*
X67412551Y-39818552D01*
X65745884Y-40485219D02*
X66317312Y-40485219D01*
X66031598Y-40485219D02*
X66031598Y-39485219D01*
X66031598Y-39485219D02*
X66126836Y-39628076D01*
X66126836Y-39628076D02*
X66222074Y-39723314D01*
X66222074Y-39723314D02*
X66317312Y-39770933D01*
D11*
X104879508Y-34209234D02*
X104856740Y-34258061D01*
X104856740Y-34258061D02*
X104860030Y-34378484D01*
X104860030Y-34378484D02*
X104886089Y-34450080D01*
X104886089Y-34450080D02*
X104960975Y-34544444D01*
X104960975Y-34544444D02*
X105058629Y-34589981D01*
X105058629Y-34589981D02*
X105143254Y-34599720D01*
X105143254Y-34599720D02*
X105299474Y-34583401D01*
X105299474Y-34583401D02*
X105406868Y-34544313D01*
X105406868Y-34544313D02*
X105537030Y-34456397D01*
X105537030Y-34456397D02*
X105595596Y-34394541D01*
X105595596Y-34394541D02*
X105641133Y-34296887D01*
X105641133Y-34296887D02*
X105637843Y-34176464D01*
X105637843Y-34176464D02*
X105611784Y-34104868D01*
X105611784Y-34104868D02*
X105536898Y-34010504D01*
X105536898Y-34010504D02*
X105488071Y-33987736D01*
X105074554Y-33408522D02*
X104573385Y-33590932D01*
X105426083Y-33483276D02*
X104954263Y-33857705D01*
X104954263Y-33857705D02*
X104784881Y-33392334D01*
D12*
X109348935Y-52456200D02*
X109234649Y-52494295D01*
X109234649Y-52494295D02*
X109044173Y-52494295D01*
X109044173Y-52494295D02*
X108967982Y-52456200D01*
X108967982Y-52456200D02*
X108929887Y-52418104D01*
X108929887Y-52418104D02*
X108891792Y-52341914D01*
X108891792Y-52341914D02*
X108891792Y-52265723D01*
X108891792Y-52265723D02*
X108929887Y-52189533D01*
X108929887Y-52189533D02*
X108967982Y-52151438D01*
X108967982Y-52151438D02*
X109044173Y-52113342D01*
X109044173Y-52113342D02*
X109196554Y-52075247D01*
X109196554Y-52075247D02*
X109272744Y-52037152D01*
X109272744Y-52037152D02*
X109310839Y-51999057D01*
X109310839Y-51999057D02*
X109348935Y-51922866D01*
X109348935Y-51922866D02*
X109348935Y-51846676D01*
X109348935Y-51846676D02*
X109310839Y-51770485D01*
X109310839Y-51770485D02*
X109272744Y-51732390D01*
X109272744Y-51732390D02*
X109196554Y-51694295D01*
X109196554Y-51694295D02*
X109006077Y-51694295D01*
X109006077Y-51694295D02*
X108891792Y-51732390D01*
X108091791Y-52418104D02*
X108129887Y-52456200D01*
X108129887Y-52456200D02*
X108244172Y-52494295D01*
X108244172Y-52494295D02*
X108320363Y-52494295D01*
X108320363Y-52494295D02*
X108434649Y-52456200D01*
X108434649Y-52456200D02*
X108510839Y-52380009D01*
X108510839Y-52380009D02*
X108548934Y-52303819D01*
X108548934Y-52303819D02*
X108587030Y-52151438D01*
X108587030Y-52151438D02*
X108587030Y-52037152D01*
X108587030Y-52037152D02*
X108548934Y-51884771D01*
X108548934Y-51884771D02*
X108510839Y-51808580D01*
X108510839Y-51808580D02*
X108434649Y-51732390D01*
X108434649Y-51732390D02*
X108320363Y-51694295D01*
X108320363Y-51694295D02*
X108244172Y-51694295D01*
X108244172Y-51694295D02*
X108129887Y-51732390D01*
X108129887Y-51732390D02*
X108091791Y-51770485D01*
X107367982Y-52494295D02*
X107748934Y-52494295D01*
X107748934Y-52494295D02*
X107748934Y-51694295D01*
D11*
X102339508Y-34209234D02*
X102316740Y-34258061D01*
X102316740Y-34258061D02*
X102320030Y-34378484D01*
X102320030Y-34378484D02*
X102346089Y-34450080D01*
X102346089Y-34450080D02*
X102420975Y-34544444D01*
X102420975Y-34544444D02*
X102518629Y-34589981D01*
X102518629Y-34589981D02*
X102603254Y-34599720D01*
X102603254Y-34599720D02*
X102759474Y-34583401D01*
X102759474Y-34583401D02*
X102866868Y-34544313D01*
X102866868Y-34544313D02*
X102997030Y-34456397D01*
X102997030Y-34456397D02*
X103055596Y-34394541D01*
X103055596Y-34394541D02*
X103101133Y-34296887D01*
X103101133Y-34296887D02*
X103097843Y-34176464D01*
X103097843Y-34176464D02*
X103071784Y-34104868D01*
X103071784Y-34104868D02*
X102996898Y-34010504D01*
X102996898Y-34010504D02*
X102948071Y-33987736D01*
X102772109Y-33281518D02*
X102902403Y-33639497D01*
X102902403Y-33639497D02*
X102557454Y-33805588D01*
X102557454Y-33805588D02*
X102580222Y-33756761D01*
X102580222Y-33756761D02*
X102589962Y-33672136D01*
X102589962Y-33672136D02*
X102524815Y-33493147D01*
X102524815Y-33493147D02*
X102462958Y-33434580D01*
X102462958Y-33434580D02*
X102414131Y-33411812D01*
X102414131Y-33411812D02*
X102329506Y-33402073D01*
X102329506Y-33402073D02*
X102150517Y-33467219D01*
X102150517Y-33467219D02*
X102091951Y-33529076D01*
X102091951Y-33529076D02*
X102069182Y-33577903D01*
X102069182Y-33577903D02*
X102059443Y-33662528D01*
X102059443Y-33662528D02*
X102124590Y-33841517D01*
X102124590Y-33841517D02*
X102186446Y-33900083D01*
X102186446Y-33900083D02*
X102235274Y-33922852D01*
X74692537Y-34568792D02*
X74562244Y-34210814D01*
X74503809Y-34718563D02*
X75164357Y-34194363D01*
X75164357Y-34194363D02*
X74321398Y-34217394D01*
X74614098Y-33462218D02*
X74112929Y-33644629D01*
X74965627Y-33536973D02*
X74493807Y-33911402D01*
X74493807Y-33911402D02*
X74324425Y-33446030D01*
D12*
X56224152Y-53220788D02*
X56116402Y-53166913D01*
X56116402Y-53166913D02*
X55981715Y-53032226D01*
X55981715Y-53032226D02*
X55954778Y-52951414D01*
X55954778Y-52951414D02*
X55954778Y-52897539D01*
X55954778Y-52897539D02*
X55981715Y-52816727D01*
X55981715Y-52816727D02*
X56035590Y-52762852D01*
X56035590Y-52762852D02*
X56116402Y-52735915D01*
X56116402Y-52735915D02*
X56170277Y-52735915D01*
X56170277Y-52735915D02*
X56251089Y-52762852D01*
X56251089Y-52762852D02*
X56385776Y-52843664D01*
X56385776Y-52843664D02*
X56466588Y-52870602D01*
X56466588Y-52870602D02*
X56520463Y-52870602D01*
X56520463Y-52870602D02*
X56601275Y-52843664D01*
X56601275Y-52843664D02*
X56655150Y-52789789D01*
X56655150Y-52789789D02*
X56682088Y-52708977D01*
X56682088Y-52708977D02*
X56682088Y-52655102D01*
X56682088Y-52655102D02*
X56655150Y-52574290D01*
X56655150Y-52574290D02*
X56520463Y-52439603D01*
X56520463Y-52439603D02*
X56412714Y-52385728D01*
X55362155Y-52304916D02*
X55362155Y-52358791D01*
X55362155Y-52358791D02*
X55416030Y-52466540D01*
X55416030Y-52466540D02*
X55469904Y-52520415D01*
X55469904Y-52520415D02*
X55577654Y-52574290D01*
X55577654Y-52574290D02*
X55685404Y-52574290D01*
X55685404Y-52574290D02*
X55766216Y-52547353D01*
X55766216Y-52547353D02*
X55900903Y-52466540D01*
X55900903Y-52466540D02*
X55981715Y-52385728D01*
X55981715Y-52385728D02*
X56062527Y-52251041D01*
X56062527Y-52251041D02*
X56089465Y-52170229D01*
X56089465Y-52170229D02*
X56089465Y-52062479D01*
X56089465Y-52062479D02*
X56035590Y-51954730D01*
X56035590Y-51954730D02*
X55981715Y-51900855D01*
X55981715Y-51900855D02*
X55873965Y-51846980D01*
X55873965Y-51846980D02*
X55820091Y-51846980D01*
X54796469Y-51846980D02*
X55065843Y-52116354D01*
X55065843Y-52116354D02*
X55631529Y-51550669D01*
D11*
X82312537Y-34568792D02*
X82182244Y-34210814D01*
X82123809Y-34718563D02*
X82784357Y-34194363D01*
X82784357Y-34194363D02*
X81941398Y-34217394D01*
X81706870Y-33573034D02*
X81863222Y-34002607D01*
X81785046Y-33787820D02*
X82536800Y-33514204D01*
X82536800Y-33514204D02*
X82455465Y-33624888D01*
X82455465Y-33624888D02*
X82409928Y-33722542D01*
X82409928Y-33722542D02*
X82400189Y-33807167D01*
D12*
X50825125Y-53694295D02*
X50558458Y-54494295D01*
X50558458Y-54494295D02*
X50291792Y-53694295D01*
X49567982Y-54418104D02*
X49606078Y-54456200D01*
X49606078Y-54456200D02*
X49720363Y-54494295D01*
X49720363Y-54494295D02*
X49796554Y-54494295D01*
X49796554Y-54494295D02*
X49910840Y-54456200D01*
X49910840Y-54456200D02*
X49987030Y-54380009D01*
X49987030Y-54380009D02*
X50025125Y-54303819D01*
X50025125Y-54303819D02*
X50063221Y-54151438D01*
X50063221Y-54151438D02*
X50063221Y-54037152D01*
X50063221Y-54037152D02*
X50025125Y-53884771D01*
X50025125Y-53884771D02*
X49987030Y-53808580D01*
X49987030Y-53808580D02*
X49910840Y-53732390D01*
X49910840Y-53732390D02*
X49796554Y-53694295D01*
X49796554Y-53694295D02*
X49720363Y-53694295D01*
X49720363Y-53694295D02*
X49606078Y-53732390D01*
X49606078Y-53732390D02*
X49567982Y-53770485D01*
X48767982Y-54418104D02*
X48806078Y-54456200D01*
X48806078Y-54456200D02*
X48920363Y-54494295D01*
X48920363Y-54494295D02*
X48996554Y-54494295D01*
X48996554Y-54494295D02*
X49110840Y-54456200D01*
X49110840Y-54456200D02*
X49187030Y-54380009D01*
X49187030Y-54380009D02*
X49225125Y-54303819D01*
X49225125Y-54303819D02*
X49263221Y-54151438D01*
X49263221Y-54151438D02*
X49263221Y-54037152D01*
X49263221Y-54037152D02*
X49225125Y-53884771D01*
X49225125Y-53884771D02*
X49187030Y-53808580D01*
X49187030Y-53808580D02*
X49110840Y-53732390D01*
X49110840Y-53732390D02*
X48996554Y-53694295D01*
X48996554Y-53694295D02*
X48920363Y-53694295D01*
X48920363Y-53694295D02*
X48806078Y-53732390D01*
X48806078Y-53732390D02*
X48767982Y-53770485D01*
X53724152Y-53220788D02*
X53616402Y-53166913D01*
X53616402Y-53166913D02*
X53481715Y-53032226D01*
X53481715Y-53032226D02*
X53454778Y-52951414D01*
X53454778Y-52951414D02*
X53454778Y-52897539D01*
X53454778Y-52897539D02*
X53481715Y-52816727D01*
X53481715Y-52816727D02*
X53535590Y-52762852D01*
X53535590Y-52762852D02*
X53616402Y-52735915D01*
X53616402Y-52735915D02*
X53670277Y-52735915D01*
X53670277Y-52735915D02*
X53751089Y-52762852D01*
X53751089Y-52762852D02*
X53885776Y-52843664D01*
X53885776Y-52843664D02*
X53966588Y-52870602D01*
X53966588Y-52870602D02*
X54020463Y-52870602D01*
X54020463Y-52870602D02*
X54101275Y-52843664D01*
X54101275Y-52843664D02*
X54155150Y-52789789D01*
X54155150Y-52789789D02*
X54182088Y-52708977D01*
X54182088Y-52708977D02*
X54182088Y-52655102D01*
X54182088Y-52655102D02*
X54155150Y-52574290D01*
X54155150Y-52574290D02*
X54020463Y-52439603D01*
X54020463Y-52439603D02*
X53912714Y-52385728D01*
X53131529Y-52682040D02*
X53697214Y-52116354D01*
X53697214Y-52116354D02*
X53562527Y-51981667D01*
X53562527Y-51981667D02*
X53454778Y-51927792D01*
X53454778Y-51927792D02*
X53347028Y-51927792D01*
X53347028Y-51927792D02*
X53266216Y-51954730D01*
X53266216Y-51954730D02*
X53131529Y-52035542D01*
X53131529Y-52035542D02*
X53050717Y-52116354D01*
X53050717Y-52116354D02*
X52969904Y-52251041D01*
X52969904Y-52251041D02*
X52942967Y-52331853D01*
X52942967Y-52331853D02*
X52942967Y-52439603D01*
X52942967Y-52439603D02*
X52996842Y-52547353D01*
X52996842Y-52547353D02*
X53131529Y-52682040D01*
X52754405Y-51981667D02*
X52485031Y-51712293D01*
X52646656Y-52197166D02*
X53023779Y-51442919D01*
X53023779Y-51442919D02*
X52269532Y-51820043D01*
D11*
X86188988Y-34182048D02*
X86140161Y-34204816D01*
X86140161Y-34204816D02*
X86065275Y-34299180D01*
X86065275Y-34299180D02*
X86039217Y-34370776D01*
X86039217Y-34370776D02*
X86035927Y-34491199D01*
X86035927Y-34491199D02*
X86081463Y-34588853D01*
X86081463Y-34588853D02*
X86140030Y-34650710D01*
X86140030Y-34650710D02*
X86270192Y-34738625D01*
X86270192Y-34738625D02*
X86377585Y-34777713D01*
X86377585Y-34777713D02*
X86533806Y-34794032D01*
X86533806Y-34794032D02*
X86618431Y-34784293D01*
X86618431Y-34784293D02*
X86716085Y-34738756D01*
X86716085Y-34738756D02*
X86790971Y-34644392D01*
X86790971Y-34644392D02*
X86817030Y-34572797D01*
X86817030Y-34572797D02*
X86820320Y-34452374D01*
X86820320Y-34452374D02*
X86797551Y-34403547D01*
X86719638Y-33726547D02*
X86722928Y-33606124D01*
X86722928Y-33606124D02*
X86700160Y-33557297D01*
X86700160Y-33557297D02*
X86641594Y-33495441D01*
X86641594Y-33495441D02*
X86534200Y-33456352D01*
X86534200Y-33456352D02*
X86449575Y-33466092D01*
X86449575Y-33466092D02*
X86400748Y-33488860D01*
X86400748Y-33488860D02*
X86338892Y-33547426D01*
X86338892Y-33547426D02*
X86234657Y-33833809D01*
X86234657Y-33833809D02*
X86986411Y-34107425D01*
X86986411Y-34107425D02*
X87077616Y-33856840D01*
X87077616Y-33856840D02*
X87067877Y-33772215D01*
X87067877Y-33772215D02*
X87045109Y-33723388D01*
X87045109Y-33723388D02*
X86986542Y-33661532D01*
X86986542Y-33661532D02*
X86914947Y-33635473D01*
X86914947Y-33635473D02*
X86830322Y-33645212D01*
X86830322Y-33645212D02*
X86781495Y-33667981D01*
X86781495Y-33667981D02*
X86719638Y-33726547D01*
X86719638Y-33726547D02*
X86628433Y-33977132D01*
D12*
X55325125Y-46694295D02*
X55058458Y-47494295D01*
X55058458Y-47494295D02*
X54791792Y-46694295D01*
X54067982Y-47418104D02*
X54106078Y-47456200D01*
X54106078Y-47456200D02*
X54220363Y-47494295D01*
X54220363Y-47494295D02*
X54296554Y-47494295D01*
X54296554Y-47494295D02*
X54410840Y-47456200D01*
X54410840Y-47456200D02*
X54487030Y-47380009D01*
X54487030Y-47380009D02*
X54525125Y-47303819D01*
X54525125Y-47303819D02*
X54563221Y-47151438D01*
X54563221Y-47151438D02*
X54563221Y-47037152D01*
X54563221Y-47037152D02*
X54525125Y-46884771D01*
X54525125Y-46884771D02*
X54487030Y-46808580D01*
X54487030Y-46808580D02*
X54410840Y-46732390D01*
X54410840Y-46732390D02*
X54296554Y-46694295D01*
X54296554Y-46694295D02*
X54220363Y-46694295D01*
X54220363Y-46694295D02*
X54106078Y-46732390D01*
X54106078Y-46732390D02*
X54067982Y-46770485D01*
X53267982Y-47418104D02*
X53306078Y-47456200D01*
X53306078Y-47456200D02*
X53420363Y-47494295D01*
X53420363Y-47494295D02*
X53496554Y-47494295D01*
X53496554Y-47494295D02*
X53610840Y-47456200D01*
X53610840Y-47456200D02*
X53687030Y-47380009D01*
X53687030Y-47380009D02*
X53725125Y-47303819D01*
X53725125Y-47303819D02*
X53763221Y-47151438D01*
X53763221Y-47151438D02*
X53763221Y-47037152D01*
X53763221Y-47037152D02*
X53725125Y-46884771D01*
X53725125Y-46884771D02*
X53687030Y-46808580D01*
X53687030Y-46808580D02*
X53610840Y-46732390D01*
X53610840Y-46732390D02*
X53496554Y-46694295D01*
X53496554Y-46694295D02*
X53420363Y-46694295D01*
X53420363Y-46694295D02*
X53306078Y-46732390D01*
X53306078Y-46732390D02*
X53267982Y-46770485D01*
D11*
X89626479Y-34173437D02*
X89603711Y-34222264D01*
X89603711Y-34222264D02*
X89607001Y-34342687D01*
X89607001Y-34342687D02*
X89633059Y-34414282D01*
X89633059Y-34414282D02*
X89707945Y-34508646D01*
X89707945Y-34508646D02*
X89805600Y-34554183D01*
X89805600Y-34554183D02*
X89890225Y-34563922D01*
X89890225Y-34563922D02*
X90046445Y-34547603D01*
X90046445Y-34547603D02*
X90153839Y-34508515D01*
X90153839Y-34508515D02*
X90284001Y-34420600D01*
X90284001Y-34420600D02*
X90342567Y-34358743D01*
X90342567Y-34358743D02*
X90388104Y-34261089D01*
X90388104Y-34261089D02*
X90384814Y-34140666D01*
X90384814Y-34140666D02*
X90358755Y-34069071D01*
X90358755Y-34069071D02*
X90283869Y-33974706D01*
X90283869Y-33974706D02*
X90235042Y-33951938D01*
X89665436Y-33834937D02*
X89535142Y-33476959D01*
X89476707Y-33984709D02*
X90137256Y-33460508D01*
X90137256Y-33460508D02*
X89294297Y-33483539D01*
X112499508Y-34209234D02*
X112476740Y-34258061D01*
X112476740Y-34258061D02*
X112480030Y-34378484D01*
X112480030Y-34378484D02*
X112506089Y-34450080D01*
X112506089Y-34450080D02*
X112580975Y-34544444D01*
X112580975Y-34544444D02*
X112678629Y-34589981D01*
X112678629Y-34589981D02*
X112763254Y-34599720D01*
X112763254Y-34599720D02*
X112919474Y-34583401D01*
X112919474Y-34583401D02*
X113026868Y-34544313D01*
X113026868Y-34544313D02*
X113157030Y-34456397D01*
X113157030Y-34456397D02*
X113215596Y-34394541D01*
X113215596Y-34394541D02*
X113261133Y-34296887D01*
X113261133Y-34296887D02*
X113257843Y-34176464D01*
X113257843Y-34176464D02*
X113231784Y-34104868D01*
X113231784Y-34104868D02*
X113156898Y-34010504D01*
X113156898Y-34010504D02*
X113108071Y-33987736D01*
X112167326Y-33519337D02*
X112323678Y-33948911D01*
X112245502Y-33734124D02*
X112997256Y-33460508D01*
X112997256Y-33460508D02*
X112915921Y-33571191D01*
X112915921Y-33571191D02*
X112870384Y-33668845D01*
X112870384Y-33668845D02*
X112860645Y-33753470D01*
X115039508Y-34310834D02*
X115016740Y-34359661D01*
X115016740Y-34359661D02*
X115020030Y-34480084D01*
X115020030Y-34480084D02*
X115046089Y-34551680D01*
X115046089Y-34551680D02*
X115120975Y-34646044D01*
X115120975Y-34646044D02*
X115218629Y-34691581D01*
X115218629Y-34691581D02*
X115303254Y-34701320D01*
X115303254Y-34701320D02*
X115459474Y-34685001D01*
X115459474Y-34685001D02*
X115566868Y-34645913D01*
X115566868Y-34645913D02*
X115697030Y-34557997D01*
X115697030Y-34557997D02*
X115755596Y-34496141D01*
X115755596Y-34496141D02*
X115801133Y-34398487D01*
X115801133Y-34398487D02*
X115797843Y-34278064D01*
X115797843Y-34278064D02*
X115771784Y-34206468D01*
X115771784Y-34206468D02*
X115696898Y-34112104D01*
X115696898Y-34112104D02*
X115648071Y-34089336D01*
X115550285Y-33597905D02*
X115524227Y-33526310D01*
X115524227Y-33526310D02*
X115462370Y-33467743D01*
X115462370Y-33467743D02*
X115413543Y-33444975D01*
X115413543Y-33444975D02*
X115328918Y-33435236D01*
X115328918Y-33435236D02*
X115172698Y-33451555D01*
X115172698Y-33451555D02*
X114993708Y-33516702D01*
X114993708Y-33516702D02*
X114863547Y-33604617D01*
X114863547Y-33604617D02*
X114804980Y-33666474D01*
X114804980Y-33666474D02*
X114782212Y-33715301D01*
X114782212Y-33715301D02*
X114772473Y-33799926D01*
X114772473Y-33799926D02*
X114798531Y-33871521D01*
X114798531Y-33871521D02*
X114860388Y-33930088D01*
X114860388Y-33930088D02*
X114909215Y-33952856D01*
X114909215Y-33952856D02*
X114993840Y-33962595D01*
X114993840Y-33962595D02*
X115150060Y-33946276D01*
X115150060Y-33946276D02*
X115329050Y-33881129D01*
X115329050Y-33881129D02*
X115459211Y-33793214D01*
X115459211Y-33793214D02*
X115517778Y-33731357D01*
X115517778Y-33731357D02*
X115540546Y-33682530D01*
X115540546Y-33682530D02*
X115550285Y-33597905D01*
X69612537Y-34568792D02*
X69482244Y-34210814D01*
X69423809Y-34718563D02*
X70084357Y-34194363D01*
X70084357Y-34194363D02*
X69241398Y-34217394D01*
X69784683Y-33371013D02*
X69836800Y-33514204D01*
X69836800Y-33514204D02*
X69827061Y-33598829D01*
X69827061Y-33598829D02*
X69804292Y-33647656D01*
X69804292Y-33647656D02*
X69722958Y-33758340D01*
X69722958Y-33758340D02*
X69592796Y-33846255D01*
X69592796Y-33846255D02*
X69306413Y-33950490D01*
X69306413Y-33950490D02*
X69221788Y-33940751D01*
X69221788Y-33940751D02*
X69172961Y-33917982D01*
X69172961Y-33917982D02*
X69111105Y-33859416D01*
X69111105Y-33859416D02*
X69058987Y-33716225D01*
X69058987Y-33716225D02*
X69068726Y-33631600D01*
X69068726Y-33631600D02*
X69091495Y-33582773D01*
X69091495Y-33582773D02*
X69150061Y-33520916D01*
X69150061Y-33520916D02*
X69329050Y-33455770D01*
X69329050Y-33455770D02*
X69413675Y-33465509D01*
X69413675Y-33465509D02*
X69462502Y-33488277D01*
X69462502Y-33488277D02*
X69524359Y-33546843D01*
X69524359Y-33546843D02*
X69576476Y-33690035D01*
X69576476Y-33690035D02*
X69566737Y-33774660D01*
X69566737Y-33774660D02*
X69543969Y-33823487D01*
X69543969Y-33823487D02*
X69485402Y-33885343D01*
X72152537Y-34568792D02*
X72022244Y-34210814D01*
X71963809Y-34718563D02*
X72624357Y-34194363D01*
X72624357Y-34194363D02*
X71781398Y-34217394D01*
X72311653Y-33335215D02*
X72441947Y-33693193D01*
X72441947Y-33693193D02*
X72096998Y-33859285D01*
X72096998Y-33859285D02*
X72119766Y-33810457D01*
X72119766Y-33810457D02*
X72129506Y-33725833D01*
X72129506Y-33725833D02*
X72064359Y-33546843D01*
X72064359Y-33546843D02*
X72002502Y-33488277D01*
X72002502Y-33488277D02*
X71953675Y-33465509D01*
X71953675Y-33465509D02*
X71869050Y-33455770D01*
X71869050Y-33455770D02*
X71690061Y-33520916D01*
X71690061Y-33520916D02*
X71631495Y-33582773D01*
X71631495Y-33582773D02*
X71608726Y-33631600D01*
X71608726Y-33631600D02*
X71598987Y-33716225D01*
X71598987Y-33716225D02*
X71664134Y-33895214D01*
X71664134Y-33895214D02*
X71725991Y-33953780D01*
X71725991Y-33953780D02*
X71774818Y-33976549D01*
D12*
X62991792Y-51832390D02*
X63067982Y-51794295D01*
X63067982Y-51794295D02*
X63182268Y-51794295D01*
X63182268Y-51794295D02*
X63296554Y-51832390D01*
X63296554Y-51832390D02*
X63372744Y-51908580D01*
X63372744Y-51908580D02*
X63410839Y-51984771D01*
X63410839Y-51984771D02*
X63448935Y-52137152D01*
X63448935Y-52137152D02*
X63448935Y-52251438D01*
X63448935Y-52251438D02*
X63410839Y-52403819D01*
X63410839Y-52403819D02*
X63372744Y-52480009D01*
X63372744Y-52480009D02*
X63296554Y-52556200D01*
X63296554Y-52556200D02*
X63182268Y-52594295D01*
X63182268Y-52594295D02*
X63106077Y-52594295D01*
X63106077Y-52594295D02*
X62991792Y-52556200D01*
X62991792Y-52556200D02*
X62953696Y-52518104D01*
X62953696Y-52518104D02*
X62953696Y-52251438D01*
X62953696Y-52251438D02*
X63106077Y-52251438D01*
X62610839Y-52594295D02*
X62610839Y-51794295D01*
X62610839Y-51794295D02*
X62153696Y-52594295D01*
X62153696Y-52594295D02*
X62153696Y-51794295D01*
X61772744Y-52594295D02*
X61772744Y-51794295D01*
X61772744Y-51794295D02*
X61582268Y-51794295D01*
X61582268Y-51794295D02*
X61467982Y-51832390D01*
X61467982Y-51832390D02*
X61391792Y-51908580D01*
X61391792Y-51908580D02*
X61353697Y-51984771D01*
X61353697Y-51984771D02*
X61315601Y-52137152D01*
X61315601Y-52137152D02*
X61315601Y-52251438D01*
X61315601Y-52251438D02*
X61353697Y-52403819D01*
X61353697Y-52403819D02*
X61391792Y-52480009D01*
X61391792Y-52480009D02*
X61467982Y-52556200D01*
X61467982Y-52556200D02*
X61582268Y-52594295D01*
X61582268Y-52594295D02*
X61772744Y-52594295D01*
D11*
X79772537Y-34568792D02*
X79642244Y-34210814D01*
X79583809Y-34718563D02*
X80244357Y-34194363D01*
X80244357Y-34194363D02*
X79401398Y-34217394D01*
X80003381Y-33755050D02*
X80026149Y-33706223D01*
X80026149Y-33706223D02*
X80035888Y-33621598D01*
X80035888Y-33621598D02*
X79970741Y-33442609D01*
X79970741Y-33442609D02*
X79908885Y-33384042D01*
X79908885Y-33384042D02*
X79860058Y-33361274D01*
X79860058Y-33361274D02*
X79775433Y-33351535D01*
X79775433Y-33351535D02*
X79703837Y-33377594D01*
X79703837Y-33377594D02*
X79609473Y-33452479D01*
X79609473Y-33452479D02*
X79336251Y-34038405D01*
X79336251Y-34038405D02*
X79166870Y-33573034D01*
D12*
X55248935Y-46256200D02*
X55134649Y-46294295D01*
X55134649Y-46294295D02*
X54944173Y-46294295D01*
X54944173Y-46294295D02*
X54867982Y-46256200D01*
X54867982Y-46256200D02*
X54829887Y-46218104D01*
X54829887Y-46218104D02*
X54791792Y-46141914D01*
X54791792Y-46141914D02*
X54791792Y-46065723D01*
X54791792Y-46065723D02*
X54829887Y-45989533D01*
X54829887Y-45989533D02*
X54867982Y-45951438D01*
X54867982Y-45951438D02*
X54944173Y-45913342D01*
X54944173Y-45913342D02*
X55096554Y-45875247D01*
X55096554Y-45875247D02*
X55172744Y-45837152D01*
X55172744Y-45837152D02*
X55210839Y-45799057D01*
X55210839Y-45799057D02*
X55248935Y-45722866D01*
X55248935Y-45722866D02*
X55248935Y-45646676D01*
X55248935Y-45646676D02*
X55210839Y-45570485D01*
X55210839Y-45570485D02*
X55172744Y-45532390D01*
X55172744Y-45532390D02*
X55096554Y-45494295D01*
X55096554Y-45494295D02*
X54906077Y-45494295D01*
X54906077Y-45494295D02*
X54791792Y-45532390D01*
X54448934Y-46294295D02*
X54448934Y-45494295D01*
X54448934Y-45494295D02*
X54258458Y-45494295D01*
X54258458Y-45494295D02*
X54144172Y-45532390D01*
X54144172Y-45532390D02*
X54067982Y-45608580D01*
X54067982Y-45608580D02*
X54029887Y-45684771D01*
X54029887Y-45684771D02*
X53991791Y-45837152D01*
X53991791Y-45837152D02*
X53991791Y-45951438D01*
X53991791Y-45951438D02*
X54029887Y-46103819D01*
X54029887Y-46103819D02*
X54067982Y-46180009D01*
X54067982Y-46180009D02*
X54144172Y-46256200D01*
X54144172Y-46256200D02*
X54258458Y-46294295D01*
X54258458Y-46294295D02*
X54448934Y-46294295D01*
X53687030Y-46065723D02*
X53306077Y-46065723D01*
X53763220Y-46294295D02*
X53496553Y-45494295D01*
X53496553Y-45494295D02*
X53229887Y-46294295D01*
D11*
X109959508Y-34209234D02*
X109936740Y-34258061D01*
X109936740Y-34258061D02*
X109940030Y-34378484D01*
X109940030Y-34378484D02*
X109966089Y-34450080D01*
X109966089Y-34450080D02*
X110040975Y-34544444D01*
X110040975Y-34544444D02*
X110138629Y-34589981D01*
X110138629Y-34589981D02*
X110223254Y-34599720D01*
X110223254Y-34599720D02*
X110379474Y-34583401D01*
X110379474Y-34583401D02*
X110486868Y-34544313D01*
X110486868Y-34544313D02*
X110617030Y-34456397D01*
X110617030Y-34456397D02*
X110675596Y-34394541D01*
X110675596Y-34394541D02*
X110721133Y-34296887D01*
X110721133Y-34296887D02*
X110717843Y-34176464D01*
X110717843Y-34176464D02*
X110691784Y-34104868D01*
X110691784Y-34104868D02*
X110616898Y-34010504D01*
X110616898Y-34010504D02*
X110568071Y-33987736D01*
X110463836Y-33701353D02*
X110486605Y-33652526D01*
X110486605Y-33652526D02*
X110496344Y-33567901D01*
X110496344Y-33567901D02*
X110431197Y-33388912D01*
X110431197Y-33388912D02*
X110369341Y-33330346D01*
X110369341Y-33330346D02*
X110320514Y-33307577D01*
X110320514Y-33307577D02*
X110235889Y-33297838D01*
X110235889Y-33297838D02*
X110164293Y-33323897D01*
X110164293Y-33323897D02*
X110069929Y-33398782D01*
X110069929Y-33398782D02*
X109796707Y-33984708D01*
X109796707Y-33984708D02*
X109627326Y-33519337D01*
D12*
X54791792Y-48032390D02*
X54867982Y-47994295D01*
X54867982Y-47994295D02*
X54982268Y-47994295D01*
X54982268Y-47994295D02*
X55096554Y-48032390D01*
X55096554Y-48032390D02*
X55172744Y-48108580D01*
X55172744Y-48108580D02*
X55210839Y-48184771D01*
X55210839Y-48184771D02*
X55248935Y-48337152D01*
X55248935Y-48337152D02*
X55248935Y-48451438D01*
X55248935Y-48451438D02*
X55210839Y-48603819D01*
X55210839Y-48603819D02*
X55172744Y-48680009D01*
X55172744Y-48680009D02*
X55096554Y-48756200D01*
X55096554Y-48756200D02*
X54982268Y-48794295D01*
X54982268Y-48794295D02*
X54906077Y-48794295D01*
X54906077Y-48794295D02*
X54791792Y-48756200D01*
X54791792Y-48756200D02*
X54753696Y-48718104D01*
X54753696Y-48718104D02*
X54753696Y-48451438D01*
X54753696Y-48451438D02*
X54906077Y-48451438D01*
X54410839Y-48794295D02*
X54410839Y-47994295D01*
X54410839Y-47994295D02*
X53953696Y-48794295D01*
X53953696Y-48794295D02*
X53953696Y-47994295D01*
X53572744Y-48794295D02*
X53572744Y-47994295D01*
X53572744Y-47994295D02*
X53382268Y-47994295D01*
X53382268Y-47994295D02*
X53267982Y-48032390D01*
X53267982Y-48032390D02*
X53191792Y-48108580D01*
X53191792Y-48108580D02*
X53153697Y-48184771D01*
X53153697Y-48184771D02*
X53115601Y-48337152D01*
X53115601Y-48337152D02*
X53115601Y-48451438D01*
X53115601Y-48451438D02*
X53153697Y-48603819D01*
X53153697Y-48603819D02*
X53191792Y-48680009D01*
X53191792Y-48680009D02*
X53267982Y-48756200D01*
X53267982Y-48756200D02*
X53382268Y-48794295D01*
X53382268Y-48794295D02*
X53572744Y-48794295D01*
D11*
X92179508Y-34209234D02*
X92156740Y-34258061D01*
X92156740Y-34258061D02*
X92160030Y-34378484D01*
X92160030Y-34378484D02*
X92186089Y-34450080D01*
X92186089Y-34450080D02*
X92260975Y-34544444D01*
X92260975Y-34544444D02*
X92358629Y-34589981D01*
X92358629Y-34589981D02*
X92443254Y-34599720D01*
X92443254Y-34599720D02*
X92599474Y-34583401D01*
X92599474Y-34583401D02*
X92706868Y-34544313D01*
X92706868Y-34544313D02*
X92837030Y-34456397D01*
X92837030Y-34456397D02*
X92895596Y-34394541D01*
X92895596Y-34394541D02*
X92941133Y-34296887D01*
X92941133Y-34296887D02*
X92937843Y-34176464D01*
X92937843Y-34176464D02*
X92911784Y-34104868D01*
X92911784Y-34104868D02*
X92836898Y-34010504D01*
X92836898Y-34010504D02*
X92788071Y-33987736D01*
X91977619Y-33877315D02*
X91925502Y-33734124D01*
X91925502Y-33734124D02*
X91935241Y-33649499D01*
X91935241Y-33649499D02*
X91958010Y-33600671D01*
X91958010Y-33600671D02*
X92039344Y-33489988D01*
X92039344Y-33489988D02*
X92169506Y-33402073D01*
X92169506Y-33402073D02*
X92455889Y-33297838D01*
X92455889Y-33297838D02*
X92540514Y-33307577D01*
X92540514Y-33307577D02*
X92589341Y-33330346D01*
X92589341Y-33330346D02*
X92651197Y-33388912D01*
X92651197Y-33388912D02*
X92703315Y-33532103D01*
X92703315Y-33532103D02*
X92693576Y-33616728D01*
X92693576Y-33616728D02*
X92670807Y-33665555D01*
X92670807Y-33665555D02*
X92612241Y-33727412D01*
X92612241Y-33727412D02*
X92433252Y-33792558D01*
X92433252Y-33792558D02*
X92348627Y-33782819D01*
X92348627Y-33782819D02*
X92299800Y-33760051D01*
X92299800Y-33760051D02*
X92237943Y-33701485D01*
X92237943Y-33701485D02*
X92185826Y-33558293D01*
X92185826Y-33558293D02*
X92195565Y-33473668D01*
X92195565Y-33473668D02*
X92218333Y-33424841D01*
X92218333Y-33424841D02*
X92276900Y-33362985D01*
D12*
X109425125Y-49194295D02*
X109158458Y-49994295D01*
X109158458Y-49994295D02*
X108891792Y-49194295D01*
X108167982Y-49918104D02*
X108206078Y-49956200D01*
X108206078Y-49956200D02*
X108320363Y-49994295D01*
X108320363Y-49994295D02*
X108396554Y-49994295D01*
X108396554Y-49994295D02*
X108510840Y-49956200D01*
X108510840Y-49956200D02*
X108587030Y-49880009D01*
X108587030Y-49880009D02*
X108625125Y-49803819D01*
X108625125Y-49803819D02*
X108663221Y-49651438D01*
X108663221Y-49651438D02*
X108663221Y-49537152D01*
X108663221Y-49537152D02*
X108625125Y-49384771D01*
X108625125Y-49384771D02*
X108587030Y-49308580D01*
X108587030Y-49308580D02*
X108510840Y-49232390D01*
X108510840Y-49232390D02*
X108396554Y-49194295D01*
X108396554Y-49194295D02*
X108320363Y-49194295D01*
X108320363Y-49194295D02*
X108206078Y-49232390D01*
X108206078Y-49232390D02*
X108167982Y-49270485D01*
X107367982Y-49918104D02*
X107406078Y-49956200D01*
X107406078Y-49956200D02*
X107520363Y-49994295D01*
X107520363Y-49994295D02*
X107596554Y-49994295D01*
X107596554Y-49994295D02*
X107710840Y-49956200D01*
X107710840Y-49956200D02*
X107787030Y-49880009D01*
X107787030Y-49880009D02*
X107825125Y-49803819D01*
X107825125Y-49803819D02*
X107863221Y-49651438D01*
X107863221Y-49651438D02*
X107863221Y-49537152D01*
X107863221Y-49537152D02*
X107825125Y-49384771D01*
X107825125Y-49384771D02*
X107787030Y-49308580D01*
X107787030Y-49308580D02*
X107710840Y-49232390D01*
X107710840Y-49232390D02*
X107596554Y-49194295D01*
X107596554Y-49194295D02*
X107520363Y-49194295D01*
X107520363Y-49194295D02*
X107406078Y-49232390D01*
X107406078Y-49232390D02*
X107367982Y-49270485D01*
D11*
X77232537Y-34568792D02*
X77102244Y-34210814D01*
X77043809Y-34718563D02*
X77704357Y-34194363D01*
X77704357Y-34194363D02*
X76861398Y-34217394D01*
X77548005Y-33764789D02*
X77378624Y-33299417D01*
X77378624Y-33299417D02*
X77183447Y-33654237D01*
X77183447Y-33654237D02*
X77144359Y-33546843D01*
X77144359Y-33546843D02*
X77082502Y-33488277D01*
X77082502Y-33488277D02*
X77033675Y-33465509D01*
X77033675Y-33465509D02*
X76949050Y-33455770D01*
X76949050Y-33455770D02*
X76770061Y-33520916D01*
X76770061Y-33520916D02*
X76711495Y-33582773D01*
X76711495Y-33582773D02*
X76688726Y-33631600D01*
X76688726Y-33631600D02*
X76678987Y-33716225D01*
X76678987Y-33716225D02*
X76757163Y-33931012D01*
X76757163Y-33931012D02*
X76819020Y-33989578D01*
X76819020Y-33989578D02*
X76867847Y-34012346D01*
X107419508Y-34209234D02*
X107396740Y-34258061D01*
X107396740Y-34258061D02*
X107400030Y-34378484D01*
X107400030Y-34378484D02*
X107426089Y-34450080D01*
X107426089Y-34450080D02*
X107500975Y-34544444D01*
X107500975Y-34544444D02*
X107598629Y-34589981D01*
X107598629Y-34589981D02*
X107683254Y-34599720D01*
X107683254Y-34599720D02*
X107839474Y-34583401D01*
X107839474Y-34583401D02*
X107946868Y-34544313D01*
X107946868Y-34544313D02*
X108077030Y-34456397D01*
X108077030Y-34456397D02*
X108135596Y-34394541D01*
X108135596Y-34394541D02*
X108181133Y-34296887D01*
X108181133Y-34296887D02*
X108177843Y-34176464D01*
X108177843Y-34176464D02*
X108151784Y-34104868D01*
X108151784Y-34104868D02*
X108076898Y-34010504D01*
X108076898Y-34010504D02*
X108028071Y-33987736D01*
X108008461Y-33711092D02*
X107839080Y-33245721D01*
X107839080Y-33245721D02*
X107643903Y-33600540D01*
X107643903Y-33600540D02*
X107604815Y-33493147D01*
X107604815Y-33493147D02*
X107542958Y-33434580D01*
X107542958Y-33434580D02*
X107494131Y-33411812D01*
X107494131Y-33411812D02*
X107409506Y-33402073D01*
X107409506Y-33402073D02*
X107230517Y-33467219D01*
X107230517Y-33467219D02*
X107171951Y-33529076D01*
X107171951Y-33529076D02*
X107149182Y-33577903D01*
X107149182Y-33577903D02*
X107139443Y-33662528D01*
X107139443Y-33662528D02*
X107217619Y-33877315D01*
X107217619Y-33877315D02*
X107279476Y-33935881D01*
X107279476Y-33935881D02*
X107328303Y-33958650D01*
X84852537Y-34568792D02*
X84722244Y-34210814D01*
X84663809Y-34718563D02*
X85324357Y-34194363D01*
X85324357Y-34194363D02*
X84481398Y-34217394D01*
X85089829Y-33550002D02*
X85063771Y-33478407D01*
X85063771Y-33478407D02*
X85001914Y-33419840D01*
X85001914Y-33419840D02*
X84953087Y-33397072D01*
X84953087Y-33397072D02*
X84868462Y-33387333D01*
X84868462Y-33387333D02*
X84712242Y-33403652D01*
X84712242Y-33403652D02*
X84533252Y-33468799D01*
X84533252Y-33468799D02*
X84403091Y-33556714D01*
X84403091Y-33556714D02*
X84344524Y-33618571D01*
X84344524Y-33618571D02*
X84321756Y-33667398D01*
X84321756Y-33667398D02*
X84312017Y-33752023D01*
X84312017Y-33752023D02*
X84338075Y-33823618D01*
X84338075Y-33823618D02*
X84399932Y-33882185D01*
X84399932Y-33882185D02*
X84448759Y-33904953D01*
X84448759Y-33904953D02*
X84533384Y-33914692D01*
X84533384Y-33914692D02*
X84689605Y-33898373D01*
X84689605Y-33898373D02*
X84868594Y-33833226D01*
X84868594Y-33833226D02*
X84998756Y-33745311D01*
X84998756Y-33745311D02*
X85057322Y-33683454D01*
X85057322Y-33683454D02*
X85080090Y-33634627D01*
X85080090Y-33634627D02*
X85089829Y-33550002D01*
D12*
X108991792Y-48032390D02*
X109067982Y-47994295D01*
X109067982Y-47994295D02*
X109182268Y-47994295D01*
X109182268Y-47994295D02*
X109296554Y-48032390D01*
X109296554Y-48032390D02*
X109372744Y-48108580D01*
X109372744Y-48108580D02*
X109410839Y-48184771D01*
X109410839Y-48184771D02*
X109448935Y-48337152D01*
X109448935Y-48337152D02*
X109448935Y-48451438D01*
X109448935Y-48451438D02*
X109410839Y-48603819D01*
X109410839Y-48603819D02*
X109372744Y-48680009D01*
X109372744Y-48680009D02*
X109296554Y-48756200D01*
X109296554Y-48756200D02*
X109182268Y-48794295D01*
X109182268Y-48794295D02*
X109106077Y-48794295D01*
X109106077Y-48794295D02*
X108991792Y-48756200D01*
X108991792Y-48756200D02*
X108953696Y-48718104D01*
X108953696Y-48718104D02*
X108953696Y-48451438D01*
X108953696Y-48451438D02*
X109106077Y-48451438D01*
X108610839Y-48794295D02*
X108610839Y-47994295D01*
X108610839Y-47994295D02*
X108153696Y-48794295D01*
X108153696Y-48794295D02*
X108153696Y-47994295D01*
X107772744Y-48794295D02*
X107772744Y-47994295D01*
X107772744Y-47994295D02*
X107582268Y-47994295D01*
X107582268Y-47994295D02*
X107467982Y-48032390D01*
X107467982Y-48032390D02*
X107391792Y-48108580D01*
X107391792Y-48108580D02*
X107353697Y-48184771D01*
X107353697Y-48184771D02*
X107315601Y-48337152D01*
X107315601Y-48337152D02*
X107315601Y-48451438D01*
X107315601Y-48451438D02*
X107353697Y-48603819D01*
X107353697Y-48603819D02*
X107391792Y-48680009D01*
X107391792Y-48680009D02*
X107467982Y-48756200D01*
X107467982Y-48756200D02*
X107582268Y-48794295D01*
X107582268Y-48794295D02*
X107772744Y-48794295D01*
D11*
X97259508Y-34209234D02*
X97236740Y-34258061D01*
X97236740Y-34258061D02*
X97240030Y-34378484D01*
X97240030Y-34378484D02*
X97266089Y-34450080D01*
X97266089Y-34450080D02*
X97340975Y-34544444D01*
X97340975Y-34544444D02*
X97438629Y-34589981D01*
X97438629Y-34589981D02*
X97523254Y-34599720D01*
X97523254Y-34599720D02*
X97679474Y-34583401D01*
X97679474Y-34583401D02*
X97786868Y-34544313D01*
X97786868Y-34544313D02*
X97917030Y-34456397D01*
X97917030Y-34456397D02*
X97975596Y-34394541D01*
X97975596Y-34394541D02*
X98021133Y-34296887D01*
X98021133Y-34296887D02*
X98017843Y-34176464D01*
X98017843Y-34176464D02*
X97991784Y-34104868D01*
X97991784Y-34104868D02*
X97916898Y-34010504D01*
X97916898Y-34010504D02*
X97868071Y-33987736D01*
X97848461Y-33711092D02*
X97666051Y-33209923D01*
X97666051Y-33209923D02*
X97031561Y-33805719D01*
D12*
X55348935Y-45056200D02*
X55234649Y-45094295D01*
X55234649Y-45094295D02*
X55044173Y-45094295D01*
X55044173Y-45094295D02*
X54967982Y-45056200D01*
X54967982Y-45056200D02*
X54929887Y-45018104D01*
X54929887Y-45018104D02*
X54891792Y-44941914D01*
X54891792Y-44941914D02*
X54891792Y-44865723D01*
X54891792Y-44865723D02*
X54929887Y-44789533D01*
X54929887Y-44789533D02*
X54967982Y-44751438D01*
X54967982Y-44751438D02*
X55044173Y-44713342D01*
X55044173Y-44713342D02*
X55196554Y-44675247D01*
X55196554Y-44675247D02*
X55272744Y-44637152D01*
X55272744Y-44637152D02*
X55310839Y-44599057D01*
X55310839Y-44599057D02*
X55348935Y-44522866D01*
X55348935Y-44522866D02*
X55348935Y-44446676D01*
X55348935Y-44446676D02*
X55310839Y-44370485D01*
X55310839Y-44370485D02*
X55272744Y-44332390D01*
X55272744Y-44332390D02*
X55196554Y-44294295D01*
X55196554Y-44294295D02*
X55006077Y-44294295D01*
X55006077Y-44294295D02*
X54891792Y-44332390D01*
X54091791Y-45018104D02*
X54129887Y-45056200D01*
X54129887Y-45056200D02*
X54244172Y-45094295D01*
X54244172Y-45094295D02*
X54320363Y-45094295D01*
X54320363Y-45094295D02*
X54434649Y-45056200D01*
X54434649Y-45056200D02*
X54510839Y-44980009D01*
X54510839Y-44980009D02*
X54548934Y-44903819D01*
X54548934Y-44903819D02*
X54587030Y-44751438D01*
X54587030Y-44751438D02*
X54587030Y-44637152D01*
X54587030Y-44637152D02*
X54548934Y-44484771D01*
X54548934Y-44484771D02*
X54510839Y-44408580D01*
X54510839Y-44408580D02*
X54434649Y-44332390D01*
X54434649Y-44332390D02*
X54320363Y-44294295D01*
X54320363Y-44294295D02*
X54244172Y-44294295D01*
X54244172Y-44294295D02*
X54129887Y-44332390D01*
X54129887Y-44332390D02*
X54091791Y-44370485D01*
X53367982Y-45094295D02*
X53748934Y-45094295D01*
X53748934Y-45094295D02*
X53748934Y-44294295D01*
D11*
X67072537Y-34568792D02*
X66942244Y-34210814D01*
X66883809Y-34718563D02*
X67544357Y-34194363D01*
X67544357Y-34194363D02*
X66701398Y-34217394D01*
X67388005Y-33764789D02*
X67205595Y-33263620D01*
X67205595Y-33263620D02*
X66571105Y-33859416D01*
D12*
X109348935Y-51156200D02*
X109234649Y-51194295D01*
X109234649Y-51194295D02*
X109044173Y-51194295D01*
X109044173Y-51194295D02*
X108967982Y-51156200D01*
X108967982Y-51156200D02*
X108929887Y-51118104D01*
X108929887Y-51118104D02*
X108891792Y-51041914D01*
X108891792Y-51041914D02*
X108891792Y-50965723D01*
X108891792Y-50965723D02*
X108929887Y-50889533D01*
X108929887Y-50889533D02*
X108967982Y-50851438D01*
X108967982Y-50851438D02*
X109044173Y-50813342D01*
X109044173Y-50813342D02*
X109196554Y-50775247D01*
X109196554Y-50775247D02*
X109272744Y-50737152D01*
X109272744Y-50737152D02*
X109310839Y-50699057D01*
X109310839Y-50699057D02*
X109348935Y-50622866D01*
X109348935Y-50622866D02*
X109348935Y-50546676D01*
X109348935Y-50546676D02*
X109310839Y-50470485D01*
X109310839Y-50470485D02*
X109272744Y-50432390D01*
X109272744Y-50432390D02*
X109196554Y-50394295D01*
X109196554Y-50394295D02*
X109006077Y-50394295D01*
X109006077Y-50394295D02*
X108891792Y-50432390D01*
X108548934Y-51194295D02*
X108548934Y-50394295D01*
X108548934Y-50394295D02*
X108358458Y-50394295D01*
X108358458Y-50394295D02*
X108244172Y-50432390D01*
X108244172Y-50432390D02*
X108167982Y-50508580D01*
X108167982Y-50508580D02*
X108129887Y-50584771D01*
X108129887Y-50584771D02*
X108091791Y-50737152D01*
X108091791Y-50737152D02*
X108091791Y-50851438D01*
X108091791Y-50851438D02*
X108129887Y-51003819D01*
X108129887Y-51003819D02*
X108167982Y-51080009D01*
X108167982Y-51080009D02*
X108244172Y-51156200D01*
X108244172Y-51156200D02*
X108358458Y-51194295D01*
X108358458Y-51194295D02*
X108548934Y-51194295D01*
X107787030Y-50965723D02*
X107406077Y-50965723D01*
X107863220Y-51194295D02*
X107596553Y-50394295D01*
X107596553Y-50394295D02*
X107329887Y-51194295D01*
X49433333Y-46054819D02*
X49433333Y-46769104D01*
X49433333Y-46769104D02*
X49480952Y-46911961D01*
X49480952Y-46911961D02*
X49576190Y-47007200D01*
X49576190Y-47007200D02*
X49719047Y-47054819D01*
X49719047Y-47054819D02*
X49814285Y-47054819D01*
X48528571Y-46388152D02*
X48528571Y-47054819D01*
X48766666Y-46007200D02*
X49004761Y-46721485D01*
X49004761Y-46721485D02*
X48385714Y-46721485D01*
X39019333Y-53760019D02*
X39019333Y-54474304D01*
X39019333Y-54474304D02*
X39066952Y-54617161D01*
X39066952Y-54617161D02*
X39162190Y-54712400D01*
X39162190Y-54712400D02*
X39305047Y-54760019D01*
X39305047Y-54760019D02*
X39400285Y-54760019D01*
X38066952Y-53760019D02*
X38543142Y-53760019D01*
X38543142Y-53760019D02*
X38590761Y-54236209D01*
X38590761Y-54236209D02*
X38543142Y-54188590D01*
X38543142Y-54188590D02*
X38447904Y-54140971D01*
X38447904Y-54140971D02*
X38209809Y-54140971D01*
X38209809Y-54140971D02*
X38114571Y-54188590D01*
X38114571Y-54188590D02*
X38066952Y-54236209D01*
X38066952Y-54236209D02*
X38019333Y-54331447D01*
X38019333Y-54331447D02*
X38019333Y-54569542D01*
X38019333Y-54569542D02*
X38066952Y-54664780D01*
X38066952Y-54664780D02*
X38114571Y-54712400D01*
X38114571Y-54712400D02*
X38209809Y-54760019D01*
X38209809Y-54760019D02*
X38447904Y-54760019D01*
X38447904Y-54760019D02*
X38543142Y-54712400D01*
X38543142Y-54712400D02*
X38590761Y-54664780D01*
X113871333Y-49746819D02*
X113871333Y-50461104D01*
X113871333Y-50461104D02*
X113918952Y-50603961D01*
X113918952Y-50603961D02*
X114014190Y-50699200D01*
X114014190Y-50699200D02*
X114157047Y-50746819D01*
X114157047Y-50746819D02*
X114252285Y-50746819D01*
X113442761Y-49842057D02*
X113395142Y-49794438D01*
X113395142Y-49794438D02*
X113299904Y-49746819D01*
X113299904Y-49746819D02*
X113061809Y-49746819D01*
X113061809Y-49746819D02*
X112966571Y-49794438D01*
X112966571Y-49794438D02*
X112918952Y-49842057D01*
X112918952Y-49842057D02*
X112871333Y-49937295D01*
X112871333Y-49937295D02*
X112871333Y-50032533D01*
X112871333Y-50032533D02*
X112918952Y-50175390D01*
X112918952Y-50175390D02*
X113490380Y-50746819D01*
X113490380Y-50746819D02*
X112871333Y-50746819D01*
D10*
%TO.C,J4*%
X48385000Y-49710000D02*
X50885000Y-49710000D01*
X50885000Y-49710000D02*
X50885000Y-48660000D01*
X50885000Y-48660000D02*
X51875000Y-48660000D01*
X46415000Y-48540000D02*
X46415000Y-44660000D01*
X48385000Y-43490000D02*
X50885000Y-43490000D01*
X50885000Y-43490000D02*
X50885000Y-44540000D01*
%TO.C,J5*%
X41796000Y-53547000D02*
X41796000Y-51047000D01*
X41796000Y-51047000D02*
X40746000Y-51047000D01*
X40746000Y-51047000D02*
X40746000Y-50057000D01*
X40626000Y-55517000D02*
X36746000Y-55517000D01*
X35576000Y-53547000D02*
X35576000Y-51047000D01*
X35576000Y-51047000D02*
X36626000Y-51047000D01*
%TO.C,J2*%
X114253000Y-47182000D02*
X111753000Y-47182000D01*
X111753000Y-47182000D02*
X111753000Y-48232000D01*
X111753000Y-48232000D02*
X110763000Y-48232000D01*
X116223000Y-48352000D02*
X116223000Y-52232000D01*
X114253000Y-53402000D02*
X111753000Y-53402000D01*
X111753000Y-53402000D02*
X111753000Y-52352000D01*
%TD*%
M02*
