%TF.GenerationSoftware,KiCad,Pcbnew,7.0.7*%
%TF.CreationDate,2023-10-03T22:28:34+01:00*%
%TF.ProjectId,nixie-controller-breakaway,6e697869-652d-4636-9f6e-74726f6c6c65,rev?*%
%TF.SameCoordinates,Original*%
%TF.FileFunction,Legend,Top*%
%TF.FilePolarity,Positive*%
%FSLAX46Y46*%
G04 Gerber Fmt 4.6, Leading zero omitted, Abs format (unit mm)*
G04 Created by KiCad (PCBNEW 7.0.7) date 2023-10-03 22:28:34*
%MOMM*%
%LPD*%
G01*
G04 APERTURE LIST*
%ADD10C,0.120000*%
%ADD11C,0.150000*%
G04 APERTURE END LIST*
D10*
X44750000Y-55850000D02*
X44750000Y-30500000D01*
D11*
X101725790Y-50511904D02*
X102201980Y-50511904D01*
X101630552Y-50797619D02*
X101963885Y-49797619D01*
X101963885Y-49797619D02*
X102297218Y-50797619D01*
X102487695Y-49797619D02*
X103059123Y-49797619D01*
X102773409Y-50797619D02*
X102773409Y-49797619D01*
X103249600Y-49797619D02*
X103821028Y-49797619D01*
X103535314Y-50797619D02*
X103535314Y-49797619D01*
X104154362Y-50797619D02*
X104154362Y-50130952D01*
X104154362Y-49797619D02*
X104106743Y-49845238D01*
X104106743Y-49845238D02*
X104154362Y-49892857D01*
X104154362Y-49892857D02*
X104201981Y-49845238D01*
X104201981Y-49845238D02*
X104154362Y-49797619D01*
X104154362Y-49797619D02*
X104154362Y-49892857D01*
X104630552Y-50130952D02*
X104630552Y-50797619D01*
X104630552Y-50226190D02*
X104678171Y-50178571D01*
X104678171Y-50178571D02*
X104773409Y-50130952D01*
X104773409Y-50130952D02*
X104916266Y-50130952D01*
X104916266Y-50130952D02*
X105011504Y-50178571D01*
X105011504Y-50178571D02*
X105059123Y-50273809D01*
X105059123Y-50273809D02*
X105059123Y-50797619D01*
X105440076Y-50130952D02*
X105678171Y-50797619D01*
X105916266Y-50130952D02*
X105678171Y-50797619D01*
X105678171Y-50797619D02*
X105582933Y-51035714D01*
X105582933Y-51035714D02*
X105535314Y-51083333D01*
X105535314Y-51083333D02*
X105440076Y-51130952D01*
X106440076Y-50226190D02*
X106344838Y-50178571D01*
X106344838Y-50178571D02*
X106297219Y-50130952D01*
X106297219Y-50130952D02*
X106249600Y-50035714D01*
X106249600Y-50035714D02*
X106249600Y-49988095D01*
X106249600Y-49988095D02*
X106297219Y-49892857D01*
X106297219Y-49892857D02*
X106344838Y-49845238D01*
X106344838Y-49845238D02*
X106440076Y-49797619D01*
X106440076Y-49797619D02*
X106630552Y-49797619D01*
X106630552Y-49797619D02*
X106725790Y-49845238D01*
X106725790Y-49845238D02*
X106773409Y-49892857D01*
X106773409Y-49892857D02*
X106821028Y-49988095D01*
X106821028Y-49988095D02*
X106821028Y-50035714D01*
X106821028Y-50035714D02*
X106773409Y-50130952D01*
X106773409Y-50130952D02*
X106725790Y-50178571D01*
X106725790Y-50178571D02*
X106630552Y-50226190D01*
X106630552Y-50226190D02*
X106440076Y-50226190D01*
X106440076Y-50226190D02*
X106344838Y-50273809D01*
X106344838Y-50273809D02*
X106297219Y-50321428D01*
X106297219Y-50321428D02*
X106249600Y-50416666D01*
X106249600Y-50416666D02*
X106249600Y-50607142D01*
X106249600Y-50607142D02*
X106297219Y-50702380D01*
X106297219Y-50702380D02*
X106344838Y-50750000D01*
X106344838Y-50750000D02*
X106440076Y-50797619D01*
X106440076Y-50797619D02*
X106630552Y-50797619D01*
X106630552Y-50797619D02*
X106725790Y-50750000D01*
X106725790Y-50750000D02*
X106773409Y-50702380D01*
X106773409Y-50702380D02*
X106821028Y-50607142D01*
X106821028Y-50607142D02*
X106821028Y-50416666D01*
X106821028Y-50416666D02*
X106773409Y-50321428D01*
X106773409Y-50321428D02*
X106725790Y-50273809D01*
X106725790Y-50273809D02*
X106630552Y-50226190D01*
X107678171Y-50130952D02*
X107678171Y-50797619D01*
X107440076Y-49750000D02*
X107201981Y-50464285D01*
X107201981Y-50464285D02*
X107821028Y-50464285D01*
X72376114Y-40085180D02*
X72328495Y-40132800D01*
X72328495Y-40132800D02*
X72185638Y-40180419D01*
X72185638Y-40180419D02*
X72090400Y-40180419D01*
X72090400Y-40180419D02*
X71947543Y-40132800D01*
X71947543Y-40132800D02*
X71852305Y-40037561D01*
X71852305Y-40037561D02*
X71804686Y-39942323D01*
X71804686Y-39942323D02*
X71757067Y-39751847D01*
X71757067Y-39751847D02*
X71757067Y-39608990D01*
X71757067Y-39608990D02*
X71804686Y-39418514D01*
X71804686Y-39418514D02*
X71852305Y-39323276D01*
X71852305Y-39323276D02*
X71947543Y-39228038D01*
X71947543Y-39228038D02*
X72090400Y-39180419D01*
X72090400Y-39180419D02*
X72185638Y-39180419D01*
X72185638Y-39180419D02*
X72328495Y-39228038D01*
X72328495Y-39228038D02*
X72376114Y-39275657D01*
X72804686Y-40180419D02*
X72804686Y-39180419D01*
X72804686Y-39180419D02*
X73376114Y-40180419D01*
X73376114Y-40180419D02*
X73376114Y-39180419D01*
X74042781Y-39704228D02*
X74042781Y-40180419D01*
X73709448Y-39180419D02*
X74042781Y-39704228D01*
X74042781Y-39704228D02*
X74376114Y-39180419D01*
X74614210Y-39180419D02*
X75280876Y-39180419D01*
X75280876Y-39180419D02*
X74852305Y-40180419D01*
X76090400Y-39513752D02*
X76090400Y-40180419D01*
X75852305Y-39132800D02*
X75614210Y-39847085D01*
X75614210Y-39847085D02*
X76233257Y-39847085D01*
X76614210Y-39799466D02*
X77376115Y-39799466D01*
X78280876Y-39513752D02*
X78280876Y-40180419D01*
X78042781Y-39132800D02*
X77804686Y-39847085D01*
X77804686Y-39847085D02*
X78423733Y-39847085D01*
X78804686Y-40180419D02*
X78804686Y-39180419D01*
X78804686Y-39656609D02*
X79376114Y-39656609D01*
X79376114Y-40180419D02*
X79376114Y-39180419D01*
X71364286Y-49746819D02*
X72030952Y-49746819D01*
X72030952Y-49746819D02*
X71602381Y-50746819D01*
X72840476Y-50080152D02*
X72840476Y-50746819D01*
X72602381Y-49699200D02*
X72364286Y-50413485D01*
X72364286Y-50413485D02*
X72983333Y-50413485D01*
X73792857Y-50080152D02*
X73792857Y-50746819D01*
X73554762Y-49699200D02*
X73316667Y-50413485D01*
X73316667Y-50413485D02*
X73935714Y-50413485D01*
X74792857Y-49746819D02*
X74316667Y-49746819D01*
X74316667Y-49746819D02*
X74269048Y-50223009D01*
X74269048Y-50223009D02*
X74316667Y-50175390D01*
X74316667Y-50175390D02*
X74411905Y-50127771D01*
X74411905Y-50127771D02*
X74650000Y-50127771D01*
X74650000Y-50127771D02*
X74745238Y-50175390D01*
X74745238Y-50175390D02*
X74792857Y-50223009D01*
X74792857Y-50223009D02*
X74840476Y-50318247D01*
X74840476Y-50318247D02*
X74840476Y-50556342D01*
X74840476Y-50556342D02*
X74792857Y-50651580D01*
X74792857Y-50651580D02*
X74745238Y-50699200D01*
X74745238Y-50699200D02*
X74650000Y-50746819D01*
X74650000Y-50746819D02*
X74411905Y-50746819D01*
X74411905Y-50746819D02*
X74316667Y-50699200D01*
X74316667Y-50699200D02*
X74269048Y-50651580D01*
X75269048Y-50746819D02*
X75269048Y-49746819D01*
X75269048Y-49746819D02*
X75840476Y-50746819D01*
X75840476Y-50746819D02*
X75840476Y-49746819D01*
X103273505Y-39231219D02*
X103940171Y-39231219D01*
X103940171Y-39231219D02*
X103511600Y-40231219D01*
X104749695Y-39564552D02*
X104749695Y-40231219D01*
X104511600Y-39183600D02*
X104273505Y-39897885D01*
X104273505Y-39897885D02*
X104892552Y-39897885D01*
X105797314Y-40231219D02*
X105225886Y-40231219D01*
X105511600Y-40231219D02*
X105511600Y-39231219D01*
X105511600Y-39231219D02*
X105416362Y-39374076D01*
X105416362Y-39374076D02*
X105321124Y-39469314D01*
X105321124Y-39469314D02*
X105225886Y-39516933D01*
X106654457Y-39564552D02*
X106654457Y-40231219D01*
X106416362Y-39183600D02*
X106178267Y-39897885D01*
X106178267Y-39897885D02*
X106797314Y-39897885D01*
X107702076Y-40231219D02*
X107130648Y-40231219D01*
X107416362Y-40231219D02*
X107416362Y-39231219D01*
X107416362Y-39231219D02*
X107321124Y-39374076D01*
X107321124Y-39374076D02*
X107225886Y-39469314D01*
X107225886Y-39469314D02*
X107130648Y-39516933D01*
X48772493Y-35269819D02*
X48772493Y-35984104D01*
X48772493Y-35984104D02*
X48724874Y-36126961D01*
X48724874Y-36126961D02*
X48629636Y-36222200D01*
X48629636Y-36222200D02*
X48486779Y-36269819D01*
X48486779Y-36269819D02*
X48391541Y-36269819D01*
X49724874Y-36269819D02*
X49248684Y-36269819D01*
X49248684Y-36269819D02*
X49248684Y-35269819D01*
X50629636Y-36174580D02*
X50582017Y-36222200D01*
X50582017Y-36222200D02*
X50439160Y-36269819D01*
X50439160Y-36269819D02*
X50343922Y-36269819D01*
X50343922Y-36269819D02*
X50201065Y-36222200D01*
X50201065Y-36222200D02*
X50105827Y-36126961D01*
X50105827Y-36126961D02*
X50058208Y-36031723D01*
X50058208Y-36031723D02*
X50010589Y-35841247D01*
X50010589Y-35841247D02*
X50010589Y-35698390D01*
X50010589Y-35698390D02*
X50058208Y-35507914D01*
X50058208Y-35507914D02*
X50105827Y-35412676D01*
X50105827Y-35412676D02*
X50201065Y-35317438D01*
X50201065Y-35317438D02*
X50343922Y-35269819D01*
X50343922Y-35269819D02*
X50439160Y-35269819D01*
X50439160Y-35269819D02*
X50582017Y-35317438D01*
X50582017Y-35317438D02*
X50629636Y-35365057D01*
X51343922Y-35269819D02*
X51343922Y-35984104D01*
X51343922Y-35984104D02*
X51296303Y-36126961D01*
X51296303Y-36126961D02*
X51201065Y-36222200D01*
X51201065Y-36222200D02*
X51058208Y-36269819D01*
X51058208Y-36269819D02*
X50962970Y-36269819D01*
X52296303Y-36269819D02*
X51820113Y-36269819D01*
X51820113Y-36269819D02*
X51820113Y-35269819D01*
X53201065Y-36174580D02*
X53153446Y-36222200D01*
X53153446Y-36222200D02*
X53010589Y-36269819D01*
X53010589Y-36269819D02*
X52915351Y-36269819D01*
X52915351Y-36269819D02*
X52772494Y-36222200D01*
X52772494Y-36222200D02*
X52677256Y-36126961D01*
X52677256Y-36126961D02*
X52629637Y-36031723D01*
X52629637Y-36031723D02*
X52582018Y-35841247D01*
X52582018Y-35841247D02*
X52582018Y-35698390D01*
X52582018Y-35698390D02*
X52629637Y-35507914D01*
X52629637Y-35507914D02*
X52677256Y-35412676D01*
X52677256Y-35412676D02*
X52772494Y-35317438D01*
X52772494Y-35317438D02*
X52915351Y-35269819D01*
X52915351Y-35269819D02*
X53010589Y-35269819D01*
X53010589Y-35269819D02*
X53153446Y-35317438D01*
X53153446Y-35317438D02*
X53201065Y-35365057D01*
X53915351Y-35269819D02*
X53915351Y-35984104D01*
X53915351Y-35984104D02*
X53867732Y-36126961D01*
X53867732Y-36126961D02*
X53772494Y-36222200D01*
X53772494Y-36222200D02*
X53629637Y-36269819D01*
X53629637Y-36269819D02*
X53534399Y-36269819D01*
X54867732Y-36269819D02*
X54391542Y-36269819D01*
X54391542Y-36269819D02*
X54391542Y-35269819D01*
X55772494Y-36174580D02*
X55724875Y-36222200D01*
X55724875Y-36222200D02*
X55582018Y-36269819D01*
X55582018Y-36269819D02*
X55486780Y-36269819D01*
X55486780Y-36269819D02*
X55343923Y-36222200D01*
X55343923Y-36222200D02*
X55248685Y-36126961D01*
X55248685Y-36126961D02*
X55201066Y-36031723D01*
X55201066Y-36031723D02*
X55153447Y-35841247D01*
X55153447Y-35841247D02*
X55153447Y-35698390D01*
X55153447Y-35698390D02*
X55201066Y-35507914D01*
X55201066Y-35507914D02*
X55248685Y-35412676D01*
X55248685Y-35412676D02*
X55343923Y-35317438D01*
X55343923Y-35317438D02*
X55486780Y-35269819D01*
X55486780Y-35269819D02*
X55582018Y-35269819D01*
X55582018Y-35269819D02*
X55724875Y-35317438D01*
X55724875Y-35317438D02*
X55772494Y-35365057D01*
X56486780Y-35269819D02*
X56486780Y-35984104D01*
X56486780Y-35984104D02*
X56439161Y-36126961D01*
X56439161Y-36126961D02*
X56343923Y-36222200D01*
X56343923Y-36222200D02*
X56201066Y-36269819D01*
X56201066Y-36269819D02*
X56105828Y-36269819D01*
X57439161Y-36269819D02*
X56962971Y-36269819D01*
X56962971Y-36269819D02*
X56962971Y-35269819D01*
X58343923Y-36174580D02*
X58296304Y-36222200D01*
X58296304Y-36222200D02*
X58153447Y-36269819D01*
X58153447Y-36269819D02*
X58058209Y-36269819D01*
X58058209Y-36269819D02*
X57915352Y-36222200D01*
X57915352Y-36222200D02*
X57820114Y-36126961D01*
X57820114Y-36126961D02*
X57772495Y-36031723D01*
X57772495Y-36031723D02*
X57724876Y-35841247D01*
X57724876Y-35841247D02*
X57724876Y-35698390D01*
X57724876Y-35698390D02*
X57772495Y-35507914D01*
X57772495Y-35507914D02*
X57820114Y-35412676D01*
X57820114Y-35412676D02*
X57915352Y-35317438D01*
X57915352Y-35317438D02*
X58058209Y-35269819D01*
X58058209Y-35269819D02*
X58153447Y-35269819D01*
X58153447Y-35269819D02*
X58296304Y-35317438D01*
X58296304Y-35317438D02*
X58343923Y-35365057D01*
X39248780Y-45784685D02*
X39296400Y-45832304D01*
X39296400Y-45832304D02*
X39344019Y-45975161D01*
X39344019Y-45975161D02*
X39344019Y-46070399D01*
X39344019Y-46070399D02*
X39296400Y-46213256D01*
X39296400Y-46213256D02*
X39201161Y-46308494D01*
X39201161Y-46308494D02*
X39105923Y-46356113D01*
X39105923Y-46356113D02*
X38915447Y-46403732D01*
X38915447Y-46403732D02*
X38772590Y-46403732D01*
X38772590Y-46403732D02*
X38582114Y-46356113D01*
X38582114Y-46356113D02*
X38486876Y-46308494D01*
X38486876Y-46308494D02*
X38391638Y-46213256D01*
X38391638Y-46213256D02*
X38344019Y-46070399D01*
X38344019Y-46070399D02*
X38344019Y-45975161D01*
X38344019Y-45975161D02*
X38391638Y-45832304D01*
X38391638Y-45832304D02*
X38439257Y-45784685D01*
X39344019Y-45356113D02*
X38344019Y-45356113D01*
X38344019Y-45356113D02*
X39344019Y-44784685D01*
X39344019Y-44784685D02*
X38344019Y-44784685D01*
X38867828Y-44118018D02*
X39344019Y-44118018D01*
X38344019Y-44451351D02*
X38867828Y-44118018D01*
X38867828Y-44118018D02*
X38344019Y-43784685D01*
X38344019Y-43546589D02*
X38344019Y-42879923D01*
X38344019Y-42879923D02*
X39344019Y-43308494D01*
X38677352Y-42070399D02*
X39344019Y-42070399D01*
X38296400Y-42308494D02*
X39010685Y-42546589D01*
X39010685Y-42546589D02*
X39010685Y-41927542D01*
X38963066Y-41546589D02*
X38963066Y-40784685D01*
X38677352Y-39879923D02*
X39344019Y-39879923D01*
X38296400Y-40118018D02*
X39010685Y-40356113D01*
X39010685Y-40356113D02*
X39010685Y-39737066D01*
X39344019Y-39356113D02*
X38344019Y-39356113D01*
X38820209Y-39356113D02*
X38820209Y-38784685D01*
X39344019Y-38784685D02*
X38344019Y-38784685D01*
X88225333Y-49476819D02*
X87892000Y-49000628D01*
X87653905Y-49476819D02*
X87653905Y-48476819D01*
X87653905Y-48476819D02*
X88034857Y-48476819D01*
X88034857Y-48476819D02*
X88130095Y-48524438D01*
X88130095Y-48524438D02*
X88177714Y-48572057D01*
X88177714Y-48572057D02*
X88225333Y-48667295D01*
X88225333Y-48667295D02*
X88225333Y-48810152D01*
X88225333Y-48810152D02*
X88177714Y-48905390D01*
X88177714Y-48905390D02*
X88130095Y-48953009D01*
X88130095Y-48953009D02*
X88034857Y-49000628D01*
X88034857Y-49000628D02*
X87653905Y-49000628D01*
X88606286Y-48572057D02*
X88653905Y-48524438D01*
X88653905Y-48524438D02*
X88749143Y-48476819D01*
X88749143Y-48476819D02*
X88987238Y-48476819D01*
X88987238Y-48476819D02*
X89082476Y-48524438D01*
X89082476Y-48524438D02*
X89130095Y-48572057D01*
X89130095Y-48572057D02*
X89177714Y-48667295D01*
X89177714Y-48667295D02*
X89177714Y-48762533D01*
X89177714Y-48762533D02*
X89130095Y-48905390D01*
X89130095Y-48905390D02*
X88558667Y-49476819D01*
X88558667Y-49476819D02*
X89177714Y-49476819D01*
X30883523Y-35252819D02*
X30550190Y-34776628D01*
X30312095Y-35252819D02*
X30312095Y-34252819D01*
X30312095Y-34252819D02*
X30693047Y-34252819D01*
X30693047Y-34252819D02*
X30788285Y-34300438D01*
X30788285Y-34300438D02*
X30835904Y-34348057D01*
X30835904Y-34348057D02*
X30883523Y-34443295D01*
X30883523Y-34443295D02*
X30883523Y-34586152D01*
X30883523Y-34586152D02*
X30835904Y-34681390D01*
X30835904Y-34681390D02*
X30788285Y-34729009D01*
X30788285Y-34729009D02*
X30693047Y-34776628D01*
X30693047Y-34776628D02*
X30312095Y-34776628D01*
X31312095Y-35252819D02*
X31312095Y-34252819D01*
X31312095Y-34252819D02*
X31883523Y-35252819D01*
X31883523Y-35252819D02*
X31883523Y-34252819D01*
X32312095Y-34348057D02*
X32359714Y-34300438D01*
X32359714Y-34300438D02*
X32454952Y-34252819D01*
X32454952Y-34252819D02*
X32693047Y-34252819D01*
X32693047Y-34252819D02*
X32788285Y-34300438D01*
X32788285Y-34300438D02*
X32835904Y-34348057D01*
X32835904Y-34348057D02*
X32883523Y-34443295D01*
X32883523Y-34443295D02*
X32883523Y-34538533D01*
X32883523Y-34538533D02*
X32835904Y-34681390D01*
X32835904Y-34681390D02*
X32264476Y-35252819D01*
X32264476Y-35252819D02*
X32883523Y-35252819D01*
X61793523Y-36573619D02*
X61460190Y-36097428D01*
X61222095Y-36573619D02*
X61222095Y-35573619D01*
X61222095Y-35573619D02*
X61603047Y-35573619D01*
X61603047Y-35573619D02*
X61698285Y-35621238D01*
X61698285Y-35621238D02*
X61745904Y-35668857D01*
X61745904Y-35668857D02*
X61793523Y-35764095D01*
X61793523Y-35764095D02*
X61793523Y-35906952D01*
X61793523Y-35906952D02*
X61745904Y-36002190D01*
X61745904Y-36002190D02*
X61698285Y-36049809D01*
X61698285Y-36049809D02*
X61603047Y-36097428D01*
X61603047Y-36097428D02*
X61222095Y-36097428D01*
X62222095Y-36573619D02*
X62222095Y-35573619D01*
X62222095Y-35573619D02*
X62793523Y-36573619D01*
X62793523Y-36573619D02*
X62793523Y-35573619D01*
X63793523Y-36573619D02*
X63222095Y-36573619D01*
X63507809Y-36573619D02*
X63507809Y-35573619D01*
X63507809Y-35573619D02*
X63412571Y-35716476D01*
X63412571Y-35716476D02*
X63317333Y-35811714D01*
X63317333Y-35811714D02*
X63222095Y-35859333D01*
X92543333Y-49476819D02*
X92210000Y-49000628D01*
X91971905Y-49476819D02*
X91971905Y-48476819D01*
X91971905Y-48476819D02*
X92352857Y-48476819D01*
X92352857Y-48476819D02*
X92448095Y-48524438D01*
X92448095Y-48524438D02*
X92495714Y-48572057D01*
X92495714Y-48572057D02*
X92543333Y-48667295D01*
X92543333Y-48667295D02*
X92543333Y-48810152D01*
X92543333Y-48810152D02*
X92495714Y-48905390D01*
X92495714Y-48905390D02*
X92448095Y-48953009D01*
X92448095Y-48953009D02*
X92352857Y-49000628D01*
X92352857Y-49000628D02*
X91971905Y-49000628D01*
X93495714Y-49476819D02*
X92924286Y-49476819D01*
X93210000Y-49476819D02*
X93210000Y-48476819D01*
X93210000Y-48476819D02*
X93114762Y-48619676D01*
X93114762Y-48619676D02*
X93019524Y-48714914D01*
X93019524Y-48714914D02*
X92924286Y-48762533D01*
X49501466Y-53556819D02*
X49501466Y-54271104D01*
X49501466Y-54271104D02*
X49453847Y-54413961D01*
X49453847Y-54413961D02*
X49358609Y-54509200D01*
X49358609Y-54509200D02*
X49215752Y-54556819D01*
X49215752Y-54556819D02*
X49120514Y-54556819D01*
X50501466Y-54556819D02*
X49930038Y-54556819D01*
X50215752Y-54556819D02*
X50215752Y-53556819D01*
X50215752Y-53556819D02*
X50120514Y-53699676D01*
X50120514Y-53699676D02*
X50025276Y-53794914D01*
X50025276Y-53794914D02*
X49930038Y-53842533D01*
D10*
%TO.C,U1*%
X95439000Y-52932000D02*
X113339000Y-52932000D01*
X113339000Y-52932000D02*
X113339000Y-47632000D01*
X95439000Y-51282000D02*
X95439000Y-52932000D01*
X95439000Y-47632000D02*
X95439000Y-49282000D01*
X113339000Y-47632000D02*
X95439000Y-47632000D01*
X95439000Y-51282000D02*
G75*
G03*
X95439000Y-49282000I0J1000000D01*
G01*
%TO.C,Q1*%
X95068000Y-40916000D02*
X95068000Y-37316000D01*
X90618001Y-39116000D02*
G75*
G03*
X92119193Y-41472399I2599999J0D01*
G01*
X94340795Y-41440183D02*
G75*
G03*
X95067999Y-40915999I-1122795J2324183D01*
G01*
X92119193Y-36759600D02*
G75*
G03*
X90618000Y-39116000I1098807J-2356400D01*
G01*
X95067999Y-37316001D02*
G75*
G03*
X94340795Y-36791817I-1849999J-1799999D01*
G01*
%TO.C,U6*%
X60900000Y-52600000D02*
X45900000Y-52600000D01*
X45900000Y-52600000D02*
X45900000Y-29600000D01*
X45900000Y-29600000D02*
X60900000Y-29600000D01*
X60900000Y-29600000D02*
X60900000Y-52600000D01*
%TO.C,R2*%
X88392000Y-53062000D02*
X88392000Y-52292000D01*
X87022000Y-52292000D02*
X89762000Y-52292000D01*
X89762000Y-52292000D02*
X89762000Y-45752000D01*
X87022000Y-45752000D02*
X87022000Y-52292000D01*
X89762000Y-45752000D02*
X87022000Y-45752000D01*
X88392000Y-44982000D02*
X88392000Y-45752000D01*
%TO.C,U5*%
X36046000Y-30943000D02*
X36046000Y-51383000D01*
X36046000Y-51383000D02*
X41346000Y-51383000D01*
X37696000Y-30943000D02*
X36046000Y-30943000D01*
X41346000Y-30943000D02*
X39696000Y-30943000D01*
X41346000Y-51383000D02*
X41346000Y-30943000D01*
X37696000Y-30943000D02*
G75*
G03*
X39696000Y-30943000I1000000J0D01*
G01*
%TO.C,RN2*%
X30174000Y-48938000D02*
X32974000Y-48938000D01*
X32974000Y-48938000D02*
X32974000Y-35898000D01*
X30174000Y-46228000D02*
X32974000Y-46228000D01*
X30174000Y-35898000D02*
X30174000Y-48938000D01*
X32974000Y-35898000D02*
X30174000Y-35898000D01*
%TO.C,U2*%
X95459000Y-42264000D02*
X115899000Y-42264000D01*
X115899000Y-42264000D02*
X115899000Y-36964000D01*
X95459000Y-40614000D02*
X95459000Y-42264000D01*
X95459000Y-36964000D02*
X95459000Y-38614000D01*
X115899000Y-36964000D02*
X95459000Y-36964000D01*
X95459000Y-40614000D02*
G75*
G03*
X95459000Y-38614000I0J1000000D01*
G01*
%TO.C,RN1*%
X61084000Y-50462000D02*
X63884000Y-50462000D01*
X63884000Y-50462000D02*
X63884000Y-37422000D01*
X61084000Y-47752000D02*
X63884000Y-47752000D01*
X61084000Y-37422000D02*
X61084000Y-50462000D01*
X63884000Y-37422000D02*
X61084000Y-37422000D01*
%TO.C,U4*%
X65218000Y-42274000D02*
X85658000Y-42274000D01*
X85658000Y-42274000D02*
X85658000Y-36974000D01*
X65218000Y-40624000D02*
X65218000Y-42274000D01*
X65218000Y-36974000D02*
X65218000Y-38624000D01*
X85658000Y-36974000D02*
X65218000Y-36974000D01*
X65218000Y-40624000D02*
G75*
G03*
X65218000Y-38624000I0J1000000D01*
G01*
%TO.C,R1*%
X92710000Y-53062000D02*
X92710000Y-52292000D01*
X91340000Y-52292000D02*
X94080000Y-52292000D01*
X94080000Y-52292000D02*
X94080000Y-45752000D01*
X91340000Y-45752000D02*
X91340000Y-52292000D01*
X94080000Y-45752000D02*
X91340000Y-45752000D01*
X92710000Y-44982000D02*
X92710000Y-45752000D01*
%TO.C,U3*%
X85630000Y-47660000D02*
X65190000Y-47660000D01*
X65190000Y-47660000D02*
X65190000Y-52960000D01*
X85630000Y-49310000D02*
X85630000Y-47660000D01*
X85630000Y-52960000D02*
X85630000Y-51310000D01*
X65190000Y-52960000D02*
X85630000Y-52960000D01*
X85630000Y-49310000D02*
G75*
G03*
X85630000Y-51310000I0J-1000000D01*
G01*
%TO.C,J3*%
X113538000Y-30928000D02*
X65218000Y-30928000D01*
X113538000Y-30928000D02*
X113538000Y-33588000D01*
X65218000Y-30928000D02*
X65218000Y-33588000D01*
X116138000Y-32258000D02*
X116138000Y-33588000D01*
X116138000Y-33588000D02*
X114808000Y-33588000D01*
X113538000Y-33588000D02*
X65218000Y-33588000D01*
%TO.C,J1*%
X63814000Y-52772000D02*
X63814000Y-54102000D01*
X62484000Y-52772000D02*
X63814000Y-52772000D01*
X61214000Y-52772000D02*
X50994000Y-52772000D01*
X61214000Y-52772000D02*
X61214000Y-55432000D01*
X50994000Y-52772000D02*
X50994000Y-55432000D01*
X61214000Y-55432000D02*
X50994000Y-55432000D01*
%TO.C,Q2*%
X86182000Y-35792000D02*
X86182000Y-39392000D01*
X90631999Y-37592000D02*
G75*
G03*
X89130807Y-35235601I-2599999J0D01*
G01*
X86909205Y-35267817D02*
G75*
G03*
X86182001Y-35792001I1122795J-2324183D01*
G01*
X89130807Y-39948400D02*
G75*
G03*
X90632000Y-37592000I-1098807J2356400D01*
G01*
X86182001Y-39391999D02*
G75*
G03*
X86909205Y-39916183I1849999J1799999D01*
G01*
%TD*%
M02*
