%TF.GenerationSoftware,KiCad,Pcbnew,7.0.7*%
%TF.CreationDate,2023-10-03T22:28:34+01:00*%
%TF.ProjectId,nixie-controller-breakaway,6e697869-652d-4636-9f6e-74726f6c6c65,rev?*%
%TF.SameCoordinates,Original*%
%TF.FileFunction,Soldermask,Bot*%
%TF.FilePolarity,Negative*%
%FSLAX46Y46*%
G04 Gerber Fmt 4.6, Leading zero omitted, Abs format (unit mm)*
G04 Created by KiCad (PCBNEW 7.0.7) date 2023-10-03 22:28:34*
%MOMM*%
%LPD*%
G01*
G04 APERTURE LIST*
G04 Aperture macros list*
%AMRoundRect*
0 Rectangle with rounded corners*
0 $1 Rounding radius*
0 $2 $3 $4 $5 $6 $7 $8 $9 X,Y pos of 4 corners*
0 Add a 4 corners polygon primitive as box body*
4,1,4,$2,$3,$4,$5,$6,$7,$8,$9,$2,$3,0*
0 Add four circle primitives for the rounded corners*
1,1,$1+$1,$2,$3*
1,1,$1+$1,$4,$5*
1,1,$1+$1,$6,$7*
1,1,$1+$1,$8,$9*
0 Add four rect primitives between the rounded corners*
20,1,$1+$1,$2,$3,$4,$5,0*
20,1,$1+$1,$4,$5,$6,$7,0*
20,1,$1+$1,$6,$7,$8,$9,0*
20,1,$1+$1,$8,$9,$2,$3,0*%
G04 Aperture macros list end*
%ADD10R,1.600000X1.600000*%
%ADD11O,1.600000X1.600000*%
%ADD12R,1.500000X1.500000*%
%ADD13C,1.500000*%
%ADD14C,1.524000*%
%ADD15C,1.600000*%
%ADD16R,1.700000X1.700000*%
%ADD17O,1.700000X1.700000*%
%ADD18RoundRect,0.150000X0.625000X-0.150000X0.625000X0.150000X-0.625000X0.150000X-0.625000X-0.150000X0*%
%ADD19RoundRect,0.250000X0.650000X-0.350000X0.650000X0.350000X-0.650000X0.350000X-0.650000X-0.350000X0*%
%ADD20RoundRect,0.150000X0.150000X0.625000X-0.150000X0.625000X-0.150000X-0.625000X0.150000X-0.625000X0*%
%ADD21RoundRect,0.250000X0.350000X0.650000X-0.350000X0.650000X-0.350000X-0.650000X0.350000X-0.650000X0*%
%ADD22RoundRect,0.150000X-0.625000X0.150000X-0.625000X-0.150000X0.625000X-0.150000X0.625000X0.150000X0*%
%ADD23RoundRect,0.250000X-0.650000X0.350000X-0.650000X-0.350000X0.650000X-0.350000X0.650000X0.350000X0*%
G04 APERTURE END LIST*
D10*
%TO.C,U1*%
X96769000Y-54092000D03*
D11*
X99309000Y-54092000D03*
X101849000Y-54092000D03*
X104389000Y-54092000D03*
X106929000Y-54092000D03*
X109469000Y-54092000D03*
X112009000Y-54092000D03*
X112009000Y-46472000D03*
X109469000Y-46472000D03*
X106929000Y-46472000D03*
X104389000Y-46472000D03*
X101849000Y-46472000D03*
X99309000Y-46472000D03*
X96769000Y-46472000D03*
%TD*%
D12*
%TO.C,Q1*%
X93218000Y-41656000D03*
D13*
X93218000Y-39116000D03*
X93218000Y-36576000D03*
%TD*%
D14*
%TO.C,U6*%
X49590000Y-51260000D03*
X47050000Y-51260000D03*
X59750000Y-51260000D03*
X59750000Y-34750000D03*
X59750000Y-32210000D03*
X57210000Y-51260000D03*
X47050000Y-34750000D03*
X47050000Y-32210000D03*
%TD*%
D15*
%TO.C,R2*%
X88392000Y-54102000D03*
D11*
X88392000Y-43942000D03*
%TD*%
D10*
%TO.C,U5*%
X34886000Y-32273000D03*
D11*
X34886000Y-34813000D03*
X34886000Y-37353000D03*
X34886000Y-39893000D03*
X34886000Y-42433000D03*
X34886000Y-44973000D03*
X34886000Y-47513000D03*
X34886000Y-50053000D03*
X42506000Y-50053000D03*
X42506000Y-47513000D03*
X42506000Y-44973000D03*
X42506000Y-42433000D03*
X42506000Y-39893000D03*
X42506000Y-37353000D03*
X42506000Y-34813000D03*
X42506000Y-32273000D03*
%TD*%
D10*
%TO.C,RN2*%
X31574000Y-47498000D03*
D11*
X31574000Y-44958000D03*
X31574000Y-42418000D03*
X31574000Y-39878000D03*
X31574000Y-37338000D03*
%TD*%
D10*
%TO.C,U2*%
X96789000Y-43424000D03*
D11*
X99329000Y-43424000D03*
X101869000Y-43424000D03*
X104409000Y-43424000D03*
X106949000Y-43424000D03*
X109489000Y-43424000D03*
X112029000Y-43424000D03*
X114569000Y-43424000D03*
X114569000Y-35804000D03*
X112029000Y-35804000D03*
X109489000Y-35804000D03*
X106949000Y-35804000D03*
X104409000Y-35804000D03*
X101869000Y-35804000D03*
X99329000Y-35804000D03*
X96789000Y-35804000D03*
%TD*%
D10*
%TO.C,RN1*%
X62484000Y-49022000D03*
D11*
X62484000Y-46482000D03*
X62484000Y-43942000D03*
X62484000Y-41402000D03*
X62484000Y-38862000D03*
%TD*%
D10*
%TO.C,U4*%
X66548000Y-43434000D03*
D11*
X69088000Y-43434000D03*
X71628000Y-43434000D03*
X74168000Y-43434000D03*
X76708000Y-43434000D03*
X79248000Y-43434000D03*
X81788000Y-43434000D03*
X84328000Y-43434000D03*
X84328000Y-35814000D03*
X81788000Y-35814000D03*
X79248000Y-35814000D03*
X76708000Y-35814000D03*
X74168000Y-35814000D03*
X71628000Y-35814000D03*
X69088000Y-35814000D03*
X66548000Y-35814000D03*
%TD*%
D15*
%TO.C,R1*%
X92710000Y-54102000D03*
D11*
X92710000Y-43942000D03*
%TD*%
D10*
%TO.C,U3*%
X84300000Y-46500000D03*
D11*
X81760000Y-46500000D03*
X79220000Y-46500000D03*
X76680000Y-46500000D03*
X74140000Y-46500000D03*
X71600000Y-46500000D03*
X69060000Y-46500000D03*
X66520000Y-46500000D03*
X66520000Y-54120000D03*
X69060000Y-54120000D03*
X71600000Y-54120000D03*
X74140000Y-54120000D03*
X76680000Y-54120000D03*
X79220000Y-54120000D03*
X81760000Y-54120000D03*
X84300000Y-54120000D03*
%TD*%
D16*
%TO.C,J3*%
X114808000Y-32258000D03*
D17*
X112268000Y-32258000D03*
X109728000Y-32258000D03*
X107188000Y-32258000D03*
X104648000Y-32258000D03*
X102108000Y-32258000D03*
X99568000Y-32258000D03*
X97028000Y-32258000D03*
X94488000Y-32258000D03*
X91948000Y-32258000D03*
X89408000Y-32258000D03*
X86868000Y-32258000D03*
X84328000Y-32258000D03*
X81788000Y-32258000D03*
X79248000Y-32258000D03*
X76708000Y-32258000D03*
X74168000Y-32258000D03*
X71628000Y-32258000D03*
X69088000Y-32258000D03*
X66548000Y-32258000D03*
%TD*%
D16*
%TO.C,J1*%
X62484000Y-54102000D03*
D17*
X59944000Y-54102000D03*
X57404000Y-54102000D03*
X54864000Y-54102000D03*
X52324000Y-54102000D03*
%TD*%
D12*
%TO.C,Q2*%
X88032000Y-35052000D03*
D13*
X88032000Y-37592000D03*
X88032000Y-40132000D03*
%TD*%
D18*
%TO.C,J4*%
X51100000Y-48100000D03*
X51100000Y-47100000D03*
X51100000Y-46100000D03*
X51100000Y-45100000D03*
D19*
X47225000Y-49400000D03*
X47225000Y-43800000D03*
%TD*%
D20*
%TO.C,J5*%
X40186000Y-50832000D03*
X39186000Y-50832000D03*
X38186000Y-50832000D03*
X37186000Y-50832000D03*
D21*
X41486000Y-54707000D03*
X35886000Y-54707000D03*
%TD*%
D22*
%TO.C,J2*%
X111538000Y-48792000D03*
X111538000Y-49792000D03*
X111538000Y-50792000D03*
X111538000Y-51792000D03*
D23*
X115413000Y-47492000D03*
X115413000Y-53092000D03*
%TD*%
M02*
