M48
; DRILL file {KiCad 7.0.7} date 2023 October 03, Tuesday 22:28:28
; FORMAT={-:-/ absolute / inch / decimal}
; #@! TF.CreationDate,2023-10-03T22:28:28+01:00
; #@! TF.GenerationSoftware,Kicad,Pcbnew,7.0.7
; #@! TF.FileFunction,MixedPlating,1,2
FMAT,2
INCH
; #@! TA.AperFunction,Plated,PTH,ViaDrill
T1C0.0157
; #@! TA.AperFunction,Plated,PTH,ComponentDrill
T2C0.0300
; #@! TA.AperFunction,Plated,PTH,ComponentDrill
T3C0.0315
; #@! TA.AperFunction,Plated,PTH,ComponentDrill
T4C0.0394
%
G90
G05
T1
X1.2126Y-2.1575
X1.2131Y-1.25
X1.4646Y-2.063
X1.5039Y-2.063
X1.5831Y-2.063
X1.7618Y-1.2598
X1.7618Y-1.3681
X1.7618Y-1.4429
X1.7618Y-1.5335
X1.7618Y-1.6063
X1.7618Y-1.7028
X1.7618Y-1.7815
X1.7618Y-1.8602
X1.7618Y-1.939
X1.7618Y-2.0177
X1.7618Y-2.1181
X1.8583Y-1.7795
X1.878Y-1.5197
X1.8819Y-1.622
X1.9104Y-1.8937
X2.063Y-1.7756
X2.063Y-1.815
X2.0958Y-1.6526
X2.46Y-1.25
X3.0197Y-1.9606
X3.122Y-1.9291
X3.2189Y-1.9006
X3.374Y-2.0039
X3.73Y-2.0039
X3.88Y-2.0
X3.88Y-2.04
X4.3386Y-2.0
X4.3386Y-2.04
X4.34Y-1.92
X4.44Y-1.92
X4.54Y-2.16
T2
X1.8524Y-1.2681
X1.8524Y-1.3681
X1.8524Y-2.0181
X1.9524Y-2.0181
X2.2524Y-2.0181
X2.3524Y-1.2681
X2.3524Y-1.3681
X2.3524Y-2.0181
T3
X1.2431Y-1.47
X1.2431Y-1.57
X1.2431Y-1.67
X1.2431Y-1.77
X1.2431Y-1.87
X1.3735Y-1.2706
X1.3735Y-1.3706
X1.3735Y-1.4706
X1.3735Y-1.5706
X1.3735Y-1.6706
X1.3735Y-1.7706
X1.3735Y-1.8706
X1.3735Y-1.9706
X1.6735Y-1.2706
X1.6735Y-1.3706
X1.6735Y-1.4706
X1.6735Y-1.5706
X1.6735Y-1.6706
X1.6735Y-1.7706
X1.6735Y-1.8706
X1.6735Y-1.9706
X2.46Y-1.53
X2.46Y-1.63
X2.46Y-1.73
X2.46Y-1.83
X2.46Y-1.93
X2.6189Y-1.8307
X2.6189Y-2.1307
X2.62Y-1.41
X2.62Y-1.71
X2.7189Y-1.8307
X2.7189Y-2.1307
X2.72Y-1.41
X2.72Y-1.71
X2.8189Y-1.8307
X2.8189Y-2.1307
X2.82Y-1.41
X2.82Y-1.71
X2.9189Y-1.8307
X2.9189Y-2.1307
X2.92Y-1.41
X2.92Y-1.71
X3.0189Y-1.8307
X3.0189Y-2.1307
X3.02Y-1.41
X3.02Y-1.71
X3.1189Y-1.8307
X3.1189Y-2.1307
X3.12Y-1.41
X3.12Y-1.71
X3.2189Y-1.8307
X3.2189Y-2.1307
X3.22Y-1.41
X3.22Y-1.71
X3.3189Y-1.8307
X3.3189Y-2.1307
X3.32Y-1.41
X3.32Y-1.71
X3.4658Y-1.38
X3.4658Y-1.48
X3.4658Y-1.58
X3.48Y-1.73
X3.48Y-2.13
X3.65Y-1.73
X3.65Y-2.13
X3.67Y-1.44
X3.67Y-1.54
X3.67Y-1.64
X3.8098Y-1.8296
X3.8098Y-2.1296
X3.8106Y-1.4096
X3.8106Y-1.7096
X3.9098Y-1.8296
X3.9098Y-2.1296
X3.9106Y-1.4096
X3.9106Y-1.7096
X4.0098Y-1.8296
X4.0098Y-2.1296
X4.0106Y-1.4096
X4.0106Y-1.7096
X4.1098Y-1.8296
X4.1098Y-2.1296
X4.1106Y-1.4096
X4.1106Y-1.7096
X4.2098Y-1.8296
X4.2098Y-2.1296
X4.2106Y-1.4096
X4.2106Y-1.7096
X4.3098Y-1.8296
X4.3098Y-2.1296
X4.3106Y-1.4096
X4.3106Y-1.7096
X4.4098Y-1.8296
X4.4098Y-2.1296
X4.4106Y-1.4096
X4.4106Y-1.7096
X4.5106Y-1.4096
X4.5106Y-1.7096
T4
X2.06Y-2.13
X2.16Y-2.13
X2.26Y-2.13
X2.36Y-2.13
X2.46Y-2.13
X2.62Y-1.27
X2.72Y-1.27
X2.82Y-1.27
X2.92Y-1.27
X3.02Y-1.27
X3.12Y-1.27
X3.22Y-1.27
X3.32Y-1.27
X3.42Y-1.27
X3.52Y-1.27
X3.62Y-1.27
X3.72Y-1.27
X3.82Y-1.27
X3.92Y-1.27
X4.02Y-1.27
X4.12Y-1.27
X4.22Y-1.27
X4.32Y-1.27
X4.42Y-1.27
X4.52Y-1.27
T0
M30
