%TF.GenerationSoftware,KiCad,Pcbnew,7.0.7*%
%TF.CreationDate,2023-10-03T22:28:34+01:00*%
%TF.ProjectId,nixie-controller-breakaway,6e697869-652d-4636-9f6e-74726f6c6c65,rev?*%
%TF.SameCoordinates,Original*%
%TF.FileFunction,Copper,L1,Top*%
%TF.FilePolarity,Positive*%
%FSLAX46Y46*%
G04 Gerber Fmt 4.6, Leading zero omitted, Abs format (unit mm)*
G04 Created by KiCad (PCBNEW 7.0.7) date 2023-10-03 22:28:34*
%MOMM*%
%LPD*%
G01*
G04 APERTURE LIST*
%TA.AperFunction,ComponentPad*%
%ADD10R,1.600000X1.600000*%
%TD*%
%TA.AperFunction,ComponentPad*%
%ADD11O,1.600000X1.600000*%
%TD*%
%TA.AperFunction,ComponentPad*%
%ADD12R,1.500000X1.500000*%
%TD*%
%TA.AperFunction,ComponentPad*%
%ADD13C,1.500000*%
%TD*%
%TA.AperFunction,ComponentPad*%
%ADD14C,1.524000*%
%TD*%
%TA.AperFunction,ComponentPad*%
%ADD15C,1.600000*%
%TD*%
%TA.AperFunction,ComponentPad*%
%ADD16R,1.700000X1.700000*%
%TD*%
%TA.AperFunction,ComponentPad*%
%ADD17O,1.700000X1.700000*%
%TD*%
%TA.AperFunction,ViaPad*%
%ADD18C,0.800000*%
%TD*%
%TA.AperFunction,Conductor*%
%ADD19C,0.250000*%
%TD*%
%TA.AperFunction,Conductor*%
%ADD20C,0.800000*%
%TD*%
G04 APERTURE END LIST*
D10*
%TO.P,U1,1,VCC*%
%TO.N,VCC*%
X96769000Y-54092000D03*
D11*
%TO.P,U1,2,XTAL1/PB0*%
%TO.N,/dig_2*%
X99309000Y-54092000D03*
%TO.P,U1,3,XTAL2/PB1*%
%TO.N,/dig_1*%
X101849000Y-54092000D03*
%TO.P,U1,4,~{RESET}/PB3*%
%TO.N,unconnected-(U1-Pad4)*%
X104389000Y-54092000D03*
%TO.P,U1,5,PB2*%
%TO.N,/dig_0*%
X106929000Y-54092000D03*
%TO.P,U1,6,PA7*%
%TO.N,/LHDP*%
X109469000Y-54092000D03*
%TO.P,U1,7,PA6*%
%TO.N,/SDA*%
X112009000Y-54092000D03*
%TO.P,U1,8,PA5*%
%TO.N,/RHDP*%
X112009000Y-46472000D03*
%TO.P,U1,9,PA4*%
%TO.N,/SCL*%
X109469000Y-46472000D03*
%TO.P,U1,10,PA3*%
%TO.N,/num_2*%
X106929000Y-46472000D03*
%TO.P,U1,11,PA2*%
%TO.N,/num_1*%
X104389000Y-46472000D03*
%TO.P,U1,12,PA1*%
%TO.N,/num_3*%
X101849000Y-46472000D03*
%TO.P,U1,13,AREF/PA0*%
%TO.N,/num_0*%
X99309000Y-46472000D03*
%TO.P,U1,14,GND*%
%TO.N,GND*%
X96769000Y-46472000D03*
%TD*%
D12*
%TO.P,Q1,1,E*%
%TO.N,GND*%
X93218000Y-41656000D03*
D13*
%TO.P,Q1,2,B*%
%TO.N,Net-(Q1-Pad2)*%
X93218000Y-39116000D03*
%TO.P,Q1,3,C*%
%TO.N,/CA*%
X93218000Y-36576000D03*
%TD*%
D14*
%TO.P,U6,1,Vcc*%
%TO.N,VCC*%
X49590000Y-51260000D03*
X47050000Y-51260000D03*
%TO.P,U6,2,GND*%
%TO.N,GND*%
X59750000Y-51260000D03*
X59750000Y-34750000D03*
X59750000Y-32210000D03*
X57210000Y-51260000D03*
%TO.P,U6,3,HV*%
%TO.N,HT*%
X47050000Y-34750000D03*
X47050000Y-32210000D03*
%TD*%
D15*
%TO.P,R2,1*%
%TO.N,/RHDP*%
X88392000Y-54102000D03*
D11*
%TO.P,R2,2*%
%TO.N,Net-(Q2-Pad2)*%
X88392000Y-43942000D03*
%TD*%
D10*
%TO.P,U5,1*%
%TO.N,Net-(RN2-Pad5)*%
X34886000Y-32273000D03*
D11*
%TO.P,U5,2*%
%TO.N,/drv_A7*%
X34886000Y-34813000D03*
%TO.P,U5,3*%
%TO.N,/drv_A6*%
X34886000Y-37353000D03*
%TO.P,U5,4*%
%TO.N,Net-(RN2-Pad4)*%
X34886000Y-39893000D03*
%TO.P,U5,5*%
%TO.N,Net-(RN2-Pad3)*%
X34886000Y-42433000D03*
%TO.P,U5,6*%
%TO.N,/drv_A5*%
X34886000Y-44973000D03*
%TO.P,U5,7*%
%TO.N,/drv_A4*%
X34886000Y-47513000D03*
%TO.P,U5,8*%
%TO.N,Net-(RN2-Pad2)*%
X34886000Y-50053000D03*
%TO.P,U5,9*%
%TO.N,/A4*%
X42506000Y-50053000D03*
%TO.P,U5,10*%
%TO.N,HT*%
X42506000Y-47513000D03*
%TO.P,U5,11*%
X42506000Y-44973000D03*
%TO.P,U5,12*%
%TO.N,/A5*%
X42506000Y-42433000D03*
%TO.P,U5,13*%
%TO.N,/A6*%
X42506000Y-39893000D03*
%TO.P,U5,14*%
%TO.N,HT*%
X42506000Y-37353000D03*
%TO.P,U5,15*%
X42506000Y-34813000D03*
%TO.P,U5,16*%
%TO.N,/A7*%
X42506000Y-32273000D03*
%TD*%
D10*
%TO.P,RN2,1,R1.1*%
%TO.N,VCC*%
X31574000Y-47498000D03*
D11*
%TO.P,RN2,2,R1.2*%
%TO.N,Net-(RN2-Pad2)*%
X31574000Y-44958000D03*
%TO.P,RN2,3,R2.2*%
%TO.N,Net-(RN2-Pad3)*%
X31574000Y-42418000D03*
%TO.P,RN2,4,R3.2*%
%TO.N,Net-(RN2-Pad4)*%
X31574000Y-39878000D03*
%TO.P,RN2,5,R4.2*%
%TO.N,Net-(RN2-Pad5)*%
X31574000Y-37338000D03*
%TD*%
D10*
%TO.P,U2,1,~{Q8}*%
%TO.N,/C8*%
X96789000Y-43424000D03*
D11*
%TO.P,U2,2,~{Q9}*%
%TO.N,/C9*%
X99329000Y-43424000D03*
%TO.P,U2,3,A*%
%TO.N,/num_0*%
X101869000Y-43424000D03*
%TO.P,U2,4,D*%
%TO.N,/num_3*%
X104409000Y-43424000D03*
%TO.P,U2,5,VCC*%
%TO.N,VCC*%
X106949000Y-43424000D03*
%TO.P,U2,6,B*%
%TO.N,/num_1*%
X109489000Y-43424000D03*
%TO.P,U2,7,C*%
%TO.N,/num_2*%
X112029000Y-43424000D03*
%TO.P,U2,8,~{Q2}*%
%TO.N,/C2*%
X114569000Y-43424000D03*
%TO.P,U2,9,~{Q3}*%
%TO.N,/C3*%
X114569000Y-35804000D03*
%TO.P,U2,10,~{Q7}*%
%TO.N,/C7*%
X112029000Y-35804000D03*
%TO.P,U2,11,~{Q6}*%
%TO.N,/C6*%
X109489000Y-35804000D03*
%TO.P,U2,12,GND*%
%TO.N,GND*%
X106949000Y-35804000D03*
%TO.P,U2,13,~{Q4}*%
%TO.N,/C4*%
X104409000Y-35804000D03*
%TO.P,U2,14,~{Q5}*%
%TO.N,/C5*%
X101869000Y-35804000D03*
%TO.P,U2,15,~{Q1}*%
%TO.N,/C1*%
X99329000Y-35804000D03*
%TO.P,U2,16,~{Q0}*%
%TO.N,/C0*%
X96789000Y-35804000D03*
%TD*%
D10*
%TO.P,RN1,1,R1.1*%
%TO.N,VCC*%
X62484000Y-49022000D03*
D11*
%TO.P,RN1,2,R1.2*%
%TO.N,Net-(RN1-Pad2)*%
X62484000Y-46482000D03*
%TO.P,RN1,3,R2.2*%
%TO.N,Net-(RN1-Pad3)*%
X62484000Y-43942000D03*
%TO.P,RN1,4,R3.2*%
%TO.N,Net-(RN1-Pad4)*%
X62484000Y-41402000D03*
%TO.P,RN1,5,R4.2*%
%TO.N,Net-(RN1-Pad5)*%
X62484000Y-38862000D03*
%TD*%
D10*
%TO.P,U4,1*%
%TO.N,Net-(RN1-Pad2)*%
X66548000Y-43434000D03*
D11*
%TO.P,U4,2*%
%TO.N,/drv_A3*%
X69088000Y-43434000D03*
%TO.P,U4,3*%
%TO.N,/drv_A2*%
X71628000Y-43434000D03*
%TO.P,U4,4*%
%TO.N,Net-(RN1-Pad3)*%
X74168000Y-43434000D03*
%TO.P,U4,5*%
%TO.N,Net-(RN1-Pad4)*%
X76708000Y-43434000D03*
%TO.P,U4,6*%
%TO.N,/drv_A1*%
X79248000Y-43434000D03*
%TO.P,U4,7*%
%TO.N,/drv_A0*%
X81788000Y-43434000D03*
%TO.P,U4,8*%
%TO.N,Net-(RN1-Pad5)*%
X84328000Y-43434000D03*
%TO.P,U4,9*%
%TO.N,/A0*%
X84328000Y-35814000D03*
%TO.P,U4,10*%
%TO.N,HT*%
X81788000Y-35814000D03*
%TO.P,U4,11*%
X79248000Y-35814000D03*
%TO.P,U4,12*%
%TO.N,/A1*%
X76708000Y-35814000D03*
%TO.P,U4,13*%
%TO.N,/A2*%
X74168000Y-35814000D03*
%TO.P,U4,14*%
%TO.N,HT*%
X71628000Y-35814000D03*
%TO.P,U4,15*%
X69088000Y-35814000D03*
%TO.P,U4,16*%
%TO.N,/A3*%
X66548000Y-35814000D03*
%TD*%
D15*
%TO.P,R1,1*%
%TO.N,/LHDP*%
X92710000Y-54102000D03*
D11*
%TO.P,R1,2*%
%TO.N,Net-(Q1-Pad2)*%
X92710000Y-43942000D03*
%TD*%
D10*
%TO.P,U3,1,~{Q0}*%
%TO.N,/drv_A0*%
X84300000Y-46500000D03*
D11*
%TO.P,U3,2,~{Q1}*%
%TO.N,/drv_A1*%
X81760000Y-46500000D03*
%TO.P,U3,3,~{Q2}*%
%TO.N,/drv_A2*%
X79220000Y-46500000D03*
%TO.P,U3,4,~{Q3}*%
%TO.N,/drv_A3*%
X76680000Y-46500000D03*
%TO.P,U3,5,~{Q4}*%
%TO.N,/drv_A4*%
X74140000Y-46500000D03*
%TO.P,U3,6,~{Q5}*%
%TO.N,/drv_A5*%
X71600000Y-46500000D03*
%TO.P,U3,7,~{Q6}*%
%TO.N,/drv_A6*%
X69060000Y-46500000D03*
%TO.P,U3,8,GND*%
%TO.N,GND*%
X66520000Y-46500000D03*
%TO.P,U3,9,~{Q7}*%
%TO.N,/drv_A7*%
X66520000Y-54120000D03*
%TO.P,U3,10,~{Q8}*%
%TO.N,unconnected-(U3-Pad10)*%
X69060000Y-54120000D03*
%TO.P,U3,11,~{Q9}*%
%TO.N,unconnected-(U3-Pad11)*%
X71600000Y-54120000D03*
%TO.P,U3,12,D*%
%TO.N,GND*%
X74140000Y-54120000D03*
%TO.P,U3,13,C*%
%TO.N,/dig_2*%
X76680000Y-54120000D03*
%TO.P,U3,14,B*%
%TO.N,/dig_1*%
X79220000Y-54120000D03*
%TO.P,U3,15,A*%
%TO.N,/dig_0*%
X81760000Y-54120000D03*
%TO.P,U3,16,VCC*%
%TO.N,VCC*%
X84300000Y-54120000D03*
%TD*%
D16*
%TO.P,J3,1,Pin_1*%
%TO.N,/C0*%
X114808000Y-32258000D03*
D17*
%TO.P,J3,2,Pin_2*%
%TO.N,/C1*%
X112268000Y-32258000D03*
%TO.P,J3,3,Pin_3*%
%TO.N,/C2*%
X109728000Y-32258000D03*
%TO.P,J3,4,Pin_4*%
%TO.N,/C3*%
X107188000Y-32258000D03*
%TO.P,J3,5,Pin_5*%
%TO.N,/C4*%
X104648000Y-32258000D03*
%TO.P,J3,6,Pin_6*%
%TO.N,/C5*%
X102108000Y-32258000D03*
%TO.P,J3,7,Pin_7*%
%TO.N,/C6*%
X99568000Y-32258000D03*
%TO.P,J3,8,Pin_8*%
%TO.N,/C7*%
X97028000Y-32258000D03*
%TO.P,J3,9,Pin_9*%
%TO.N,/C8*%
X94488000Y-32258000D03*
%TO.P,J3,10,Pin_10*%
%TO.N,/C9*%
X91948000Y-32258000D03*
%TO.P,J3,11,Pin_11*%
%TO.N,/CA*%
X89408000Y-32258000D03*
%TO.P,J3,12,Pin_12*%
%TO.N,/CB*%
X86868000Y-32258000D03*
%TO.P,J3,13,Pin_13*%
%TO.N,/A0*%
X84328000Y-32258000D03*
%TO.P,J3,14,Pin_14*%
%TO.N,/A1*%
X81788000Y-32258000D03*
%TO.P,J3,15,Pin_15*%
%TO.N,/A2*%
X79248000Y-32258000D03*
%TO.P,J3,16,Pin_16*%
%TO.N,/A3*%
X76708000Y-32258000D03*
%TO.P,J3,17,Pin_17*%
%TO.N,/A4*%
X74168000Y-32258000D03*
%TO.P,J3,18,Pin_18*%
%TO.N,/A5*%
X71628000Y-32258000D03*
%TO.P,J3,19,Pin_19*%
%TO.N,/A6*%
X69088000Y-32258000D03*
%TO.P,J3,20,Pin_20*%
%TO.N,/A7*%
X66548000Y-32258000D03*
%TD*%
D16*
%TO.P,J1,1,Pin_1*%
%TO.N,GND*%
X62484000Y-54102000D03*
D17*
%TO.P,J1,2,Pin_2*%
%TO.N,unconnected-(J1-Pad2)*%
X59944000Y-54102000D03*
%TO.P,J1,3,Pin_3*%
%TO.N,/SCL*%
X57404000Y-54102000D03*
%TO.P,J1,4,Pin_4*%
%TO.N,/SDA*%
X54864000Y-54102000D03*
%TO.P,J1,5,Pin_5*%
%TO.N,VCC*%
X52324000Y-54102000D03*
%TD*%
D12*
%TO.P,Q2,1,E*%
%TO.N,GND*%
X88032000Y-35052000D03*
D13*
%TO.P,Q2,2,B*%
%TO.N,Net-(Q2-Pad2)*%
X88032000Y-37592000D03*
%TO.P,Q2,3,C*%
%TO.N,/CB*%
X88032000Y-40132000D03*
%TD*%
D18*
%TO.N,VCC*%
X94742000Y-50900000D03*
%TO.N,*%
X44750000Y-47250000D03*
X44750000Y-45250000D03*
X44750000Y-36650000D03*
X44750000Y-51250000D03*
X44750000Y-49250000D03*
X44750000Y-38950000D03*
X44750000Y-53800000D03*
X44750000Y-43250000D03*
X44750000Y-40800000D03*
X44750000Y-32000000D03*
X44750000Y-34750000D03*
%TO.N,GND*%
X112776000Y-48768000D03*
X115316000Y-54864000D03*
X47200000Y-45200000D03*
X48525000Y-48100000D03*
X110236000Y-48768000D03*
X62484000Y-31750000D03*
X30812000Y-31750000D03*
X30800000Y-54800000D03*
X40210000Y-52400000D03*
%TO.N,/SCL*%
X37200497Y-52400000D03*
X52400000Y-45100497D03*
X110200000Y-51816000D03*
X98552000Y-51816000D03*
%TO.N,/SDA*%
X110200000Y-50800000D03*
X52400000Y-46100000D03*
X38200000Y-52400000D03*
X98552000Y-50800000D03*
%TO.N,VCC*%
X85700000Y-50900000D03*
%TO.N,/dig_0*%
X81760000Y-48275500D03*
%TO.N,/dig_1*%
X79300000Y-49000000D03*
%TO.N,/dig_2*%
X76700000Y-49800000D03*
%TO.N,/drv_A7*%
X47700000Y-38600000D03*
X53234500Y-41975500D03*
%TO.N,/drv_A6*%
X47800000Y-41200000D03*
%TD*%
D19*
%TO.N,/dig_2*%
X76680000Y-49820000D02*
X76680000Y-54120000D01*
X76700000Y-49800000D02*
X76680000Y-49820000D01*
%TO.N,/dig_0*%
X81760000Y-48275500D02*
X81760000Y-54120000D01*
D20*
%TO.N,VCC*%
X94742000Y-52070000D02*
X94742000Y-50900000D01*
X94742000Y-50900000D02*
X94742000Y-42418000D01*
X85700000Y-50900000D02*
X94742000Y-50900000D01*
X85700000Y-50900000D02*
X84328000Y-52272000D01*
X84328000Y-52272000D02*
X84328000Y-54102000D01*
D19*
%TO.N,/SCL*%
X40000000Y-55400000D02*
X56106000Y-55400000D01*
X37200497Y-52600497D02*
X40000000Y-55400000D01*
X55400000Y-50800000D02*
X55400000Y-46400000D01*
X54300000Y-45300000D02*
X54100497Y-45100497D01*
X54100497Y-45100497D02*
X52400000Y-45100497D01*
X56106000Y-55400000D02*
X57404000Y-54102000D01*
X55400000Y-52098000D02*
X55400000Y-50800000D01*
X55400000Y-46400000D02*
X54300000Y-45300000D01*
X98552000Y-51816000D02*
X110200000Y-51816000D01*
X37200497Y-52400000D02*
X37200497Y-52600497D01*
X57404000Y-54102000D02*
X55400000Y-52098000D01*
%TO.N,/SDA*%
X53462000Y-52700000D02*
X51500000Y-52700000D01*
X51500000Y-52700000D02*
X49373000Y-54827000D01*
X54864000Y-46664000D02*
X54300000Y-46100000D01*
X54864000Y-51364000D02*
X54864000Y-46664000D01*
X54300000Y-46100000D02*
X52400000Y-46100000D01*
X110200000Y-50800000D02*
X98552000Y-50800000D01*
X49373000Y-54827000D02*
X40627000Y-54827000D01*
X40627000Y-54827000D02*
X38200000Y-52400000D01*
X54864000Y-54102000D02*
X53462000Y-52700000D01*
X54864000Y-54102000D02*
X54864000Y-51364000D01*
D20*
%TO.N,VCC*%
X96520000Y-40640000D02*
X105664000Y-40640000D01*
X94742000Y-42418000D02*
X96520000Y-40640000D01*
X105664000Y-40640000D02*
X106949000Y-41925000D01*
X96769000Y-54092000D02*
X96764000Y-54092000D01*
X96764000Y-54092000D02*
X94742000Y-52070000D01*
X106949000Y-41925000D02*
X106949000Y-43424000D01*
X47050000Y-51260000D02*
X49590000Y-51260000D01*
D19*
%TO.N,/C0*%
X113284000Y-33782000D02*
X114808000Y-32258000D01*
X113284000Y-37084000D02*
X113284000Y-33782000D01*
X98831000Y-37846000D02*
X112522000Y-37846000D01*
X96789000Y-35804000D02*
X98831000Y-37846000D01*
X112522000Y-37846000D02*
X113284000Y-37084000D01*
%TO.N,/C1*%
X110744000Y-33782000D02*
X112268000Y-32258000D01*
X99329000Y-35804000D02*
X100863000Y-37338000D01*
X110744000Y-36830000D02*
X110744000Y-33782000D01*
X110236000Y-37338000D02*
X110744000Y-36830000D01*
X100863000Y-37338000D02*
X110236000Y-37338000D01*
%TO.N,/C4*%
X104648000Y-34036000D02*
X104648000Y-32258000D01*
X104409000Y-34275000D02*
X104648000Y-34036000D01*
X104409000Y-35804000D02*
X104409000Y-34275000D01*
%TO.N,/C5*%
X101869000Y-34275000D02*
X102108000Y-34036000D01*
X101869000Y-35804000D02*
X101869000Y-34275000D01*
X102108000Y-34036000D02*
X102108000Y-32258000D01*
%TO.N,/CA*%
X89408000Y-32258000D02*
X93218000Y-36068000D01*
X93218000Y-36068000D02*
X93218000Y-36576000D01*
%TO.N,/CB*%
X86868000Y-38968000D02*
X88032000Y-40132000D01*
X86868000Y-32258000D02*
X86868000Y-38968000D01*
%TO.N,/A0*%
X84328000Y-35814000D02*
X84328000Y-32258000D01*
%TO.N,/A1*%
X81280000Y-34544000D02*
X81788000Y-34036000D01*
X76708000Y-35814000D02*
X76708000Y-35052000D01*
X77216000Y-34544000D02*
X81280000Y-34544000D01*
X76708000Y-35052000D02*
X77216000Y-34544000D01*
X81788000Y-34036000D02*
X81788000Y-32258000D01*
%TO.N,/A2*%
X79248000Y-33586480D02*
X78740000Y-34094480D01*
X74168000Y-34544000D02*
X74168000Y-35814000D01*
X74617520Y-34094480D02*
X74168000Y-34544000D01*
X78740000Y-34094480D02*
X74617520Y-34094480D01*
X79248000Y-32258000D02*
X79248000Y-33586480D01*
%TO.N,/A3*%
X72390000Y-37084000D02*
X67056000Y-37084000D01*
X67056000Y-37084000D02*
X66548000Y-36576000D01*
X76200000Y-33528000D02*
X74422000Y-33528000D01*
X66548000Y-36576000D02*
X66548000Y-35814000D01*
X74422000Y-33528000D02*
X72898000Y-35052000D01*
X72898000Y-36576000D02*
X72390000Y-37084000D01*
X72898000Y-35052000D02*
X72898000Y-36576000D01*
X76708000Y-32258000D02*
X76708000Y-33020000D01*
X76708000Y-33020000D02*
X76200000Y-33528000D01*
%TO.N,/A4*%
X76242009Y-36939000D02*
X82253991Y-36939000D01*
X75581009Y-37600000D02*
X76242009Y-36939000D01*
X82253991Y-36939000D02*
X83100000Y-36092991D01*
X83100000Y-36092991D02*
X83100000Y-31600000D01*
X54000000Y-37200000D02*
X64000000Y-37200000D01*
X82500000Y-31000000D02*
X75426000Y-31000000D01*
X47200000Y-44000000D02*
X54000000Y-37200000D01*
X83100000Y-31600000D02*
X82500000Y-31000000D01*
X44000000Y-44000000D02*
X47200000Y-44000000D01*
X64400000Y-37600000D02*
X75581009Y-37600000D01*
X75426000Y-31000000D02*
X74168000Y-32258000D01*
X43700000Y-48859000D02*
X43700000Y-44300000D01*
X42506000Y-50053000D02*
X43700000Y-48859000D01*
X64000000Y-37200000D02*
X64400000Y-37600000D01*
X43700000Y-44300000D02*
X44000000Y-44000000D01*
%TO.N,/A5*%
X69486000Y-34400000D02*
X66200000Y-34400000D01*
X64000000Y-36600000D02*
X53650000Y-36600000D01*
X71628000Y-32258000D02*
X69486000Y-34400000D01*
X53650000Y-36600000D02*
X47817000Y-42433000D01*
X47817000Y-42433000D02*
X42506000Y-42433000D01*
X66200000Y-34400000D02*
X64000000Y-36600000D01*
%TO.N,/A6*%
X63700000Y-36000000D02*
X65750000Y-33950000D01*
X53400000Y-36000000D02*
X63700000Y-36000000D01*
X67396000Y-33950000D02*
X69088000Y-32258000D01*
X49507000Y-39893000D02*
X53400000Y-36000000D01*
X42506000Y-39893000D02*
X49507000Y-39893000D01*
X65750000Y-33950000D02*
X67396000Y-33950000D01*
%TO.N,/A7*%
X42506000Y-32273000D02*
X43733000Y-33500000D01*
X65306000Y-33500000D02*
X66548000Y-32258000D01*
X43733000Y-33500000D02*
X65306000Y-33500000D01*
%TO.N,Net-(Q1-Pad2)*%
X91910001Y-40423999D02*
X91910001Y-43142001D01*
X93218000Y-39116000D02*
X91910001Y-40423999D01*
X91910001Y-43142001D02*
X92710000Y-43942000D01*
%TO.N,Net-(Q2-Pad2)*%
X89408000Y-43180000D02*
X88646000Y-43942000D01*
X89408000Y-38968000D02*
X89408000Y-43180000D01*
X88032000Y-37592000D02*
X89408000Y-38968000D01*
X88646000Y-43942000D02*
X88392000Y-43942000D01*
%TO.N,/LHDP*%
X92710000Y-54102000D02*
X93980000Y-55372000D01*
X93980000Y-55372000D02*
X108189000Y-55372000D01*
X108189000Y-55372000D02*
X109469000Y-54092000D01*
%TO.N,/dig_1*%
X79300000Y-49000000D02*
X79300000Y-54040000D01*
X79300000Y-54040000D02*
X79220000Y-54120000D01*
%TO.N,/num_3*%
X104409000Y-43424000D02*
X101849000Y-45984000D01*
X101849000Y-45984000D02*
X101849000Y-46472000D01*
%TO.N,/num_2*%
X107188000Y-45212000D02*
X110241000Y-45212000D01*
X106929000Y-46472000D02*
X106929000Y-45471000D01*
X110241000Y-45212000D02*
X112029000Y-43424000D01*
X106929000Y-45471000D02*
X107188000Y-45212000D01*
%TO.N,/num_1*%
X109489000Y-43424000D02*
X108209000Y-44704000D01*
X104389000Y-44963000D02*
X104389000Y-46472000D01*
X104648000Y-44704000D02*
X104389000Y-44963000D01*
X108209000Y-44704000D02*
X104648000Y-44704000D01*
%TO.N,/num_0*%
X101869000Y-43424000D02*
X99309000Y-45984000D01*
X99309000Y-45984000D02*
X99309000Y-46472000D01*
%TO.N,/drv_A7*%
X34886000Y-34813000D02*
X38623000Y-38550000D01*
X45900000Y-38600000D02*
X47700000Y-38600000D01*
X38623000Y-38550000D02*
X43600000Y-38550000D01*
X43600000Y-38550000D02*
X44150000Y-38000000D01*
X65379000Y-54120000D02*
X66520000Y-54120000D01*
X53234500Y-41975500D02*
X65379000Y-54120000D01*
X44150000Y-38000000D02*
X45300000Y-38000000D01*
X45300000Y-38000000D02*
X45900000Y-38600000D01*
%TO.N,/drv_A6*%
X44200000Y-41750000D02*
X43600000Y-41150000D01*
X43600000Y-41150000D02*
X38683000Y-41150000D01*
X45925000Y-41200000D02*
X45375000Y-41750000D01*
X47800000Y-41200000D02*
X45925000Y-41200000D01*
X38683000Y-41150000D02*
X34886000Y-37353000D01*
X47750000Y-41150000D02*
X47800000Y-41200000D01*
X45375000Y-41750000D02*
X44200000Y-41750000D01*
%TO.N,/drv_A3*%
X70954000Y-45300000D02*
X76300000Y-45300000D01*
X76700000Y-46480000D02*
X76680000Y-46500000D01*
X76300000Y-45300000D02*
X76700000Y-45700000D01*
X76700000Y-45700000D02*
X76700000Y-46480000D01*
X69088000Y-43434000D02*
X70954000Y-45300000D01*
%TO.N,/drv_A2*%
X72894000Y-44700000D02*
X78500000Y-44700000D01*
X71628000Y-43434000D02*
X72894000Y-44700000D01*
X79220000Y-45420000D02*
X79220000Y-46500000D01*
X78500000Y-44700000D02*
X79220000Y-45420000D01*
%TO.N,/drv_A1*%
X79248000Y-43434000D02*
X81760000Y-45946000D01*
X81760000Y-45946000D02*
X81760000Y-46500000D01*
%TO.N,/drv_A0*%
X81788000Y-43434000D02*
X84300000Y-45946000D01*
X84375000Y-46021000D02*
X84375000Y-46700000D01*
X84300000Y-45946000D02*
X84300000Y-46500000D01*
D20*
%TO.N,HT*%
X42506000Y-47513000D02*
X42506000Y-44973000D01*
D19*
%TO.N,Net-(RN1-Pad2)*%
X63518000Y-46482000D02*
X62484000Y-46482000D01*
X66548000Y-43452000D02*
X63518000Y-46482000D01*
X66548000Y-43434000D02*
X66548000Y-43452000D01*
%TO.N,Net-(RN1-Pad3)*%
X64426000Y-42000000D02*
X72734000Y-42000000D01*
X72734000Y-42000000D02*
X74168000Y-43434000D01*
X62484000Y-43942000D02*
X64426000Y-42000000D01*
%TO.N,Net-(RN1-Pad4)*%
X74676000Y-41402000D02*
X62484000Y-41402000D01*
X76708000Y-43434000D02*
X74676000Y-41402000D01*
%TO.N,Net-(RN1-Pad5)*%
X81694000Y-40800000D02*
X84328000Y-43434000D01*
X62484000Y-38862000D02*
X64422000Y-40800000D01*
X64422000Y-40800000D02*
X81694000Y-40800000D01*
%TO.N,Net-(RN2-Pad2)*%
X33300000Y-48500000D02*
X33333000Y-48500000D01*
X31574000Y-44958000D02*
X33300000Y-46684000D01*
X33300000Y-46684000D02*
X33300000Y-48500000D01*
X33333000Y-48500000D02*
X34886000Y-50053000D01*
%TO.N,Net-(RN2-Pad3)*%
X31574000Y-42418000D02*
X34871000Y-42418000D01*
X34871000Y-42418000D02*
X34886000Y-42433000D01*
%TO.N,Net-(RN2-Pad4)*%
X31574000Y-39878000D02*
X34871000Y-39878000D01*
X34871000Y-39878000D02*
X34886000Y-39893000D01*
%TO.N,Net-(RN2-Pad5)*%
X31574000Y-37338000D02*
X31574000Y-35585000D01*
X31574000Y-35585000D02*
X34886000Y-32273000D01*
%TD*%
%TA.AperFunction,Conductor*%
%TO.N,GND*%
G36*
X75152935Y-30509407D02*
G01*
X75188899Y-30558907D01*
X75188899Y-30620093D01*
X75164746Y-30659505D01*
X75102047Y-30722200D01*
X75102030Y-30722221D01*
X74669191Y-31155060D01*
X74614674Y-31182837D01*
X74563425Y-31177371D01*
X74484197Y-31146678D01*
X74274610Y-31107500D01*
X74061390Y-31107500D01*
X73851804Y-31146678D01*
X73652980Y-31223702D01*
X73652975Y-31223705D01*
X73471699Y-31335946D01*
X73471692Y-31335952D01*
X73314135Y-31479586D01*
X73314131Y-31479589D01*
X73314128Y-31479593D01*
X73314124Y-31479597D01*
X73314125Y-31479597D01*
X73185635Y-31649743D01*
X73185630Y-31649752D01*
X73090596Y-31840608D01*
X73090595Y-31840611D01*
X73083457Y-31865698D01*
X73032244Y-32045688D01*
X73012571Y-32258000D01*
X73032244Y-32470311D01*
X73055449Y-32551867D01*
X73090595Y-32675389D01*
X73185634Y-32866255D01*
X73314128Y-33036407D01*
X73314135Y-33036413D01*
X73471692Y-33180047D01*
X73471699Y-33180053D01*
X73553783Y-33230877D01*
X73652981Y-33292298D01*
X73801758Y-33349934D01*
X73849188Y-33388584D01*
X73864842Y-33447733D01*
X73842739Y-33504787D01*
X73835998Y-33512252D01*
X72644780Y-34703471D01*
X72549472Y-34798778D01*
X72549470Y-34798782D01*
X72537614Y-34822050D01*
X72529500Y-34835291D01*
X72514150Y-34856418D01*
X72506081Y-34881253D01*
X72500138Y-34895601D01*
X72488281Y-34918872D01*
X72488026Y-34919659D01*
X72487540Y-34920327D01*
X72484745Y-34925814D01*
X72483875Y-34925371D01*
X72452060Y-34969158D01*
X72393869Y-34988064D01*
X72335679Y-34969155D01*
X72327177Y-34962226D01*
X72294043Y-34932021D01*
X72294041Y-34932019D01*
X72120637Y-34824652D01*
X71930456Y-34750976D01*
X71930455Y-34750975D01*
X71930453Y-34750975D01*
X71729976Y-34713500D01*
X71526024Y-34713500D01*
X71325546Y-34750975D01*
X71308897Y-34757425D01*
X71135363Y-34824652D01*
X70972696Y-34925371D01*
X70961959Y-34932019D01*
X70822207Y-35059420D01*
X70811236Y-35069421D01*
X70795912Y-35089713D01*
X70688328Y-35232177D01*
X70688323Y-35232186D01*
X70597665Y-35414253D01*
X70597418Y-35414750D01*
X70541603Y-35610917D01*
X70522785Y-35814000D01*
X70541603Y-36017083D01*
X70597418Y-36213250D01*
X70688327Y-36395821D01*
X70761444Y-36492644D01*
X70766878Y-36499839D01*
X70786858Y-36557670D01*
X70769030Y-36616200D01*
X70720203Y-36653073D01*
X70687875Y-36658500D01*
X70028125Y-36658500D01*
X69969934Y-36639593D01*
X69933970Y-36590093D01*
X69933970Y-36528907D01*
X69949122Y-36499839D01*
X69953084Y-36494593D01*
X70027673Y-36395821D01*
X70118582Y-36213250D01*
X70174397Y-36017083D01*
X70193215Y-35814000D01*
X70174397Y-35610917D01*
X70118582Y-35414750D01*
X70027673Y-35232179D01*
X69904764Y-35069421D01*
X69754041Y-34932019D01*
X69737890Y-34922019D01*
X69734268Y-34919776D01*
X69694747Y-34873066D01*
X69690230Y-34812048D01*
X69722440Y-34760028D01*
X69733610Y-34752602D01*
X69739214Y-34748530D01*
X69739220Y-34748528D01*
X69834528Y-34653220D01*
X70801630Y-33686117D01*
X71126809Y-33360937D01*
X71181324Y-33333162D01*
X71232573Y-33338628D01*
X71290168Y-33360940D01*
X71311802Y-33369321D01*
X71521390Y-33408500D01*
X71734610Y-33408500D01*
X71944198Y-33369321D01*
X72143019Y-33292298D01*
X72324302Y-33180052D01*
X72481872Y-33036407D01*
X72610366Y-32866255D01*
X72705405Y-32675389D01*
X72763756Y-32470310D01*
X72783429Y-32258000D01*
X72763756Y-32045690D01*
X72705405Y-31840611D01*
X72610366Y-31649745D01*
X72481872Y-31479593D01*
X72354125Y-31363135D01*
X72324307Y-31335952D01*
X72324300Y-31335946D01*
X72143024Y-31223705D01*
X72143019Y-31223702D01*
X71985997Y-31162872D01*
X71944198Y-31146679D01*
X71944197Y-31146678D01*
X71944195Y-31146678D01*
X71734610Y-31107500D01*
X71521390Y-31107500D01*
X71311804Y-31146678D01*
X71112980Y-31223702D01*
X71112975Y-31223705D01*
X70931699Y-31335946D01*
X70931692Y-31335952D01*
X70774135Y-31479586D01*
X70774131Y-31479589D01*
X70774128Y-31479593D01*
X70774124Y-31479597D01*
X70774125Y-31479597D01*
X70645635Y-31649743D01*
X70645630Y-31649752D01*
X70550596Y-31840608D01*
X70550595Y-31840611D01*
X70543457Y-31865698D01*
X70492244Y-32045688D01*
X70472571Y-32258000D01*
X70492244Y-32470311D01*
X70504908Y-32514820D01*
X70547580Y-32664791D01*
X70545319Y-32725933D01*
X70522363Y-32761887D01*
X69338748Y-33945504D01*
X69284231Y-33973281D01*
X69268744Y-33974500D01*
X68212256Y-33974500D01*
X68154065Y-33955593D01*
X68118101Y-33906093D01*
X68118101Y-33844907D01*
X68142252Y-33805497D01*
X68586807Y-33360940D01*
X68641324Y-33333162D01*
X68692573Y-33338628D01*
X68750168Y-33360940D01*
X68771802Y-33369321D01*
X68981390Y-33408500D01*
X69194610Y-33408500D01*
X69404198Y-33369321D01*
X69603019Y-33292298D01*
X69784302Y-33180052D01*
X69941872Y-33036407D01*
X70070366Y-32866255D01*
X70165405Y-32675389D01*
X70223756Y-32470310D01*
X70243429Y-32258000D01*
X70223756Y-32045690D01*
X70165405Y-31840611D01*
X70070366Y-31649745D01*
X69941872Y-31479593D01*
X69814125Y-31363135D01*
X69784307Y-31335952D01*
X69784300Y-31335946D01*
X69603024Y-31223705D01*
X69603019Y-31223702D01*
X69445997Y-31162872D01*
X69404198Y-31146679D01*
X69404197Y-31146678D01*
X69404195Y-31146678D01*
X69194610Y-31107500D01*
X68981390Y-31107500D01*
X68771804Y-31146678D01*
X68572980Y-31223702D01*
X68572975Y-31223705D01*
X68391699Y-31335946D01*
X68391692Y-31335952D01*
X68234135Y-31479586D01*
X68234131Y-31479589D01*
X68234128Y-31479593D01*
X68234124Y-31479597D01*
X68234125Y-31479597D01*
X68105635Y-31649743D01*
X68105630Y-31649752D01*
X68010596Y-31840608D01*
X68010595Y-31840611D01*
X68003457Y-31865698D01*
X67952244Y-32045688D01*
X67932571Y-32258000D01*
X67952244Y-32470311D01*
X67964908Y-32514820D01*
X68007580Y-32664791D01*
X68005319Y-32725933D01*
X67982363Y-32761886D01*
X67248748Y-33495503D01*
X67194231Y-33523281D01*
X67178744Y-33524500D01*
X66993238Y-33524500D01*
X66935047Y-33505593D01*
X66899083Y-33456093D01*
X66899083Y-33394907D01*
X66935047Y-33345407D01*
X66957471Y-33333187D01*
X67063019Y-33292298D01*
X67244302Y-33180052D01*
X67401872Y-33036407D01*
X67530366Y-32866255D01*
X67625405Y-32675389D01*
X67683756Y-32470310D01*
X67703429Y-32258000D01*
X67683756Y-32045690D01*
X67625405Y-31840611D01*
X67530366Y-31649745D01*
X67401872Y-31479593D01*
X67274125Y-31363135D01*
X67244307Y-31335952D01*
X67244300Y-31335946D01*
X67063024Y-31223705D01*
X67063019Y-31223702D01*
X66905997Y-31162872D01*
X66864198Y-31146679D01*
X66864197Y-31146678D01*
X66864195Y-31146678D01*
X66654610Y-31107500D01*
X66441390Y-31107500D01*
X66231804Y-31146678D01*
X66032980Y-31223702D01*
X66032975Y-31223705D01*
X65851699Y-31335946D01*
X65851692Y-31335952D01*
X65694135Y-31479586D01*
X65694131Y-31479589D01*
X65694128Y-31479593D01*
X65694124Y-31479597D01*
X65694125Y-31479597D01*
X65565635Y-31649743D01*
X65565630Y-31649752D01*
X65470596Y-31840608D01*
X65470595Y-31840611D01*
X65463457Y-31865698D01*
X65412244Y-32045688D01*
X65392571Y-32258000D01*
X65412244Y-32470311D01*
X65424908Y-32514820D01*
X65467579Y-32664790D01*
X65467580Y-32664791D01*
X65465319Y-32725935D01*
X65442363Y-32761887D01*
X65158749Y-33045503D01*
X65104232Y-33073281D01*
X65088745Y-33074500D01*
X60296298Y-33074500D01*
X60238107Y-33055593D01*
X60226294Y-33045504D01*
X59891898Y-32711108D01*
X59864121Y-32656591D01*
X59873692Y-32596159D01*
X59914782Y-32554037D01*
X59987251Y-32514820D01*
X60073371Y-32421269D01*
X60090508Y-32382199D01*
X60131195Y-32336506D01*
X60190971Y-32323453D01*
X60247004Y-32348030D01*
X60251172Y-32351963D01*
X60659859Y-32760649D01*
X60659860Y-32760649D01*
X60735907Y-32618376D01*
X60796634Y-32418188D01*
X60796635Y-32418183D01*
X60817139Y-32210003D01*
X60817139Y-32209996D01*
X60796635Y-32001816D01*
X60796634Y-32001811D01*
X60735907Y-31801622D01*
X60659860Y-31659349D01*
X60659859Y-31659349D01*
X60253414Y-32065793D01*
X60198898Y-32093570D01*
X60138466Y-32083999D01*
X60100531Y-32049936D01*
X60067906Y-32000000D01*
X60034187Y-31948388D01*
X59933843Y-31870287D01*
X59933840Y-31870286D01*
X59933839Y-31870285D01*
X59932468Y-31869815D01*
X59931181Y-31868847D01*
X59926626Y-31866382D01*
X59926995Y-31865698D01*
X59883570Y-31833036D01*
X59865630Y-31774540D01*
X59885498Y-31716670D01*
X59894612Y-31706176D01*
X60300649Y-31300138D01*
X60158381Y-31224094D01*
X60158376Y-31224092D01*
X59958188Y-31163365D01*
X59958183Y-31163364D01*
X59750003Y-31142861D01*
X59749997Y-31142861D01*
X59541816Y-31163364D01*
X59541811Y-31163365D01*
X59341623Y-31224092D01*
X59341618Y-31224094D01*
X59199349Y-31300138D01*
X59199348Y-31300139D01*
X59608101Y-31708892D01*
X59635878Y-31763408D01*
X59626307Y-31823840D01*
X59585216Y-31865963D01*
X59512749Y-31905179D01*
X59426627Y-31998733D01*
X59409492Y-32037799D01*
X59368802Y-32083494D01*
X59309025Y-32096545D01*
X59252993Y-32071968D01*
X59248827Y-32068036D01*
X58840139Y-31659348D01*
X58840138Y-31659349D01*
X58764094Y-31801618D01*
X58764093Y-31801622D01*
X58703365Y-32001811D01*
X58703364Y-32001816D01*
X58682861Y-32209996D01*
X58682861Y-32210003D01*
X58703364Y-32418183D01*
X58703365Y-32418188D01*
X58764092Y-32618376D01*
X58764094Y-32618381D01*
X58840138Y-32760649D01*
X59246583Y-32354205D01*
X59301100Y-32326428D01*
X59361532Y-32335999D01*
X59399466Y-32370061D01*
X59465811Y-32471611D01*
X59471557Y-32476083D01*
X59566157Y-32549713D01*
X59567527Y-32550183D01*
X59568809Y-32551147D01*
X59573374Y-32553618D01*
X59573003Y-32554302D01*
X59616426Y-32586961D01*
X59634368Y-32645456D01*
X59614502Y-32703326D01*
X59605386Y-32713822D01*
X59273706Y-33045503D01*
X59219189Y-33073281D01*
X59203702Y-33074500D01*
X47924338Y-33074500D01*
X47866147Y-33055593D01*
X47830183Y-33006093D01*
X47830183Y-32944907D01*
X47847810Y-32912695D01*
X47910960Y-32835746D01*
X47937711Y-32803150D01*
X48036372Y-32618569D01*
X48097127Y-32418286D01*
X48097138Y-32418183D01*
X48117641Y-32210003D01*
X48117641Y-32209996D01*
X48097128Y-32001719D01*
X48097127Y-32001713D01*
X48067844Y-31905180D01*
X48036372Y-31801431D01*
X47937711Y-31616850D01*
X47887028Y-31555093D01*
X47804940Y-31455068D01*
X47804931Y-31455059D01*
X47643154Y-31322292D01*
X47643148Y-31322288D01*
X47601708Y-31300138D01*
X47458569Y-31223628D01*
X47449227Y-31220794D01*
X47258286Y-31162872D01*
X47258280Y-31162871D01*
X47050003Y-31142359D01*
X47049997Y-31142359D01*
X46841719Y-31162871D01*
X46841713Y-31162872D01*
X46641430Y-31223628D01*
X46456851Y-31322288D01*
X46456845Y-31322292D01*
X46295068Y-31455059D01*
X46295059Y-31455068D01*
X46162292Y-31616845D01*
X46162288Y-31616851D01*
X46063628Y-31801430D01*
X46002872Y-32001713D01*
X46002871Y-32001719D01*
X45982359Y-32209996D01*
X45982359Y-32210003D01*
X46002871Y-32418280D01*
X46002872Y-32418286D01*
X46043925Y-32553618D01*
X46063628Y-32618569D01*
X46142294Y-32765743D01*
X46162288Y-32803148D01*
X46162292Y-32803154D01*
X46252190Y-32912695D01*
X46274490Y-32969672D01*
X46259041Y-33028875D01*
X46211744Y-33067690D01*
X46175662Y-33074500D01*
X43950255Y-33074500D01*
X43892064Y-33055593D01*
X43880251Y-33045504D01*
X43571167Y-32736420D01*
X43543390Y-32681903D01*
X43545949Y-32639325D01*
X43592397Y-32476083D01*
X43611215Y-32273000D01*
X43592397Y-32069917D01*
X43572504Y-32000001D01*
X44044355Y-32000001D01*
X44048945Y-32037799D01*
X44064860Y-32168872D01*
X44125182Y-32327930D01*
X44189610Y-32421269D01*
X44221816Y-32467927D01*
X44221818Y-32467930D01*
X44224506Y-32470311D01*
X44349148Y-32580734D01*
X44499775Y-32659790D01*
X44664944Y-32700500D01*
X44664947Y-32700500D01*
X44835053Y-32700500D01*
X44835056Y-32700500D01*
X45000225Y-32659790D01*
X45150852Y-32580734D01*
X45278183Y-32467929D01*
X45374818Y-32327930D01*
X45435140Y-32168872D01*
X45453819Y-32015030D01*
X45455645Y-32000001D01*
X45455645Y-31999998D01*
X45449378Y-31948388D01*
X45435140Y-31831128D01*
X45374818Y-31672070D01*
X45278183Y-31532071D01*
X45218939Y-31479586D01*
X45164015Y-31430927D01*
X45150852Y-31419266D01*
X45000225Y-31340210D01*
X45000224Y-31340209D01*
X45000223Y-31340209D01*
X44835058Y-31299500D01*
X44835056Y-31299500D01*
X44664944Y-31299500D01*
X44664941Y-31299500D01*
X44499776Y-31340209D01*
X44349146Y-31419267D01*
X44221818Y-31532069D01*
X44221816Y-31532072D01*
X44163301Y-31616845D01*
X44125182Y-31672070D01*
X44064860Y-31831128D01*
X44060105Y-31870285D01*
X44044355Y-31999998D01*
X44044355Y-32000001D01*
X43572504Y-32000001D01*
X43536582Y-31873750D01*
X43445673Y-31691179D01*
X43322764Y-31528421D01*
X43172041Y-31391019D01*
X42998637Y-31283652D01*
X42808456Y-31209976D01*
X42808455Y-31209975D01*
X42808453Y-31209975D01*
X42607976Y-31172500D01*
X42404024Y-31172500D01*
X42203546Y-31209975D01*
X42175619Y-31220794D01*
X42013363Y-31283652D01*
X41884992Y-31363136D01*
X41839959Y-31391019D01*
X41689237Y-31528420D01*
X41566328Y-31691177D01*
X41566323Y-31691186D01*
X41477859Y-31868847D01*
X41475418Y-31873750D01*
X41419603Y-32069917D01*
X41400785Y-32273000D01*
X41419603Y-32476083D01*
X41475418Y-32672250D01*
X41566327Y-32854821D01*
X41689236Y-33017579D01*
X41839959Y-33154981D01*
X42013363Y-33262348D01*
X42203544Y-33336024D01*
X42404024Y-33373500D01*
X42607976Y-33373500D01*
X42808456Y-33336024D01*
X42862777Y-33314979D01*
X42923866Y-33311589D01*
X42968542Y-33337290D01*
X43378825Y-33747572D01*
X43378828Y-33747576D01*
X43378829Y-33747576D01*
X43384471Y-33753218D01*
X43384472Y-33753220D01*
X43479780Y-33848528D01*
X43503052Y-33860385D01*
X43516291Y-33868498D01*
X43537419Y-33883849D01*
X43562259Y-33891919D01*
X43576597Y-33897858D01*
X43599874Y-33909719D01*
X43625666Y-33913803D01*
X43640776Y-33917431D01*
X43665607Y-33925500D01*
X43699512Y-33925500D01*
X44411946Y-33925500D01*
X44470137Y-33944407D01*
X44506101Y-33993907D01*
X44506101Y-34055093D01*
X44470137Y-34104593D01*
X44457958Y-34112157D01*
X44372803Y-34156851D01*
X44349146Y-34169267D01*
X44221818Y-34282069D01*
X44221816Y-34282072D01*
X44151004Y-34384661D01*
X44125182Y-34422070D01*
X44068156Y-34572439D01*
X44064860Y-34581129D01*
X44044355Y-34749998D01*
X44044355Y-34750001D01*
X44045573Y-34760028D01*
X44064860Y-34918872D01*
X44125182Y-35077930D01*
X44221816Y-35217927D01*
X44221818Y-35217930D01*
X44226612Y-35222177D01*
X44349148Y-35330734D01*
X44499775Y-35409790D01*
X44664944Y-35450500D01*
X44664947Y-35450500D01*
X44835053Y-35450500D01*
X44835056Y-35450500D01*
X45000225Y-35409790D01*
X45150852Y-35330734D01*
X45278183Y-35217929D01*
X45374818Y-35077930D01*
X45435140Y-34918872D01*
X45455329Y-34752602D01*
X45455645Y-34750001D01*
X45455645Y-34749998D01*
X45449995Y-34703471D01*
X45435140Y-34581128D01*
X45374818Y-34422070D01*
X45278183Y-34282071D01*
X45259988Y-34265952D01*
X45150853Y-34169267D01*
X45150852Y-34169266D01*
X45042045Y-34112159D01*
X44999308Y-34068376D01*
X44990467Y-34007832D01*
X45018902Y-33953655D01*
X45073750Y-33926539D01*
X45088054Y-33925500D01*
X46142835Y-33925500D01*
X46201026Y-33944407D01*
X46236990Y-33993907D01*
X46236990Y-34055093D01*
X46219363Y-34087305D01*
X46162292Y-34156845D01*
X46162288Y-34156851D01*
X46063628Y-34341430D01*
X46002872Y-34541713D01*
X46002871Y-34541719D01*
X45982359Y-34749996D01*
X45982359Y-34750003D01*
X46002871Y-34958280D01*
X46002872Y-34958286D01*
X46054404Y-35128161D01*
X46063628Y-35158569D01*
X46155652Y-35330734D01*
X46162288Y-35343148D01*
X46162292Y-35343154D01*
X46295059Y-35504931D01*
X46295068Y-35504940D01*
X46454860Y-35636078D01*
X46456850Y-35637711D01*
X46641431Y-35736372D01*
X46780957Y-35778696D01*
X46841713Y-35797127D01*
X46841719Y-35797128D01*
X47049997Y-35817641D01*
X47050000Y-35817641D01*
X47050003Y-35817641D01*
X47258280Y-35797128D01*
X47258286Y-35797127D01*
X47258285Y-35797127D01*
X47458569Y-35736372D01*
X47643150Y-35637711D01*
X47804936Y-35504936D01*
X47937711Y-35343150D01*
X48036372Y-35158569D01*
X48097127Y-34958286D01*
X48097138Y-34958183D01*
X48117641Y-34750003D01*
X48117641Y-34749996D01*
X48097128Y-34541719D01*
X48097127Y-34541713D01*
X48060833Y-34422070D01*
X48036372Y-34341431D01*
X47937711Y-34156850D01*
X47926618Y-34143333D01*
X47880637Y-34087305D01*
X47858337Y-34030328D01*
X47873786Y-33971125D01*
X47921082Y-33932310D01*
X47957165Y-33925500D01*
X58843482Y-33925500D01*
X58901673Y-33944407D01*
X58937637Y-33993907D01*
X58937637Y-34055093D01*
X58920010Y-34087306D01*
X58862703Y-34157133D01*
X58764094Y-34341618D01*
X58764092Y-34341623D01*
X58703365Y-34541811D01*
X58703364Y-34541816D01*
X58682861Y-34749996D01*
X58682861Y-34750003D01*
X58703364Y-34958183D01*
X58703365Y-34958188D01*
X58764092Y-35158376D01*
X58764094Y-35158381D01*
X58862703Y-35342866D01*
X58920010Y-35412694D01*
X58942310Y-35469671D01*
X58926862Y-35528874D01*
X58879565Y-35567690D01*
X58843482Y-35574500D01*
X53332606Y-35574500D01*
X53307765Y-35582571D01*
X53292665Y-35586196D01*
X53266872Y-35590281D01*
X53243601Y-35602138D01*
X53229253Y-35608081D01*
X53204424Y-35616148D01*
X53204418Y-35616151D01*
X53183286Y-35631503D01*
X53170051Y-35639613D01*
X53146780Y-35651471D01*
X53122804Y-35675447D01*
X49359748Y-39438504D01*
X49305231Y-39466281D01*
X49289744Y-39467500D01*
X47922850Y-39467500D01*
X47864659Y-39448593D01*
X47828695Y-39399093D01*
X47828695Y-39337907D01*
X47864659Y-39288407D01*
X47899158Y-39272377D01*
X47917239Y-39267920D01*
X47950225Y-39259790D01*
X48100852Y-39180734D01*
X48228183Y-39067929D01*
X48324818Y-38927930D01*
X48385140Y-38768872D01*
X48405645Y-38600000D01*
X48385140Y-38431128D01*
X48324818Y-38272070D01*
X48228183Y-38132071D01*
X48211645Y-38117420D01*
X48100853Y-38019267D01*
X48100852Y-38019266D01*
X47950225Y-37940210D01*
X47950224Y-37940209D01*
X47950223Y-37940209D01*
X47785058Y-37899500D01*
X47785056Y-37899500D01*
X47614944Y-37899500D01*
X47614941Y-37899500D01*
X47449776Y-37940209D01*
X47299146Y-38019267D01*
X47171818Y-38132069D01*
X47167848Y-38136552D01*
X47166874Y-38135689D01*
X47123436Y-38168886D01*
X47090572Y-38174500D01*
X46117255Y-38174500D01*
X46059064Y-38155593D01*
X46047251Y-38145503D01*
X45577195Y-37675446D01*
X45553220Y-37651471D01*
X45553218Y-37651470D01*
X45529950Y-37639615D01*
X45516705Y-37631499D01*
X45495581Y-37616151D01*
X45495579Y-37616150D01*
X45470741Y-37608079D01*
X45456391Y-37602135D01*
X45433126Y-37590281D01*
X45407329Y-37586195D01*
X45392229Y-37582570D01*
X45367393Y-37574500D01*
X45333488Y-37574500D01*
X44217393Y-37574500D01*
X44082607Y-37574500D01*
X44082606Y-37574500D01*
X44057765Y-37582571D01*
X44042665Y-37586196D01*
X44016872Y-37590281D01*
X43993601Y-37602138D01*
X43979253Y-37608081D01*
X43954424Y-37616148D01*
X43954418Y-37616151D01*
X43933286Y-37631503D01*
X43920051Y-37639613D01*
X43896780Y-37651471D01*
X43872804Y-37675447D01*
X43702959Y-37845291D01*
X43648443Y-37873068D01*
X43588011Y-37863497D01*
X43544746Y-37820232D01*
X43535175Y-37759800D01*
X43537731Y-37748210D01*
X43592397Y-37556083D01*
X43611215Y-37353000D01*
X43592397Y-37149917D01*
X43536582Y-36953750D01*
X43445673Y-36771179D01*
X43354164Y-36650001D01*
X44044355Y-36650001D01*
X44048700Y-36685781D01*
X44064860Y-36818872D01*
X44125182Y-36977930D01*
X44214408Y-37107195D01*
X44221816Y-37117927D01*
X44221818Y-37117930D01*
X44252942Y-37145503D01*
X44349148Y-37230734D01*
X44499775Y-37309790D01*
X44664944Y-37350500D01*
X44664947Y-37350500D01*
X44835053Y-37350500D01*
X44835056Y-37350500D01*
X45000225Y-37309790D01*
X45150852Y-37230734D01*
X45278183Y-37117929D01*
X45374818Y-36977930D01*
X45435140Y-36818872D01*
X45454729Y-36657541D01*
X45455645Y-36650001D01*
X45455645Y-36649998D01*
X45446660Y-36576003D01*
X45435140Y-36481128D01*
X45374818Y-36322070D01*
X45278183Y-36182071D01*
X45266860Y-36172040D01*
X45150853Y-36069267D01*
X45150852Y-36069266D01*
X45000225Y-35990210D01*
X45000224Y-35990209D01*
X45000223Y-35990209D01*
X44835058Y-35949500D01*
X44835056Y-35949500D01*
X44664944Y-35949500D01*
X44664941Y-35949500D01*
X44499776Y-35990209D01*
X44349146Y-36069267D01*
X44221818Y-36182069D01*
X44221816Y-36182072D01*
X44162905Y-36267419D01*
X44125182Y-36322070D01*
X44064860Y-36481128D01*
X44063462Y-36492644D01*
X44044355Y-36649998D01*
X44044355Y-36650001D01*
X43354164Y-36650001D01*
X43322764Y-36608421D01*
X43172041Y-36471019D01*
X42998637Y-36363652D01*
X42808456Y-36289976D01*
X42808455Y-36289975D01*
X42808453Y-36289975D01*
X42607976Y-36252500D01*
X42404024Y-36252500D01*
X42203546Y-36289975D01*
X42144068Y-36313017D01*
X42013363Y-36363652D01*
X41864185Y-36456019D01*
X41839959Y-36471019D01*
X41793360Y-36513500D01*
X41689236Y-36608421D01*
X41665696Y-36639593D01*
X41566328Y-36771177D01*
X41566323Y-36771186D01*
X41482887Y-36938750D01*
X41475418Y-36953750D01*
X41428704Y-37117930D01*
X41419603Y-37149917D01*
X41402832Y-37330914D01*
X41400785Y-37353000D01*
X41419603Y-37556083D01*
X41475418Y-37752250D01*
X41566327Y-37934821D01*
X41566328Y-37934822D01*
X41566332Y-37934828D01*
X41589751Y-37965840D01*
X41609730Y-38023671D01*
X41591901Y-38082201D01*
X41543074Y-38119073D01*
X41510747Y-38124500D01*
X38840255Y-38124500D01*
X38782064Y-38105593D01*
X38770251Y-38095504D01*
X35951167Y-35276419D01*
X35923390Y-35221902D01*
X35925949Y-35179326D01*
X35972397Y-35016083D01*
X35991215Y-34813000D01*
X41400785Y-34813000D01*
X41419603Y-35016083D01*
X41465430Y-35177148D01*
X41475419Y-35212252D01*
X41534936Y-35331780D01*
X41566327Y-35394821D01*
X41689236Y-35557579D01*
X41839959Y-35694981D01*
X42013363Y-35802348D01*
X42203544Y-35876024D01*
X42404024Y-35913500D01*
X42607976Y-35913500D01*
X42808456Y-35876024D01*
X42998637Y-35802348D01*
X43172041Y-35694981D01*
X43322764Y-35557579D01*
X43445673Y-35394821D01*
X43536582Y-35212250D01*
X43592397Y-35016083D01*
X43611215Y-34813000D01*
X43592397Y-34609917D01*
X43536582Y-34413750D01*
X43445673Y-34231179D01*
X43322764Y-34068421D01*
X43172041Y-33931019D01*
X42998637Y-33823652D01*
X42808456Y-33749976D01*
X42808455Y-33749975D01*
X42808453Y-33749975D01*
X42607976Y-33712500D01*
X42404024Y-33712500D01*
X42203546Y-33749975D01*
X42195175Y-33753218D01*
X42013363Y-33823652D01*
X41839959Y-33931019D01*
X41689236Y-34068421D01*
X41674975Y-34087306D01*
X41566328Y-34231177D01*
X41566323Y-34231186D01*
X41477142Y-34410287D01*
X41475418Y-34413750D01*
X41419603Y-34609917D01*
X41400785Y-34813000D01*
X35991215Y-34813000D01*
X35972397Y-34609917D01*
X35916582Y-34413750D01*
X35825673Y-34231179D01*
X35702764Y-34068421D01*
X35552041Y-33931019D01*
X35378637Y-33823652D01*
X35188456Y-33749976D01*
X35188455Y-33749975D01*
X35188453Y-33749975D01*
X34987976Y-33712500D01*
X34784024Y-33712500D01*
X34583546Y-33749975D01*
X34575175Y-33753218D01*
X34393363Y-33823652D01*
X34219959Y-33931019D01*
X34069236Y-34068421D01*
X34054975Y-34087306D01*
X33946328Y-34231177D01*
X33946323Y-34231186D01*
X33857142Y-34410287D01*
X33855418Y-34413750D01*
X33799603Y-34609917D01*
X33780785Y-34813000D01*
X33799603Y-35016083D01*
X33845430Y-35177148D01*
X33855419Y-35212252D01*
X33914936Y-35331780D01*
X33946327Y-35394821D01*
X34069236Y-35557579D01*
X34219959Y-35694981D01*
X34393363Y-35802348D01*
X34583544Y-35876024D01*
X34784024Y-35913500D01*
X34987976Y-35913500D01*
X35188456Y-35876024D01*
X35242777Y-35854979D01*
X35303868Y-35851590D01*
X35348543Y-35877291D01*
X36819972Y-37348719D01*
X38274470Y-38803217D01*
X38274472Y-38803220D01*
X38369780Y-38898528D01*
X38393052Y-38910385D01*
X38406291Y-38918498D01*
X38427419Y-38933849D01*
X38452259Y-38941919D01*
X38466597Y-38947858D01*
X38489874Y-38959719D01*
X38515666Y-38963803D01*
X38530775Y-38967431D01*
X38534071Y-38968502D01*
X38555607Y-38975500D01*
X38589512Y-38975500D01*
X41623374Y-38975500D01*
X41681565Y-38994407D01*
X41717529Y-39043907D01*
X41717529Y-39105093D01*
X41691967Y-39144716D01*
X41692320Y-39145038D01*
X41690406Y-39147136D01*
X41690066Y-39147663D01*
X41689236Y-39148421D01*
X41634262Y-39221218D01*
X41566328Y-39311177D01*
X41566323Y-39311186D01*
X41482887Y-39478750D01*
X41475418Y-39493750D01*
X41419603Y-39689917D01*
X41400785Y-39893000D01*
X41419603Y-40096083D01*
X41475026Y-40290873D01*
X41475419Y-40292252D01*
X41547492Y-40436996D01*
X41566327Y-40474821D01*
X41615706Y-40540210D01*
X41635061Y-40565839D01*
X41655040Y-40623671D01*
X41637211Y-40682201D01*
X41588384Y-40719073D01*
X41556057Y-40724500D01*
X38900256Y-40724500D01*
X38842065Y-40705593D01*
X38830252Y-40695504D01*
X35951167Y-37816419D01*
X35923390Y-37761902D01*
X35925949Y-37719326D01*
X35972397Y-37556083D01*
X35991215Y-37353000D01*
X35972397Y-37149917D01*
X35916582Y-36953750D01*
X35825673Y-36771179D01*
X35702764Y-36608421D01*
X35552041Y-36471019D01*
X35378637Y-36363652D01*
X35188456Y-36289976D01*
X35188455Y-36289975D01*
X35188453Y-36289975D01*
X34987976Y-36252500D01*
X34784024Y-36252500D01*
X34583546Y-36289975D01*
X34524068Y-36313017D01*
X34393363Y-36363652D01*
X34244185Y-36456019D01*
X34219959Y-36471019D01*
X34173360Y-36513500D01*
X34069236Y-36608421D01*
X34045696Y-36639593D01*
X33946328Y-36771177D01*
X33946323Y-36771186D01*
X33862887Y-36938750D01*
X33855418Y-36953750D01*
X33808704Y-37117930D01*
X33799603Y-37149917D01*
X33782832Y-37330914D01*
X33780785Y-37353000D01*
X33799603Y-37556083D01*
X33855418Y-37752250D01*
X33946327Y-37934821D01*
X34069236Y-38097579D01*
X34219959Y-38234981D01*
X34393363Y-38342348D01*
X34583544Y-38416024D01*
X34784024Y-38453500D01*
X34987976Y-38453500D01*
X35188456Y-38416024D01*
X35242777Y-38394979D01*
X35303868Y-38391590D01*
X35348543Y-38417291D01*
X38334471Y-41403220D01*
X38388321Y-41457069D01*
X38429780Y-41498528D01*
X38453050Y-41510384D01*
X38466291Y-41518498D01*
X38487419Y-41533849D01*
X38512259Y-41541919D01*
X38526597Y-41547858D01*
X38549874Y-41559719D01*
X38575666Y-41563803D01*
X38590776Y-41567431D01*
X38615607Y-41575500D01*
X38649512Y-41575500D01*
X41575692Y-41575500D01*
X41633883Y-41594407D01*
X41669847Y-41643907D01*
X41669847Y-41705093D01*
X41654698Y-41734155D01*
X41604032Y-41801250D01*
X41566328Y-41851177D01*
X41566323Y-41851186D01*
X41475419Y-42033747D01*
X41419603Y-42229917D01*
X41404645Y-42391348D01*
X41400785Y-42433000D01*
X41419603Y-42636083D01*
X41475418Y-42832250D01*
X41566327Y-43014821D01*
X41689236Y-43177579D01*
X41839959Y-43314981D01*
X42013363Y-43422348D01*
X42203544Y-43496024D01*
X42404024Y-43533500D01*
X42607976Y-43533500D01*
X42808456Y-43496024D01*
X42998637Y-43422348D01*
X43172041Y-43314981D01*
X43322764Y-43177579D01*
X43445673Y-43014821D01*
X43496188Y-42913371D01*
X43539050Y-42869710D01*
X43584809Y-42858500D01*
X44005865Y-42858500D01*
X44064056Y-42877407D01*
X44100020Y-42926907D01*
X44100020Y-42988093D01*
X44098432Y-42992602D01*
X44069962Y-43067676D01*
X44064860Y-43081128D01*
X44044355Y-43249998D01*
X44044355Y-43250001D01*
X44064859Y-43418869D01*
X44064859Y-43418871D01*
X44064860Y-43418872D01*
X44073023Y-43440396D01*
X44075979Y-43501508D01*
X44042448Y-43552688D01*
X43985239Y-43574384D01*
X43980456Y-43574500D01*
X43932606Y-43574500D01*
X43907765Y-43582571D01*
X43892665Y-43586196D01*
X43866872Y-43590281D01*
X43843601Y-43602138D01*
X43829253Y-43608081D01*
X43804418Y-43616150D01*
X43783291Y-43631500D01*
X43770049Y-43639615D01*
X43746780Y-43651471D01*
X43651472Y-43746780D01*
X43651471Y-43746781D01*
X43446780Y-43951471D01*
X43351472Y-44046778D01*
X43351470Y-44046782D01*
X43339614Y-44070050D01*
X43331499Y-44083292D01*
X43329618Y-44085881D01*
X43280118Y-44121845D01*
X43218933Y-44121846D01*
X43182831Y-44100854D01*
X43172047Y-44091024D01*
X43172046Y-44091022D01*
X43138175Y-44070050D01*
X42998637Y-43983652D01*
X42808456Y-43909976D01*
X42808455Y-43909975D01*
X42808453Y-43909975D01*
X42607976Y-43872500D01*
X42404024Y-43872500D01*
X42203546Y-43909975D01*
X42133632Y-43937059D01*
X42013363Y-43983652D01*
X41873825Y-44070050D01*
X41839959Y-44091019D01*
X41726140Y-44194779D01*
X41689236Y-44228421D01*
X41670509Y-44253220D01*
X41566328Y-44391177D01*
X41566323Y-44391186D01*
X41475419Y-44573747D01*
X41475418Y-44573750D01*
X41419603Y-44769917D01*
X41400785Y-44973000D01*
X41419603Y-45176083D01*
X41475418Y-45372250D01*
X41566327Y-45554821D01*
X41689236Y-45717579D01*
X41773197Y-45794119D01*
X41803461Y-45847292D01*
X41805500Y-45867279D01*
X41805500Y-46618719D01*
X41786593Y-46676910D01*
X41773196Y-46691880D01*
X41689239Y-46768417D01*
X41566328Y-46931177D01*
X41566323Y-46931186D01*
X41491316Y-47081822D01*
X41475418Y-47113750D01*
X41436652Y-47249998D01*
X41419603Y-47309917D01*
X41404645Y-47471348D01*
X41400785Y-47513000D01*
X41419603Y-47716083D01*
X41475418Y-47912250D01*
X41566327Y-48094821D01*
X41689236Y-48257579D01*
X41839959Y-48394981D01*
X42013363Y-48502348D01*
X42203544Y-48576024D01*
X42404024Y-48613500D01*
X42607976Y-48613500D01*
X42808456Y-48576024D01*
X42998637Y-48502348D01*
X43123384Y-48425107D01*
X43182811Y-48410549D01*
X43239447Y-48433702D01*
X43271657Y-48485723D01*
X43274500Y-48509279D01*
X43274500Y-48641743D01*
X43255593Y-48699934D01*
X43245503Y-48711747D01*
X42968541Y-48988708D01*
X42914025Y-49016485D01*
X42862777Y-49011019D01*
X42826992Y-48997156D01*
X42808456Y-48989976D01*
X42808449Y-48989974D01*
X42808447Y-48989974D01*
X42607976Y-48952500D01*
X42404024Y-48952500D01*
X42203546Y-48989975D01*
X42203541Y-48989977D01*
X42013363Y-49063652D01*
X41839959Y-49171019D01*
X41689236Y-49308421D01*
X41655007Y-49353748D01*
X41566328Y-49471177D01*
X41566323Y-49471186D01*
X41475419Y-49653747D01*
X41475418Y-49653750D01*
X41419603Y-49849917D01*
X41400785Y-50053000D01*
X41419603Y-50256083D01*
X41475418Y-50452250D01*
X41566327Y-50634821D01*
X41689236Y-50797579D01*
X41839959Y-50934981D01*
X42013363Y-51042348D01*
X42203544Y-51116024D01*
X42404024Y-51153500D01*
X42607976Y-51153500D01*
X42808456Y-51116024D01*
X42998637Y-51042348D01*
X43172041Y-50934981D01*
X43322764Y-50797579D01*
X43445673Y-50634821D01*
X43536582Y-50452250D01*
X43592397Y-50256083D01*
X43611215Y-50053000D01*
X43592397Y-49849917D01*
X43545950Y-49686674D01*
X43548211Y-49625532D01*
X43571165Y-49589582D01*
X43886118Y-49274629D01*
X43940632Y-49246854D01*
X44001064Y-49256425D01*
X44044329Y-49299690D01*
X44054396Y-49332701D01*
X44064860Y-49418872D01*
X44125182Y-49577930D01*
X44221817Y-49717929D01*
X44349148Y-49830734D01*
X44499775Y-49909790D01*
X44664944Y-49950500D01*
X44664947Y-49950500D01*
X44835053Y-49950500D01*
X44835056Y-49950500D01*
X45000225Y-49909790D01*
X45150852Y-49830734D01*
X45278183Y-49717929D01*
X45374818Y-49577930D01*
X45435140Y-49418872D01*
X45455645Y-49250000D01*
X45435140Y-49081128D01*
X45374818Y-48922070D01*
X45278183Y-48782071D01*
X45245613Y-48753217D01*
X45185469Y-48699934D01*
X45150852Y-48669266D01*
X45000225Y-48590210D01*
X45000224Y-48590209D01*
X45000223Y-48590209D01*
X44835058Y-48549500D01*
X44835056Y-48549500D01*
X44664944Y-48549500D01*
X44664941Y-48549500D01*
X44499776Y-48590209D01*
X44349146Y-48669267D01*
X44290149Y-48721534D01*
X44234055Y-48745969D01*
X44174311Y-48732766D01*
X44133737Y-48686968D01*
X44125500Y-48647431D01*
X44125500Y-47852568D01*
X44144407Y-47794377D01*
X44193907Y-47758413D01*
X44255093Y-47758413D01*
X44290148Y-47778465D01*
X44349148Y-47830734D01*
X44499775Y-47909790D01*
X44664944Y-47950500D01*
X44664947Y-47950500D01*
X44835053Y-47950500D01*
X44835056Y-47950500D01*
X45000225Y-47909790D01*
X45150852Y-47830734D01*
X45278183Y-47717929D01*
X45374818Y-47577930D01*
X45435140Y-47418872D01*
X45455645Y-47250000D01*
X45435140Y-47081128D01*
X45374818Y-46922070D01*
X45278183Y-46782071D01*
X45213110Y-46724422D01*
X45176378Y-46691880D01*
X45150852Y-46669266D01*
X45000225Y-46590210D01*
X45000224Y-46590209D01*
X45000223Y-46590209D01*
X44835058Y-46549500D01*
X44835056Y-46549500D01*
X44664944Y-46549500D01*
X44664941Y-46549500D01*
X44499776Y-46590209D01*
X44349146Y-46669267D01*
X44290149Y-46721534D01*
X44234055Y-46745969D01*
X44174311Y-46732766D01*
X44133737Y-46686968D01*
X44125500Y-46647431D01*
X44125500Y-45852568D01*
X44144407Y-45794377D01*
X44193907Y-45758413D01*
X44255093Y-45758413D01*
X44290148Y-45778465D01*
X44349148Y-45830734D01*
X44499775Y-45909790D01*
X44664944Y-45950500D01*
X44664947Y-45950500D01*
X44835053Y-45950500D01*
X44835056Y-45950500D01*
X45000225Y-45909790D01*
X45150852Y-45830734D01*
X45278183Y-45717929D01*
X45374818Y-45577930D01*
X45435140Y-45418872D01*
X45454541Y-45259093D01*
X45455645Y-45250001D01*
X45455645Y-45249998D01*
X45447091Y-45179555D01*
X45435140Y-45081128D01*
X45374818Y-44922070D01*
X45278183Y-44782071D01*
X45250451Y-44757503D01*
X45175134Y-44690778D01*
X45150852Y-44669266D01*
X45042045Y-44612159D01*
X44999308Y-44568376D01*
X44990467Y-44507832D01*
X45018902Y-44453655D01*
X45073750Y-44426539D01*
X45088054Y-44425500D01*
X47267394Y-44425500D01*
X47276875Y-44422418D01*
X47292222Y-44417431D01*
X47307328Y-44413803D01*
X47333126Y-44409719D01*
X47356405Y-44397856D01*
X47370738Y-44391920D01*
X47395581Y-44383849D01*
X47416707Y-44368498D01*
X47429950Y-44360383D01*
X47453220Y-44348528D01*
X47548528Y-44253220D01*
X49826247Y-41975501D01*
X52528855Y-41975501D01*
X52534106Y-42018747D01*
X52549360Y-42144372D01*
X52609682Y-42303430D01*
X52706317Y-42443429D01*
X52833648Y-42556234D01*
X52984275Y-42635290D01*
X53149444Y-42676000D01*
X53149447Y-42676000D01*
X53292244Y-42676000D01*
X53350435Y-42694907D01*
X53362248Y-42704996D01*
X63440248Y-52782996D01*
X63468025Y-52837513D01*
X63458454Y-52897945D01*
X63415189Y-52941210D01*
X63370244Y-52952000D01*
X62738001Y-52952000D01*
X62737999Y-52952001D01*
X62737999Y-53519125D01*
X62719092Y-53577316D01*
X62669592Y-53613280D01*
X62624910Y-53617117D01*
X62519768Y-53602000D01*
X62519763Y-53602000D01*
X62448237Y-53602000D01*
X62448232Y-53602000D01*
X62343089Y-53617117D01*
X62282800Y-53606684D01*
X62240157Y-53562806D01*
X62230000Y-53519125D01*
X62230000Y-52952001D01*
X62229999Y-52952000D01*
X61589210Y-52952000D01*
X61589207Y-52952001D01*
X61564125Y-52954909D01*
X61461522Y-53000213D01*
X61382213Y-53079522D01*
X61336909Y-53182127D01*
X61334000Y-53207202D01*
X61334000Y-53847999D01*
X61334001Y-53848000D01*
X61905224Y-53848000D01*
X61963415Y-53866907D01*
X61999379Y-53916407D01*
X62000213Y-53974890D01*
X61996612Y-53987157D01*
X61984000Y-54030109D01*
X61984000Y-54173890D01*
X62000214Y-54229108D01*
X61998467Y-54290268D01*
X61961104Y-54338721D01*
X61905224Y-54356000D01*
X61334002Y-54356000D01*
X61334000Y-54356001D01*
X61334001Y-54996789D01*
X61334001Y-54996791D01*
X61336909Y-55021874D01*
X61382213Y-55124477D01*
X61461522Y-55203786D01*
X61564127Y-55249090D01*
X61589203Y-55251999D01*
X62229998Y-55251999D01*
X62230000Y-55251997D01*
X62230000Y-54684874D01*
X62248907Y-54626683D01*
X62298407Y-54590719D01*
X62343090Y-54586882D01*
X62448233Y-54602000D01*
X62448237Y-54602000D01*
X62519767Y-54602000D01*
X62602694Y-54590076D01*
X62624909Y-54586882D01*
X62685198Y-54597315D01*
X62727841Y-54641192D01*
X62737999Y-54684874D01*
X62737999Y-55251997D01*
X62738001Y-55251999D01*
X63378790Y-55251999D01*
X63378791Y-55251998D01*
X63403874Y-55249090D01*
X63506477Y-55203786D01*
X63585786Y-55124477D01*
X63631090Y-55021872D01*
X63633999Y-54996797D01*
X63634000Y-54996794D01*
X63634000Y-54356001D01*
X63633999Y-54356000D01*
X63062776Y-54356000D01*
X63004585Y-54337093D01*
X62968621Y-54287593D01*
X62967786Y-54229108D01*
X62984000Y-54173889D01*
X62984000Y-54030111D01*
X62967786Y-53974890D01*
X62969533Y-53913732D01*
X63006896Y-53865279D01*
X63062776Y-53848000D01*
X63633998Y-53848000D01*
X63633999Y-53847999D01*
X63633999Y-53215755D01*
X63652906Y-53157564D01*
X63702406Y-53121600D01*
X63763592Y-53121600D01*
X63803003Y-53145751D01*
X65030471Y-54373220D01*
X65090050Y-54432798D01*
X65125780Y-54468528D01*
X65149051Y-54480385D01*
X65162280Y-54488492D01*
X65183419Y-54503850D01*
X65208250Y-54511917D01*
X65222610Y-54517864D01*
X65245874Y-54529719D01*
X65271667Y-54533803D01*
X65286770Y-54537429D01*
X65311607Y-54545500D01*
X65345512Y-54545500D01*
X65441191Y-54545500D01*
X65499382Y-54564407D01*
X65529811Y-54600371D01*
X65532558Y-54605887D01*
X65580323Y-54701814D01*
X65580325Y-54701818D01*
X65580327Y-54701821D01*
X65703236Y-54864579D01*
X65853959Y-55001981D01*
X66027363Y-55109348D01*
X66217544Y-55183024D01*
X66418024Y-55220500D01*
X66621976Y-55220500D01*
X66822456Y-55183024D01*
X67012637Y-55109348D01*
X67186041Y-55001981D01*
X67336764Y-54864579D01*
X67459673Y-54701821D01*
X67550582Y-54519250D01*
X67606397Y-54323083D01*
X67625215Y-54120000D01*
X67954785Y-54120000D01*
X67973603Y-54323083D01*
X68029418Y-54519250D01*
X68120327Y-54701821D01*
X68243236Y-54864579D01*
X68393959Y-55001981D01*
X68567363Y-55109348D01*
X68757544Y-55183024D01*
X68958024Y-55220500D01*
X69161976Y-55220500D01*
X69362456Y-55183024D01*
X69552637Y-55109348D01*
X69726041Y-55001981D01*
X69876764Y-54864579D01*
X69999673Y-54701821D01*
X70090582Y-54519250D01*
X70146397Y-54323083D01*
X70165215Y-54120000D01*
X70494785Y-54120000D01*
X70513603Y-54323083D01*
X70569418Y-54519250D01*
X70660327Y-54701821D01*
X70783236Y-54864579D01*
X70933959Y-55001981D01*
X71107363Y-55109348D01*
X71297544Y-55183024D01*
X71498024Y-55220500D01*
X71701976Y-55220500D01*
X71902456Y-55183024D01*
X72092637Y-55109348D01*
X72266041Y-55001981D01*
X72416764Y-54864579D01*
X72539673Y-54701821D01*
X72630582Y-54519250D01*
X72671910Y-54374000D01*
X73068611Y-54374000D01*
X73109886Y-54519068D01*
X73200750Y-54701548D01*
X73200755Y-54701557D01*
X73323608Y-54864240D01*
X73474266Y-55001582D01*
X73647581Y-55108895D01*
X73647586Y-55108898D01*
X73837683Y-55182541D01*
X73885999Y-55191573D01*
X73885999Y-54599559D01*
X73904906Y-54541368D01*
X73954406Y-54505404D01*
X74006926Y-54505404D01*
X74007157Y-54503946D01*
X74014851Y-54505164D01*
X74014852Y-54505165D01*
X74043378Y-54509682D01*
X74108516Y-54520000D01*
X74108519Y-54520000D01*
X74171484Y-54520000D01*
X74236621Y-54509682D01*
X74265148Y-54505165D01*
X74265148Y-54505164D01*
X74272843Y-54503946D01*
X74273074Y-54505405D01*
X74325595Y-54505406D01*
X74375094Y-54541372D01*
X74394000Y-54599560D01*
X74394000Y-55191573D01*
X74442316Y-55182541D01*
X74632413Y-55108898D01*
X74632418Y-55108895D01*
X74805733Y-55001582D01*
X74956391Y-54864240D01*
X75079244Y-54701557D01*
X75079249Y-54701548D01*
X75170113Y-54519068D01*
X75211388Y-54374000D01*
X74619560Y-54374000D01*
X74561369Y-54355093D01*
X74525405Y-54305593D01*
X74525405Y-54253074D01*
X74523946Y-54252843D01*
X74544986Y-54120000D01*
X75574785Y-54120000D01*
X75593603Y-54323083D01*
X75649418Y-54519250D01*
X75740327Y-54701821D01*
X75863236Y-54864579D01*
X76013959Y-55001981D01*
X76187363Y-55109348D01*
X76377544Y-55183024D01*
X76578024Y-55220500D01*
X76781976Y-55220500D01*
X76982456Y-55183024D01*
X77172637Y-55109348D01*
X77346041Y-55001981D01*
X77496764Y-54864579D01*
X77619673Y-54701821D01*
X77710582Y-54519250D01*
X77766397Y-54323083D01*
X77785215Y-54120000D01*
X78114785Y-54120000D01*
X78133603Y-54323083D01*
X78189418Y-54519250D01*
X78280327Y-54701821D01*
X78403236Y-54864579D01*
X78553959Y-55001981D01*
X78727363Y-55109348D01*
X78917544Y-55183024D01*
X79118024Y-55220500D01*
X79321976Y-55220500D01*
X79522456Y-55183024D01*
X79712637Y-55109348D01*
X79886041Y-55001981D01*
X80036764Y-54864579D01*
X80159673Y-54701821D01*
X80250582Y-54519250D01*
X80306397Y-54323083D01*
X80325215Y-54120000D01*
X80306397Y-53916917D01*
X80250582Y-53720750D01*
X80159673Y-53538179D01*
X80036764Y-53375421D01*
X79886041Y-53238019D01*
X79855754Y-53219266D01*
X79772383Y-53167644D01*
X79732862Y-53120935D01*
X79725500Y-53083473D01*
X79725500Y-49603453D01*
X79744407Y-49545262D01*
X79758852Y-49529350D01*
X79766300Y-49522752D01*
X79828183Y-49467929D01*
X79924818Y-49327930D01*
X79985140Y-49168872D01*
X80005645Y-49000000D01*
X79985140Y-48831128D01*
X79924818Y-48672070D01*
X79828183Y-48532071D01*
X79794631Y-48502347D01*
X79700853Y-48419267D01*
X79700852Y-48419266D01*
X79550225Y-48340210D01*
X79550224Y-48340209D01*
X79550223Y-48340209D01*
X79385058Y-48299500D01*
X79385056Y-48299500D01*
X79214944Y-48299500D01*
X79214941Y-48299500D01*
X79049776Y-48340209D01*
X78899146Y-48419267D01*
X78771818Y-48532069D01*
X78771816Y-48532072D01*
X78759300Y-48550205D01*
X78675182Y-48672070D01*
X78618792Y-48820762D01*
X78614860Y-48831129D01*
X78600123Y-48952500D01*
X78594355Y-49000000D01*
X78614860Y-49168872D01*
X78675182Y-49327930D01*
X78771817Y-49467929D01*
X78771819Y-49467931D01*
X78771822Y-49467934D01*
X78841148Y-49529350D01*
X78872167Y-49582089D01*
X78874500Y-49603453D01*
X78874500Y-53005834D01*
X78855593Y-53064025D01*
X78811262Y-53098149D01*
X78727363Y-53130652D01*
X78599181Y-53210019D01*
X78553959Y-53238019D01*
X78403237Y-53375420D01*
X78280328Y-53538177D01*
X78280323Y-53538186D01*
X78189791Y-53720000D01*
X78189418Y-53720750D01*
X78133603Y-53916917D01*
X78114785Y-54120000D01*
X77785215Y-54120000D01*
X77766397Y-53916917D01*
X77710582Y-53720750D01*
X77619673Y-53538179D01*
X77496764Y-53375421D01*
X77346041Y-53238019D01*
X77172637Y-53130652D01*
X77172633Y-53130650D01*
X77172631Y-53130649D01*
X77168730Y-53129138D01*
X77121302Y-53090483D01*
X77105500Y-53036826D01*
X77105500Y-50421172D01*
X77124407Y-50362981D01*
X77138847Y-50347072D01*
X77228183Y-50267929D01*
X77324818Y-50127930D01*
X77385140Y-49968872D01*
X77405645Y-49800000D01*
X77385140Y-49631128D01*
X77324818Y-49472070D01*
X77228183Y-49332071D01*
X77201486Y-49308420D01*
X77135541Y-49249998D01*
X77100852Y-49219266D01*
X76950225Y-49140210D01*
X76950224Y-49140209D01*
X76950223Y-49140209D01*
X76785058Y-49099500D01*
X76785056Y-49099500D01*
X76614944Y-49099500D01*
X76614941Y-49099500D01*
X76449776Y-49140209D01*
X76299146Y-49219267D01*
X76171818Y-49332069D01*
X76171816Y-49332072D01*
X76111903Y-49418871D01*
X76075182Y-49472070D01*
X76014860Y-49631128D01*
X75994355Y-49800000D01*
X76014860Y-49968872D01*
X76075182Y-50127930D01*
X76171817Y-50267929D01*
X76171819Y-50267931D01*
X76171822Y-50267934D01*
X76221148Y-50311632D01*
X76252167Y-50364371D01*
X76254500Y-50385735D01*
X76254500Y-53036826D01*
X76235593Y-53095017D01*
X76191270Y-53129138D01*
X76187368Y-53130649D01*
X76187365Y-53130651D01*
X76187364Y-53130651D01*
X76187363Y-53130652D01*
X76107747Y-53179948D01*
X76013959Y-53238019D01*
X75863237Y-53375420D01*
X75740328Y-53538177D01*
X75740323Y-53538186D01*
X75649791Y-53720000D01*
X75649418Y-53720750D01*
X75593603Y-53916917D01*
X75574785Y-54120000D01*
X74544986Y-54120000D01*
X74544986Y-54119999D01*
X74523946Y-53987157D01*
X74525405Y-53986925D01*
X74525406Y-53934405D01*
X74561372Y-53884906D01*
X74619560Y-53866000D01*
X75211389Y-53866000D01*
X75211388Y-53865999D01*
X75170113Y-53720931D01*
X75079249Y-53538451D01*
X75079244Y-53538442D01*
X74956391Y-53375759D01*
X74805733Y-53238417D01*
X74632418Y-53131104D01*
X74632413Y-53131101D01*
X74442319Y-53057459D01*
X74442313Y-53057457D01*
X74394000Y-53048426D01*
X74394000Y-53640439D01*
X74375093Y-53698630D01*
X74325593Y-53734594D01*
X74273073Y-53734598D01*
X74272843Y-53736054D01*
X74265148Y-53734835D01*
X74236621Y-53730317D01*
X74171484Y-53720000D01*
X74171481Y-53720000D01*
X74108519Y-53720000D01*
X74108516Y-53720000D01*
X74043378Y-53730317D01*
X74014852Y-53734835D01*
X74014851Y-53734835D01*
X74007157Y-53736054D01*
X74006926Y-53734596D01*
X73954399Y-53734592D01*
X73904902Y-53698625D01*
X73885999Y-53640440D01*
X73885999Y-53048426D01*
X73837686Y-53057457D01*
X73837680Y-53057459D01*
X73647586Y-53131101D01*
X73647581Y-53131104D01*
X73474266Y-53238417D01*
X73323608Y-53375759D01*
X73200755Y-53538442D01*
X73200750Y-53538451D01*
X73109886Y-53720931D01*
X73068611Y-53865999D01*
X73068611Y-53866000D01*
X73660440Y-53866000D01*
X73718631Y-53884907D01*
X73754595Y-53934407D01*
X73754595Y-53986925D01*
X73756054Y-53987157D01*
X73735014Y-54119999D01*
X73735014Y-54120000D01*
X73756054Y-54252843D01*
X73754594Y-54253074D01*
X73754594Y-54305595D01*
X73718628Y-54355094D01*
X73660440Y-54374000D01*
X73068611Y-54374000D01*
X72671910Y-54374000D01*
X72686397Y-54323083D01*
X72705215Y-54120000D01*
X72686397Y-53916917D01*
X72630582Y-53720750D01*
X72539673Y-53538179D01*
X72416764Y-53375421D01*
X72266041Y-53238019D01*
X72092637Y-53130652D01*
X71902456Y-53056976D01*
X71902455Y-53056975D01*
X71902453Y-53056975D01*
X71701976Y-53019500D01*
X71498024Y-53019500D01*
X71297546Y-53056975D01*
X71239346Y-53079522D01*
X71107363Y-53130652D01*
X70979181Y-53210019D01*
X70933959Y-53238019D01*
X70783237Y-53375420D01*
X70660328Y-53538177D01*
X70660323Y-53538186D01*
X70569791Y-53720000D01*
X70569418Y-53720750D01*
X70565064Y-53736054D01*
X70513603Y-53916917D01*
X70497380Y-54092000D01*
X70494785Y-54120000D01*
X70165215Y-54120000D01*
X70146397Y-53916917D01*
X70090582Y-53720750D01*
X69999673Y-53538179D01*
X69876764Y-53375421D01*
X69726041Y-53238019D01*
X69552637Y-53130652D01*
X69362456Y-53056976D01*
X69362455Y-53056975D01*
X69362453Y-53056975D01*
X69161976Y-53019500D01*
X68958024Y-53019500D01*
X68757546Y-53056975D01*
X68699346Y-53079522D01*
X68567363Y-53130652D01*
X68439181Y-53210019D01*
X68393959Y-53238019D01*
X68243237Y-53375420D01*
X68120328Y-53538177D01*
X68120323Y-53538186D01*
X68029791Y-53720000D01*
X68029418Y-53720750D01*
X67973603Y-53916917D01*
X67954785Y-54120000D01*
X67625215Y-54120000D01*
X67606397Y-53916917D01*
X67550582Y-53720750D01*
X67459673Y-53538179D01*
X67336764Y-53375421D01*
X67186041Y-53238019D01*
X67012637Y-53130652D01*
X66822456Y-53056976D01*
X66822455Y-53056975D01*
X66822453Y-53056975D01*
X66621976Y-53019500D01*
X66418024Y-53019500D01*
X66217546Y-53056975D01*
X66159346Y-53079522D01*
X66027363Y-53130652D01*
X65899181Y-53210019D01*
X65853959Y-53238019D01*
X65733951Y-53347421D01*
X65703236Y-53375421D01*
X65593920Y-53520179D01*
X65580324Y-53538183D01*
X65577915Y-53542074D01*
X65576418Y-53541147D01*
X65538471Y-53579783D01*
X65478127Y-53589896D01*
X65423363Y-53562609D01*
X65422732Y-53561984D01*
X62152251Y-50291503D01*
X62124474Y-50236986D01*
X62134045Y-50176554D01*
X62177310Y-50133289D01*
X62222255Y-50122499D01*
X63328861Y-50122499D01*
X63328864Y-50122499D01*
X63353991Y-50119585D01*
X63456765Y-50074206D01*
X63536206Y-49994765D01*
X63581585Y-49891991D01*
X63584500Y-49866865D01*
X63584499Y-48177136D01*
X63581585Y-48152009D01*
X63536206Y-48049235D01*
X63456765Y-47969794D01*
X63353991Y-47924415D01*
X63353990Y-47924414D01*
X63353988Y-47924414D01*
X63328868Y-47921500D01*
X61639139Y-47921500D01*
X61639136Y-47921501D01*
X61614009Y-47924414D01*
X61511235Y-47969794D01*
X61431794Y-48049235D01*
X61386414Y-48152011D01*
X61383500Y-48177130D01*
X61383500Y-49283744D01*
X61364593Y-49341935D01*
X61315093Y-49377899D01*
X61253907Y-49377899D01*
X61214496Y-49353748D01*
X53962979Y-42102231D01*
X53935202Y-42047714D01*
X53934705Y-42020298D01*
X53940145Y-41975500D01*
X53919640Y-41806628D01*
X53859318Y-41647570D01*
X53762683Y-41507571D01*
X53635352Y-41394766D01*
X53484725Y-41315710D01*
X53484724Y-41315709D01*
X53484723Y-41315709D01*
X53319558Y-41275000D01*
X53319556Y-41275000D01*
X53149444Y-41275000D01*
X53149441Y-41275000D01*
X52984276Y-41315709D01*
X52833646Y-41394767D01*
X52706318Y-41507569D01*
X52706316Y-41507572D01*
X52612210Y-41643907D01*
X52609682Y-41647570D01*
X52549360Y-41806628D01*
X52545114Y-41841593D01*
X52528855Y-41975498D01*
X52528855Y-41975501D01*
X49826247Y-41975501D01*
X54147252Y-37654496D01*
X54201769Y-37626719D01*
X54217256Y-37625500D01*
X62099734Y-37625500D01*
X62157925Y-37644407D01*
X62193889Y-37693907D01*
X62193889Y-37755093D01*
X62157925Y-37804593D01*
X62135499Y-37816813D01*
X61991363Y-37872652D01*
X61817959Y-37980019D01*
X61687202Y-38099220D01*
X61667236Y-38117421D01*
X61638410Y-38155593D01*
X61544328Y-38280177D01*
X61544323Y-38280186D01*
X61455211Y-38459149D01*
X61453418Y-38462750D01*
X61408826Y-38619472D01*
X61397603Y-38658917D01*
X61379599Y-38853220D01*
X61378785Y-38862000D01*
X61397603Y-39065083D01*
X61453418Y-39261250D01*
X61544327Y-39443821D01*
X61667236Y-39606579D01*
X61817959Y-39743981D01*
X61991363Y-39851348D01*
X62181544Y-39925024D01*
X62382024Y-39962500D01*
X62585976Y-39962500D01*
X62786456Y-39925024D01*
X62840777Y-39903979D01*
X62901868Y-39900590D01*
X62946543Y-39926291D01*
X63827748Y-40807496D01*
X63855525Y-40862013D01*
X63845954Y-40922445D01*
X63802689Y-40965710D01*
X63757744Y-40976500D01*
X63562809Y-40976500D01*
X63504618Y-40957593D01*
X63474188Y-40921628D01*
X63423676Y-40820185D01*
X63423675Y-40820184D01*
X63423673Y-40820179D01*
X63300764Y-40657421D01*
X63150041Y-40520019D01*
X62976637Y-40412652D01*
X62786456Y-40338976D01*
X62786455Y-40338975D01*
X62786453Y-40338975D01*
X62585976Y-40301500D01*
X62382024Y-40301500D01*
X62181546Y-40338975D01*
X62164693Y-40345504D01*
X61991363Y-40412652D01*
X61828289Y-40513623D01*
X61817959Y-40520019D01*
X61667237Y-40657420D01*
X61544328Y-40820177D01*
X61544323Y-40820186D01*
X61453419Y-41002747D01*
X61453418Y-41002750D01*
X61397603Y-41198917D01*
X61378785Y-41402000D01*
X61397603Y-41605083D01*
X61453418Y-41801250D01*
X61544327Y-41983821D01*
X61667236Y-42146579D01*
X61817959Y-42283981D01*
X61991363Y-42391348D01*
X62181544Y-42465024D01*
X62382024Y-42502500D01*
X62585976Y-42502500D01*
X62786456Y-42465024D01*
X62976637Y-42391348D01*
X63150041Y-42283981D01*
X63300764Y-42146579D01*
X63423673Y-41983821D01*
X63474188Y-41882371D01*
X63517050Y-41838710D01*
X63562809Y-41827500D01*
X63757744Y-41827500D01*
X63815935Y-41846407D01*
X63851899Y-41895907D01*
X63851899Y-41957093D01*
X63827747Y-41996504D01*
X62946541Y-42877708D01*
X62892025Y-42905485D01*
X62840777Y-42900019D01*
X62804992Y-42886156D01*
X62786456Y-42878976D01*
X62786449Y-42878974D01*
X62786447Y-42878974D01*
X62585976Y-42841500D01*
X62382024Y-42841500D01*
X62181546Y-42878975D01*
X62181536Y-42878979D01*
X61991363Y-42952652D01*
X61874921Y-43024750D01*
X61817959Y-43060019D01*
X61794804Y-43081128D01*
X61667236Y-43197421D01*
X61649493Y-43220917D01*
X61544328Y-43360177D01*
X61544323Y-43360186D01*
X61453419Y-43542747D01*
X61453418Y-43542750D01*
X61397603Y-43738917D01*
X61378785Y-43942000D01*
X61397603Y-44145083D01*
X61453418Y-44341250D01*
X61544327Y-44523821D01*
X61667236Y-44686579D01*
X61817959Y-44823981D01*
X61991363Y-44931348D01*
X62181544Y-45005024D01*
X62382024Y-45042500D01*
X62585976Y-45042500D01*
X62786456Y-45005024D01*
X62976637Y-44931348D01*
X63150041Y-44823981D01*
X63300764Y-44686579D01*
X63423673Y-44523821D01*
X63514582Y-44341250D01*
X63570397Y-44145083D01*
X63589215Y-43942000D01*
X63570397Y-43738917D01*
X63523950Y-43575674D01*
X63526211Y-43514532D01*
X63549165Y-43478581D01*
X64573251Y-42454496D01*
X64627769Y-42426719D01*
X64643256Y-42425500D01*
X65359639Y-42425500D01*
X65417830Y-42444407D01*
X65453794Y-42493907D01*
X65453794Y-42555093D01*
X65450485Y-42563751D01*
X65450414Y-42564011D01*
X65447500Y-42589130D01*
X65447500Y-43909743D01*
X65428593Y-43967934D01*
X65418504Y-43979747D01*
X63536129Y-45862121D01*
X63481612Y-45889898D01*
X63421180Y-45880327D01*
X63387124Y-45851780D01*
X63300764Y-45737421D01*
X63150041Y-45600019D01*
X62976637Y-45492652D01*
X62786456Y-45418976D01*
X62786455Y-45418975D01*
X62786453Y-45418975D01*
X62585976Y-45381500D01*
X62382024Y-45381500D01*
X62181546Y-45418975D01*
X62133697Y-45437512D01*
X61991363Y-45492652D01*
X61834110Y-45590019D01*
X61817959Y-45600019D01*
X61674360Y-45730927D01*
X61667236Y-45737421D01*
X61653644Y-45755420D01*
X61544328Y-45900177D01*
X61544323Y-45900186D01*
X61453419Y-46082747D01*
X61453418Y-46082750D01*
X61397603Y-46278917D01*
X61378785Y-46482000D01*
X61397603Y-46685083D01*
X61453418Y-46881250D01*
X61544327Y-47063821D01*
X61667236Y-47226579D01*
X61817959Y-47363981D01*
X61991363Y-47471348D01*
X62181544Y-47545024D01*
X62382024Y-47582500D01*
X62585976Y-47582500D01*
X62786456Y-47545024D01*
X62976637Y-47471348D01*
X63150041Y-47363981D01*
X63300764Y-47226579D01*
X63423673Y-47063821D01*
X63474188Y-46962371D01*
X63517050Y-46918710D01*
X63562809Y-46907500D01*
X63585394Y-46907500D01*
X63594875Y-46904418D01*
X63610222Y-46899431D01*
X63625328Y-46895803D01*
X63651126Y-46891719D01*
X63674405Y-46879856D01*
X63688738Y-46873920D01*
X63713581Y-46865849D01*
X63734707Y-46850498D01*
X63747950Y-46842383D01*
X63771220Y-46830528D01*
X63847748Y-46754000D01*
X65448611Y-46754000D01*
X65489886Y-46899068D01*
X65580750Y-47081548D01*
X65580755Y-47081557D01*
X65703608Y-47244240D01*
X65854266Y-47381582D01*
X66027581Y-47488895D01*
X66027586Y-47488898D01*
X66217683Y-47562541D01*
X66266000Y-47571573D01*
X66266000Y-46979560D01*
X66284907Y-46921369D01*
X66334407Y-46885405D01*
X66386926Y-46885405D01*
X66387157Y-46883946D01*
X66394851Y-46885164D01*
X66394852Y-46885165D01*
X66423378Y-46889682D01*
X66488516Y-46900000D01*
X66488519Y-46900000D01*
X66551484Y-46900000D01*
X66616621Y-46889682D01*
X66645148Y-46885165D01*
X66645148Y-46885164D01*
X66652843Y-46883946D01*
X66653074Y-46885405D01*
X66705590Y-46885405D01*
X66755091Y-46921368D01*
X66773999Y-46979559D01*
X66773999Y-47571572D01*
X66822315Y-47562541D01*
X66822319Y-47562540D01*
X67012410Y-47488899D01*
X67012418Y-47488895D01*
X67185733Y-47381582D01*
X67336391Y-47244240D01*
X67459244Y-47081557D01*
X67459249Y-47081548D01*
X67550113Y-46899068D01*
X67591388Y-46754000D01*
X66999560Y-46754000D01*
X66941369Y-46735093D01*
X66905405Y-46685593D01*
X66905404Y-46633074D01*
X66903946Y-46632843D01*
X66906518Y-46616608D01*
X66924986Y-46500000D01*
X67954785Y-46500000D01*
X67973603Y-46703083D01*
X68029418Y-46899250D01*
X68120327Y-47081821D01*
X68243236Y-47244579D01*
X68393959Y-47381981D01*
X68567363Y-47489348D01*
X68757544Y-47563024D01*
X68958024Y-47600500D01*
X69161976Y-47600500D01*
X69362456Y-47563024D01*
X69552637Y-47489348D01*
X69726041Y-47381981D01*
X69876764Y-47244579D01*
X69999673Y-47081821D01*
X70090582Y-46899250D01*
X70146397Y-46703083D01*
X70165215Y-46500000D01*
X70146397Y-46296917D01*
X70090582Y-46100750D01*
X69999673Y-45918179D01*
X69876764Y-45755421D01*
X69726041Y-45618019D01*
X69552637Y-45510652D01*
X69362456Y-45436976D01*
X69362455Y-45436975D01*
X69362453Y-45436975D01*
X69161976Y-45399500D01*
X68958024Y-45399500D01*
X68757546Y-45436975D01*
X68731625Y-45447017D01*
X68567363Y-45510652D01*
X68407131Y-45609863D01*
X68393959Y-45618019D01*
X68243237Y-45755420D01*
X68120328Y-45918177D01*
X68120323Y-45918186D01*
X68029792Y-46099998D01*
X68029418Y-46100750D01*
X67973603Y-46296917D01*
X67954785Y-46500000D01*
X66924986Y-46500000D01*
X66905165Y-46374852D01*
X66905164Y-46374851D01*
X66903946Y-46367157D01*
X66905405Y-46366925D01*
X66905406Y-46314405D01*
X66941372Y-46264906D01*
X66999560Y-46246000D01*
X67591389Y-46246000D01*
X67591388Y-46245999D01*
X67550113Y-46100931D01*
X67459249Y-45918451D01*
X67459244Y-45918442D01*
X67336391Y-45755759D01*
X67185733Y-45618417D01*
X67012418Y-45511104D01*
X67012413Y-45511101D01*
X66822319Y-45437459D01*
X66822313Y-45437457D01*
X66773999Y-45428426D01*
X66773999Y-46020439D01*
X66755092Y-46078630D01*
X66705592Y-46114594D01*
X66653073Y-46114596D01*
X66652843Y-46116054D01*
X66645148Y-46114835D01*
X66616621Y-46110317D01*
X66551484Y-46100000D01*
X66551481Y-46100000D01*
X66488519Y-46100000D01*
X66488516Y-46100000D01*
X66423378Y-46110317D01*
X66394852Y-46114835D01*
X66394851Y-46114835D01*
X66387157Y-46116054D01*
X66386926Y-46114597D01*
X66334392Y-46114589D01*
X66284898Y-46078617D01*
X66266000Y-46020439D01*
X66266000Y-45428426D01*
X66265999Y-45428426D01*
X66217686Y-45437457D01*
X66217680Y-45437459D01*
X66027586Y-45511101D01*
X66027581Y-45511104D01*
X65854266Y-45618417D01*
X65703608Y-45755759D01*
X65580755Y-45918442D01*
X65580750Y-45918451D01*
X65489886Y-46100931D01*
X65448611Y-46245999D01*
X65448611Y-46246000D01*
X66040440Y-46246000D01*
X66098631Y-46264907D01*
X66134595Y-46314407D01*
X66134595Y-46366925D01*
X66136054Y-46367157D01*
X66134835Y-46374851D01*
X66134835Y-46374852D01*
X66115014Y-46500000D01*
X66133482Y-46616608D01*
X66136054Y-46632843D01*
X66134594Y-46633074D01*
X66134594Y-46685595D01*
X66098628Y-46735094D01*
X66040440Y-46754000D01*
X65448611Y-46754000D01*
X63847748Y-46754000D01*
X63866528Y-46735220D01*
X63866528Y-46735219D01*
X66038251Y-44563494D01*
X66092768Y-44535718D01*
X66108255Y-44534499D01*
X67392861Y-44534499D01*
X67392864Y-44534499D01*
X67417991Y-44531585D01*
X67520765Y-44486206D01*
X67600206Y-44406765D01*
X67645585Y-44303991D01*
X67648500Y-44278865D01*
X67648499Y-42589136D01*
X67645585Y-42564009D01*
X67645585Y-42564008D01*
X67643630Y-42556823D01*
X67644978Y-42556456D01*
X67639588Y-42503622D01*
X67670341Y-42450727D01*
X67726313Y-42426011D01*
X67736361Y-42425500D01*
X68305196Y-42425500D01*
X68363387Y-42444407D01*
X68399351Y-42493907D01*
X68399351Y-42555093D01*
X68371893Y-42597659D01*
X68271236Y-42689421D01*
X68258718Y-42705998D01*
X68148328Y-42852177D01*
X68148323Y-42852186D01*
X68061026Y-43027504D01*
X68057418Y-43034750D01*
X68001603Y-43230917D01*
X67982785Y-43434000D01*
X68001603Y-43637083D01*
X68057418Y-43833250D01*
X68148327Y-44015821D01*
X68271236Y-44178579D01*
X68421959Y-44315981D01*
X68595363Y-44423348D01*
X68785544Y-44497024D01*
X68986024Y-44534500D01*
X69189976Y-44534500D01*
X69390456Y-44497024D01*
X69444777Y-44475979D01*
X69505868Y-44472590D01*
X69550543Y-44498291D01*
X70605471Y-45553220D01*
X70654891Y-45602639D01*
X70700780Y-45648528D01*
X70713381Y-45654948D01*
X70756646Y-45698212D01*
X70766220Y-45758643D01*
X70747442Y-45802820D01*
X70660328Y-45918177D01*
X70660323Y-45918186D01*
X70569792Y-46099998D01*
X70569418Y-46100750D01*
X70528091Y-46245999D01*
X70513603Y-46296917D01*
X70497380Y-46472000D01*
X70494785Y-46500000D01*
X70513603Y-46703083D01*
X70569418Y-46899250D01*
X70660327Y-47081821D01*
X70783236Y-47244579D01*
X70933959Y-47381981D01*
X71107363Y-47489348D01*
X71297544Y-47563024D01*
X71498024Y-47600500D01*
X71701976Y-47600500D01*
X71902456Y-47563024D01*
X72092637Y-47489348D01*
X72266041Y-47381981D01*
X72416764Y-47244579D01*
X72539673Y-47081821D01*
X72630582Y-46899250D01*
X72686397Y-46703083D01*
X72705215Y-46500000D01*
X72686397Y-46296917D01*
X72630582Y-46100750D01*
X72539673Y-45918179D01*
X72513982Y-45884158D01*
X72494004Y-45826330D01*
X72511833Y-45767799D01*
X72560659Y-45730927D01*
X72592987Y-45725500D01*
X73147013Y-45725500D01*
X73205204Y-45744407D01*
X73241168Y-45793907D01*
X73241168Y-45855093D01*
X73226018Y-45884157D01*
X73213920Y-45900179D01*
X73200328Y-45918177D01*
X73200323Y-45918186D01*
X73109792Y-46099998D01*
X73109418Y-46100750D01*
X73068091Y-46245999D01*
X73053603Y-46296917D01*
X73037380Y-46472000D01*
X73034785Y-46500000D01*
X73053603Y-46703083D01*
X73109418Y-46899250D01*
X73200327Y-47081821D01*
X73323236Y-47244579D01*
X73473959Y-47381981D01*
X73647363Y-47489348D01*
X73837544Y-47563024D01*
X74038024Y-47600500D01*
X74241976Y-47600500D01*
X74442456Y-47563024D01*
X74632637Y-47489348D01*
X74806041Y-47381981D01*
X74956764Y-47244579D01*
X75079673Y-47081821D01*
X75170582Y-46899250D01*
X75226397Y-46703083D01*
X75245215Y-46500000D01*
X75226397Y-46296917D01*
X75170582Y-46100750D01*
X75079673Y-45918179D01*
X75053982Y-45884158D01*
X75034004Y-45826330D01*
X75051833Y-45767799D01*
X75100659Y-45730927D01*
X75132987Y-45725500D01*
X75687013Y-45725500D01*
X75745204Y-45744407D01*
X75781168Y-45793907D01*
X75781168Y-45855093D01*
X75766018Y-45884157D01*
X75753920Y-45900179D01*
X75740328Y-45918177D01*
X75740323Y-45918186D01*
X75649792Y-46099998D01*
X75649418Y-46100750D01*
X75608091Y-46245999D01*
X75593603Y-46296917D01*
X75577380Y-46472000D01*
X75574785Y-46500000D01*
X75593603Y-46703083D01*
X75649418Y-46899250D01*
X75740327Y-47081821D01*
X75863236Y-47244579D01*
X76013959Y-47381981D01*
X76187363Y-47489348D01*
X76377544Y-47563024D01*
X76578024Y-47600500D01*
X76781976Y-47600500D01*
X76982456Y-47563024D01*
X77172637Y-47489348D01*
X77346041Y-47381981D01*
X77496764Y-47244579D01*
X77619673Y-47081821D01*
X77710582Y-46899250D01*
X77766397Y-46703083D01*
X77785215Y-46500000D01*
X77766397Y-46296917D01*
X77710582Y-46100750D01*
X77619673Y-45918179D01*
X77496764Y-45755421D01*
X77346041Y-45618019D01*
X77172637Y-45510652D01*
X77172633Y-45510650D01*
X77172631Y-45510649D01*
X77091685Y-45479290D01*
X77055154Y-45451171D01*
X77054037Y-45452289D01*
X76953220Y-45351471D01*
X76896252Y-45294504D01*
X76868475Y-45239987D01*
X76878046Y-45179555D01*
X76921311Y-45136290D01*
X76966256Y-45125500D01*
X78282744Y-45125500D01*
X78340935Y-45144407D01*
X78352748Y-45154496D01*
X78627583Y-45429331D01*
X78655360Y-45483848D01*
X78645789Y-45544280D01*
X78609697Y-45583506D01*
X78553963Y-45618015D01*
X78403237Y-45755420D01*
X78280328Y-45918177D01*
X78280323Y-45918186D01*
X78189792Y-46099998D01*
X78189418Y-46100750D01*
X78133603Y-46296917D01*
X78114785Y-46500000D01*
X78133603Y-46703083D01*
X78189418Y-46899250D01*
X78280327Y-47081821D01*
X78403236Y-47244579D01*
X78553959Y-47381981D01*
X78727363Y-47489348D01*
X78917544Y-47563024D01*
X79118024Y-47600500D01*
X79321976Y-47600500D01*
X79522456Y-47563024D01*
X79712637Y-47489348D01*
X79886041Y-47381981D01*
X80036764Y-47244579D01*
X80159673Y-47081821D01*
X80250582Y-46899250D01*
X80306397Y-46703083D01*
X80325215Y-46500000D01*
X80306397Y-46296917D01*
X80250582Y-46100750D01*
X80159673Y-45918179D01*
X80036764Y-45755421D01*
X79886041Y-45618019D01*
X79712637Y-45510652D01*
X79712633Y-45510650D01*
X79712631Y-45510649D01*
X79708730Y-45509138D01*
X79661302Y-45470483D01*
X79645500Y-45416826D01*
X79645500Y-45352608D01*
X79645499Y-45352605D01*
X79637430Y-45327771D01*
X79633803Y-45312667D01*
X79629719Y-45286874D01*
X79617864Y-45263608D01*
X79611916Y-45249247D01*
X79603851Y-45224422D01*
X79603850Y-45224421D01*
X79603850Y-45224419D01*
X79588492Y-45203280D01*
X79580385Y-45190051D01*
X79568528Y-45166780D01*
X79568527Y-45166779D01*
X79568527Y-45166778D01*
X79473220Y-45071471D01*
X79105252Y-44703504D01*
X79077475Y-44648987D01*
X79087046Y-44588555D01*
X79130311Y-44545290D01*
X79175256Y-44534500D01*
X79349976Y-44534500D01*
X79550456Y-44497024D01*
X79604777Y-44475979D01*
X79665868Y-44472590D01*
X79710543Y-44498291D01*
X80892833Y-45680581D01*
X80920610Y-45735098D01*
X80911039Y-45795530D01*
X80901833Y-45810245D01*
X80820332Y-45918171D01*
X80820323Y-45918186D01*
X80729792Y-46099998D01*
X80729418Y-46100750D01*
X80688091Y-46245999D01*
X80673603Y-46296917D01*
X80657380Y-46472000D01*
X80654785Y-46500000D01*
X80673603Y-46703083D01*
X80729418Y-46899250D01*
X80820327Y-47081821D01*
X80943236Y-47244579D01*
X81093959Y-47381981D01*
X81267363Y-47489348D01*
X81342388Y-47518412D01*
X81389818Y-47557062D01*
X81405472Y-47616211D01*
X81383370Y-47673265D01*
X81362863Y-47692201D01*
X81359149Y-47694764D01*
X81231818Y-47807569D01*
X81231816Y-47807572D01*
X81151165Y-47924415D01*
X81135182Y-47947570D01*
X81074860Y-48106628D01*
X81054355Y-48275500D01*
X81074860Y-48444372D01*
X81135182Y-48603430D01*
X81231817Y-48743429D01*
X81231819Y-48743431D01*
X81231822Y-48743434D01*
X81301148Y-48804850D01*
X81332167Y-48857589D01*
X81334500Y-48878953D01*
X81334500Y-53036826D01*
X81315593Y-53095017D01*
X81271270Y-53129138D01*
X81267368Y-53130649D01*
X81267365Y-53130651D01*
X81267364Y-53130651D01*
X81267363Y-53130652D01*
X81187747Y-53179948D01*
X81093959Y-53238019D01*
X80943237Y-53375420D01*
X80820328Y-53538177D01*
X80820323Y-53538186D01*
X80729791Y-53720000D01*
X80729418Y-53720750D01*
X80725064Y-53736054D01*
X80673603Y-53916917D01*
X80657380Y-54092000D01*
X80654785Y-54120000D01*
X80673603Y-54323083D01*
X80729418Y-54519250D01*
X80820327Y-54701821D01*
X80943236Y-54864579D01*
X81093959Y-55001981D01*
X81267363Y-55109348D01*
X81457544Y-55183024D01*
X81658024Y-55220500D01*
X81861976Y-55220500D01*
X82062456Y-55183024D01*
X82252637Y-55109348D01*
X82426041Y-55001981D01*
X82576764Y-54864579D01*
X82699673Y-54701821D01*
X82790582Y-54519250D01*
X82846397Y-54323083D01*
X82865215Y-54120000D01*
X82846397Y-53916917D01*
X82790582Y-53720750D01*
X82699673Y-53538179D01*
X82576764Y-53375421D01*
X82426041Y-53238019D01*
X82252637Y-53130652D01*
X82252633Y-53130650D01*
X82252631Y-53130649D01*
X82248730Y-53129138D01*
X82201302Y-53090483D01*
X82185500Y-53036826D01*
X82185500Y-48878953D01*
X82204407Y-48820762D01*
X82218852Y-48804850D01*
X82288183Y-48743429D01*
X82384818Y-48603430D01*
X82445140Y-48444372D01*
X82465645Y-48275500D01*
X82445140Y-48106628D01*
X82384818Y-47947570D01*
X82288183Y-47807571D01*
X82273290Y-47794377D01*
X82160853Y-47694766D01*
X82157140Y-47692204D01*
X82119988Y-47643589D01*
X82118508Y-47582421D01*
X82153263Y-47532065D01*
X82177605Y-47518415D01*
X82252637Y-47489348D01*
X82426041Y-47381981D01*
X82576764Y-47244579D01*
X82699673Y-47081821D01*
X82790582Y-46899250D01*
X82846397Y-46703083D01*
X82865215Y-46500000D01*
X82846397Y-46296917D01*
X82790582Y-46100750D01*
X82699673Y-45918179D01*
X82576764Y-45755421D01*
X82426041Y-45618019D01*
X82252637Y-45510652D01*
X82062456Y-45436976D01*
X82062455Y-45436975D01*
X82062453Y-45436975D01*
X81861976Y-45399500D01*
X81856256Y-45399500D01*
X81798065Y-45380593D01*
X81786252Y-45370504D01*
X80313167Y-43897419D01*
X80285390Y-43842902D01*
X80287949Y-43800326D01*
X80334397Y-43637083D01*
X80353215Y-43434000D01*
X80682785Y-43434000D01*
X80701603Y-43637083D01*
X80757418Y-43833250D01*
X80848327Y-44015821D01*
X80971236Y-44178579D01*
X81121959Y-44315981D01*
X81295363Y-44423348D01*
X81485544Y-44497024D01*
X81686024Y-44534500D01*
X81889976Y-44534500D01*
X82090456Y-44497024D01*
X82144777Y-44475979D01*
X82205868Y-44472590D01*
X82250543Y-44498291D01*
X83209548Y-45457296D01*
X83237325Y-45511813D01*
X83230109Y-45567287D01*
X83202415Y-45630008D01*
X83202414Y-45630011D01*
X83199500Y-45655130D01*
X83199500Y-47344860D01*
X83199501Y-47344863D01*
X83202414Y-47369990D01*
X83207709Y-47381981D01*
X83247794Y-47472765D01*
X83327235Y-47552206D01*
X83430009Y-47597585D01*
X83455135Y-47600500D01*
X85144864Y-47600499D01*
X85169991Y-47597585D01*
X85272765Y-47552206D01*
X85352206Y-47472765D01*
X85397585Y-47369991D01*
X85400500Y-47344865D01*
X85400499Y-45655136D01*
X85397585Y-45630009D01*
X85352206Y-45527235D01*
X85272765Y-45447794D01*
X85169991Y-45402415D01*
X85169990Y-45402414D01*
X85169988Y-45402414D01*
X85144869Y-45399500D01*
X85144865Y-45399500D01*
X84396256Y-45399500D01*
X84338065Y-45380593D01*
X84326252Y-45370504D01*
X82853167Y-43897419D01*
X82825390Y-43842902D01*
X82827949Y-43800326D01*
X82874397Y-43637083D01*
X82893215Y-43434000D01*
X82874397Y-43230917D01*
X82818582Y-43034750D01*
X82727673Y-42852179D01*
X82604764Y-42689421D01*
X82454041Y-42552019D01*
X82280637Y-42444652D01*
X82090456Y-42370976D01*
X82090455Y-42370975D01*
X82090453Y-42370975D01*
X81889976Y-42333500D01*
X81686024Y-42333500D01*
X81485546Y-42370975D01*
X81432960Y-42391347D01*
X81295363Y-42444652D01*
X81200123Y-42503622D01*
X81121959Y-42552019D01*
X80982207Y-42679420D01*
X80971236Y-42689421D01*
X80958718Y-42705998D01*
X80848328Y-42852177D01*
X80848323Y-42852186D01*
X80761026Y-43027504D01*
X80757418Y-43034750D01*
X80701603Y-43230917D01*
X80682785Y-43434000D01*
X80353215Y-43434000D01*
X80334397Y-43230917D01*
X80278582Y-43034750D01*
X80187673Y-42852179D01*
X80064764Y-42689421D01*
X79914041Y-42552019D01*
X79740637Y-42444652D01*
X79550456Y-42370976D01*
X79550455Y-42370975D01*
X79550453Y-42370975D01*
X79349976Y-42333500D01*
X79146024Y-42333500D01*
X78945546Y-42370975D01*
X78892960Y-42391347D01*
X78755363Y-42444652D01*
X78660123Y-42503622D01*
X78581959Y-42552019D01*
X78442207Y-42679420D01*
X78431236Y-42689421D01*
X78418718Y-42705998D01*
X78308328Y-42852177D01*
X78308323Y-42852186D01*
X78221026Y-43027504D01*
X78217418Y-43034750D01*
X78161603Y-43230917D01*
X78142785Y-43434000D01*
X78161603Y-43637083D01*
X78217418Y-43833250D01*
X78308327Y-44015821D01*
X78383858Y-44115841D01*
X78403837Y-44173670D01*
X78386008Y-44232201D01*
X78337182Y-44269073D01*
X78304854Y-44274500D01*
X77651146Y-44274500D01*
X77592955Y-44255593D01*
X77556991Y-44206093D01*
X77556991Y-44144907D01*
X77572139Y-44115843D01*
X77647673Y-44015821D01*
X77738582Y-43833250D01*
X77794397Y-43637083D01*
X77813215Y-43434000D01*
X77794397Y-43230917D01*
X77738582Y-43034750D01*
X77647673Y-42852179D01*
X77524764Y-42689421D01*
X77374041Y-42552019D01*
X77200637Y-42444652D01*
X77010456Y-42370976D01*
X77010455Y-42370975D01*
X77010453Y-42370975D01*
X76809976Y-42333500D01*
X76606024Y-42333500D01*
X76405552Y-42370974D01*
X76405546Y-42370975D01*
X76405544Y-42370976D01*
X76405542Y-42370976D01*
X76405541Y-42370977D01*
X76351220Y-42392020D01*
X76290129Y-42395408D01*
X76245456Y-42369708D01*
X75270252Y-41394504D01*
X75242475Y-41339987D01*
X75252046Y-41279555D01*
X75295311Y-41236290D01*
X75340256Y-41225500D01*
X81476744Y-41225500D01*
X81534935Y-41244407D01*
X81546748Y-41254496D01*
X83262832Y-42970580D01*
X83290609Y-43025097D01*
X83288049Y-43067676D01*
X83241603Y-43230915D01*
X83229625Y-43360179D01*
X83222785Y-43434000D01*
X83241603Y-43637083D01*
X83297418Y-43833250D01*
X83388327Y-44015821D01*
X83511236Y-44178579D01*
X83661959Y-44315981D01*
X83835363Y-44423348D01*
X84025544Y-44497024D01*
X84226024Y-44534500D01*
X84429976Y-44534500D01*
X84630456Y-44497024D01*
X84820637Y-44423348D01*
X84994041Y-44315981D01*
X85144764Y-44178579D01*
X85267673Y-44015821D01*
X85358582Y-43833250D01*
X85414397Y-43637083D01*
X85433215Y-43434000D01*
X85414397Y-43230917D01*
X85358582Y-43034750D01*
X85267673Y-42852179D01*
X85144764Y-42689421D01*
X84994041Y-42552019D01*
X84820637Y-42444652D01*
X84630456Y-42370976D01*
X84630455Y-42370975D01*
X84630453Y-42370975D01*
X84429976Y-42333500D01*
X84226024Y-42333500D01*
X84025552Y-42370974D01*
X84025546Y-42370975D01*
X84025544Y-42370976D01*
X84025542Y-42370976D01*
X84025541Y-42370977D01*
X83971220Y-42392020D01*
X83910129Y-42395408D01*
X83865456Y-42369708D01*
X81971195Y-40475446D01*
X81947221Y-40451472D01*
X81947219Y-40451471D01*
X81923951Y-40439616D01*
X81910708Y-40431501D01*
X81889581Y-40416151D01*
X81889579Y-40416150D01*
X81864741Y-40408079D01*
X81850391Y-40402135D01*
X81827126Y-40390281D01*
X81801329Y-40386195D01*
X81786229Y-40382570D01*
X81761393Y-40374500D01*
X81761391Y-40374500D01*
X64639256Y-40374500D01*
X64581065Y-40355593D01*
X64569252Y-40345504D01*
X63549167Y-39325419D01*
X63521390Y-39270902D01*
X63523949Y-39228326D01*
X63570397Y-39065083D01*
X63589215Y-38862000D01*
X63570397Y-38658917D01*
X63514582Y-38462750D01*
X63423673Y-38280179D01*
X63300764Y-38117421D01*
X63150041Y-37980019D01*
X62976637Y-37872652D01*
X62832502Y-37816814D01*
X62785072Y-37778163D01*
X62769418Y-37719014D01*
X62791521Y-37661961D01*
X62842937Y-37628795D01*
X62868266Y-37625500D01*
X63782744Y-37625500D01*
X63840935Y-37644407D01*
X63852748Y-37654496D01*
X64051471Y-37853220D01*
X64146778Y-37948527D01*
X64146779Y-37948527D01*
X64146780Y-37948528D01*
X64170050Y-37960384D01*
X64183284Y-37968494D01*
X64204419Y-37983849D01*
X64229253Y-37991917D01*
X64243606Y-37997862D01*
X64266874Y-38009719D01*
X64292666Y-38013803D01*
X64307775Y-38017431D01*
X64326978Y-38023671D01*
X64332607Y-38025500D01*
X75648403Y-38025500D01*
X75657884Y-38022418D01*
X75673231Y-38017431D01*
X75688337Y-38013803D01*
X75714135Y-38009719D01*
X75737414Y-37997856D01*
X75751747Y-37991920D01*
X75776590Y-37983849D01*
X75797716Y-37968498D01*
X75810959Y-37960383D01*
X75834229Y-37948528D01*
X75929537Y-37853220D01*
X76389260Y-37393496D01*
X76443777Y-37365719D01*
X76459264Y-37364500D01*
X82321385Y-37364500D01*
X82330866Y-37361418D01*
X82346213Y-37356431D01*
X82361319Y-37352803D01*
X82387117Y-37348719D01*
X82410396Y-37336856D01*
X82424729Y-37330920D01*
X82449572Y-37322849D01*
X82470698Y-37307498D01*
X82483941Y-37299383D01*
X82507211Y-37287528D01*
X82602519Y-37192220D01*
X83312436Y-36482301D01*
X83366953Y-36454524D01*
X83427385Y-36464095D01*
X83461443Y-36492644D01*
X83511227Y-36558568D01*
X83511231Y-36558572D01*
X83511236Y-36558579D01*
X83661959Y-36695981D01*
X83835363Y-36803348D01*
X84025544Y-36877024D01*
X84226024Y-36914500D01*
X84429976Y-36914500D01*
X84630456Y-36877024D01*
X84820637Y-36803348D01*
X84994041Y-36695981D01*
X85144764Y-36558579D01*
X85267673Y-36395821D01*
X85358582Y-36213250D01*
X85414397Y-36017083D01*
X85433215Y-35814000D01*
X85414397Y-35610917D01*
X85358582Y-35414750D01*
X85267673Y-35232179D01*
X85144764Y-35069421D01*
X84994041Y-34932019D01*
X84820637Y-34824652D01*
X84820633Y-34824650D01*
X84820631Y-34824649D01*
X84816730Y-34823138D01*
X84769302Y-34784483D01*
X84753500Y-34730826D01*
X84753500Y-33394794D01*
X84772407Y-33336603D01*
X84816737Y-33302479D01*
X84843019Y-33292298D01*
X85024302Y-33180052D01*
X85181872Y-33036407D01*
X85310366Y-32866255D01*
X85405405Y-32675389D01*
X85463756Y-32470310D01*
X85483429Y-32258000D01*
X85712571Y-32258000D01*
X85732244Y-32470311D01*
X85755449Y-32551867D01*
X85790595Y-32675389D01*
X85885634Y-32866255D01*
X86014128Y-33036407D01*
X86014135Y-33036413D01*
X86171692Y-33180047D01*
X86171699Y-33180053D01*
X86352977Y-33292296D01*
X86352978Y-33292296D01*
X86352981Y-33292298D01*
X86379262Y-33302479D01*
X86426693Y-33341129D01*
X86442500Y-33394794D01*
X86442499Y-39035391D01*
X86450569Y-39060225D01*
X86454195Y-39075329D01*
X86458281Y-39101126D01*
X86458281Y-39101127D01*
X86470135Y-39124391D01*
X86476079Y-39138741D01*
X86481937Y-39156768D01*
X86484151Y-39163581D01*
X86496614Y-39180734D01*
X86499497Y-39184702D01*
X86507615Y-39197950D01*
X86519470Y-39221218D01*
X86519471Y-39221220D01*
X86543446Y-39245195D01*
X87007718Y-39709466D01*
X87035495Y-39763983D01*
X87032451Y-39808208D01*
X86996699Y-39926065D01*
X86996698Y-39926070D01*
X86976417Y-40131996D01*
X86976417Y-40132003D01*
X86996698Y-40337929D01*
X86996699Y-40337934D01*
X87056768Y-40535954D01*
X87154316Y-40718452D01*
X87283158Y-40875447D01*
X87285590Y-40878410D01*
X87314002Y-40901727D01*
X87445547Y-41009683D01*
X87445548Y-41009683D01*
X87445550Y-41009685D01*
X87628046Y-41107232D01*
X87765148Y-41148821D01*
X87826065Y-41167300D01*
X87826070Y-41167301D01*
X88031997Y-41187583D01*
X88032000Y-41187583D01*
X88032003Y-41187583D01*
X88237929Y-41167301D01*
X88237934Y-41167300D01*
X88237933Y-41167299D01*
X88435954Y-41107232D01*
X88618450Y-41009685D01*
X88778410Y-40878410D01*
X88806972Y-40843605D01*
X88858502Y-40810619D01*
X88919581Y-40814220D01*
X88966879Y-40853035D01*
X88982500Y-40906411D01*
X88982499Y-42846042D01*
X88963592Y-42904233D01*
X88914092Y-42940197D01*
X88852906Y-42940197D01*
X88847749Y-42938361D01*
X88694456Y-42878976D01*
X88694455Y-42878975D01*
X88694453Y-42878975D01*
X88493976Y-42841500D01*
X88290024Y-42841500D01*
X88089546Y-42878975D01*
X88089536Y-42878979D01*
X87899363Y-42952652D01*
X87782921Y-43024750D01*
X87725959Y-43060019D01*
X87702804Y-43081128D01*
X87575236Y-43197421D01*
X87557493Y-43220917D01*
X87452328Y-43360177D01*
X87452323Y-43360186D01*
X87361419Y-43542747D01*
X87361418Y-43542750D01*
X87305603Y-43738917D01*
X87286785Y-43942000D01*
X87305603Y-44145083D01*
X87361418Y-44341250D01*
X87452327Y-44523821D01*
X87575236Y-44686579D01*
X87725959Y-44823981D01*
X87899363Y-44931348D01*
X88089544Y-45005024D01*
X88290024Y-45042500D01*
X88493976Y-45042500D01*
X88694456Y-45005024D01*
X88884637Y-44931348D01*
X89058041Y-44823981D01*
X89208764Y-44686579D01*
X89331673Y-44523821D01*
X89422582Y-44341250D01*
X89478397Y-44145083D01*
X89497215Y-43942000D01*
X89480346Y-43759960D01*
X89493804Y-43700277D01*
X89508917Y-43680830D01*
X89732554Y-43457194D01*
X89732553Y-43457193D01*
X89756528Y-43433220D01*
X89768385Y-43409948D01*
X89776492Y-43396718D01*
X89791850Y-43375581D01*
X89799919Y-43350743D01*
X89805868Y-43336383D01*
X89806208Y-43335715D01*
X89817719Y-43313126D01*
X89821804Y-43287328D01*
X89825429Y-43272228D01*
X89833500Y-43247393D01*
X89833500Y-43112607D01*
X89833500Y-43112606D01*
X89833500Y-38934512D01*
X89833500Y-38900607D01*
X89832824Y-38898528D01*
X89825431Y-38875775D01*
X89821803Y-38860665D01*
X89820624Y-38853218D01*
X89817719Y-38834874D01*
X89805858Y-38811597D01*
X89799919Y-38797259D01*
X89791849Y-38772419D01*
X89776498Y-38751291D01*
X89768384Y-38738050D01*
X89756528Y-38714780D01*
X89751606Y-38709858D01*
X89661220Y-38619471D01*
X89056281Y-38014533D01*
X89028504Y-37960016D01*
X89031547Y-37915792D01*
X89067300Y-37797934D01*
X89067300Y-37797930D01*
X89067301Y-37797929D01*
X89087583Y-37592003D01*
X89087583Y-37591996D01*
X89067301Y-37386070D01*
X89067300Y-37386065D01*
X89037409Y-37287527D01*
X89007232Y-37188046D01*
X88909685Y-37005550D01*
X88905748Y-37000753D01*
X88778414Y-36845595D01*
X88778410Y-36845590D01*
X88776586Y-36844093D01*
X88618452Y-36714316D01*
X88435954Y-36616768D01*
X88237934Y-36556699D01*
X88237929Y-36556698D01*
X88032003Y-36536417D01*
X88031997Y-36536417D01*
X87826070Y-36556698D01*
X87826065Y-36556699D01*
X87628045Y-36616768D01*
X87549339Y-36658838D01*
X87445550Y-36714315D01*
X87445548Y-36714316D01*
X87441261Y-36716608D01*
X87440410Y-36715017D01*
X87388586Y-36729618D01*
X87331188Y-36708425D01*
X87297210Y-36657541D01*
X87293500Y-36630695D01*
X87293500Y-36200999D01*
X87312407Y-36142808D01*
X87361907Y-36106844D01*
X87392500Y-36101999D01*
X87777999Y-36101999D01*
X87778000Y-36101998D01*
X87778000Y-35531560D01*
X87796907Y-35473369D01*
X87846407Y-35437405D01*
X87898926Y-35437405D01*
X87899157Y-35435946D01*
X87906851Y-35437164D01*
X87906852Y-35437165D01*
X87935378Y-35441682D01*
X88000516Y-35452000D01*
X88000519Y-35452000D01*
X88063484Y-35452000D01*
X88128621Y-35441682D01*
X88157148Y-35437165D01*
X88157148Y-35437164D01*
X88164843Y-35435946D01*
X88165074Y-35437405D01*
X88217595Y-35437406D01*
X88267094Y-35473372D01*
X88286000Y-35531560D01*
X88286000Y-36101998D01*
X88286001Y-36101999D01*
X88826790Y-36101999D01*
X88826791Y-36101998D01*
X88851874Y-36099090D01*
X88954477Y-36053786D01*
X89033786Y-35974477D01*
X89079090Y-35871872D01*
X89081999Y-35846797D01*
X89082000Y-35846795D01*
X89082000Y-35306000D01*
X88511560Y-35306000D01*
X88453369Y-35287093D01*
X88417405Y-35237593D01*
X88417405Y-35185074D01*
X88415946Y-35184843D01*
X88420108Y-35158569D01*
X88436986Y-35052000D01*
X88417165Y-34926852D01*
X88417164Y-34926851D01*
X88415946Y-34919157D01*
X88417405Y-34918925D01*
X88417406Y-34866405D01*
X88453372Y-34816906D01*
X88511560Y-34798000D01*
X89081998Y-34798000D01*
X89081999Y-34797998D01*
X89081999Y-34257209D01*
X89081998Y-34257208D01*
X89079090Y-34232125D01*
X89033786Y-34129522D01*
X88954477Y-34050213D01*
X88851872Y-34004909D01*
X88826797Y-34002000D01*
X88286000Y-34002000D01*
X88286000Y-34572439D01*
X88267093Y-34630630D01*
X88217593Y-34666594D01*
X88165073Y-34666598D01*
X88164843Y-34668054D01*
X88157148Y-34666835D01*
X88128621Y-34662317D01*
X88063484Y-34652000D01*
X88063481Y-34652000D01*
X88000519Y-34652000D01*
X88000516Y-34652000D01*
X87935378Y-34662317D01*
X87906852Y-34666835D01*
X87906851Y-34666835D01*
X87899157Y-34668054D01*
X87898926Y-34666597D01*
X87846392Y-34666589D01*
X87796898Y-34630617D01*
X87778000Y-34572439D01*
X87778000Y-34002000D01*
X87392500Y-34002000D01*
X87334309Y-33983093D01*
X87298345Y-33933593D01*
X87293500Y-33903000D01*
X87293500Y-33394794D01*
X87312407Y-33336603D01*
X87356737Y-33302479D01*
X87383019Y-33292298D01*
X87564302Y-33180052D01*
X87721872Y-33036407D01*
X87850366Y-32866255D01*
X87945405Y-32675389D01*
X88003756Y-32470310D01*
X88023429Y-32258000D01*
X88252571Y-32258000D01*
X88272244Y-32470311D01*
X88295449Y-32551867D01*
X88330595Y-32675389D01*
X88425634Y-32866255D01*
X88554128Y-33036407D01*
X88554135Y-33036413D01*
X88711692Y-33180047D01*
X88711699Y-33180053D01*
X88793783Y-33230877D01*
X88892981Y-33292298D01*
X89091802Y-33369321D01*
X89301390Y-33408500D01*
X89514610Y-33408500D01*
X89724198Y-33369321D01*
X89803425Y-33338627D01*
X89864515Y-33335238D01*
X89909191Y-33360939D01*
X92365885Y-35817633D01*
X92393662Y-35872150D01*
X92384091Y-35932582D01*
X92372410Y-35950441D01*
X92340312Y-35989553D01*
X92242770Y-36172040D01*
X92242768Y-36172045D01*
X92182699Y-36370065D01*
X92182698Y-36370070D01*
X92162417Y-36575996D01*
X92162417Y-36576003D01*
X92182698Y-36781929D01*
X92182699Y-36781934D01*
X92242768Y-36979954D01*
X92340316Y-37162452D01*
X92416058Y-37254744D01*
X92471590Y-37322410D01*
X92471595Y-37322414D01*
X92631547Y-37453683D01*
X92631548Y-37453683D01*
X92631550Y-37453685D01*
X92814046Y-37551232D01*
X92948442Y-37592000D01*
X93012065Y-37611300D01*
X93012070Y-37611301D01*
X93217997Y-37631583D01*
X93218000Y-37631583D01*
X93218003Y-37631583D01*
X93423929Y-37611301D01*
X93423934Y-37611300D01*
X93434552Y-37608079D01*
X93621954Y-37551232D01*
X93804450Y-37453685D01*
X93964410Y-37322410D01*
X94095685Y-37162450D01*
X94193232Y-36979954D01*
X94253300Y-36781934D01*
X94253301Y-36781929D01*
X94273583Y-36576003D01*
X94273583Y-36575996D01*
X94253301Y-36370070D01*
X94253300Y-36370065D01*
X94222163Y-36267419D01*
X94193232Y-36172046D01*
X94095685Y-35989550D01*
X94082612Y-35973621D01*
X93964414Y-35829595D01*
X93964410Y-35829590D01*
X93949840Y-35817633D01*
X93933228Y-35804000D01*
X95683785Y-35804000D01*
X95702603Y-36007083D01*
X95758418Y-36203250D01*
X95849327Y-36385821D01*
X95972236Y-36548579D01*
X96122959Y-36685981D01*
X96296363Y-36793348D01*
X96486544Y-36867024D01*
X96687024Y-36904500D01*
X96890976Y-36904500D01*
X97091456Y-36867024D01*
X97145777Y-36845979D01*
X97206868Y-36842590D01*
X97251543Y-36868291D01*
X98482471Y-38099220D01*
X98538845Y-38155593D01*
X98577780Y-38194528D01*
X98601052Y-38206385D01*
X98614291Y-38214498D01*
X98635419Y-38229849D01*
X98660259Y-38237919D01*
X98674597Y-38243858D01*
X98697874Y-38255719D01*
X98723666Y-38259803D01*
X98738775Y-38263431D01*
X98763607Y-38271500D01*
X112589394Y-38271500D01*
X112598875Y-38268418D01*
X112614222Y-38263431D01*
X112629328Y-38259803D01*
X112655126Y-38255719D01*
X112678405Y-38243856D01*
X112692738Y-38237920D01*
X112717581Y-38229849D01*
X112738707Y-38214498D01*
X112751950Y-38206383D01*
X112775220Y-38194528D01*
X112870528Y-38099220D01*
X113232497Y-37737250D01*
X113608554Y-37361194D01*
X113608553Y-37361193D01*
X113632528Y-37337220D01*
X113644385Y-37313948D01*
X113652492Y-37300718D01*
X113667850Y-37279581D01*
X113675919Y-37254743D01*
X113681868Y-37240383D01*
X113693718Y-37217127D01*
X113693719Y-37217126D01*
X113697804Y-37191328D01*
X113701429Y-37176228D01*
X113709500Y-37151393D01*
X113709500Y-37016607D01*
X113709500Y-37016606D01*
X113709500Y-36733828D01*
X113728406Y-36675642D01*
X113777906Y-36639678D01*
X113839091Y-36639677D01*
X113875192Y-36660668D01*
X113902959Y-36685981D01*
X114076363Y-36793348D01*
X114266544Y-36867024D01*
X114467024Y-36904500D01*
X114670976Y-36904500D01*
X114871456Y-36867024D01*
X115061637Y-36793348D01*
X115235041Y-36685981D01*
X115385764Y-36548579D01*
X115508673Y-36385821D01*
X115599582Y-36203250D01*
X115655397Y-36007083D01*
X115674215Y-35804000D01*
X115655397Y-35600917D01*
X115599582Y-35404750D01*
X115508673Y-35222179D01*
X115385764Y-35059421D01*
X115235041Y-34922019D01*
X115061637Y-34814652D01*
X114871456Y-34740976D01*
X114871455Y-34740975D01*
X114871453Y-34740975D01*
X114670976Y-34703500D01*
X114467024Y-34703500D01*
X114266546Y-34740975D01*
X114224084Y-34757425D01*
X114076363Y-34814652D01*
X113906771Y-34919659D01*
X113902956Y-34922021D01*
X113875195Y-34947329D01*
X113819454Y-34972559D01*
X113759529Y-34960207D01*
X113718309Y-34914990D01*
X113709500Y-34874167D01*
X113709500Y-33999255D01*
X113728407Y-33941064D01*
X113738496Y-33929251D01*
X114230252Y-33437495D01*
X114284769Y-33409718D01*
X114300256Y-33408499D01*
X115702861Y-33408499D01*
X115702864Y-33408499D01*
X115727991Y-33405585D01*
X115830765Y-33360206D01*
X115910206Y-33280765D01*
X115955585Y-33177991D01*
X115958500Y-33152865D01*
X115958499Y-31363136D01*
X115955585Y-31338009D01*
X115910206Y-31235235D01*
X115830765Y-31155794D01*
X115727991Y-31110415D01*
X115727990Y-31110414D01*
X115727988Y-31110414D01*
X115702868Y-31107500D01*
X113913139Y-31107500D01*
X113913136Y-31107501D01*
X113888009Y-31110414D01*
X113785235Y-31155794D01*
X113705794Y-31235235D01*
X113660414Y-31338011D01*
X113657500Y-31363130D01*
X113657499Y-31363133D01*
X113657499Y-32765743D01*
X113638592Y-32823934D01*
X113628503Y-32835746D01*
X113030780Y-33433471D01*
X112935472Y-33528778D01*
X112935470Y-33528782D01*
X112923614Y-33552050D01*
X112915500Y-33565291D01*
X112900150Y-33586418D01*
X112892081Y-33611253D01*
X112886138Y-33625601D01*
X112874281Y-33648872D01*
X112874279Y-33648879D01*
X112870197Y-33674658D01*
X112866571Y-33689763D01*
X112858500Y-33714602D01*
X112858500Y-34846818D01*
X112839593Y-34905009D01*
X112790093Y-34940973D01*
X112728907Y-34940973D01*
X112699406Y-34923826D01*
X112698690Y-34924775D01*
X112695045Y-34922022D01*
X112695042Y-34922020D01*
X112695041Y-34922019D01*
X112521637Y-34814652D01*
X112331456Y-34740976D01*
X112331455Y-34740975D01*
X112331453Y-34740975D01*
X112130976Y-34703500D01*
X111927024Y-34703500D01*
X111726546Y-34740975D01*
X111684084Y-34757425D01*
X111536363Y-34814652D01*
X111366771Y-34919659D01*
X111362956Y-34922021D01*
X111335193Y-34947330D01*
X111279451Y-34972559D01*
X111219526Y-34960206D01*
X111178307Y-34914988D01*
X111169500Y-34874171D01*
X111169500Y-33999254D01*
X111188407Y-33941063D01*
X111198490Y-33929256D01*
X111766809Y-33360937D01*
X111821324Y-33333162D01*
X111872573Y-33338628D01*
X111930168Y-33360940D01*
X111951802Y-33369321D01*
X112161390Y-33408500D01*
X112374610Y-33408500D01*
X112584198Y-33369321D01*
X112783019Y-33292298D01*
X112964302Y-33180052D01*
X113121872Y-33036407D01*
X113250366Y-32866255D01*
X113345405Y-32675389D01*
X113403756Y-32470310D01*
X113423429Y-32258000D01*
X113403756Y-32045690D01*
X113345405Y-31840611D01*
X113250366Y-31649745D01*
X113121872Y-31479593D01*
X112994125Y-31363135D01*
X112964307Y-31335952D01*
X112964300Y-31335946D01*
X112783024Y-31223705D01*
X112783019Y-31223702D01*
X112625997Y-31162872D01*
X112584198Y-31146679D01*
X112584197Y-31146678D01*
X112584195Y-31146678D01*
X112374610Y-31107500D01*
X112161390Y-31107500D01*
X111951804Y-31146678D01*
X111752980Y-31223702D01*
X111752975Y-31223705D01*
X111571699Y-31335946D01*
X111571692Y-31335952D01*
X111414135Y-31479586D01*
X111414131Y-31479589D01*
X111414128Y-31479593D01*
X111414124Y-31479597D01*
X111414125Y-31479597D01*
X111285635Y-31649743D01*
X111285630Y-31649752D01*
X111190596Y-31840608D01*
X111190595Y-31840611D01*
X111183457Y-31865698D01*
X111132244Y-32045688D01*
X111112571Y-32258000D01*
X111132244Y-32470311D01*
X111144908Y-32514820D01*
X111187579Y-32664790D01*
X111187580Y-32664791D01*
X111185319Y-32725935D01*
X111162363Y-32761888D01*
X110490780Y-33433471D01*
X110395472Y-33528778D01*
X110395470Y-33528782D01*
X110383614Y-33552050D01*
X110375500Y-33565291D01*
X110360150Y-33586418D01*
X110352081Y-33611253D01*
X110346138Y-33625601D01*
X110334281Y-33648872D01*
X110334279Y-33648879D01*
X110330197Y-33674658D01*
X110326571Y-33689763D01*
X110318500Y-33714602D01*
X110318500Y-33748512D01*
X110318499Y-34846817D01*
X110299592Y-34905008D01*
X110250092Y-34940972D01*
X110188906Y-34940972D01*
X110159406Y-34923826D01*
X110158690Y-34924775D01*
X110155045Y-34922022D01*
X110155042Y-34922020D01*
X110155041Y-34922019D01*
X109981637Y-34814652D01*
X109791456Y-34740976D01*
X109791455Y-34740975D01*
X109791453Y-34740975D01*
X109590976Y-34703500D01*
X109387024Y-34703500D01*
X109186546Y-34740975D01*
X109144084Y-34757425D01*
X108996363Y-34814652D01*
X108834311Y-34914990D01*
X108822959Y-34922019D01*
X108680378Y-35051999D01*
X108672236Y-35059421D01*
X108658259Y-35077930D01*
X108549328Y-35222177D01*
X108549323Y-35222186D01*
X108458791Y-35404000D01*
X108458418Y-35404750D01*
X108402603Y-35600917D01*
X108383785Y-35804000D01*
X108402603Y-36007083D01*
X108458418Y-36203250D01*
X108549327Y-36385821D01*
X108672236Y-36548579D01*
X108822959Y-36685981D01*
X108834512Y-36693134D01*
X108892968Y-36729329D01*
X108932489Y-36776037D01*
X108937008Y-36837056D01*
X108904798Y-36889076D01*
X108848162Y-36912230D01*
X108840851Y-36912500D01*
X107596199Y-36912500D01*
X107538008Y-36893593D01*
X107502044Y-36844093D01*
X107502044Y-36782907D01*
X107538008Y-36733407D01*
X107544082Y-36729329D01*
X107614733Y-36685582D01*
X107765391Y-36548240D01*
X107888244Y-36385557D01*
X107888249Y-36385548D01*
X107979113Y-36203068D01*
X108020388Y-36058000D01*
X107428560Y-36058000D01*
X107370369Y-36039093D01*
X107334405Y-35989593D01*
X107334404Y-35937074D01*
X107332946Y-35936843D01*
X107336643Y-35913500D01*
X107353986Y-35804000D01*
X107334165Y-35678852D01*
X107334164Y-35678851D01*
X107332946Y-35671157D01*
X107334405Y-35670925D01*
X107334406Y-35618405D01*
X107370372Y-35568906D01*
X107428560Y-35550000D01*
X108020389Y-35550000D01*
X108020388Y-35549999D01*
X107979113Y-35404931D01*
X107888249Y-35222451D01*
X107888244Y-35222442D01*
X107765391Y-35059759D01*
X107614733Y-34922417D01*
X107441418Y-34815104D01*
X107441413Y-34815101D01*
X107251319Y-34741459D01*
X107251313Y-34741457D01*
X107203000Y-34732426D01*
X107203000Y-35324439D01*
X107184093Y-35382630D01*
X107134593Y-35418594D01*
X107082073Y-35418598D01*
X107081843Y-35420054D01*
X107074148Y-35418835D01*
X107045218Y-35414253D01*
X106980484Y-35404000D01*
X106980481Y-35404000D01*
X106917519Y-35404000D01*
X106917516Y-35404000D01*
X106852782Y-35414253D01*
X106823852Y-35418835D01*
X106823851Y-35418835D01*
X106816157Y-35420054D01*
X106815926Y-35418598D01*
X106763387Y-35418587D01*
X106713894Y-35382613D01*
X106694999Y-35324439D01*
X106694999Y-34732426D01*
X106646686Y-34741457D01*
X106646680Y-34741459D01*
X106456586Y-34815101D01*
X106456581Y-34815104D01*
X106283266Y-34922417D01*
X106132608Y-35059759D01*
X106009755Y-35222442D01*
X106009750Y-35222451D01*
X105918886Y-35404931D01*
X105877611Y-35549999D01*
X105877611Y-35550000D01*
X106469440Y-35550000D01*
X106527631Y-35568907D01*
X106563595Y-35618407D01*
X106563595Y-35670925D01*
X106565054Y-35671157D01*
X106563835Y-35678851D01*
X106563835Y-35678852D01*
X106560752Y-35698316D01*
X106544276Y-35802348D01*
X106544014Y-35804000D01*
X106548397Y-35831677D01*
X106565054Y-35936843D01*
X106563594Y-35937074D01*
X106563594Y-35989595D01*
X106527628Y-36039094D01*
X106469440Y-36058000D01*
X105877611Y-36058000D01*
X105918886Y-36203068D01*
X106009750Y-36385548D01*
X106009755Y-36385557D01*
X106132608Y-36548240D01*
X106283266Y-36685582D01*
X106353918Y-36729329D01*
X106393439Y-36776038D01*
X106397958Y-36837056D01*
X106365748Y-36889077D01*
X106309112Y-36912230D01*
X106301801Y-36912500D01*
X105057149Y-36912500D01*
X104998958Y-36893593D01*
X104962994Y-36844093D01*
X104962994Y-36782907D01*
X104998958Y-36733407D01*
X105005032Y-36729329D01*
X105021892Y-36718889D01*
X105075041Y-36685981D01*
X105225764Y-36548579D01*
X105348673Y-36385821D01*
X105439582Y-36203250D01*
X105495397Y-36007083D01*
X105514215Y-35804000D01*
X105495397Y-35600917D01*
X105439582Y-35404750D01*
X105348673Y-35222179D01*
X105225764Y-35059421D01*
X105075041Y-34922019D01*
X104901637Y-34814652D01*
X104901633Y-34814650D01*
X104901631Y-34814649D01*
X104897730Y-34813138D01*
X104850302Y-34774483D01*
X104834500Y-34720826D01*
X104834500Y-34492253D01*
X104853407Y-34434062D01*
X104863491Y-34422254D01*
X104901218Y-34384528D01*
X104901220Y-34384528D01*
X104996528Y-34289220D01*
X105008386Y-34265945D01*
X105016496Y-34252711D01*
X105031849Y-34231581D01*
X105039920Y-34206738D01*
X105045856Y-34192405D01*
X105057719Y-34169126D01*
X105061803Y-34143328D01*
X105065431Y-34128222D01*
X105073500Y-34103393D01*
X105073500Y-33968607D01*
X105073500Y-33968606D01*
X105073499Y-33394793D01*
X105092406Y-33336603D01*
X105136737Y-33302479D01*
X105163019Y-33292298D01*
X105344302Y-33180052D01*
X105501872Y-33036407D01*
X105630366Y-32866255D01*
X105725405Y-32675389D01*
X105783756Y-32470310D01*
X105803429Y-32258000D01*
X106032571Y-32258000D01*
X106052244Y-32470311D01*
X106075449Y-32551867D01*
X106110595Y-32675389D01*
X106205634Y-32866255D01*
X106334128Y-33036407D01*
X106334135Y-33036413D01*
X106491692Y-33180047D01*
X106491699Y-33180053D01*
X106573783Y-33230877D01*
X106672981Y-33292298D01*
X106871802Y-33369321D01*
X107081390Y-33408500D01*
X107294610Y-33408500D01*
X107504198Y-33369321D01*
X107703019Y-33292298D01*
X107884302Y-33180052D01*
X108041872Y-33036407D01*
X108170366Y-32866255D01*
X108265405Y-32675389D01*
X108323756Y-32470310D01*
X108343429Y-32258000D01*
X108572571Y-32258000D01*
X108580913Y-32348030D01*
X108592244Y-32470311D01*
X108615449Y-32551867D01*
X108650595Y-32675389D01*
X108745634Y-32866255D01*
X108874128Y-33036407D01*
X108874135Y-33036413D01*
X109031692Y-33180047D01*
X109031699Y-33180053D01*
X109113783Y-33230877D01*
X109212981Y-33292298D01*
X109411802Y-33369321D01*
X109621390Y-33408500D01*
X109834610Y-33408500D01*
X110044198Y-33369321D01*
X110243019Y-33292298D01*
X110424302Y-33180052D01*
X110581872Y-33036407D01*
X110710366Y-32866255D01*
X110805405Y-32675389D01*
X110863756Y-32470310D01*
X110883429Y-32258000D01*
X110863756Y-32045690D01*
X110805405Y-31840611D01*
X110710366Y-31649745D01*
X110581872Y-31479593D01*
X110454125Y-31363135D01*
X110424307Y-31335952D01*
X110424300Y-31335946D01*
X110243024Y-31223705D01*
X110243019Y-31223702D01*
X110085997Y-31162872D01*
X110044198Y-31146679D01*
X110044197Y-31146678D01*
X110044195Y-31146678D01*
X109834610Y-31107500D01*
X109621390Y-31107500D01*
X109411804Y-31146678D01*
X109212980Y-31223702D01*
X109212975Y-31223705D01*
X109031699Y-31335946D01*
X109031692Y-31335952D01*
X108874135Y-31479586D01*
X108874131Y-31479589D01*
X108874128Y-31479593D01*
X108874124Y-31479597D01*
X108874125Y-31479597D01*
X108745635Y-31649743D01*
X108745630Y-31649752D01*
X108650596Y-31840608D01*
X108650595Y-31840611D01*
X108643457Y-31865698D01*
X108592244Y-32045688D01*
X108591396Y-32054838D01*
X108572571Y-32258000D01*
X108343429Y-32258000D01*
X108323756Y-32045690D01*
X108265405Y-31840611D01*
X108170366Y-31649745D01*
X108041872Y-31479593D01*
X107914125Y-31363135D01*
X107884307Y-31335952D01*
X107884300Y-31335946D01*
X107703024Y-31223705D01*
X107703019Y-31223702D01*
X107545997Y-31162872D01*
X107504198Y-31146679D01*
X107504197Y-31146678D01*
X107504195Y-31146678D01*
X107294610Y-31107500D01*
X107081390Y-31107500D01*
X106871804Y-31146678D01*
X106672980Y-31223702D01*
X106672975Y-31223705D01*
X106491699Y-31335946D01*
X106491692Y-31335952D01*
X106334135Y-31479586D01*
X106334131Y-31479589D01*
X106334128Y-31479593D01*
X106334124Y-31479597D01*
X106334125Y-31479597D01*
X106205635Y-31649743D01*
X106205630Y-31649752D01*
X106110596Y-31840608D01*
X106110595Y-31840611D01*
X106103457Y-31865698D01*
X106052244Y-32045688D01*
X106032571Y-32258000D01*
X105803429Y-32258000D01*
X105783756Y-32045690D01*
X105725405Y-31840611D01*
X105630366Y-31649745D01*
X105501872Y-31479593D01*
X105374125Y-31363135D01*
X105344307Y-31335952D01*
X105344300Y-31335946D01*
X105163024Y-31223705D01*
X105163019Y-31223702D01*
X105005997Y-31162872D01*
X104964198Y-31146679D01*
X104964197Y-31146678D01*
X104964195Y-31146678D01*
X104754610Y-31107500D01*
X104541390Y-31107500D01*
X104331804Y-31146678D01*
X104132980Y-31223702D01*
X104132975Y-31223705D01*
X103951699Y-31335946D01*
X103951692Y-31335952D01*
X103794135Y-31479586D01*
X103794131Y-31479589D01*
X103794128Y-31479593D01*
X103794124Y-31479597D01*
X103794125Y-31479597D01*
X103665635Y-31649743D01*
X103665630Y-31649752D01*
X103570596Y-31840608D01*
X103570595Y-31840611D01*
X103563457Y-31865698D01*
X103512244Y-32045688D01*
X103511396Y-32054838D01*
X103492571Y-32258000D01*
X103500913Y-32348030D01*
X103512244Y-32470311D01*
X103535449Y-32551867D01*
X103570595Y-32675389D01*
X103665634Y-32866255D01*
X103794128Y-33036407D01*
X103794135Y-33036413D01*
X103951692Y-33180047D01*
X103951699Y-33180053D01*
X104132977Y-33292296D01*
X104132978Y-33292296D01*
X104132981Y-33292298D01*
X104159262Y-33302479D01*
X104206693Y-33341129D01*
X104222500Y-33394794D01*
X104222500Y-33818744D01*
X104203593Y-33876935D01*
X104193506Y-33888745D01*
X104172533Y-33909718D01*
X104155780Y-33926471D01*
X104060472Y-34021778D01*
X104060470Y-34021782D01*
X104048614Y-34045050D01*
X104040500Y-34058291D01*
X104025150Y-34079418D01*
X104017081Y-34104253D01*
X104011138Y-34118601D01*
X103999281Y-34141872D01*
X103995196Y-34167665D01*
X103991571Y-34182765D01*
X103983500Y-34207606D01*
X103983500Y-34720826D01*
X103964593Y-34779017D01*
X103920270Y-34813138D01*
X103916368Y-34814649D01*
X103916365Y-34814651D01*
X103916364Y-34814651D01*
X103916363Y-34814652D01*
X103754311Y-34914990D01*
X103742959Y-34922019D01*
X103600378Y-35051999D01*
X103592236Y-35059421D01*
X103578259Y-35077930D01*
X103469328Y-35222177D01*
X103469323Y-35222186D01*
X103378791Y-35404000D01*
X103378418Y-35404750D01*
X103322603Y-35600917D01*
X103303785Y-35804000D01*
X103322603Y-36007083D01*
X103378418Y-36203250D01*
X103469327Y-36385821D01*
X103592236Y-36548579D01*
X103742959Y-36685981D01*
X103754512Y-36693134D01*
X103812968Y-36729329D01*
X103852489Y-36776037D01*
X103857008Y-36837056D01*
X103824798Y-36889076D01*
X103768162Y-36912230D01*
X103760851Y-36912500D01*
X102517149Y-36912500D01*
X102458958Y-36893593D01*
X102422994Y-36844093D01*
X102422994Y-36782907D01*
X102458958Y-36733407D01*
X102465032Y-36729329D01*
X102481892Y-36718889D01*
X102535041Y-36685981D01*
X102685764Y-36548579D01*
X102808673Y-36385821D01*
X102899582Y-36203250D01*
X102955397Y-36007083D01*
X102974215Y-35804000D01*
X102955397Y-35600917D01*
X102899582Y-35404750D01*
X102808673Y-35222179D01*
X102685764Y-35059421D01*
X102535041Y-34922019D01*
X102361637Y-34814652D01*
X102357732Y-34813139D01*
X102310303Y-34774487D01*
X102294500Y-34720829D01*
X102294500Y-34492253D01*
X102313408Y-34434062D01*
X102323491Y-34422254D01*
X102361218Y-34384528D01*
X102361220Y-34384528D01*
X102456528Y-34289220D01*
X102468386Y-34265945D01*
X102476496Y-34252711D01*
X102491849Y-34231581D01*
X102499920Y-34206738D01*
X102505856Y-34192405D01*
X102517719Y-34169126D01*
X102521803Y-34143328D01*
X102525431Y-34128222D01*
X102533500Y-34103393D01*
X102533500Y-33968607D01*
X102533500Y-33394794D01*
X102552407Y-33336603D01*
X102596737Y-33302479D01*
X102623019Y-33292298D01*
X102804302Y-33180052D01*
X102961872Y-33036407D01*
X103090366Y-32866255D01*
X103185405Y-32675389D01*
X103243756Y-32470310D01*
X103263429Y-32258000D01*
X103243756Y-32045690D01*
X103185405Y-31840611D01*
X103090366Y-31649745D01*
X102961872Y-31479593D01*
X102834125Y-31363135D01*
X102804307Y-31335952D01*
X102804300Y-31335946D01*
X102623024Y-31223705D01*
X102623019Y-31223702D01*
X102465997Y-31162872D01*
X102424198Y-31146679D01*
X102424197Y-31146678D01*
X102424195Y-31146678D01*
X102214610Y-31107500D01*
X102001390Y-31107500D01*
X101791804Y-31146678D01*
X101592980Y-31223702D01*
X101592975Y-31223705D01*
X101411699Y-31335946D01*
X101411692Y-31335952D01*
X101254135Y-31479586D01*
X101254131Y-31479589D01*
X101254128Y-31479593D01*
X101254124Y-31479597D01*
X101254125Y-31479597D01*
X101125635Y-31649743D01*
X101125630Y-31649752D01*
X101030596Y-31840608D01*
X101030595Y-31840611D01*
X101023457Y-31865698D01*
X100972244Y-32045688D01*
X100952571Y-32258000D01*
X100972244Y-32470311D01*
X100995449Y-32551867D01*
X101030595Y-32675389D01*
X101125634Y-32866255D01*
X101254128Y-33036407D01*
X101254135Y-33036413D01*
X101411692Y-33180047D01*
X101411699Y-33180053D01*
X101592977Y-33292296D01*
X101592978Y-33292296D01*
X101592981Y-33292298D01*
X101619262Y-33302479D01*
X101666693Y-33341129D01*
X101682500Y-33394794D01*
X101682500Y-33818744D01*
X101663593Y-33876935D01*
X101653506Y-33888745D01*
X101632533Y-33909718D01*
X101615780Y-33926471D01*
X101520472Y-34021778D01*
X101520470Y-34021782D01*
X101508614Y-34045050D01*
X101500500Y-34058291D01*
X101485150Y-34079418D01*
X101477081Y-34104253D01*
X101471138Y-34118601D01*
X101459281Y-34141872D01*
X101455196Y-34167665D01*
X101451571Y-34182765D01*
X101443500Y-34207606D01*
X101443500Y-34720826D01*
X101424593Y-34779017D01*
X101380270Y-34813138D01*
X101376368Y-34814649D01*
X101376365Y-34814651D01*
X101376364Y-34814651D01*
X101376363Y-34814652D01*
X101214311Y-34914990D01*
X101202959Y-34922019D01*
X101060378Y-35051999D01*
X101052236Y-35059421D01*
X101038259Y-35077930D01*
X100929328Y-35222177D01*
X100929323Y-35222186D01*
X100838791Y-35404000D01*
X100838418Y-35404750D01*
X100782603Y-35600917D01*
X100763785Y-35804000D01*
X100782603Y-36007083D01*
X100838418Y-36203250D01*
X100929327Y-36385821D01*
X101052236Y-36548579D01*
X101202959Y-36685981D01*
X101214512Y-36693134D01*
X101272968Y-36729329D01*
X101312489Y-36776037D01*
X101317008Y-36837056D01*
X101284798Y-36889076D01*
X101228162Y-36912230D01*
X101220851Y-36912500D01*
X101080256Y-36912500D01*
X101022065Y-36893593D01*
X101010252Y-36883504D01*
X100394167Y-36267419D01*
X100366390Y-36212902D01*
X100368949Y-36170326D01*
X100415397Y-36007083D01*
X100434215Y-35804000D01*
X100415397Y-35600917D01*
X100359582Y-35404750D01*
X100268673Y-35222179D01*
X100145764Y-35059421D01*
X99995041Y-34922019D01*
X99821637Y-34814652D01*
X99631456Y-34740976D01*
X99631455Y-34740975D01*
X99631453Y-34740975D01*
X99430976Y-34703500D01*
X99227024Y-34703500D01*
X99026546Y-34740975D01*
X98984084Y-34757425D01*
X98836363Y-34814652D01*
X98674311Y-34914990D01*
X98662959Y-34922019D01*
X98520378Y-35051999D01*
X98512236Y-35059421D01*
X98498259Y-35077930D01*
X98389328Y-35222177D01*
X98389323Y-35222186D01*
X98298791Y-35404000D01*
X98298418Y-35404750D01*
X98285010Y-35451874D01*
X98242603Y-35600917D01*
X98230052Y-35736372D01*
X98223785Y-35804000D01*
X98242603Y-36007083D01*
X98298418Y-36203250D01*
X98389327Y-36385821D01*
X98512236Y-36548579D01*
X98662959Y-36685981D01*
X98836363Y-36793348D01*
X99026544Y-36867024D01*
X99227024Y-36904500D01*
X99430976Y-36904500D01*
X99631456Y-36867024D01*
X99685777Y-36845979D01*
X99746868Y-36842590D01*
X99791543Y-36868291D01*
X100174748Y-37251496D01*
X100202525Y-37306013D01*
X100192954Y-37366445D01*
X100149689Y-37409710D01*
X100104744Y-37420500D01*
X99048255Y-37420500D01*
X98990064Y-37401593D01*
X98978251Y-37391504D01*
X97854167Y-36267420D01*
X97826390Y-36212903D01*
X97828949Y-36170325D01*
X97875397Y-36007083D01*
X97894215Y-35804000D01*
X97875397Y-35600917D01*
X97819582Y-35404750D01*
X97728673Y-35222179D01*
X97605764Y-35059421D01*
X97455041Y-34922019D01*
X97281637Y-34814652D01*
X97091456Y-34740976D01*
X97091455Y-34740975D01*
X97091453Y-34740975D01*
X96890976Y-34703500D01*
X96687024Y-34703500D01*
X96486546Y-34740975D01*
X96444084Y-34757425D01*
X96296363Y-34814652D01*
X96134311Y-34914990D01*
X96122959Y-34922019D01*
X95980378Y-35051999D01*
X95972236Y-35059421D01*
X95958259Y-35077930D01*
X95849328Y-35222177D01*
X95849323Y-35222186D01*
X95758791Y-35404000D01*
X95758418Y-35404750D01*
X95702603Y-35600917D01*
X95683785Y-35804000D01*
X93933228Y-35804000D01*
X93804452Y-35698316D01*
X93621954Y-35600768D01*
X93423934Y-35540699D01*
X93423928Y-35540698D01*
X93313335Y-35529806D01*
X93257278Y-35505286D01*
X93253035Y-35501287D01*
X90513636Y-32761888D01*
X90485859Y-32707371D01*
X90488420Y-32664791D01*
X90488421Y-32664790D01*
X90543756Y-32470310D01*
X90563429Y-32258000D01*
X90792571Y-32258000D01*
X90812244Y-32470311D01*
X90835449Y-32551867D01*
X90870595Y-32675389D01*
X90965634Y-32866255D01*
X91094128Y-33036407D01*
X91094135Y-33036413D01*
X91251692Y-33180047D01*
X91251699Y-33180053D01*
X91333783Y-33230877D01*
X91432981Y-33292298D01*
X91631802Y-33369321D01*
X91841390Y-33408500D01*
X92054610Y-33408500D01*
X92264198Y-33369321D01*
X92463019Y-33292298D01*
X92644302Y-33180052D01*
X92801872Y-33036407D01*
X92930366Y-32866255D01*
X93025405Y-32675389D01*
X93083756Y-32470310D01*
X93103429Y-32258000D01*
X93332571Y-32258000D01*
X93340913Y-32348030D01*
X93352244Y-32470311D01*
X93375449Y-32551867D01*
X93410595Y-32675389D01*
X93505634Y-32866255D01*
X93634128Y-33036407D01*
X93634135Y-33036413D01*
X93791692Y-33180047D01*
X93791699Y-33180053D01*
X93873783Y-33230877D01*
X93972981Y-33292298D01*
X94171802Y-33369321D01*
X94381390Y-33408500D01*
X94594610Y-33408500D01*
X94804198Y-33369321D01*
X95003019Y-33292298D01*
X95184302Y-33180052D01*
X95341872Y-33036407D01*
X95470366Y-32866255D01*
X95565405Y-32675389D01*
X95623756Y-32470310D01*
X95643429Y-32258000D01*
X95872571Y-32258000D01*
X95892244Y-32470311D01*
X95915449Y-32551867D01*
X95950595Y-32675389D01*
X96045634Y-32866255D01*
X96174128Y-33036407D01*
X96174135Y-33036413D01*
X96331692Y-33180047D01*
X96331699Y-33180053D01*
X96413783Y-33230877D01*
X96512981Y-33292298D01*
X96711802Y-33369321D01*
X96921390Y-33408500D01*
X97134610Y-33408500D01*
X97344198Y-33369321D01*
X97543019Y-33292298D01*
X97724302Y-33180052D01*
X97881872Y-33036407D01*
X98010366Y-32866255D01*
X98105405Y-32675389D01*
X98163756Y-32470310D01*
X98183429Y-32258000D01*
X98412571Y-32258000D01*
X98420913Y-32348030D01*
X98432244Y-32470311D01*
X98455449Y-32551867D01*
X98490595Y-32675389D01*
X98585634Y-32866255D01*
X98714128Y-33036407D01*
X98714135Y-33036413D01*
X98871692Y-33180047D01*
X98871699Y-33180053D01*
X98953783Y-33230877D01*
X99052981Y-33292298D01*
X99251802Y-33369321D01*
X99461390Y-33408500D01*
X99674610Y-33408500D01*
X99884198Y-33369321D01*
X100083019Y-33292298D01*
X100264302Y-33180052D01*
X100421872Y-33036407D01*
X100550366Y-32866255D01*
X100645405Y-32675389D01*
X100703756Y-32470310D01*
X100723429Y-32258000D01*
X100703756Y-32045690D01*
X100645405Y-31840611D01*
X100550366Y-31649745D01*
X100421872Y-31479593D01*
X100294125Y-31363135D01*
X100264307Y-31335952D01*
X100264300Y-31335946D01*
X100083024Y-31223705D01*
X100083019Y-31223702D01*
X99925997Y-31162872D01*
X99884198Y-31146679D01*
X99884197Y-31146678D01*
X99884195Y-31146678D01*
X99674610Y-31107500D01*
X99461390Y-31107500D01*
X99251804Y-31146678D01*
X99052980Y-31223702D01*
X99052975Y-31223705D01*
X98871699Y-31335946D01*
X98871692Y-31335952D01*
X98714135Y-31479586D01*
X98714131Y-31479589D01*
X98714128Y-31479593D01*
X98714124Y-31479597D01*
X98714125Y-31479597D01*
X98585635Y-31649743D01*
X98585630Y-31649752D01*
X98490596Y-31840608D01*
X98490595Y-31840611D01*
X98483457Y-31865698D01*
X98432244Y-32045688D01*
X98431396Y-32054838D01*
X98412571Y-32258000D01*
X98183429Y-32258000D01*
X98163756Y-32045690D01*
X98105405Y-31840611D01*
X98010366Y-31649745D01*
X97881872Y-31479593D01*
X97754125Y-31363135D01*
X97724307Y-31335952D01*
X97724300Y-31335946D01*
X97543024Y-31223705D01*
X97543019Y-31223702D01*
X97385997Y-31162872D01*
X97344198Y-31146679D01*
X97344197Y-31146678D01*
X97344195Y-31146678D01*
X97134610Y-31107500D01*
X96921390Y-31107500D01*
X96711804Y-31146678D01*
X96512980Y-31223702D01*
X96512975Y-31223705D01*
X96331699Y-31335946D01*
X96331692Y-31335952D01*
X96174135Y-31479586D01*
X96174131Y-31479589D01*
X96174128Y-31479593D01*
X96174124Y-31479597D01*
X96174125Y-31479597D01*
X96045635Y-31649743D01*
X96045630Y-31649752D01*
X95950596Y-31840608D01*
X95950595Y-31840611D01*
X95943457Y-31865698D01*
X95892244Y-32045688D01*
X95872571Y-32258000D01*
X95643429Y-32258000D01*
X95623756Y-32045690D01*
X95565405Y-31840611D01*
X95470366Y-31649745D01*
X95341872Y-31479593D01*
X95214125Y-31363135D01*
X95184307Y-31335952D01*
X95184300Y-31335946D01*
X95003024Y-31223705D01*
X95003019Y-31223702D01*
X94845997Y-31162872D01*
X94804198Y-31146679D01*
X94804197Y-31146678D01*
X94804195Y-31146678D01*
X94594610Y-31107500D01*
X94381390Y-31107500D01*
X94171804Y-31146678D01*
X93972980Y-31223702D01*
X93972975Y-31223705D01*
X93791699Y-31335946D01*
X93791692Y-31335952D01*
X93634135Y-31479586D01*
X93634131Y-31479589D01*
X93634128Y-31479593D01*
X93634124Y-31479597D01*
X93634125Y-31479597D01*
X93505635Y-31649743D01*
X93505630Y-31649752D01*
X93410596Y-31840608D01*
X93410595Y-31840611D01*
X93403457Y-31865698D01*
X93352244Y-32045688D01*
X93351396Y-32054838D01*
X93332571Y-32258000D01*
X93103429Y-32258000D01*
X93083756Y-32045690D01*
X93025405Y-31840611D01*
X92930366Y-31649745D01*
X92801872Y-31479593D01*
X92674125Y-31363135D01*
X92644307Y-31335952D01*
X92644300Y-31335946D01*
X92463024Y-31223705D01*
X92463019Y-31223702D01*
X92305997Y-31162872D01*
X92264198Y-31146679D01*
X92264197Y-31146678D01*
X92264195Y-31146678D01*
X92054610Y-31107500D01*
X91841390Y-31107500D01*
X91631804Y-31146678D01*
X91432980Y-31223702D01*
X91432975Y-31223705D01*
X91251699Y-31335946D01*
X91251692Y-31335952D01*
X91094135Y-31479586D01*
X91094131Y-31479589D01*
X91094128Y-31479593D01*
X91094124Y-31479597D01*
X91094125Y-31479597D01*
X90965635Y-31649743D01*
X90965630Y-31649752D01*
X90870596Y-31840608D01*
X90870595Y-31840611D01*
X90863457Y-31865698D01*
X90812244Y-32045688D01*
X90792571Y-32258000D01*
X90563429Y-32258000D01*
X90543756Y-32045690D01*
X90485405Y-31840611D01*
X90390366Y-31649745D01*
X90261872Y-31479593D01*
X90134125Y-31363135D01*
X90104307Y-31335952D01*
X90104300Y-31335946D01*
X89923024Y-31223705D01*
X89923019Y-31223702D01*
X89765997Y-31162872D01*
X89724198Y-31146679D01*
X89724197Y-31146678D01*
X89724195Y-31146678D01*
X89514610Y-31107500D01*
X89301390Y-31107500D01*
X89091804Y-31146678D01*
X88892980Y-31223702D01*
X88892975Y-31223705D01*
X88711699Y-31335946D01*
X88711692Y-31335952D01*
X88554135Y-31479586D01*
X88554131Y-31479589D01*
X88554128Y-31479593D01*
X88554124Y-31479597D01*
X88554125Y-31479597D01*
X88425635Y-31649743D01*
X88425630Y-31649752D01*
X88330596Y-31840608D01*
X88330595Y-31840611D01*
X88323457Y-31865698D01*
X88272244Y-32045688D01*
X88252571Y-32258000D01*
X88023429Y-32258000D01*
X88003756Y-32045690D01*
X87945405Y-31840611D01*
X87850366Y-31649745D01*
X87721872Y-31479593D01*
X87594125Y-31363135D01*
X87564307Y-31335952D01*
X87564300Y-31335946D01*
X87383024Y-31223705D01*
X87383019Y-31223702D01*
X87225997Y-31162872D01*
X87184198Y-31146679D01*
X87184197Y-31146678D01*
X87184195Y-31146678D01*
X86974610Y-31107500D01*
X86761390Y-31107500D01*
X86551804Y-31146678D01*
X86352980Y-31223702D01*
X86352975Y-31223705D01*
X86171699Y-31335946D01*
X86171692Y-31335952D01*
X86014135Y-31479586D01*
X86014131Y-31479589D01*
X86014128Y-31479593D01*
X86014124Y-31479597D01*
X86014125Y-31479597D01*
X85885635Y-31649743D01*
X85885630Y-31649752D01*
X85790596Y-31840608D01*
X85790595Y-31840611D01*
X85783457Y-31865698D01*
X85732244Y-32045688D01*
X85712571Y-32258000D01*
X85483429Y-32258000D01*
X85463756Y-32045690D01*
X85405405Y-31840611D01*
X85310366Y-31649745D01*
X85181872Y-31479593D01*
X85054125Y-31363135D01*
X85024307Y-31335952D01*
X85024300Y-31335946D01*
X84843024Y-31223705D01*
X84843019Y-31223702D01*
X84685997Y-31162872D01*
X84644198Y-31146679D01*
X84644197Y-31146678D01*
X84644195Y-31146678D01*
X84434610Y-31107500D01*
X84221390Y-31107500D01*
X84011804Y-31146678D01*
X83812980Y-31223702D01*
X83812975Y-31223705D01*
X83631702Y-31335945D01*
X83631700Y-31335946D01*
X83631698Y-31335948D01*
X83601875Y-31363135D01*
X83598534Y-31366181D01*
X83542792Y-31391410D01*
X83482867Y-31379057D01*
X83451749Y-31351212D01*
X83448533Y-31346786D01*
X83448529Y-31346782D01*
X83448528Y-31346780D01*
X83353220Y-31251472D01*
X83353218Y-31251471D01*
X82777194Y-30675446D01*
X82777194Y-30675445D01*
X82761253Y-30659505D01*
X82733474Y-30604990D01*
X82743044Y-30544558D01*
X82786307Y-30501292D01*
X82831255Y-30490500D01*
X101597912Y-30490500D01*
X116476500Y-30490500D01*
X116534691Y-30509407D01*
X116570655Y-30558907D01*
X116575500Y-30589500D01*
X116575500Y-55770500D01*
X116556593Y-55828691D01*
X116507093Y-55864655D01*
X116476500Y-55869500D01*
X108532256Y-55869500D01*
X108474065Y-55850593D01*
X108438101Y-55801093D01*
X108438101Y-55739907D01*
X108462252Y-55700497D01*
X108537527Y-55625221D01*
X109006456Y-55156291D01*
X109060973Y-55128513D01*
X109112222Y-55133979D01*
X109166544Y-55155024D01*
X109367024Y-55192500D01*
X109570976Y-55192500D01*
X109771456Y-55155024D01*
X109961637Y-55081348D01*
X110135041Y-54973981D01*
X110285764Y-54836579D01*
X110408673Y-54673821D01*
X110499582Y-54491250D01*
X110555397Y-54295083D01*
X110574215Y-54092000D01*
X110903785Y-54092000D01*
X110922603Y-54295083D01*
X110978418Y-54491250D01*
X111069327Y-54673821D01*
X111192236Y-54836579D01*
X111342959Y-54973981D01*
X111516363Y-55081348D01*
X111706544Y-55155024D01*
X111907024Y-55192500D01*
X112110976Y-55192500D01*
X112311456Y-55155024D01*
X112501637Y-55081348D01*
X112675041Y-54973981D01*
X112825764Y-54836579D01*
X112948673Y-54673821D01*
X113039582Y-54491250D01*
X113095397Y-54295083D01*
X113114215Y-54092000D01*
X113095397Y-53888917D01*
X113039582Y-53692750D01*
X112948673Y-53510179D01*
X112825764Y-53347421D01*
X112675041Y-53210019D01*
X112501637Y-53102652D01*
X112311456Y-53028976D01*
X112311455Y-53028975D01*
X112311453Y-53028975D01*
X112110976Y-52991500D01*
X111907024Y-52991500D01*
X111706546Y-53028975D01*
X111656337Y-53048426D01*
X111516363Y-53102652D01*
X111391519Y-53179952D01*
X111342959Y-53210019D01*
X111273482Y-53273356D01*
X111192236Y-53347421D01*
X111170836Y-53375759D01*
X111069328Y-53510177D01*
X111069323Y-53510186D01*
X110978419Y-53692747D01*
X110978418Y-53692750D01*
X110922603Y-53888917D01*
X110903785Y-54092000D01*
X110574215Y-54092000D01*
X110555397Y-53888917D01*
X110499582Y-53692750D01*
X110408673Y-53510179D01*
X110285764Y-53347421D01*
X110135041Y-53210019D01*
X109961637Y-53102652D01*
X109771456Y-53028976D01*
X109771455Y-53028975D01*
X109771453Y-53028975D01*
X109570976Y-52991500D01*
X109367024Y-52991500D01*
X109166546Y-53028975D01*
X109116337Y-53048426D01*
X108976363Y-53102652D01*
X108851519Y-53179952D01*
X108802959Y-53210019D01*
X108733482Y-53273356D01*
X108652236Y-53347421D01*
X108630836Y-53375759D01*
X108529328Y-53510177D01*
X108529323Y-53510186D01*
X108438419Y-53692747D01*
X108438418Y-53692750D01*
X108408394Y-53798272D01*
X108382603Y-53888917D01*
X108363785Y-54091999D01*
X108382603Y-54295084D01*
X108429049Y-54458323D01*
X108426788Y-54519466D01*
X108403832Y-54555418D01*
X108041749Y-54917503D01*
X107987232Y-54945281D01*
X107971745Y-54946500D01*
X107861574Y-54946500D01*
X107803383Y-54927593D01*
X107767419Y-54878093D01*
X107767419Y-54816907D01*
X107782568Y-54787841D01*
X107868673Y-54673821D01*
X107959582Y-54491250D01*
X108015397Y-54295083D01*
X108034215Y-54092000D01*
X108015397Y-53888917D01*
X107959582Y-53692750D01*
X107868673Y-53510179D01*
X107745764Y-53347421D01*
X107595041Y-53210019D01*
X107421637Y-53102652D01*
X107231456Y-53028976D01*
X107231455Y-53028975D01*
X107231453Y-53028975D01*
X107030976Y-52991500D01*
X106827024Y-52991500D01*
X106626546Y-53028975D01*
X106576337Y-53048426D01*
X106436363Y-53102652D01*
X106311519Y-53179952D01*
X106262959Y-53210019D01*
X106193482Y-53273356D01*
X106112236Y-53347421D01*
X106090836Y-53375759D01*
X105989328Y-53510177D01*
X105989323Y-53510186D01*
X105898419Y-53692747D01*
X105898418Y-53692750D01*
X105842603Y-53888917D01*
X105823785Y-54092000D01*
X105842603Y-54295083D01*
X105898418Y-54491250D01*
X105989327Y-54673821D01*
X106075430Y-54787840D01*
X106095409Y-54845671D01*
X106077580Y-54904201D01*
X106028753Y-54941073D01*
X105996426Y-54946500D01*
X105321574Y-54946500D01*
X105263383Y-54927593D01*
X105227419Y-54878093D01*
X105227419Y-54816907D01*
X105242568Y-54787841D01*
X105328673Y-54673821D01*
X105419582Y-54491250D01*
X105475397Y-54295083D01*
X105494215Y-54092000D01*
X105475397Y-53888917D01*
X105419582Y-53692750D01*
X105328673Y-53510179D01*
X105205764Y-53347421D01*
X105055041Y-53210019D01*
X104881637Y-53102652D01*
X104691456Y-53028976D01*
X104691455Y-53028975D01*
X104691453Y-53028975D01*
X104490976Y-52991500D01*
X104287024Y-52991500D01*
X104086546Y-53028975D01*
X104036337Y-53048426D01*
X103896363Y-53102652D01*
X103771519Y-53179952D01*
X103722959Y-53210019D01*
X103653482Y-53273356D01*
X103572236Y-53347421D01*
X103550836Y-53375759D01*
X103449328Y-53510177D01*
X103449323Y-53510186D01*
X103358419Y-53692747D01*
X103358418Y-53692750D01*
X103302603Y-53888917D01*
X103283785Y-54092000D01*
X103302603Y-54295083D01*
X103358418Y-54491250D01*
X103449327Y-54673821D01*
X103535430Y-54787840D01*
X103555409Y-54845671D01*
X103537580Y-54904201D01*
X103488753Y-54941073D01*
X103456426Y-54946500D01*
X102781574Y-54946500D01*
X102723383Y-54927593D01*
X102687419Y-54878093D01*
X102687419Y-54816907D01*
X102702568Y-54787841D01*
X102788673Y-54673821D01*
X102879582Y-54491250D01*
X102935397Y-54295083D01*
X102954215Y-54092000D01*
X102935397Y-53888917D01*
X102879582Y-53692750D01*
X102788673Y-53510179D01*
X102665764Y-53347421D01*
X102515041Y-53210019D01*
X102341637Y-53102652D01*
X102151456Y-53028976D01*
X102151455Y-53028975D01*
X102151453Y-53028975D01*
X101950976Y-52991500D01*
X101747024Y-52991500D01*
X101546546Y-53028975D01*
X101496337Y-53048426D01*
X101356363Y-53102652D01*
X101231519Y-53179952D01*
X101182959Y-53210019D01*
X101113482Y-53273356D01*
X101032236Y-53347421D01*
X101010836Y-53375759D01*
X100909328Y-53510177D01*
X100909323Y-53510186D01*
X100818419Y-53692747D01*
X100818418Y-53692750D01*
X100762603Y-53888917D01*
X100743785Y-54092000D01*
X100762603Y-54295083D01*
X100818418Y-54491250D01*
X100909327Y-54673821D01*
X100995430Y-54787840D01*
X101015409Y-54845671D01*
X100997580Y-54904201D01*
X100948753Y-54941073D01*
X100916426Y-54946500D01*
X100241574Y-54946500D01*
X100183383Y-54927593D01*
X100147419Y-54878093D01*
X100147419Y-54816907D01*
X100162568Y-54787841D01*
X100248673Y-54673821D01*
X100339582Y-54491250D01*
X100395397Y-54295083D01*
X100414215Y-54092000D01*
X100395397Y-53888917D01*
X100339582Y-53692750D01*
X100248673Y-53510179D01*
X100125764Y-53347421D01*
X99975041Y-53210019D01*
X99801637Y-53102652D01*
X99611456Y-53028976D01*
X99611455Y-53028975D01*
X99611453Y-53028975D01*
X99410976Y-52991500D01*
X99207024Y-52991500D01*
X99006546Y-53028975D01*
X98956337Y-53048426D01*
X98816363Y-53102652D01*
X98691519Y-53179952D01*
X98642959Y-53210019D01*
X98573482Y-53273356D01*
X98492236Y-53347421D01*
X98470836Y-53375759D01*
X98369328Y-53510177D01*
X98369323Y-53510186D01*
X98278419Y-53692747D01*
X98278418Y-53692750D01*
X98222603Y-53888917D01*
X98203785Y-54092000D01*
X98222603Y-54295083D01*
X98278418Y-54491250D01*
X98369327Y-54673821D01*
X98455430Y-54787840D01*
X98475409Y-54845671D01*
X98457580Y-54904201D01*
X98408753Y-54941073D01*
X98376426Y-54946500D01*
X97968500Y-54946500D01*
X97910309Y-54927593D01*
X97874345Y-54878093D01*
X97869500Y-54847500D01*
X97869499Y-53247139D01*
X97869499Y-53247136D01*
X97866585Y-53222009D01*
X97821206Y-53119235D01*
X97741765Y-53039794D01*
X97638991Y-52994415D01*
X97638990Y-52994414D01*
X97638988Y-52994414D01*
X97613869Y-52991500D01*
X97613865Y-52991500D01*
X96695165Y-52991500D01*
X96636974Y-52972593D01*
X96625161Y-52962504D01*
X95478659Y-51816001D01*
X97846355Y-51816001D01*
X97851692Y-51859954D01*
X97866860Y-51984872D01*
X97927182Y-52143930D01*
X98022880Y-52282571D01*
X98023816Y-52283927D01*
X98023818Y-52283930D01*
X98044367Y-52302135D01*
X98151148Y-52396734D01*
X98301775Y-52475790D01*
X98466944Y-52516500D01*
X98466947Y-52516500D01*
X98637053Y-52516500D01*
X98637056Y-52516500D01*
X98802225Y-52475790D01*
X98952852Y-52396734D01*
X99080183Y-52283929D01*
X99080186Y-52283923D01*
X99084152Y-52279448D01*
X99085125Y-52280310D01*
X99128564Y-52247114D01*
X99161428Y-52241500D01*
X109590572Y-52241500D01*
X109648763Y-52260407D01*
X109667580Y-52279685D01*
X109667848Y-52279448D01*
X109671818Y-52283930D01*
X109692367Y-52302135D01*
X109799148Y-52396734D01*
X109949775Y-52475790D01*
X110114944Y-52516500D01*
X110114947Y-52516500D01*
X110285053Y-52516500D01*
X110285056Y-52516500D01*
X110450225Y-52475790D01*
X110600852Y-52396734D01*
X110728183Y-52283929D01*
X110824818Y-52143930D01*
X110885140Y-51984872D01*
X110905248Y-51819267D01*
X110905645Y-51816001D01*
X110905645Y-51815998D01*
X110899309Y-51763822D01*
X110885140Y-51647128D01*
X110824818Y-51488070D01*
X110739341Y-51364237D01*
X110721846Y-51305607D01*
X110739340Y-51251764D01*
X110824818Y-51127930D01*
X110885140Y-50968872D01*
X110905645Y-50800000D01*
X110885140Y-50631128D01*
X110824818Y-50472070D01*
X110728183Y-50332071D01*
X110696244Y-50303776D01*
X110620854Y-50236986D01*
X110600852Y-50219266D01*
X110450225Y-50140210D01*
X110450224Y-50140209D01*
X110450223Y-50140209D01*
X110285058Y-50099500D01*
X110285056Y-50099500D01*
X110114944Y-50099500D01*
X110114941Y-50099500D01*
X109949776Y-50140209D01*
X109799146Y-50219267D01*
X109671818Y-50332069D01*
X109667848Y-50336552D01*
X109666874Y-50335689D01*
X109623436Y-50368886D01*
X109590572Y-50374500D01*
X99161428Y-50374500D01*
X99103237Y-50355593D01*
X99084419Y-50336314D01*
X99084152Y-50336552D01*
X99080181Y-50332069D01*
X98972854Y-50236986D01*
X98952852Y-50219266D01*
X98802225Y-50140210D01*
X98802224Y-50140209D01*
X98802223Y-50140209D01*
X98637058Y-50099500D01*
X98637056Y-50099500D01*
X98466944Y-50099500D01*
X98466941Y-50099500D01*
X98301776Y-50140209D01*
X98151146Y-50219267D01*
X98023818Y-50332069D01*
X98023816Y-50332072D01*
X97954791Y-50432072D01*
X97927182Y-50472070D01*
X97866860Y-50631128D01*
X97862523Y-50666845D01*
X97846355Y-50799998D01*
X97846355Y-50800001D01*
X97849335Y-50824540D01*
X97866860Y-50968872D01*
X97897146Y-51048731D01*
X97927181Y-51127929D01*
X98012657Y-51251762D01*
X98030152Y-51310393D01*
X98012657Y-51364238D01*
X97927181Y-51488070D01*
X97914461Y-51521612D01*
X97867228Y-51646159D01*
X97866860Y-51647129D01*
X97846355Y-51815998D01*
X97846355Y-51816001D01*
X95478659Y-51816001D01*
X95471496Y-51808838D01*
X95443719Y-51754321D01*
X95442500Y-51738834D01*
X95442500Y-50945367D01*
X95442861Y-50939395D01*
X95443398Y-50934980D01*
X95447645Y-50900000D01*
X95442860Y-50860596D01*
X95442500Y-50854632D01*
X95442500Y-46726000D01*
X95697611Y-46726000D01*
X95738886Y-46871068D01*
X95829750Y-47053548D01*
X95829755Y-47053557D01*
X95952608Y-47216240D01*
X96103266Y-47353582D01*
X96276581Y-47460895D01*
X96276586Y-47460898D01*
X96466683Y-47534541D01*
X96514999Y-47543573D01*
X96515000Y-47543572D01*
X96515000Y-46951560D01*
X96533907Y-46893369D01*
X96583407Y-46857405D01*
X96635926Y-46857405D01*
X96636157Y-46855946D01*
X96643851Y-46857164D01*
X96643852Y-46857165D01*
X96663318Y-46860248D01*
X96737516Y-46872000D01*
X96737519Y-46872000D01*
X96800484Y-46872000D01*
X96874682Y-46860248D01*
X96894148Y-46857165D01*
X96894148Y-46857164D01*
X96901843Y-46855946D01*
X96902074Y-46857405D01*
X96954595Y-46857406D01*
X97004094Y-46893372D01*
X97023000Y-46951560D01*
X97023000Y-47543573D01*
X97071316Y-47534541D01*
X97261413Y-47460898D01*
X97261418Y-47460895D01*
X97434733Y-47353582D01*
X97585391Y-47216240D01*
X97708244Y-47053557D01*
X97708249Y-47053548D01*
X97799113Y-46871068D01*
X97840388Y-46726000D01*
X97248560Y-46726000D01*
X97190369Y-46707093D01*
X97154405Y-46657593D01*
X97154405Y-46605074D01*
X97152946Y-46604843D01*
X97155017Y-46591771D01*
X97173986Y-46472000D01*
X98203785Y-46472000D01*
X98222603Y-46675083D01*
X98278418Y-46871250D01*
X98369327Y-47053821D01*
X98492236Y-47216579D01*
X98642959Y-47353981D01*
X98816363Y-47461348D01*
X99006544Y-47535024D01*
X99207024Y-47572500D01*
X99410976Y-47572500D01*
X99611456Y-47535024D01*
X99801637Y-47461348D01*
X99975041Y-47353981D01*
X100125764Y-47216579D01*
X100248673Y-47053821D01*
X100339582Y-46871250D01*
X100395397Y-46675083D01*
X100414215Y-46472000D01*
X100395397Y-46268917D01*
X100339582Y-46072750D01*
X100248673Y-45890179D01*
X100195561Y-45819848D01*
X100175583Y-45762017D01*
X100193412Y-45703487D01*
X100204556Y-45690190D01*
X101406458Y-44488288D01*
X101460973Y-44460513D01*
X101512222Y-44465979D01*
X101566544Y-44487024D01*
X101767024Y-44524500D01*
X101970976Y-44524500D01*
X102171456Y-44487024D01*
X102361637Y-44413348D01*
X102535041Y-44305981D01*
X102685764Y-44168579D01*
X102808673Y-44005821D01*
X102899582Y-43823250D01*
X102955397Y-43627083D01*
X102974215Y-43424000D01*
X102955397Y-43220917D01*
X102899582Y-43024750D01*
X102808673Y-42842179D01*
X102685764Y-42679421D01*
X102535041Y-42542019D01*
X102361637Y-42434652D01*
X102171456Y-42360976D01*
X102171455Y-42360975D01*
X102171453Y-42360975D01*
X101970976Y-42323500D01*
X101767024Y-42323500D01*
X101566546Y-42360975D01*
X101496632Y-42388059D01*
X101376363Y-42434652D01*
X101202959Y-42542019D01*
X101052236Y-42679421D01*
X101040542Y-42694907D01*
X100929328Y-42842177D01*
X100929323Y-42842186D01*
X100838419Y-43024747D01*
X100838418Y-43024750D01*
X100782603Y-43220917D01*
X100763785Y-43424000D01*
X100782603Y-43627083D01*
X100829049Y-43790321D01*
X100826788Y-43851465D01*
X100803832Y-43887418D01*
X99348748Y-45342504D01*
X99294231Y-45370281D01*
X99278744Y-45371500D01*
X99207024Y-45371500D01*
X99006546Y-45408975D01*
X98956337Y-45428426D01*
X98816363Y-45482652D01*
X98661741Y-45578390D01*
X98642959Y-45590019D01*
X98629116Y-45602639D01*
X98492236Y-45727421D01*
X98470836Y-45755759D01*
X98369328Y-45890177D01*
X98369323Y-45890186D01*
X98278791Y-46072000D01*
X98278418Y-46072750D01*
X98237091Y-46217999D01*
X98222603Y-46268917D01*
X98204806Y-46460986D01*
X98203785Y-46472000D01*
X97173986Y-46472000D01*
X97169835Y-46445794D01*
X97152946Y-46339157D01*
X97154405Y-46338925D01*
X97154406Y-46286405D01*
X97190372Y-46236906D01*
X97248560Y-46218000D01*
X97840389Y-46218000D01*
X97840388Y-46217999D01*
X97799113Y-46072931D01*
X97708249Y-45890451D01*
X97708244Y-45890442D01*
X97585391Y-45727759D01*
X97434733Y-45590417D01*
X97261418Y-45483104D01*
X97261413Y-45483101D01*
X97071319Y-45409459D01*
X97071313Y-45409457D01*
X97023000Y-45400426D01*
X97023000Y-45992439D01*
X97004093Y-46050630D01*
X96954593Y-46086594D01*
X96902073Y-46086598D01*
X96901843Y-46088054D01*
X96894148Y-46086835D01*
X96865621Y-46082317D01*
X96800484Y-46072000D01*
X96800481Y-46072000D01*
X96737519Y-46072000D01*
X96737516Y-46072000D01*
X96672378Y-46082317D01*
X96643852Y-46086835D01*
X96643851Y-46086835D01*
X96636157Y-46088054D01*
X96635926Y-46086597D01*
X96583392Y-46086589D01*
X96533898Y-46050617D01*
X96515000Y-45992439D01*
X96515000Y-45400426D01*
X96514999Y-45400426D01*
X96466686Y-45409457D01*
X96466680Y-45409459D01*
X96276586Y-45483101D01*
X96276581Y-45483104D01*
X96103266Y-45590417D01*
X95952608Y-45727759D01*
X95829755Y-45890442D01*
X95829750Y-45890451D01*
X95738886Y-46072931D01*
X95697611Y-46217999D01*
X95697611Y-46218000D01*
X96289440Y-46218000D01*
X96347631Y-46236907D01*
X96383595Y-46286407D01*
X96383595Y-46338925D01*
X96385054Y-46339157D01*
X96368165Y-46445794D01*
X96364014Y-46472000D01*
X96382983Y-46591771D01*
X96385054Y-46604843D01*
X96383594Y-46605074D01*
X96383594Y-46657595D01*
X96347628Y-46707094D01*
X96289440Y-46726000D01*
X95697611Y-46726000D01*
X95442500Y-46726000D01*
X95442500Y-42749164D01*
X95461407Y-42690973D01*
X95471496Y-42679161D01*
X95519496Y-42631160D01*
X95574012Y-42603382D01*
X95634444Y-42612953D01*
X95677709Y-42656217D01*
X95688500Y-42701163D01*
X95688500Y-44268860D01*
X95688501Y-44268863D01*
X95691414Y-44293990D01*
X95712282Y-44341250D01*
X95736794Y-44396765D01*
X95816235Y-44476206D01*
X95919009Y-44521585D01*
X95944135Y-44524500D01*
X97633864Y-44524499D01*
X97658991Y-44521585D01*
X97761765Y-44476206D01*
X97841206Y-44396765D01*
X97886585Y-44293991D01*
X97889500Y-44268865D01*
X97889499Y-43424000D01*
X98223785Y-43424000D01*
X98242603Y-43627083D01*
X98298418Y-43823250D01*
X98389327Y-44005821D01*
X98512236Y-44168579D01*
X98662959Y-44305981D01*
X98836363Y-44413348D01*
X99026544Y-44487024D01*
X99227024Y-44524500D01*
X99430976Y-44524500D01*
X99631456Y-44487024D01*
X99821637Y-44413348D01*
X99995041Y-44305981D01*
X100145764Y-44168579D01*
X100268673Y-44005821D01*
X100359582Y-43823250D01*
X100415397Y-43627083D01*
X100434215Y-43424000D01*
X100415397Y-43220917D01*
X100359582Y-43024750D01*
X100268673Y-42842179D01*
X100145764Y-42679421D01*
X99995041Y-42542019D01*
X99821637Y-42434652D01*
X99631456Y-42360976D01*
X99631455Y-42360975D01*
X99631453Y-42360975D01*
X99430976Y-42323500D01*
X99227024Y-42323500D01*
X99026546Y-42360975D01*
X98956632Y-42388059D01*
X98836363Y-42434652D01*
X98662959Y-42542019D01*
X98512236Y-42679421D01*
X98500542Y-42694907D01*
X98389328Y-42842177D01*
X98389323Y-42842186D01*
X98298419Y-43024747D01*
X98298418Y-43024750D01*
X98242603Y-43220917D01*
X98223785Y-43424000D01*
X97889499Y-43424000D01*
X97889499Y-42579136D01*
X97886585Y-42554009D01*
X97841206Y-42451235D01*
X97761765Y-42371794D01*
X97658991Y-42326415D01*
X97658990Y-42326414D01*
X97658988Y-42326414D01*
X97633869Y-42323500D01*
X96066163Y-42323500D01*
X96007972Y-42304593D01*
X95972008Y-42255093D01*
X95972008Y-42193907D01*
X95996160Y-42154496D01*
X96130366Y-42020291D01*
X96583226Y-41567431D01*
X96781162Y-41369496D01*
X96835678Y-41341719D01*
X96851165Y-41340500D01*
X105332835Y-41340500D01*
X105391026Y-41359407D01*
X105402839Y-41369496D01*
X106219504Y-42186160D01*
X106247281Y-42240677D01*
X106248500Y-42256164D01*
X106248500Y-42529719D01*
X106229593Y-42587910D01*
X106216196Y-42602880D01*
X106132239Y-42679417D01*
X106009328Y-42842177D01*
X106009323Y-42842186D01*
X105918419Y-43024747D01*
X105918418Y-43024750D01*
X105915574Y-43034747D01*
X105862603Y-43220917D01*
X105854781Y-43305337D01*
X105843785Y-43424000D01*
X105862603Y-43627083D01*
X105918418Y-43823250D01*
X106009327Y-44005821D01*
X106095430Y-44119840D01*
X106115409Y-44177671D01*
X106097580Y-44236201D01*
X106048753Y-44273073D01*
X106016426Y-44278500D01*
X105341574Y-44278500D01*
X105283383Y-44259593D01*
X105247419Y-44210093D01*
X105247419Y-44148907D01*
X105262568Y-44119841D01*
X105348673Y-44005821D01*
X105439582Y-43823250D01*
X105495397Y-43627083D01*
X105514215Y-43424000D01*
X105495397Y-43220917D01*
X105439582Y-43024750D01*
X105348673Y-42842179D01*
X105225764Y-42679421D01*
X105075041Y-42542019D01*
X104901637Y-42434652D01*
X104711456Y-42360976D01*
X104711455Y-42360975D01*
X104711453Y-42360975D01*
X104510976Y-42323500D01*
X104307024Y-42323500D01*
X104106546Y-42360975D01*
X104036632Y-42388059D01*
X103916363Y-42434652D01*
X103742959Y-42542019D01*
X103592236Y-42679421D01*
X103580542Y-42694907D01*
X103469328Y-42842177D01*
X103469323Y-42842186D01*
X103378419Y-43024747D01*
X103378418Y-43024750D01*
X103322603Y-43220917D01*
X103303785Y-43424000D01*
X103322603Y-43627083D01*
X103369049Y-43790321D01*
X103366788Y-43851465D01*
X103343832Y-43887418D01*
X101888748Y-45342504D01*
X101834231Y-45370281D01*
X101818744Y-45371500D01*
X101747024Y-45371500D01*
X101546546Y-45408975D01*
X101496337Y-45428426D01*
X101356363Y-45482652D01*
X101201741Y-45578390D01*
X101182959Y-45590019D01*
X101169116Y-45602639D01*
X101032236Y-45727421D01*
X101010836Y-45755759D01*
X100909328Y-45890177D01*
X100909323Y-45890186D01*
X100818791Y-46072000D01*
X100818418Y-46072750D01*
X100777091Y-46217999D01*
X100762603Y-46268917D01*
X100744806Y-46460986D01*
X100743785Y-46472000D01*
X100762603Y-46675083D01*
X100818418Y-46871250D01*
X100909327Y-47053821D01*
X101032236Y-47216579D01*
X101182959Y-47353981D01*
X101356363Y-47461348D01*
X101546544Y-47535024D01*
X101747024Y-47572500D01*
X101950976Y-47572500D01*
X102151456Y-47535024D01*
X102341637Y-47461348D01*
X102515041Y-47353981D01*
X102665764Y-47216579D01*
X102788673Y-47053821D01*
X102879582Y-46871250D01*
X102935397Y-46675083D01*
X102954215Y-46472000D01*
X102935397Y-46268917D01*
X102879582Y-46072750D01*
X102788673Y-45890179D01*
X102735561Y-45819848D01*
X102715583Y-45762017D01*
X102733412Y-45703487D01*
X102744556Y-45690190D01*
X103946458Y-44488288D01*
X104000973Y-44460513D01*
X104052221Y-44465979D01*
X104077804Y-44475890D01*
X104125234Y-44514543D01*
X104140887Y-44573692D01*
X104118783Y-44630745D01*
X104112043Y-44638207D01*
X104040473Y-44709778D01*
X104040470Y-44709782D01*
X104028614Y-44733050D01*
X104020500Y-44746291D01*
X104005150Y-44767418D01*
X103997081Y-44792253D01*
X103991138Y-44806601D01*
X103979281Y-44829872D01*
X103975196Y-44855665D01*
X103971571Y-44870765D01*
X103963500Y-44895606D01*
X103963500Y-45388826D01*
X103944593Y-45447017D01*
X103900270Y-45481138D01*
X103896368Y-45482649D01*
X103896365Y-45482651D01*
X103896364Y-45482651D01*
X103896363Y-45482652D01*
X103796830Y-45544280D01*
X103722959Y-45590019D01*
X103709116Y-45602639D01*
X103572236Y-45727421D01*
X103550836Y-45755759D01*
X103449328Y-45890177D01*
X103449323Y-45890186D01*
X103358791Y-46072000D01*
X103358418Y-46072750D01*
X103317091Y-46217999D01*
X103302603Y-46268917D01*
X103284806Y-46460986D01*
X103283785Y-46472000D01*
X103302603Y-46675083D01*
X103358418Y-46871250D01*
X103449327Y-47053821D01*
X103572236Y-47216579D01*
X103722959Y-47353981D01*
X103896363Y-47461348D01*
X104086544Y-47535024D01*
X104287024Y-47572500D01*
X104490976Y-47572500D01*
X104691456Y-47535024D01*
X104881637Y-47461348D01*
X105055041Y-47353981D01*
X105205764Y-47216579D01*
X105328673Y-47053821D01*
X105419582Y-46871250D01*
X105475397Y-46675083D01*
X105494215Y-46472000D01*
X105475397Y-46268917D01*
X105419582Y-46072750D01*
X105328673Y-45890179D01*
X105205764Y-45727421D01*
X105055041Y-45590019D01*
X104881637Y-45482652D01*
X104881633Y-45482650D01*
X104881631Y-45482649D01*
X104877730Y-45481138D01*
X104830302Y-45442483D01*
X104814500Y-45388826D01*
X104814500Y-45228500D01*
X104833407Y-45170309D01*
X104882907Y-45134345D01*
X104913500Y-45129500D01*
X106457947Y-45129500D01*
X106516138Y-45148407D01*
X106552102Y-45197907D01*
X106552102Y-45259093D01*
X106546156Y-45273446D01*
X106545150Y-45275419D01*
X106537081Y-45300253D01*
X106531138Y-45314601D01*
X106519281Y-45337872D01*
X106515196Y-45363665D01*
X106511571Y-45378765D01*
X106503499Y-45403608D01*
X106503459Y-45403866D01*
X106503341Y-45404097D01*
X106501094Y-45411014D01*
X106499997Y-45410657D01*
X106475676Y-45458379D01*
X106441450Y-45480681D01*
X106436365Y-45482651D01*
X106436364Y-45482651D01*
X106436363Y-45482652D01*
X106336830Y-45544280D01*
X106262959Y-45590019D01*
X106249116Y-45602639D01*
X106112236Y-45727421D01*
X106090836Y-45755759D01*
X105989328Y-45890177D01*
X105989323Y-45890186D01*
X105898791Y-46072000D01*
X105898418Y-46072750D01*
X105842603Y-46268917D01*
X105823785Y-46472000D01*
X105842603Y-46675083D01*
X105898418Y-46871250D01*
X105989327Y-47053821D01*
X106112236Y-47216579D01*
X106262959Y-47353981D01*
X106436363Y-47461348D01*
X106626544Y-47535024D01*
X106827024Y-47572500D01*
X107030976Y-47572500D01*
X107231456Y-47535024D01*
X107421637Y-47461348D01*
X107595041Y-47353981D01*
X107745764Y-47216579D01*
X107868673Y-47053821D01*
X107959582Y-46871250D01*
X108015397Y-46675083D01*
X108034215Y-46472000D01*
X108015397Y-46268917D01*
X107959582Y-46072750D01*
X107868673Y-45890179D01*
X107797672Y-45796158D01*
X107777694Y-45738330D01*
X107795523Y-45679799D01*
X107844349Y-45642927D01*
X107876677Y-45637500D01*
X108521323Y-45637500D01*
X108579514Y-45656407D01*
X108615478Y-45705907D01*
X108615478Y-45767093D01*
X108600329Y-45796156D01*
X108555908Y-45854980D01*
X108529328Y-45890177D01*
X108529323Y-45890186D01*
X108438791Y-46072000D01*
X108438418Y-46072750D01*
X108397091Y-46217999D01*
X108382603Y-46268917D01*
X108364806Y-46460986D01*
X108363785Y-46472000D01*
X108382603Y-46675083D01*
X108438418Y-46871250D01*
X108529327Y-47053821D01*
X108652236Y-47216579D01*
X108802959Y-47353981D01*
X108976363Y-47461348D01*
X109166544Y-47535024D01*
X109367024Y-47572500D01*
X109570976Y-47572500D01*
X109771456Y-47535024D01*
X109961637Y-47461348D01*
X110135041Y-47353981D01*
X110285764Y-47216579D01*
X110408673Y-47053821D01*
X110499582Y-46871250D01*
X110555397Y-46675083D01*
X110574215Y-46472000D01*
X110903785Y-46472000D01*
X110922603Y-46675083D01*
X110978418Y-46871250D01*
X111069327Y-47053821D01*
X111192236Y-47216579D01*
X111342959Y-47353981D01*
X111516363Y-47461348D01*
X111706544Y-47535024D01*
X111907024Y-47572500D01*
X112110976Y-47572500D01*
X112311456Y-47535024D01*
X112501637Y-47461348D01*
X112675041Y-47353981D01*
X112825764Y-47216579D01*
X112948673Y-47053821D01*
X113039582Y-46871250D01*
X113095397Y-46675083D01*
X113114215Y-46472000D01*
X113095397Y-46268917D01*
X113039582Y-46072750D01*
X112948673Y-45890179D01*
X112825764Y-45727421D01*
X112675041Y-45590019D01*
X112501637Y-45482652D01*
X112311456Y-45408976D01*
X112311455Y-45408975D01*
X112311453Y-45408975D01*
X112110976Y-45371500D01*
X111907024Y-45371500D01*
X111706546Y-45408975D01*
X111656337Y-45428426D01*
X111516363Y-45482652D01*
X111361741Y-45578390D01*
X111342959Y-45590019D01*
X111329116Y-45602639D01*
X111192236Y-45727421D01*
X111170836Y-45755759D01*
X111069328Y-45890177D01*
X111069323Y-45890186D01*
X110978791Y-46072000D01*
X110978418Y-46072750D01*
X110922603Y-46268917D01*
X110903785Y-46472000D01*
X110574215Y-46472000D01*
X110555397Y-46268917D01*
X110499582Y-46072750D01*
X110408673Y-45890179D01*
X110322808Y-45776475D01*
X110302830Y-45718647D01*
X110320659Y-45660116D01*
X110369485Y-45623244D01*
X110371222Y-45622662D01*
X110374120Y-45621719D01*
X110374126Y-45621719D01*
X110397405Y-45609856D01*
X110411738Y-45603920D01*
X110436581Y-45595849D01*
X110457707Y-45580498D01*
X110470950Y-45572383D01*
X110494220Y-45560528D01*
X110589528Y-45465220D01*
X111321981Y-44732766D01*
X111566458Y-44488288D01*
X111620973Y-44460513D01*
X111672222Y-44465979D01*
X111726544Y-44487024D01*
X111927024Y-44524500D01*
X112130976Y-44524500D01*
X112331456Y-44487024D01*
X112521637Y-44413348D01*
X112695041Y-44305981D01*
X112845764Y-44168579D01*
X112968673Y-44005821D01*
X113059582Y-43823250D01*
X113115397Y-43627083D01*
X113134215Y-43424000D01*
X113463785Y-43424000D01*
X113482603Y-43627083D01*
X113538418Y-43823250D01*
X113629327Y-44005821D01*
X113752236Y-44168579D01*
X113902959Y-44305981D01*
X114076363Y-44413348D01*
X114266544Y-44487024D01*
X114467024Y-44524500D01*
X114670976Y-44524500D01*
X114871456Y-44487024D01*
X115061637Y-44413348D01*
X115235041Y-44305981D01*
X115385764Y-44168579D01*
X115508673Y-44005821D01*
X115599582Y-43823250D01*
X115655397Y-43627083D01*
X115674215Y-43424000D01*
X115655397Y-43220917D01*
X115599582Y-43024750D01*
X115508673Y-42842179D01*
X115385764Y-42679421D01*
X115235041Y-42542019D01*
X115061637Y-42434652D01*
X114871456Y-42360976D01*
X114871455Y-42360975D01*
X114871453Y-42360975D01*
X114670976Y-42323500D01*
X114467024Y-42323500D01*
X114266546Y-42360975D01*
X114196632Y-42388059D01*
X114076363Y-42434652D01*
X113902959Y-42542019D01*
X113752236Y-42679421D01*
X113740542Y-42694907D01*
X113629328Y-42842177D01*
X113629323Y-42842186D01*
X113538419Y-43024747D01*
X113538418Y-43024750D01*
X113482603Y-43220917D01*
X113463785Y-43424000D01*
X113134215Y-43424000D01*
X113115397Y-43220917D01*
X113059582Y-43024750D01*
X112968673Y-42842179D01*
X112845764Y-42679421D01*
X112695041Y-42542019D01*
X112521637Y-42434652D01*
X112331456Y-42360976D01*
X112331455Y-42360975D01*
X112331453Y-42360975D01*
X112130976Y-42323500D01*
X111927024Y-42323500D01*
X111726546Y-42360975D01*
X111656632Y-42388059D01*
X111536363Y-42434652D01*
X111362959Y-42542019D01*
X111212236Y-42679421D01*
X111200542Y-42694907D01*
X111089328Y-42842177D01*
X111089323Y-42842186D01*
X110998419Y-43024747D01*
X110998418Y-43024750D01*
X110942603Y-43220917D01*
X110923785Y-43424000D01*
X110942603Y-43627083D01*
X110989049Y-43790321D01*
X110986788Y-43851465D01*
X110963832Y-43887417D01*
X110093748Y-44757503D01*
X110039231Y-44785281D01*
X110023744Y-44786500D01*
X108967255Y-44786500D01*
X108909064Y-44767593D01*
X108873100Y-44718093D01*
X108873100Y-44656907D01*
X108897251Y-44617497D01*
X108993162Y-44521585D01*
X109026457Y-44488289D01*
X109080971Y-44460513D01*
X109132219Y-44465978D01*
X109186544Y-44487024D01*
X109387024Y-44524500D01*
X109590976Y-44524500D01*
X109791456Y-44487024D01*
X109981637Y-44413348D01*
X110155041Y-44305981D01*
X110305764Y-44168579D01*
X110428673Y-44005821D01*
X110519582Y-43823250D01*
X110575397Y-43627083D01*
X110594215Y-43424000D01*
X110575397Y-43220917D01*
X110519582Y-43024750D01*
X110428673Y-42842179D01*
X110305764Y-42679421D01*
X110155041Y-42542019D01*
X109981637Y-42434652D01*
X109791456Y-42360976D01*
X109791455Y-42360975D01*
X109791453Y-42360975D01*
X109590976Y-42323500D01*
X109387024Y-42323500D01*
X109186546Y-42360975D01*
X109116632Y-42388059D01*
X108996363Y-42434652D01*
X108822959Y-42542019D01*
X108672236Y-42679421D01*
X108660542Y-42694907D01*
X108549328Y-42842177D01*
X108549323Y-42842186D01*
X108458419Y-43024747D01*
X108458418Y-43024750D01*
X108455574Y-43034747D01*
X108402603Y-43220917D01*
X108383785Y-43424000D01*
X108402603Y-43627084D01*
X108449049Y-43790323D01*
X108446788Y-43851466D01*
X108423832Y-43887418D01*
X108061749Y-44249503D01*
X108007232Y-44277281D01*
X107991745Y-44278500D01*
X107881574Y-44278500D01*
X107823383Y-44259593D01*
X107787419Y-44210093D01*
X107787419Y-44148907D01*
X107802568Y-44119841D01*
X107888673Y-44005821D01*
X107979582Y-43823250D01*
X108035397Y-43627083D01*
X108054215Y-43424000D01*
X108035397Y-43220917D01*
X107979582Y-43024750D01*
X107888673Y-42842179D01*
X107765764Y-42679421D01*
X107765479Y-42679161D01*
X107681804Y-42602880D01*
X107651538Y-42549705D01*
X107649500Y-42529719D01*
X107649500Y-41947647D01*
X107649589Y-41944682D01*
X107653357Y-41882394D01*
X107642103Y-41820986D01*
X107641664Y-41818100D01*
X107634140Y-41756128D01*
X107629740Y-41744528D01*
X107624930Y-41727275D01*
X107622694Y-41715068D01*
X107597078Y-41658153D01*
X107595950Y-41655429D01*
X107573818Y-41597070D01*
X107566767Y-41586856D01*
X107557964Y-41571248D01*
X107552877Y-41559943D01*
X107514386Y-41510812D01*
X107512638Y-41508437D01*
X107486387Y-41470405D01*
X107477185Y-41457073D01*
X107477182Y-41457069D01*
X107430489Y-41415703D01*
X107428311Y-41413653D01*
X106175344Y-40160686D01*
X106173294Y-40158508D01*
X106149812Y-40132003D01*
X106131929Y-40111817D01*
X106131925Y-40111814D01*
X106080576Y-40076369D01*
X106078173Y-40074601D01*
X106029057Y-40036122D01*
X106029055Y-40036121D01*
X106029054Y-40036120D01*
X106017743Y-40031029D01*
X106002141Y-40022229D01*
X105991933Y-40015183D01*
X105933600Y-39993060D01*
X105930848Y-39991920D01*
X105903048Y-39979409D01*
X105873933Y-39966305D01*
X105873926Y-39966303D01*
X105861723Y-39964067D01*
X105844461Y-39959255D01*
X105832875Y-39954861D01*
X105832873Y-39954860D01*
X105770954Y-39947341D01*
X105767999Y-39946891D01*
X105706602Y-39935641D01*
X105667598Y-39938001D01*
X105644306Y-39939410D01*
X105641341Y-39939500D01*
X96542659Y-39939500D01*
X96539693Y-39939410D01*
X96514056Y-39937859D01*
X96477395Y-39935641D01*
X96416000Y-39946891D01*
X96413046Y-39947341D01*
X96351126Y-39954860D01*
X96339529Y-39959258D01*
X96322282Y-39964066D01*
X96310067Y-39966305D01*
X96253172Y-39991911D01*
X96250410Y-39993055D01*
X96192070Y-40015181D01*
X96192067Y-40015183D01*
X96181855Y-40022232D01*
X96166258Y-40031029D01*
X96154942Y-40036122D01*
X96154941Y-40036123D01*
X96105828Y-40074599D01*
X96103421Y-40076370D01*
X96052071Y-40111816D01*
X96010704Y-40158509D01*
X96008655Y-40160686D01*
X94288338Y-41881004D01*
X94233821Y-41908781D01*
X94218334Y-41910000D01*
X93697560Y-41910000D01*
X93639369Y-41891093D01*
X93603405Y-41841593D01*
X93603405Y-41789074D01*
X93601946Y-41788843D01*
X93603231Y-41780734D01*
X93622986Y-41656000D01*
X93618348Y-41626719D01*
X93603983Y-41536019D01*
X93603165Y-41530852D01*
X93603164Y-41530851D01*
X93601946Y-41523157D01*
X93603405Y-41522925D01*
X93603406Y-41470405D01*
X93639372Y-41420906D01*
X93697560Y-41402000D01*
X94267998Y-41402000D01*
X94267999Y-41401999D01*
X94267999Y-40861209D01*
X94267998Y-40861208D01*
X94265090Y-40836125D01*
X94219786Y-40733522D01*
X94140477Y-40654213D01*
X94037872Y-40608909D01*
X94012797Y-40606000D01*
X93472001Y-40606000D01*
X93472000Y-40606001D01*
X93472000Y-41176439D01*
X93453093Y-41234630D01*
X93403593Y-41270594D01*
X93351073Y-41270598D01*
X93350843Y-41272054D01*
X93343148Y-41270835D01*
X93314621Y-41266317D01*
X93249484Y-41256000D01*
X93249481Y-41256000D01*
X93186519Y-41256000D01*
X93186516Y-41256000D01*
X93121378Y-41266317D01*
X93092852Y-41270835D01*
X93092851Y-41270835D01*
X93085157Y-41272054D01*
X93084926Y-41270598D01*
X93032387Y-41270587D01*
X92982894Y-41234613D01*
X92963999Y-41176439D01*
X92963999Y-40606001D01*
X92963998Y-40606000D01*
X92568754Y-40606000D01*
X92510563Y-40587093D01*
X92474599Y-40537593D01*
X92474599Y-40476407D01*
X92498748Y-40436998D01*
X92795467Y-40140279D01*
X92849982Y-40112504D01*
X92894207Y-40115548D01*
X93012065Y-40151300D01*
X93012070Y-40151301D01*
X93217997Y-40171583D01*
X93218000Y-40171583D01*
X93218003Y-40171583D01*
X93423929Y-40151301D01*
X93423934Y-40151300D01*
X93460259Y-40140281D01*
X93621954Y-40091232D01*
X93804450Y-39993685D01*
X93964410Y-39862410D01*
X94095685Y-39702450D01*
X94193232Y-39519954D01*
X94253300Y-39321934D01*
X94253301Y-39321929D01*
X94273583Y-39116003D01*
X94273583Y-39115996D01*
X94253301Y-38910070D01*
X94253300Y-38910065D01*
X94223433Y-38811606D01*
X94193232Y-38712046D01*
X94095685Y-38529550D01*
X94067423Y-38495113D01*
X93964414Y-38369595D01*
X93964410Y-38369590D01*
X93934326Y-38344901D01*
X93804452Y-38238316D01*
X93621954Y-38140768D01*
X93423934Y-38080699D01*
X93423929Y-38080698D01*
X93218003Y-38060417D01*
X93217997Y-38060417D01*
X93012070Y-38080698D01*
X93012065Y-38080699D01*
X92814045Y-38140768D01*
X92631547Y-38238316D01*
X92471595Y-38369585D01*
X92471585Y-38369595D01*
X92340316Y-38529547D01*
X92242768Y-38712045D01*
X92182699Y-38910065D01*
X92182698Y-38910070D01*
X92162417Y-39115996D01*
X92162417Y-39116003D01*
X92182698Y-39321929D01*
X92182700Y-39321937D01*
X92218450Y-39439792D01*
X92217248Y-39500965D01*
X92193717Y-39538532D01*
X91656781Y-40075470D01*
X91561473Y-40170777D01*
X91561471Y-40170781D01*
X91549615Y-40194049D01*
X91541501Y-40207290D01*
X91526151Y-40228417D01*
X91518082Y-40253252D01*
X91512139Y-40267600D01*
X91500282Y-40290871D01*
X91496197Y-40316664D01*
X91492572Y-40331764D01*
X91490229Y-40338976D01*
X91484501Y-40356606D01*
X91484501Y-40390510D01*
X91484501Y-40390511D01*
X91484501Y-43074608D01*
X91484501Y-43209394D01*
X91492570Y-43234226D01*
X91496196Y-43249330D01*
X91500282Y-43275127D01*
X91500282Y-43275128D01*
X91512136Y-43298392D01*
X91518080Y-43312742D01*
X91525762Y-43336383D01*
X91526152Y-43337582D01*
X91541502Y-43358709D01*
X91549617Y-43371952D01*
X91551464Y-43375578D01*
X91561473Y-43395221D01*
X91585446Y-43419195D01*
X91585447Y-43419195D01*
X91585448Y-43419196D01*
X91644832Y-43478580D01*
X91672609Y-43533097D01*
X91670049Y-43575676D01*
X91623603Y-43738915D01*
X91613959Y-43842999D01*
X91604785Y-43942000D01*
X91623603Y-44145083D01*
X91679418Y-44341250D01*
X91770327Y-44523821D01*
X91893236Y-44686579D01*
X92043959Y-44823981D01*
X92217363Y-44931348D01*
X92407544Y-45005024D01*
X92608024Y-45042500D01*
X92811976Y-45042500D01*
X93012456Y-45005024D01*
X93202637Y-44931348D01*
X93376041Y-44823981D01*
X93526764Y-44686579D01*
X93649673Y-44523821D01*
X93740582Y-44341250D01*
X93796397Y-44145083D01*
X93815215Y-43942000D01*
X93796397Y-43738917D01*
X93740582Y-43542750D01*
X93649673Y-43360179D01*
X93526764Y-43197421D01*
X93376041Y-43060019D01*
X93202637Y-42952652D01*
X93012456Y-42878976D01*
X93012455Y-42878975D01*
X93012453Y-42878975D01*
X93010514Y-42878613D01*
X93009785Y-42878216D01*
X93008056Y-42877724D01*
X93008166Y-42877334D01*
X92956788Y-42849336D01*
X92930532Y-42794070D01*
X92941775Y-42733927D01*
X92958702Y-42711294D01*
X92963999Y-42705997D01*
X92963999Y-42135560D01*
X92982906Y-42077369D01*
X93032406Y-42041405D01*
X93084926Y-42041403D01*
X93085157Y-42039946D01*
X93092851Y-42041164D01*
X93092852Y-42041165D01*
X93121378Y-42045682D01*
X93186516Y-42056000D01*
X93186519Y-42056000D01*
X93249484Y-42056000D01*
X93314621Y-42045682D01*
X93343148Y-42041165D01*
X93343148Y-42041164D01*
X93350843Y-42039946D01*
X93351074Y-42041405D01*
X93403595Y-42041406D01*
X93453094Y-42077372D01*
X93472000Y-42135560D01*
X93472000Y-42705998D01*
X93472001Y-42705999D01*
X93942500Y-42705999D01*
X94000691Y-42724906D01*
X94036655Y-42774406D01*
X94041500Y-42804999D01*
X94041500Y-50100500D01*
X94022593Y-50158691D01*
X93973093Y-50194655D01*
X93942500Y-50199500D01*
X85722659Y-50199500D01*
X85719693Y-50199410D01*
X85693166Y-50197805D01*
X85657394Y-50195641D01*
X85645192Y-50197878D01*
X85627346Y-50199500D01*
X85614940Y-50199500D01*
X85576401Y-50208999D01*
X85570519Y-50210076D01*
X85531128Y-50214860D01*
X85531121Y-50214861D01*
X85519527Y-50219258D01*
X85502283Y-50224065D01*
X85490075Y-50226303D01*
X85490069Y-50226304D01*
X85478751Y-50231398D01*
X85461824Y-50237239D01*
X85449776Y-50240209D01*
X85449772Y-50240210D01*
X85414632Y-50258653D01*
X85409178Y-50261108D01*
X85372071Y-50275180D01*
X85372070Y-50275181D01*
X85361858Y-50282230D01*
X85346259Y-50291028D01*
X85334944Y-50296120D01*
X85334939Y-50296124D01*
X85325172Y-50303776D01*
X85310128Y-50313503D01*
X85299148Y-50319265D01*
X85269446Y-50345577D01*
X85264741Y-50349263D01*
X85232076Y-50371812D01*
X85232067Y-50371820D01*
X85205752Y-50401523D01*
X85201523Y-50405752D01*
X85171817Y-50432070D01*
X85171815Y-50432072D01*
X85164768Y-50442281D01*
X85153301Y-50456040D01*
X83848686Y-51760655D01*
X83846509Y-51762704D01*
X83799816Y-51804071D01*
X83781414Y-51830732D01*
X83764360Y-51855436D01*
X83762611Y-51857813D01*
X83760935Y-51859954D01*
X83724121Y-51906944D01*
X83724120Y-51906944D01*
X83719028Y-51918259D01*
X83710230Y-51933858D01*
X83703181Y-51944070D01*
X83703180Y-51944071D01*
X83681063Y-52002390D01*
X83679919Y-52005152D01*
X83654305Y-52062066D01*
X83654302Y-52062074D01*
X83652065Y-52074282D01*
X83647258Y-52091527D01*
X83642860Y-52103125D01*
X83635341Y-52165045D01*
X83634891Y-52167999D01*
X83623641Y-52229395D01*
X83625518Y-52260407D01*
X83627410Y-52291692D01*
X83627500Y-52294658D01*
X83627500Y-53200194D01*
X83608593Y-53258385D01*
X83595196Y-53273356D01*
X83483237Y-53375420D01*
X83360328Y-53538177D01*
X83360323Y-53538186D01*
X83269791Y-53720000D01*
X83269418Y-53720750D01*
X83265064Y-53736054D01*
X83213603Y-53916917D01*
X83197380Y-54092000D01*
X83194785Y-54120000D01*
X83213603Y-54323083D01*
X83269418Y-54519250D01*
X83360327Y-54701821D01*
X83483236Y-54864579D01*
X83633959Y-55001981D01*
X83807363Y-55109348D01*
X83997544Y-55183024D01*
X84198024Y-55220500D01*
X84401976Y-55220500D01*
X84602456Y-55183024D01*
X84792637Y-55109348D01*
X84966041Y-55001981D01*
X85116764Y-54864579D01*
X85239673Y-54701821D01*
X85330582Y-54519250D01*
X85386397Y-54323083D01*
X85405215Y-54120000D01*
X85403547Y-54102000D01*
X87286785Y-54102000D01*
X87305603Y-54305083D01*
X87361418Y-54501250D01*
X87452327Y-54683821D01*
X87575236Y-54846579D01*
X87725959Y-54983981D01*
X87899363Y-55091348D01*
X88089544Y-55165024D01*
X88290024Y-55202500D01*
X88493976Y-55202500D01*
X88694456Y-55165024D01*
X88884637Y-55091348D01*
X89058041Y-54983981D01*
X89208764Y-54846579D01*
X89331673Y-54683821D01*
X89422582Y-54501250D01*
X89478397Y-54305083D01*
X89497215Y-54102000D01*
X89478397Y-53898917D01*
X89422582Y-53702750D01*
X89331673Y-53520179D01*
X89208764Y-53357421D01*
X89058041Y-53220019D01*
X88884637Y-53112652D01*
X88694456Y-53038976D01*
X88694455Y-53038975D01*
X88694453Y-53038975D01*
X88493976Y-53001500D01*
X88290024Y-53001500D01*
X88089546Y-53038975D01*
X88035816Y-53059790D01*
X87899363Y-53112652D01*
X87757978Y-53200194D01*
X87725959Y-53220019D01*
X87575237Y-53357420D01*
X87452328Y-53520177D01*
X87452323Y-53520186D01*
X87361419Y-53702747D01*
X87361418Y-53702750D01*
X87341369Y-53773213D01*
X87305603Y-53898917D01*
X87293447Y-54030109D01*
X87286785Y-54102000D01*
X85403547Y-54102000D01*
X85386397Y-53916917D01*
X85330582Y-53720750D01*
X85239673Y-53538179D01*
X85116764Y-53375421D01*
X85060802Y-53324404D01*
X85030537Y-53271231D01*
X85028500Y-53251253D01*
X85028500Y-52603165D01*
X85047407Y-52544974D01*
X85057496Y-52533161D01*
X85961161Y-51629496D01*
X86015678Y-51601719D01*
X86031165Y-51600500D01*
X93942500Y-51600500D01*
X94000691Y-51619407D01*
X94036655Y-51668907D01*
X94041500Y-51699500D01*
X94041499Y-52047339D01*
X94041409Y-52050329D01*
X94037641Y-52112603D01*
X94048891Y-52173999D01*
X94049341Y-52176954D01*
X94056860Y-52238873D01*
X94056861Y-52238875D01*
X94061255Y-52250461D01*
X94066067Y-52267723D01*
X94068303Y-52279926D01*
X94068305Y-52279933D01*
X94078298Y-52302135D01*
X94093574Y-52336079D01*
X94093916Y-52336837D01*
X94095059Y-52339598D01*
X94116728Y-52396734D01*
X94117183Y-52397932D01*
X94117183Y-52397934D01*
X94124229Y-52408141D01*
X94133029Y-52423743D01*
X94138120Y-52435054D01*
X94138121Y-52435055D01*
X94138122Y-52435057D01*
X94170034Y-52475790D01*
X94176598Y-52484168D01*
X94178369Y-52486576D01*
X94199025Y-52516500D01*
X94213817Y-52537929D01*
X94241165Y-52562157D01*
X94260508Y-52579294D01*
X94262686Y-52581344D01*
X95639504Y-53958161D01*
X95667281Y-54012678D01*
X95668500Y-54028165D01*
X95668500Y-54458323D01*
X95668501Y-54847500D01*
X95649594Y-54905691D01*
X95600094Y-54941655D01*
X95569501Y-54946500D01*
X94197256Y-54946500D01*
X94139065Y-54927593D01*
X94127252Y-54917504D01*
X93775167Y-54565419D01*
X93747390Y-54510902D01*
X93749949Y-54468326D01*
X93796397Y-54305083D01*
X93815215Y-54102000D01*
X93796397Y-53898917D01*
X93740582Y-53702750D01*
X93649673Y-53520179D01*
X93526764Y-53357421D01*
X93376041Y-53220019D01*
X93202637Y-53112652D01*
X93012456Y-53038976D01*
X93012455Y-53038975D01*
X93012453Y-53038975D01*
X92811976Y-53001500D01*
X92608024Y-53001500D01*
X92407546Y-53038975D01*
X92353816Y-53059790D01*
X92217363Y-53112652D01*
X92075978Y-53200194D01*
X92043959Y-53220019D01*
X91893237Y-53357420D01*
X91770328Y-53520177D01*
X91770323Y-53520186D01*
X91679419Y-53702747D01*
X91679418Y-53702750D01*
X91659369Y-53773213D01*
X91623603Y-53898917D01*
X91611447Y-54030109D01*
X91604785Y-54102000D01*
X91623603Y-54305083D01*
X91679418Y-54501250D01*
X91770327Y-54683821D01*
X91893236Y-54846579D01*
X92043959Y-54983981D01*
X92217363Y-55091348D01*
X92407544Y-55165024D01*
X92608024Y-55202500D01*
X92811976Y-55202500D01*
X93012456Y-55165024D01*
X93066777Y-55143979D01*
X93127868Y-55140590D01*
X93172543Y-55166291D01*
X93631471Y-55625220D01*
X93706748Y-55700496D01*
X93734526Y-55755012D01*
X93724955Y-55815444D01*
X93681691Y-55858709D01*
X93636745Y-55869500D01*
X56477256Y-55869500D01*
X56419065Y-55850593D01*
X56383101Y-55801093D01*
X56383101Y-55739907D01*
X56407252Y-55700497D01*
X56454528Y-55653220D01*
X56902807Y-55204940D01*
X56957324Y-55177162D01*
X57008573Y-55182628D01*
X57063189Y-55203786D01*
X57087802Y-55213321D01*
X57297390Y-55252500D01*
X57510610Y-55252500D01*
X57720198Y-55213321D01*
X57919019Y-55136298D01*
X58100302Y-55024052D01*
X58257872Y-54880407D01*
X58386366Y-54710255D01*
X58481405Y-54519389D01*
X58539756Y-54314310D01*
X58559429Y-54102000D01*
X58559429Y-54101999D01*
X58788571Y-54101999D01*
X58808244Y-54314311D01*
X58831449Y-54395867D01*
X58866595Y-54519389D01*
X58961634Y-54710255D01*
X59090128Y-54880407D01*
X59090135Y-54880413D01*
X59247692Y-55024047D01*
X59247699Y-55024053D01*
X59340232Y-55081347D01*
X59428981Y-55136298D01*
X59627802Y-55213321D01*
X59837390Y-55252500D01*
X60050610Y-55252500D01*
X60260198Y-55213321D01*
X60459019Y-55136298D01*
X60640302Y-55024052D01*
X60797872Y-54880407D01*
X60926366Y-54710255D01*
X61021405Y-54519389D01*
X61079756Y-54314310D01*
X61099429Y-54102000D01*
X61079756Y-53889690D01*
X61021405Y-53684611D01*
X60926366Y-53493745D01*
X60797872Y-53323593D01*
X60726343Y-53258385D01*
X60640307Y-53179952D01*
X60640300Y-53179946D01*
X60459024Y-53067705D01*
X60459019Y-53067702D01*
X60432733Y-53057519D01*
X60260198Y-52990679D01*
X60260197Y-52990678D01*
X60260195Y-52990678D01*
X60050610Y-52951500D01*
X59837390Y-52951500D01*
X59627804Y-52990678D01*
X59428980Y-53067702D01*
X59428975Y-53067705D01*
X59247699Y-53179946D01*
X59247692Y-53179952D01*
X59090135Y-53323586D01*
X59090131Y-53323589D01*
X59090128Y-53323593D01*
X59090124Y-53323597D01*
X59090125Y-53323597D01*
X58961635Y-53493743D01*
X58961630Y-53493752D01*
X58866596Y-53684608D01*
X58808244Y-53889688D01*
X58788571Y-54101999D01*
X58559429Y-54101999D01*
X58539756Y-53889690D01*
X58481405Y-53684611D01*
X58386366Y-53493745D01*
X58257872Y-53323593D01*
X58186343Y-53258385D01*
X58100307Y-53179952D01*
X58100300Y-53179946D01*
X57919024Y-53067705D01*
X57919019Y-53067702D01*
X57892733Y-53057519D01*
X57720198Y-52990679D01*
X57720197Y-52990678D01*
X57720195Y-52990678D01*
X57510610Y-52951500D01*
X57297390Y-52951500D01*
X57087810Y-52990677D01*
X57087805Y-52990678D01*
X57087802Y-52990679D01*
X57087795Y-52990681D01*
X57087794Y-52990682D01*
X57008573Y-53021371D01*
X56947482Y-53024761D01*
X56902808Y-52999060D01*
X55854496Y-51950748D01*
X55826719Y-51896231D01*
X55825500Y-51880744D01*
X55825500Y-51260003D01*
X56142861Y-51260003D01*
X56163364Y-51468183D01*
X56163365Y-51468188D01*
X56224092Y-51668376D01*
X56224094Y-51668381D01*
X56300138Y-51810649D01*
X56706583Y-51404205D01*
X56761100Y-51376428D01*
X56821532Y-51385999D01*
X56859466Y-51420061D01*
X56925811Y-51521611D01*
X56961694Y-51549540D01*
X57026157Y-51599713D01*
X57027527Y-51600183D01*
X57028809Y-51601147D01*
X57033374Y-51603618D01*
X57033003Y-51604302D01*
X57076426Y-51636961D01*
X57094368Y-51695456D01*
X57074502Y-51753326D01*
X57065386Y-51763822D01*
X56659349Y-52169859D01*
X56659349Y-52169860D01*
X56801623Y-52245907D01*
X57001811Y-52306634D01*
X57001816Y-52306635D01*
X57209997Y-52327139D01*
X57210003Y-52327139D01*
X57418183Y-52306635D01*
X57418188Y-52306634D01*
X57618376Y-52245907D01*
X57760649Y-52169860D01*
X57760649Y-52169859D01*
X57351898Y-51761107D01*
X57324121Y-51706591D01*
X57333692Y-51646159D01*
X57374782Y-51604037D01*
X57447251Y-51564820D01*
X57533371Y-51471269D01*
X57550508Y-51432199D01*
X57591195Y-51386506D01*
X57650971Y-51373453D01*
X57707004Y-51398030D01*
X57711172Y-51401963D01*
X58119859Y-51810649D01*
X58119860Y-51810649D01*
X58195907Y-51668376D01*
X58256634Y-51468188D01*
X58256635Y-51468183D01*
X58277139Y-51260003D01*
X58682861Y-51260003D01*
X58703364Y-51468183D01*
X58703365Y-51468188D01*
X58764092Y-51668376D01*
X58764094Y-51668381D01*
X58840138Y-51810649D01*
X59246583Y-51404205D01*
X59301100Y-51376428D01*
X59361532Y-51385999D01*
X59399466Y-51420061D01*
X59465811Y-51521611D01*
X59501694Y-51549540D01*
X59566157Y-51599713D01*
X59567527Y-51600183D01*
X59568809Y-51601147D01*
X59573374Y-51603618D01*
X59573003Y-51604302D01*
X59616426Y-51636961D01*
X59634368Y-51695456D01*
X59614502Y-51753326D01*
X59605386Y-51763822D01*
X59199349Y-52169859D01*
X59199349Y-52169860D01*
X59341623Y-52245907D01*
X59541811Y-52306634D01*
X59541816Y-52306635D01*
X59749997Y-52327139D01*
X59750003Y-52327139D01*
X59958183Y-52306635D01*
X59958188Y-52306634D01*
X60158376Y-52245907D01*
X60300649Y-52169860D01*
X60300649Y-52169859D01*
X59891898Y-51761107D01*
X59864121Y-51706591D01*
X59873692Y-51646159D01*
X59914782Y-51604037D01*
X59987251Y-51564820D01*
X60073371Y-51471269D01*
X60090508Y-51432199D01*
X60131195Y-51386506D01*
X60190971Y-51373453D01*
X60247004Y-51398030D01*
X60251172Y-51401963D01*
X60659859Y-51810649D01*
X60659860Y-51810649D01*
X60735907Y-51668376D01*
X60796634Y-51468188D01*
X60796635Y-51468183D01*
X60817139Y-51260003D01*
X60817139Y-51259996D01*
X60796635Y-51051816D01*
X60796634Y-51051811D01*
X60735907Y-50851623D01*
X60659860Y-50709349D01*
X60659859Y-50709349D01*
X60253414Y-51115793D01*
X60198898Y-51143570D01*
X60138466Y-51133999D01*
X60100531Y-51099936D01*
X60088243Y-51081128D01*
X60034187Y-50998388D01*
X59933843Y-50920287D01*
X59933840Y-50920286D01*
X59933839Y-50920285D01*
X59932468Y-50919815D01*
X59931181Y-50918847D01*
X59926626Y-50916382D01*
X59926995Y-50915698D01*
X59883570Y-50883036D01*
X59865630Y-50824540D01*
X59885498Y-50766670D01*
X59894612Y-50756176D01*
X60300649Y-50350138D01*
X60158381Y-50274094D01*
X60158376Y-50274092D01*
X59958188Y-50213365D01*
X59958183Y-50213364D01*
X59750003Y-50192861D01*
X59749997Y-50192861D01*
X59541816Y-50213364D01*
X59541811Y-50213365D01*
X59341623Y-50274092D01*
X59341618Y-50274094D01*
X59199349Y-50350138D01*
X59199348Y-50350139D01*
X59608101Y-50758892D01*
X59635878Y-50813408D01*
X59626307Y-50873840D01*
X59585216Y-50915963D01*
X59512749Y-50955179D01*
X59426627Y-51048733D01*
X59409492Y-51087799D01*
X59368802Y-51133494D01*
X59309025Y-51146545D01*
X59252993Y-51121968D01*
X59248827Y-51118036D01*
X58840139Y-50709348D01*
X58840138Y-50709349D01*
X58764094Y-50851618D01*
X58764092Y-50851623D01*
X58703365Y-51051811D01*
X58703364Y-51051816D01*
X58682861Y-51259996D01*
X58682861Y-51260003D01*
X58277139Y-51260003D01*
X58277139Y-51259996D01*
X58256635Y-51051816D01*
X58256634Y-51051811D01*
X58195907Y-50851623D01*
X58119860Y-50709349D01*
X58119859Y-50709349D01*
X57713414Y-51115793D01*
X57658898Y-51143570D01*
X57598466Y-51133999D01*
X57560531Y-51099936D01*
X57548243Y-51081128D01*
X57494187Y-50998388D01*
X57393843Y-50920287D01*
X57393840Y-50920286D01*
X57393839Y-50920285D01*
X57392468Y-50919815D01*
X57391181Y-50918847D01*
X57386626Y-50916382D01*
X57386995Y-50915698D01*
X57343570Y-50883036D01*
X57325630Y-50824540D01*
X57345498Y-50766670D01*
X57354612Y-50756176D01*
X57760649Y-50350138D01*
X57618381Y-50274094D01*
X57618376Y-50274092D01*
X57418188Y-50213365D01*
X57418183Y-50213364D01*
X57210003Y-50192861D01*
X57209997Y-50192861D01*
X57001816Y-50213364D01*
X57001811Y-50213365D01*
X56801623Y-50274092D01*
X56801618Y-50274094D01*
X56659349Y-50350138D01*
X56659348Y-50350139D01*
X57068101Y-50758892D01*
X57095878Y-50813408D01*
X57086307Y-50873840D01*
X57045216Y-50915963D01*
X56972749Y-50955179D01*
X56886627Y-51048733D01*
X56869492Y-51087799D01*
X56828802Y-51133494D01*
X56769025Y-51146545D01*
X56712993Y-51121968D01*
X56708827Y-51118036D01*
X56300139Y-50709348D01*
X56300138Y-50709349D01*
X56224094Y-50851618D01*
X56224092Y-50851623D01*
X56163365Y-51051811D01*
X56163364Y-51051816D01*
X56142861Y-51259996D01*
X56142861Y-51260003D01*
X55825500Y-51260003D01*
X55825500Y-46332606D01*
X55817431Y-46307775D01*
X55813803Y-46292665D01*
X55812812Y-46286405D01*
X55809719Y-46266874D01*
X55797858Y-46243597D01*
X55791919Y-46229259D01*
X55783849Y-46204419D01*
X55768498Y-46183291D01*
X55760384Y-46170050D01*
X55748528Y-46146780D01*
X55701746Y-46099998D01*
X55653220Y-46051471D01*
X54353717Y-44751968D01*
X54353715Y-44751967D01*
X54330447Y-44740112D01*
X54317202Y-44731996D01*
X54296078Y-44716648D01*
X54296076Y-44716647D01*
X54271238Y-44708576D01*
X54256888Y-44702632D01*
X54233623Y-44690778D01*
X54207826Y-44686692D01*
X54192726Y-44683067D01*
X54167890Y-44674997D01*
X54167888Y-44674997D01*
X53009428Y-44674997D01*
X52951237Y-44656090D01*
X52932419Y-44636811D01*
X52932152Y-44637049D01*
X52928181Y-44632566D01*
X52829666Y-44545290D01*
X52800852Y-44519763D01*
X52650225Y-44440707D01*
X52650224Y-44440706D01*
X52650223Y-44440706D01*
X52485058Y-44399997D01*
X52485056Y-44399997D01*
X52314944Y-44399997D01*
X52314941Y-44399997D01*
X52149776Y-44440706D01*
X51999146Y-44519764D01*
X51871818Y-44632566D01*
X51871816Y-44632569D01*
X51834267Y-44686968D01*
X51775182Y-44772567D01*
X51714860Y-44931625D01*
X51694355Y-45100497D01*
X51714860Y-45269369D01*
X51775182Y-45428427D01*
X51854963Y-45544009D01*
X51872459Y-45602639D01*
X51854964Y-45656485D01*
X51775181Y-45772070D01*
X51739074Y-45867279D01*
X51722953Y-45909790D01*
X51714860Y-45931129D01*
X51695806Y-46088054D01*
X51694355Y-46100000D01*
X51714860Y-46268872D01*
X51775182Y-46427930D01*
X51871817Y-46567929D01*
X51999148Y-46680734D01*
X52149775Y-46759790D01*
X52314944Y-46800500D01*
X52314947Y-46800500D01*
X52485053Y-46800500D01*
X52485056Y-46800500D01*
X52650225Y-46759790D01*
X52800852Y-46680734D01*
X52928183Y-46567929D01*
X52928186Y-46567923D01*
X52932152Y-46563448D01*
X52933125Y-46564310D01*
X52976564Y-46531114D01*
X53009428Y-46525500D01*
X54082745Y-46525500D01*
X54140936Y-46544407D01*
X54152741Y-46554489D01*
X54409504Y-46811253D01*
X54437280Y-46865767D01*
X54438499Y-46881254D01*
X54438500Y-51330511D01*
X54438500Y-52835744D01*
X54419593Y-52893935D01*
X54370093Y-52929899D01*
X54308907Y-52929899D01*
X54269496Y-52905748D01*
X53739195Y-52375446D01*
X53715220Y-52351471D01*
X53715218Y-52351470D01*
X53691950Y-52339615D01*
X53678705Y-52331499D01*
X53657581Y-52316151D01*
X53657579Y-52316150D01*
X53632741Y-52308079D01*
X53618391Y-52302135D01*
X53595126Y-52290281D01*
X53569329Y-52286195D01*
X53554229Y-52282570D01*
X53529393Y-52274500D01*
X53495488Y-52274500D01*
X51567393Y-52274500D01*
X51432607Y-52274500D01*
X51432606Y-52274500D01*
X51407765Y-52282571D01*
X51392665Y-52286196D01*
X51366872Y-52290281D01*
X51343601Y-52302138D01*
X51329253Y-52308081D01*
X51304424Y-52316148D01*
X51304418Y-52316151D01*
X51283286Y-52331503D01*
X51270051Y-52339613D01*
X51246780Y-52351471D01*
X51222804Y-52375447D01*
X49225748Y-54372504D01*
X49171231Y-54400281D01*
X49155744Y-54401500D01*
X45374614Y-54401500D01*
X45316423Y-54382593D01*
X45280459Y-54333093D01*
X45280459Y-54271907D01*
X45293139Y-54246261D01*
X45374818Y-54127930D01*
X45435140Y-53968872D01*
X45455645Y-53800000D01*
X45435140Y-53631128D01*
X45374818Y-53472070D01*
X45278183Y-53332071D01*
X45268613Y-53323593D01*
X45178666Y-53243907D01*
X45150852Y-53219266D01*
X45000225Y-53140210D01*
X45000224Y-53140209D01*
X45000223Y-53140209D01*
X44835058Y-53099500D01*
X44835056Y-53099500D01*
X44664944Y-53099500D01*
X44664941Y-53099500D01*
X44499776Y-53140209D01*
X44349146Y-53219267D01*
X44221818Y-53332069D01*
X44221816Y-53332072D01*
X44204319Y-53357421D01*
X44125182Y-53472070D01*
X44064860Y-53631128D01*
X44063729Y-53640440D01*
X44047608Y-53773213D01*
X44044355Y-53800000D01*
X44064860Y-53968872D01*
X44125182Y-54127930D01*
X44206861Y-54246261D01*
X44224357Y-54304892D01*
X44204049Y-54362609D01*
X44153695Y-54397366D01*
X44125386Y-54401500D01*
X40844256Y-54401500D01*
X40786065Y-54382593D01*
X40774252Y-54372504D01*
X38928479Y-52526731D01*
X38900702Y-52472214D01*
X38900205Y-52444798D01*
X38905645Y-52400000D01*
X38885140Y-52231128D01*
X38824818Y-52072070D01*
X38728183Y-51932071D01*
X38712592Y-51918259D01*
X38600853Y-51819267D01*
X38600852Y-51819266D01*
X38450225Y-51740210D01*
X38450224Y-51740209D01*
X38450223Y-51740209D01*
X38285058Y-51699500D01*
X38285056Y-51699500D01*
X38114944Y-51699500D01*
X38114941Y-51699500D01*
X37949776Y-51740209D01*
X37799149Y-51819265D01*
X37799148Y-51819266D01*
X37765896Y-51848724D01*
X37709801Y-51873158D01*
X37650057Y-51859954D01*
X37634598Y-51848722D01*
X37614291Y-51830732D01*
X37601349Y-51819266D01*
X37450722Y-51740210D01*
X37450721Y-51740209D01*
X37450720Y-51740209D01*
X37285555Y-51699500D01*
X37285553Y-51699500D01*
X37115441Y-51699500D01*
X37115438Y-51699500D01*
X36950273Y-51740209D01*
X36799643Y-51819267D01*
X36672315Y-51932069D01*
X36672313Y-51932072D01*
X36650476Y-51963708D01*
X36575679Y-52072070D01*
X36515357Y-52231128D01*
X36513506Y-52246371D01*
X36494852Y-52399998D01*
X36494852Y-52400001D01*
X36496739Y-52415542D01*
X36515357Y-52568872D01*
X36575679Y-52727930D01*
X36672314Y-52867929D01*
X36799645Y-52980734D01*
X36950272Y-53059790D01*
X37030329Y-53079522D01*
X37066495Y-53088436D01*
X37112807Y-53114555D01*
X39698748Y-55700496D01*
X39726525Y-55755013D01*
X39716954Y-55815445D01*
X39673689Y-55858710D01*
X39628744Y-55869500D01*
X29651500Y-55869500D01*
X29593309Y-55850593D01*
X29557345Y-55801093D01*
X29552500Y-55770500D01*
X29552500Y-51250001D01*
X44044355Y-51250001D01*
X44046532Y-51267929D01*
X44064860Y-51418872D01*
X44125182Y-51577930D01*
X44221817Y-51717929D01*
X44349148Y-51830734D01*
X44499775Y-51909790D01*
X44664944Y-51950500D01*
X44664947Y-51950500D01*
X44835053Y-51950500D01*
X44835056Y-51950500D01*
X45000225Y-51909790D01*
X45150852Y-51830734D01*
X45278183Y-51717929D01*
X45374818Y-51577930D01*
X45435140Y-51418872D01*
X45454430Y-51260003D01*
X45982359Y-51260003D01*
X46002871Y-51468280D01*
X46002872Y-51468286D01*
X46063628Y-51668569D01*
X46162288Y-51853148D01*
X46162292Y-51853154D01*
X46295059Y-52014931D01*
X46295068Y-52014940D01*
X46452243Y-52143930D01*
X46456850Y-52147711D01*
X46641431Y-52246372D01*
X46765234Y-52283927D01*
X46841713Y-52307127D01*
X46841719Y-52307128D01*
X47049997Y-52327641D01*
X47050000Y-52327641D01*
X47050003Y-52327641D01*
X47258280Y-52307128D01*
X47258286Y-52307127D01*
X47263076Y-52305674D01*
X47458569Y-52246372D01*
X47643150Y-52147711D01*
X47804936Y-52014936D01*
X47819906Y-51996694D01*
X47871438Y-51963708D01*
X47896434Y-51960500D01*
X48743566Y-51960500D01*
X48801757Y-51979407D01*
X48820093Y-51996694D01*
X48827034Y-52005152D01*
X48835066Y-52014938D01*
X48992242Y-52143929D01*
X48996850Y-52147711D01*
X49181431Y-52246372D01*
X49305234Y-52283927D01*
X49381713Y-52307127D01*
X49381719Y-52307128D01*
X49589997Y-52327641D01*
X49590000Y-52327641D01*
X49590003Y-52327641D01*
X49798280Y-52307128D01*
X49798286Y-52307127D01*
X49803076Y-52305674D01*
X49998569Y-52246372D01*
X50183150Y-52147711D01*
X50344936Y-52014936D01*
X50477711Y-51853150D01*
X50576372Y-51668569D01*
X50637127Y-51468286D01*
X50637138Y-51468183D01*
X50657641Y-51260003D01*
X50657641Y-51259996D01*
X50637128Y-51051719D01*
X50637127Y-51051713D01*
X50607844Y-50955180D01*
X50576372Y-50851431D01*
X50477711Y-50666850D01*
X50451426Y-50634822D01*
X50344940Y-50505068D01*
X50344931Y-50505059D01*
X50183154Y-50372292D01*
X50183148Y-50372288D01*
X50182272Y-50371820D01*
X49998569Y-50273628D01*
X49798286Y-50212872D01*
X49798280Y-50212871D01*
X49590003Y-50192359D01*
X49589997Y-50192359D01*
X49381719Y-50212871D01*
X49381713Y-50212872D01*
X49181430Y-50273628D01*
X48996851Y-50372288D01*
X48996845Y-50372292D01*
X48835066Y-50505061D01*
X48820094Y-50523305D01*
X48768562Y-50556292D01*
X48743566Y-50559500D01*
X47896434Y-50559500D01*
X47838243Y-50540593D01*
X47819906Y-50523305D01*
X47804939Y-50505068D01*
X47804936Y-50505064D01*
X47804934Y-50505062D01*
X47804933Y-50505061D01*
X47643154Y-50372292D01*
X47643148Y-50372288D01*
X47642272Y-50371820D01*
X47458569Y-50273628D01*
X47458568Y-50273628D01*
X47258286Y-50212872D01*
X47258280Y-50212871D01*
X47050003Y-50192359D01*
X47049997Y-50192359D01*
X46841719Y-50212871D01*
X46841713Y-50212872D01*
X46641430Y-50273628D01*
X46456851Y-50372288D01*
X46456845Y-50372292D01*
X46295068Y-50505059D01*
X46295059Y-50505068D01*
X46162292Y-50666845D01*
X46162288Y-50666851D01*
X46063628Y-50851430D01*
X46002872Y-51051713D01*
X46002871Y-51051719D01*
X45982359Y-51259996D01*
X45982359Y-51260003D01*
X45454430Y-51260003D01*
X45455645Y-51250000D01*
X45435140Y-51081128D01*
X45374818Y-50922070D01*
X45278183Y-50782071D01*
X45260620Y-50766512D01*
X45150853Y-50669267D01*
X45150852Y-50669266D01*
X45000225Y-50590210D01*
X45000224Y-50590209D01*
X45000223Y-50590209D01*
X44835058Y-50549500D01*
X44835056Y-50549500D01*
X44664944Y-50549500D01*
X44664941Y-50549500D01*
X44499776Y-50590209D01*
X44349146Y-50669267D01*
X44221818Y-50782069D01*
X44221816Y-50782072D01*
X44173941Y-50851431D01*
X44125182Y-50922070D01*
X44075977Y-51051816D01*
X44064860Y-51081129D01*
X44044355Y-51249998D01*
X44044355Y-51250001D01*
X29552500Y-51250001D01*
X29552500Y-44958000D01*
X30468785Y-44958000D01*
X30487603Y-45161083D01*
X30542097Y-45352608D01*
X30543419Y-45357252D01*
X30627443Y-45525997D01*
X30634327Y-45539821D01*
X30757236Y-45702579D01*
X30907959Y-45839981D01*
X31081363Y-45947348D01*
X31271544Y-46021024D01*
X31472024Y-46058500D01*
X31675976Y-46058500D01*
X31876456Y-46021024D01*
X31930777Y-45999979D01*
X31991868Y-45996590D01*
X32036543Y-46022291D01*
X32242748Y-46228496D01*
X32270525Y-46283013D01*
X32260954Y-46343445D01*
X32217689Y-46386710D01*
X32172744Y-46397500D01*
X30729139Y-46397500D01*
X30729136Y-46397501D01*
X30704009Y-46400414D01*
X30601235Y-46445794D01*
X30521794Y-46525235D01*
X30476414Y-46628011D01*
X30473500Y-46653130D01*
X30473500Y-48342860D01*
X30473501Y-48342863D01*
X30476414Y-48367990D01*
X30488332Y-48394981D01*
X30521794Y-48470765D01*
X30601235Y-48550206D01*
X30704009Y-48595585D01*
X30729135Y-48598500D01*
X32418864Y-48598499D01*
X32443991Y-48595585D01*
X32546765Y-48550206D01*
X32626206Y-48470765D01*
X32671585Y-48367991D01*
X32674500Y-48342865D01*
X32674499Y-46899254D01*
X32693406Y-46841064D01*
X32742906Y-46805100D01*
X32804092Y-46805100D01*
X32843503Y-46829251D01*
X32845504Y-46831252D01*
X32873281Y-46885769D01*
X32874500Y-46901256D01*
X32874499Y-48458720D01*
X32873281Y-48474204D01*
X32871457Y-48485723D01*
X32869196Y-48500000D01*
X32874500Y-48533488D01*
X32885577Y-48603429D01*
X32890281Y-48633125D01*
X32890283Y-48633132D01*
X32947777Y-48745969D01*
X32951472Y-48753220D01*
X33046780Y-48848528D01*
X33046782Y-48848529D01*
X33100089Y-48875690D01*
X33125148Y-48893896D01*
X33820832Y-49589580D01*
X33848609Y-49644097D01*
X33846049Y-49686676D01*
X33799603Y-49849915D01*
X33795704Y-49891991D01*
X33780785Y-50053000D01*
X33799603Y-50256083D01*
X33855418Y-50452250D01*
X33946327Y-50634821D01*
X34069236Y-50797579D01*
X34219959Y-50934981D01*
X34393363Y-51042348D01*
X34583544Y-51116024D01*
X34784024Y-51153500D01*
X34987976Y-51153500D01*
X35188456Y-51116024D01*
X35378637Y-51042348D01*
X35552041Y-50934981D01*
X35702764Y-50797579D01*
X35825673Y-50634821D01*
X35916582Y-50452250D01*
X35972397Y-50256083D01*
X35991215Y-50053000D01*
X35972397Y-49849917D01*
X35916582Y-49653750D01*
X35825673Y-49471179D01*
X35702764Y-49308421D01*
X35552041Y-49171019D01*
X35378637Y-49063652D01*
X35188456Y-48989976D01*
X35188455Y-48989975D01*
X35188453Y-48989975D01*
X34987976Y-48952500D01*
X34784024Y-48952500D01*
X34583552Y-48989974D01*
X34583546Y-48989975D01*
X34583544Y-48989976D01*
X34583542Y-48989976D01*
X34583541Y-48989977D01*
X34529220Y-49011020D01*
X34468129Y-49014408D01*
X34423456Y-48988708D01*
X33754496Y-48319748D01*
X33726719Y-48265231D01*
X33725500Y-48249744D01*
X33725500Y-48072261D01*
X33744407Y-48014070D01*
X33793907Y-47978106D01*
X33855093Y-47978106D01*
X33904593Y-48014070D01*
X33913116Y-48028124D01*
X33946327Y-48094821D01*
X34069236Y-48257579D01*
X34219959Y-48394981D01*
X34393363Y-48502348D01*
X34583544Y-48576024D01*
X34784024Y-48613500D01*
X34987976Y-48613500D01*
X35188456Y-48576024D01*
X35378637Y-48502348D01*
X35552041Y-48394981D01*
X35702764Y-48257579D01*
X35825673Y-48094821D01*
X35916582Y-47912250D01*
X35972397Y-47716083D01*
X35991215Y-47513000D01*
X35972397Y-47309917D01*
X35916582Y-47113750D01*
X35825673Y-46931179D01*
X35702764Y-46768421D01*
X35552041Y-46631019D01*
X35378637Y-46523652D01*
X35188456Y-46449976D01*
X35188455Y-46449975D01*
X35188453Y-46449975D01*
X34987976Y-46412500D01*
X34784024Y-46412500D01*
X34583546Y-46449975D01*
X34538851Y-46467290D01*
X34393363Y-46523652D01*
X34243235Y-46616607D01*
X34219959Y-46631019D01*
X34069237Y-46768420D01*
X33946328Y-46931177D01*
X33946323Y-46931186D01*
X33913121Y-46997866D01*
X33870258Y-47041528D01*
X33809917Y-47051658D01*
X33755146Y-47024386D01*
X33726866Y-46970128D01*
X33725500Y-46953738D01*
X33725500Y-46616608D01*
X33725499Y-46616605D01*
X33721752Y-46605074D01*
X33717429Y-46591770D01*
X33713803Y-46576667D01*
X33709719Y-46550874D01*
X33697864Y-46527608D01*
X33691916Y-46513247D01*
X33687612Y-46500000D01*
X33683850Y-46488419D01*
X33668492Y-46467280D01*
X33660385Y-46454051D01*
X33648528Y-46430780D01*
X33648527Y-46430779D01*
X33648527Y-46430778D01*
X33553220Y-46335471D01*
X32639167Y-45421419D01*
X32611390Y-45366902D01*
X32613949Y-45324326D01*
X32660397Y-45161083D01*
X32677825Y-44973000D01*
X33780785Y-44973000D01*
X33799603Y-45176083D01*
X33855418Y-45372250D01*
X33946327Y-45554821D01*
X34069236Y-45717579D01*
X34219959Y-45854981D01*
X34393363Y-45962348D01*
X34583544Y-46036024D01*
X34784024Y-46073500D01*
X34987976Y-46073500D01*
X35188456Y-46036024D01*
X35378637Y-45962348D01*
X35552041Y-45854981D01*
X35702764Y-45717579D01*
X35825673Y-45554821D01*
X35916582Y-45372250D01*
X35972397Y-45176083D01*
X35991215Y-44973000D01*
X35972397Y-44769917D01*
X35916582Y-44573750D01*
X35825673Y-44391179D01*
X35702764Y-44228421D01*
X35552041Y-44091019D01*
X35378637Y-43983652D01*
X35188456Y-43909976D01*
X35188455Y-43909975D01*
X35188453Y-43909975D01*
X34987976Y-43872500D01*
X34784024Y-43872500D01*
X34583546Y-43909975D01*
X34513632Y-43937059D01*
X34393363Y-43983652D01*
X34253825Y-44070050D01*
X34219959Y-44091019D01*
X34106140Y-44194779D01*
X34069236Y-44228421D01*
X34050509Y-44253220D01*
X33946328Y-44391177D01*
X33946323Y-44391186D01*
X33855419Y-44573747D01*
X33855418Y-44573750D01*
X33799603Y-44769917D01*
X33780785Y-44973000D01*
X32677825Y-44973000D01*
X32679215Y-44958000D01*
X32660397Y-44754917D01*
X32604582Y-44558750D01*
X32513673Y-44376179D01*
X32390764Y-44213421D01*
X32240041Y-44076019D01*
X32066637Y-43968652D01*
X31876456Y-43894976D01*
X31876455Y-43894975D01*
X31876453Y-43894975D01*
X31675976Y-43857500D01*
X31472024Y-43857500D01*
X31271546Y-43894975D01*
X31232827Y-43909975D01*
X31081363Y-43968652D01*
X30907959Y-44076019D01*
X30757236Y-44213421D01*
X30733008Y-44245504D01*
X30634328Y-44376177D01*
X30634323Y-44376186D01*
X30543419Y-44558747D01*
X30543418Y-44558750D01*
X30487603Y-44754917D01*
X30468785Y-44958000D01*
X29552500Y-44958000D01*
X29552500Y-42418000D01*
X30468785Y-42418000D01*
X30487603Y-42621083D01*
X30543418Y-42817250D01*
X30634327Y-42999821D01*
X30757236Y-43162579D01*
X30907959Y-43299981D01*
X31081363Y-43407348D01*
X31271544Y-43481024D01*
X31472024Y-43518500D01*
X31675976Y-43518500D01*
X31876456Y-43481024D01*
X32066637Y-43407348D01*
X32240041Y-43299981D01*
X32390764Y-43162579D01*
X32513673Y-42999821D01*
X32564188Y-42898371D01*
X32607050Y-42854710D01*
X32652809Y-42843500D01*
X33799722Y-42843500D01*
X33857913Y-42862407D01*
X33888343Y-42898372D01*
X33946323Y-43014814D01*
X33946325Y-43014818D01*
X33946327Y-43014821D01*
X34069236Y-43177579D01*
X34219959Y-43314981D01*
X34393363Y-43422348D01*
X34583544Y-43496024D01*
X34784024Y-43533500D01*
X34987976Y-43533500D01*
X35188456Y-43496024D01*
X35378637Y-43422348D01*
X35552041Y-43314981D01*
X35702764Y-43177579D01*
X35825673Y-43014821D01*
X35916582Y-42832250D01*
X35972397Y-42636083D01*
X35991215Y-42433000D01*
X35972397Y-42229917D01*
X35916582Y-42033750D01*
X35825673Y-41851179D01*
X35702764Y-41688421D01*
X35552041Y-41551019D01*
X35378637Y-41443652D01*
X35188456Y-41369976D01*
X35188455Y-41369975D01*
X35188453Y-41369975D01*
X34987976Y-41332500D01*
X34784024Y-41332500D01*
X34583546Y-41369975D01*
X34520229Y-41394504D01*
X34393363Y-41443652D01*
X34264958Y-41523157D01*
X34219959Y-41551019D01*
X34069237Y-41688420D01*
X33946328Y-41851177D01*
X33946323Y-41851185D01*
X33903281Y-41937628D01*
X33860419Y-41981290D01*
X33814660Y-41992500D01*
X32652809Y-41992500D01*
X32594618Y-41973593D01*
X32564188Y-41937628D01*
X32513676Y-41836185D01*
X32513675Y-41836184D01*
X32513673Y-41836179D01*
X32390764Y-41673421D01*
X32240041Y-41536019D01*
X32066637Y-41428652D01*
X31876456Y-41354976D01*
X31876455Y-41354975D01*
X31876453Y-41354975D01*
X31675976Y-41317500D01*
X31472024Y-41317500D01*
X31271546Y-41354975D01*
X31260106Y-41359407D01*
X31081363Y-41428652D01*
X30907959Y-41536019D01*
X30757236Y-41673421D01*
X30725787Y-41715066D01*
X30634328Y-41836177D01*
X30634323Y-41836186D01*
X30543419Y-42018747D01*
X30543418Y-42018750D01*
X30495785Y-42186160D01*
X30487603Y-42214917D01*
X30473067Y-42371794D01*
X30468785Y-42418000D01*
X29552500Y-42418000D01*
X29552500Y-39878000D01*
X30468785Y-39878000D01*
X30487603Y-40081083D01*
X30543418Y-40277250D01*
X30634327Y-40459821D01*
X30757236Y-40622579D01*
X30907959Y-40759981D01*
X31081363Y-40867348D01*
X31271544Y-40941024D01*
X31472024Y-40978500D01*
X31675976Y-40978500D01*
X31876456Y-40941024D01*
X32066637Y-40867348D01*
X32240041Y-40759981D01*
X32390764Y-40622579D01*
X32513673Y-40459821D01*
X32564188Y-40358371D01*
X32607050Y-40314710D01*
X32652809Y-40303500D01*
X33799722Y-40303500D01*
X33857913Y-40322407D01*
X33888343Y-40358372D01*
X33946323Y-40474814D01*
X33946325Y-40474818D01*
X33946327Y-40474821D01*
X34069236Y-40637579D01*
X34219959Y-40774981D01*
X34393363Y-40882348D01*
X34583544Y-40956024D01*
X34784024Y-40993500D01*
X34987976Y-40993500D01*
X35188456Y-40956024D01*
X35378637Y-40882348D01*
X35552041Y-40774981D01*
X35702764Y-40637579D01*
X35825673Y-40474821D01*
X35916582Y-40292250D01*
X35972397Y-40096083D01*
X35991215Y-39893000D01*
X35972397Y-39689917D01*
X35916582Y-39493750D01*
X35825673Y-39311179D01*
X35702764Y-39148421D01*
X35552041Y-39011019D01*
X35378637Y-38903652D01*
X35188456Y-38829976D01*
X35188455Y-38829975D01*
X35188453Y-38829975D01*
X34987976Y-38792500D01*
X34784024Y-38792500D01*
X34583546Y-38829975D01*
X34523549Y-38853218D01*
X34393363Y-38903652D01*
X34244185Y-38996019D01*
X34219959Y-39011019D01*
X34070646Y-39147136D01*
X34069236Y-39148421D01*
X34062933Y-39156768D01*
X33946328Y-39311177D01*
X33946323Y-39311185D01*
X33923218Y-39357588D01*
X33909273Y-39385595D01*
X33903281Y-39397628D01*
X33860419Y-39441290D01*
X33814660Y-39452500D01*
X32652809Y-39452500D01*
X32594618Y-39433593D01*
X32564188Y-39397628D01*
X32558196Y-39385595D01*
X32513673Y-39296179D01*
X32390764Y-39133421D01*
X32240041Y-38996019D01*
X32066637Y-38888652D01*
X31876456Y-38814976D01*
X31876455Y-38814975D01*
X31876453Y-38814975D01*
X31675976Y-38777500D01*
X31472024Y-38777500D01*
X31271546Y-38814975D01*
X31220181Y-38834874D01*
X31081363Y-38888652D01*
X30933684Y-38980091D01*
X30907959Y-38996019D01*
X30773196Y-39118872D01*
X30757236Y-39133421D01*
X30745910Y-39148419D01*
X30634328Y-39296177D01*
X30634323Y-39296186D01*
X30543419Y-39478747D01*
X30543418Y-39478750D01*
X30487603Y-39674917D01*
X30468785Y-39878000D01*
X29552500Y-39878000D01*
X29552500Y-37338000D01*
X30468785Y-37338000D01*
X30487603Y-37541083D01*
X30543418Y-37737250D01*
X30634327Y-37919821D01*
X30757236Y-38082579D01*
X30907959Y-38219981D01*
X31081363Y-38327348D01*
X31271544Y-38401024D01*
X31472024Y-38438500D01*
X31675976Y-38438500D01*
X31876456Y-38401024D01*
X32066637Y-38327348D01*
X32240041Y-38219981D01*
X32390764Y-38082579D01*
X32513673Y-37919821D01*
X32604582Y-37737250D01*
X32660397Y-37541083D01*
X32679215Y-37338000D01*
X32660397Y-37134917D01*
X32604582Y-36938750D01*
X32513673Y-36756179D01*
X32390764Y-36593421D01*
X32240041Y-36456019D01*
X32066637Y-36348652D01*
X32066633Y-36348650D01*
X32066631Y-36348649D01*
X32062730Y-36347138D01*
X32015302Y-36308483D01*
X31999500Y-36254826D01*
X31999500Y-35802255D01*
X32018407Y-35744064D01*
X32028490Y-35732257D01*
X34358252Y-33402494D01*
X34412769Y-33374718D01*
X34428256Y-33373499D01*
X35730861Y-33373499D01*
X35730864Y-33373499D01*
X35755991Y-33370585D01*
X35858765Y-33325206D01*
X35938206Y-33245765D01*
X35983585Y-33142991D01*
X35986500Y-33117865D01*
X35986499Y-31428136D01*
X35983585Y-31403009D01*
X35938206Y-31300235D01*
X35858765Y-31220794D01*
X35755991Y-31175415D01*
X35755990Y-31175414D01*
X35755988Y-31175414D01*
X35730868Y-31172500D01*
X34041139Y-31172500D01*
X34041136Y-31172501D01*
X34016009Y-31175414D01*
X33913235Y-31220794D01*
X33833794Y-31300235D01*
X33788414Y-31403011D01*
X33785500Y-31428130D01*
X33785500Y-32730743D01*
X33766593Y-32788934D01*
X33756504Y-32800747D01*
X31320779Y-35236472D01*
X31225472Y-35331778D01*
X31225470Y-35331782D01*
X31213614Y-35355050D01*
X31205500Y-35368291D01*
X31190150Y-35389418D01*
X31182081Y-35414253D01*
X31176138Y-35428601D01*
X31164281Y-35451872D01*
X31160196Y-35477665D01*
X31156571Y-35492765D01*
X31148500Y-35517606D01*
X31148500Y-36254826D01*
X31129593Y-36313017D01*
X31085270Y-36347138D01*
X31081368Y-36348649D01*
X31081365Y-36348651D01*
X31081364Y-36348651D01*
X31081363Y-36348652D01*
X30995437Y-36401855D01*
X30907959Y-36456019D01*
X30757237Y-36593420D01*
X30634328Y-36756177D01*
X30634323Y-36756186D01*
X30543419Y-36938747D01*
X30543418Y-36938750D01*
X30524427Y-37005496D01*
X30487603Y-37134917D01*
X30472036Y-37302920D01*
X30468785Y-37338000D01*
X29552500Y-37338000D01*
X29552500Y-30589500D01*
X29571407Y-30531309D01*
X29620907Y-30495345D01*
X29651500Y-30490500D01*
X75094744Y-30490500D01*
X75152935Y-30509407D01*
G37*
%TD.AperFunction*%
%TD*%
M02*
