M48
; DRILL file {KiCad 7.0.7} date 2023 October 06, Friday 22:38:39
; FORMAT={-:-/ absolute / inch / decimal}
; #@! TF.CreationDate,2023-10-06T22:38:39+01:00
; #@! TF.GenerationSoftware,Kicad,Pcbnew,7.0.7
; #@! TF.FileFunction,MixedPlating,1,2
FMAT,2
INCH
; #@! TA.AperFunction,Plated,PTH,ViaDrill
T1C0.0157
; #@! TA.AperFunction,Plated,PTH,ComponentDrill
T2C0.0300
; #@! TA.AperFunction,Plated,PTH,ComponentDrill
T3C0.0315
; #@! TA.AperFunction,Plated,PTH,ComponentDrill
T4C0.0394
; #@! TA.AperFunction,NonPlated,NPTH,ComponentDrill
T5C0.0197
%
G90
G05
T1
X1.2126Y-2.1575
X1.2126Y-3.2756
X1.2126Y-4.3937
X1.2131Y-1.25
X1.2131Y-2.3681
X1.2131Y-3.4862
X1.4646Y-2.063
X1.4646Y-3.1811
X1.4646Y-4.2992
X1.5039Y-2.063
X1.5039Y-3.1811
X1.5039Y-4.2992
X1.5831Y-2.063
X1.5831Y-3.1811
X1.5831Y-4.2992
X1.7618Y-1.2598
X1.7618Y-1.3681
X1.7618Y-1.4429
X1.7618Y-1.5335
X1.7618Y-1.6063
X1.7618Y-1.7028
X1.7618Y-1.7815
X1.7618Y-1.8602
X1.7618Y-1.939
X1.7618Y-2.0177
X1.7618Y-2.1181
X1.7618Y-2.378
X1.7618Y-2.4862
X1.7618Y-2.561
X1.7618Y-2.6516
X1.7618Y-2.7244
X1.7618Y-2.8209
X1.7618Y-2.8996
X1.7618Y-2.9783
X1.7618Y-3.0571
X1.7618Y-3.1358
X1.7618Y-3.2362
X1.7618Y-3.4961
X1.7618Y-3.6043
X1.7618Y-3.6791
X1.7618Y-3.7697
X1.7618Y-3.8425
X1.7618Y-3.939
X1.7618Y-4.0177
X1.7618Y-4.0965
X1.7618Y-4.1752
X1.7618Y-4.2539
X1.7618Y-4.3543
X1.8583Y-1.7795
X1.8583Y-2.8976
X1.8583Y-4.0157
X1.878Y-1.5197
X1.878Y-2.6378
X1.878Y-3.7559
X1.8819Y-1.622
X1.8819Y-2.7402
X1.8819Y-3.8583
X1.9104Y-1.8937
X1.9104Y-3.0118
X1.9104Y-4.1299
X2.063Y-1.7756
X2.063Y-1.815
X2.063Y-2.8937
X2.063Y-2.9331
X2.063Y-4.0118
X2.063Y-4.0512
X2.0958Y-1.6526
X2.0958Y-2.7707
X2.0958Y-3.8888
X2.46Y-1.25
X2.46Y-2.3681
X2.46Y-3.4862
X3.0197Y-1.9606
X3.0197Y-3.0787
X3.0197Y-4.1969
X3.122Y-1.9291
X3.122Y-3.0472
X3.122Y-4.1654
X3.2189Y-1.9006
X3.2189Y-3.0187
X3.2189Y-4.1368
X3.374Y-2.0039
X3.374Y-3.122
X3.374Y-4.2402
X3.73Y-2.0039
X3.73Y-3.122
X3.73Y-4.2402
X3.88Y-2.0
X3.88Y-2.04
X3.88Y-3.1181
X3.88Y-3.1581
X3.88Y-4.2362
X3.88Y-4.2762
X4.3386Y-2.0
X4.3386Y-2.04
X4.3386Y-3.1181
X4.3386Y-3.1581
X4.3386Y-4.2362
X4.3386Y-4.2762
X4.34Y-1.92
X4.34Y-3.0381
X4.34Y-4.1562
X4.44Y-1.92
X4.44Y-3.0381
X4.44Y-4.1562
X4.54Y-2.16
X4.54Y-3.2781
X4.54Y-4.3962
T2
X1.8524Y-1.2681
X1.8524Y-1.3681
X1.8524Y-2.0181
X1.8524Y-2.3862
X1.8524Y-2.4862
X1.8524Y-3.1362
X1.8524Y-3.5043
X1.8524Y-3.6043
X1.8524Y-4.2543
X1.9524Y-2.0181
X1.9524Y-3.1362
X1.9524Y-4.2543
X2.2524Y-2.0181
X2.2524Y-3.1362
X2.2524Y-4.2543
X2.3524Y-1.2681
X2.3524Y-1.3681
X2.3524Y-2.0181
X2.3524Y-2.3862
X2.3524Y-2.4862
X2.3524Y-3.1362
X2.3524Y-3.5043
X2.3524Y-3.6043
X2.3524Y-4.2543
T3
X1.2431Y-1.47
X1.2431Y-1.57
X1.2431Y-1.67
X1.2431Y-1.77
X1.2431Y-1.87
X1.2431Y-2.5881
X1.2431Y-2.6881
X1.2431Y-2.7881
X1.2431Y-2.8881
X1.2431Y-2.9881
X1.2431Y-3.7062
X1.2431Y-3.8062
X1.2431Y-3.9062
X1.2431Y-4.0062
X1.2431Y-4.1062
X1.3735Y-1.2706
X1.3735Y-1.3706
X1.3735Y-1.4706
X1.3735Y-1.5706
X1.3735Y-1.6706
X1.3735Y-1.7706
X1.3735Y-1.8706
X1.3735Y-1.9706
X1.3735Y-2.3887
X1.3735Y-2.4887
X1.3735Y-2.5887
X1.3735Y-2.6887
X1.3735Y-2.7887
X1.3735Y-2.8887
X1.3735Y-2.9887
X1.3735Y-3.0887
X1.3735Y-3.5068
X1.3735Y-3.6068
X1.3735Y-3.7068
X1.3735Y-3.8068
X1.3735Y-3.9068
X1.3735Y-4.0068
X1.3735Y-4.1068
X1.3735Y-4.2068
X1.6735Y-1.2706
X1.6735Y-1.3706
X1.6735Y-1.4706
X1.6735Y-1.5706
X1.6735Y-1.6706
X1.6735Y-1.7706
X1.6735Y-1.8706
X1.6735Y-1.9706
X1.6735Y-2.3887
X1.6735Y-2.4887
X1.6735Y-2.5887
X1.6735Y-2.6887
X1.6735Y-2.7887
X1.6735Y-2.8887
X1.6735Y-2.9887
X1.6735Y-3.0887
X1.6735Y-3.5068
X1.6735Y-3.6068
X1.6735Y-3.7068
X1.6735Y-3.8068
X1.6735Y-3.9068
X1.6735Y-4.0068
X1.6735Y-4.1068
X1.6735Y-4.2068
X2.46Y-1.53
X2.46Y-1.63
X2.46Y-1.73
X2.46Y-1.83
X2.46Y-1.93
X2.46Y-2.6481
X2.46Y-2.7481
X2.46Y-2.8481
X2.46Y-2.9481
X2.46Y-3.0481
X2.46Y-3.7662
X2.46Y-3.8662
X2.46Y-3.9662
X2.46Y-4.0662
X2.46Y-4.1662
X2.6189Y-1.8307
X2.6189Y-2.1307
X2.6189Y-2.9488
X2.6189Y-3.2488
X2.6189Y-4.0669
X2.6189Y-4.3669
X2.62Y-1.41
X2.62Y-1.71
X2.62Y-2.5281
X2.62Y-2.8281
X2.62Y-3.6462
X2.62Y-3.9462
X2.7189Y-1.8307
X2.7189Y-2.1307
X2.7189Y-2.9488
X2.7189Y-3.2488
X2.7189Y-4.0669
X2.7189Y-4.3669
X2.72Y-1.41
X2.72Y-1.71
X2.72Y-2.5281
X2.72Y-2.8281
X2.72Y-3.6462
X2.72Y-3.9462
X2.8189Y-1.8307
X2.8189Y-2.1307
X2.8189Y-2.9488
X2.8189Y-3.2488
X2.8189Y-4.0669
X2.8189Y-4.3669
X2.82Y-1.41
X2.82Y-1.71
X2.82Y-2.5281
X2.82Y-2.8281
X2.82Y-3.6462
X2.82Y-3.9462
X2.9189Y-1.8307
X2.9189Y-2.1307
X2.9189Y-2.9488
X2.9189Y-3.2488
X2.9189Y-4.0669
X2.9189Y-4.3669
X2.92Y-1.41
X2.92Y-1.71
X2.92Y-2.5281
X2.92Y-2.8281
X2.92Y-3.6462
X2.92Y-3.9462
X3.0189Y-1.8307
X3.0189Y-2.1307
X3.0189Y-2.9488
X3.0189Y-3.2488
X3.0189Y-4.0669
X3.0189Y-4.3669
X3.02Y-1.41
X3.02Y-1.71
X3.02Y-2.5281
X3.02Y-2.8281
X3.02Y-3.6462
X3.02Y-3.9462
X3.1189Y-1.8307
X3.1189Y-2.1307
X3.1189Y-2.9488
X3.1189Y-3.2488
X3.1189Y-4.0669
X3.1189Y-4.3669
X3.12Y-1.41
X3.12Y-1.71
X3.12Y-2.5281
X3.12Y-2.8281
X3.12Y-3.6462
X3.12Y-3.9462
X3.2189Y-1.8307
X3.2189Y-2.1307
X3.2189Y-2.9488
X3.2189Y-3.2488
X3.2189Y-4.0669
X3.2189Y-4.3669
X3.22Y-1.41
X3.22Y-1.71
X3.22Y-2.5281
X3.22Y-2.8281
X3.22Y-3.6462
X3.22Y-3.9462
X3.3189Y-1.8307
X3.3189Y-2.1307
X3.3189Y-2.9488
X3.3189Y-3.2488
X3.3189Y-4.0669
X3.3189Y-4.3669
X3.32Y-1.41
X3.32Y-1.71
X3.32Y-2.5281
X3.32Y-2.8281
X3.32Y-3.6462
X3.32Y-3.9462
X3.4658Y-1.38
X3.4658Y-1.48
X3.4658Y-1.58
X3.4658Y-2.4981
X3.4658Y-2.5981
X3.4658Y-2.6981
X3.4658Y-3.6162
X3.4658Y-3.7162
X3.4658Y-3.8162
X3.48Y-1.73
X3.48Y-2.13
X3.48Y-2.8481
X3.48Y-3.2481
X3.48Y-3.9662
X3.48Y-4.3662
X3.65Y-1.73
X3.65Y-2.13
X3.65Y-2.8481
X3.65Y-3.2481
X3.65Y-3.9662
X3.65Y-4.3662
X3.67Y-1.44
X3.67Y-1.54
X3.67Y-1.64
X3.67Y-2.5581
X3.67Y-2.6581
X3.67Y-2.7581
X3.67Y-3.6762
X3.67Y-3.7762
X3.67Y-3.8762
X3.8098Y-1.8296
X3.8098Y-2.1296
X3.8098Y-2.9477
X3.8098Y-3.2477
X3.8098Y-4.0658
X3.8098Y-4.3658
X3.8106Y-1.4096
X3.8106Y-1.7096
X3.8106Y-2.5277
X3.8106Y-2.8277
X3.8106Y-3.6458
X3.8106Y-3.9458
X3.9098Y-1.8296
X3.9098Y-2.1296
X3.9098Y-2.9477
X3.9098Y-3.2477
X3.9098Y-4.0658
X3.9098Y-4.3658
X3.9106Y-1.4096
X3.9106Y-1.7096
X3.9106Y-2.5277
X3.9106Y-2.8277
X3.9106Y-3.6458
X3.9106Y-3.9458
X4.0098Y-1.8296
X4.0098Y-2.1296
X4.0098Y-2.9477
X4.0098Y-3.2477
X4.0098Y-4.0658
X4.0098Y-4.3658
X4.0106Y-1.4096
X4.0106Y-1.7096
X4.0106Y-2.5277
X4.0106Y-2.8277
X4.0106Y-3.6458
X4.0106Y-3.9458
X4.1098Y-1.8296
X4.1098Y-2.1296
X4.1098Y-2.9477
X4.1098Y-3.2477
X4.1098Y-4.0658
X4.1098Y-4.3658
X4.1106Y-1.4096
X4.1106Y-1.7096
X4.1106Y-2.5277
X4.1106Y-2.8277
X4.1106Y-3.6458
X4.1106Y-3.9458
X4.2098Y-1.8296
X4.2098Y-2.1296
X4.2098Y-2.9477
X4.2098Y-3.2477
X4.2098Y-4.0658
X4.2098Y-4.3658
X4.2106Y-1.4096
X4.2106Y-1.7096
X4.2106Y-2.5277
X4.2106Y-2.8277
X4.2106Y-3.6458
X4.2106Y-3.9458
X4.3098Y-1.8296
X4.3098Y-2.1296
X4.3098Y-2.9477
X4.3098Y-3.2477
X4.3098Y-4.0658
X4.3098Y-4.3658
X4.3106Y-1.4096
X4.3106Y-1.7096
X4.3106Y-2.5277
X4.3106Y-2.8277
X4.3106Y-3.6458
X4.3106Y-3.9458
X4.4098Y-1.8296
X4.4098Y-2.1296
X4.4098Y-2.9477
X4.4098Y-3.2477
X4.4098Y-4.0658
X4.4098Y-4.3658
X4.4106Y-1.4096
X4.4106Y-1.7096
X4.4106Y-2.5277
X4.4106Y-2.8277
X4.4106Y-3.6458
X4.4106Y-3.9458
X4.5106Y-1.4096
X4.5106Y-1.7096
X4.5106Y-2.5277
X4.5106Y-2.8277
X4.5106Y-3.6458
X4.5106Y-3.9458
T4
X2.06Y-2.13
X2.06Y-3.2481
X2.06Y-4.3662
X2.16Y-2.13
X2.16Y-3.2481
X2.16Y-4.3662
X2.26Y-2.13
X2.26Y-3.2481
X2.26Y-4.3662
X2.36Y-2.13
X2.36Y-3.2481
X2.36Y-4.3662
X2.46Y-2.13
X2.46Y-3.2481
X2.46Y-4.3662
X2.62Y-1.27
X2.62Y-2.3881
X2.62Y-3.5062
X2.72Y-1.27
X2.72Y-2.3881
X2.72Y-3.5062
X2.82Y-1.27
X2.82Y-2.3881
X2.82Y-3.5062
X2.92Y-1.27
X2.92Y-2.3881
X2.92Y-3.5062
X3.02Y-1.27
X3.02Y-2.3881
X3.02Y-3.5062
X3.12Y-1.27
X3.12Y-2.3881
X3.12Y-3.5062
X3.22Y-1.27
X3.22Y-2.3881
X3.22Y-3.5062
X3.32Y-1.27
X3.32Y-2.3881
X3.32Y-3.5062
X3.42Y-1.27
X3.42Y-2.3881
X3.42Y-3.5062
X3.52Y-1.27
X3.52Y-2.3881
X3.52Y-3.5062
X3.62Y-1.27
X3.62Y-2.3881
X3.62Y-3.5062
X3.72Y-1.27
X3.72Y-2.3881
X3.72Y-3.5062
X3.82Y-1.27
X3.82Y-2.3881
X3.82Y-3.5062
X3.92Y-1.27
X3.92Y-2.3881
X3.92Y-3.5062
X4.02Y-1.27
X4.02Y-2.3881
X4.02Y-3.5062
X4.12Y-1.27
X4.12Y-2.3881
X4.12Y-3.5062
X4.22Y-1.27
X4.22Y-2.3881
X4.22Y-3.5062
X4.32Y-1.27
X4.32Y-2.3881
X4.32Y-3.5062
X4.42Y-1.27
X4.42Y-2.3881
X4.42Y-3.5062
X4.52Y-1.27
X4.52Y-2.3881
X4.52Y-3.5062
T5
X1.4602Y-2.2
X1.4602Y-2.3181
X1.4602Y-3.3181
X1.4602Y-3.4362
X1.4897Y-2.3181
X1.4897Y-3.4362
X1.4902Y-2.2
X1.4902Y-3.3181
X1.5197Y-2.2
X1.5197Y-2.3181
X1.5197Y-3.3181
X1.5197Y-3.4362
X1.5492Y-2.2
X1.5492Y-2.3181
X1.5492Y-3.3181
X1.5492Y-3.4362
X1.5797Y-2.2
X1.5797Y-2.3181
X1.5797Y-3.3181
X1.5797Y-3.4362
X2.3657Y-2.2
X2.3657Y-2.3181
X2.3657Y-3.3181
X2.3657Y-3.4362
X2.3952Y-2.3181
X2.3952Y-3.4362
X2.3957Y-2.2
X2.3957Y-3.3181
X2.4252Y-2.2
X2.4252Y-2.3181
X2.4252Y-3.3181
X2.4252Y-3.4362
X2.4547Y-2.2
X2.4547Y-2.3181
X2.4547Y-3.3181
X2.4547Y-3.4362
X2.4852Y-2.2
X2.4852Y-2.3181
X2.4852Y-3.3181
X2.4852Y-3.4362
X3.2712Y-2.2
X3.2712Y-2.3181
X3.2712Y-3.3181
X3.2712Y-3.4362
X3.3007Y-2.3181
X3.3007Y-3.4362
X3.3012Y-2.2
X3.3012Y-3.3181
X3.3307Y-2.2
X3.3307Y-2.3181
X3.3307Y-3.3181
X3.3307Y-3.4362
X3.3602Y-2.2
X3.3602Y-2.3181
X3.3602Y-3.3181
X3.3602Y-3.4362
X3.3907Y-2.2
X3.3907Y-2.3181
X3.3907Y-3.3181
X3.3907Y-3.4362
X4.1767Y-2.2
X4.1767Y-2.3181
X4.1767Y-3.3181
X4.1767Y-3.4362
X4.2062Y-2.3181
X4.2062Y-3.4362
X4.2067Y-2.2
X4.2067Y-3.3181
X4.2362Y-2.2
X4.2362Y-2.3181
X4.2362Y-3.3181
X4.2362Y-3.4362
X4.2657Y-2.2
X4.2657Y-2.3181
X4.2657Y-3.3181
X4.2657Y-3.4362
X4.2962Y-2.2
X4.2962Y-2.3181
X4.2962Y-3.3181
X4.2962Y-3.4362
T0
M30
