%TF.GenerationSoftware,KiCad,Pcbnew,7.0.7*%
%TF.CreationDate,2023-10-06T22:38:46+01:00*%
%TF.ProjectId,nixie-controller-breakaway-panelized,6e697869-652d-4636-9f6e-74726f6c6c65,rev?*%
%TF.SameCoordinates,Original*%
%TF.FileFunction,Soldermask,Bot*%
%TF.FilePolarity,Negative*%
%FSLAX46Y46*%
G04 Gerber Fmt 4.6, Leading zero omitted, Abs format (unit mm)*
G04 Created by KiCad (PCBNEW 7.0.7) date 2023-10-06 22:38:46*
%MOMM*%
%LPD*%
G01*
G04 APERTURE LIST*
G04 Aperture macros list*
%AMRoundRect*
0 Rectangle with rounded corners*
0 $1 Rounding radius*
0 $2 $3 $4 $5 $6 $7 $8 $9 X,Y pos of 4 corners*
0 Add a 4 corners polygon primitive as box body*
4,1,4,$2,$3,$4,$5,$6,$7,$8,$9,$2,$3,0*
0 Add four circle primitives for the rounded corners*
1,1,$1+$1,$2,$3*
1,1,$1+$1,$4,$5*
1,1,$1+$1,$6,$7*
1,1,$1+$1,$8,$9*
0 Add four rect primitives between the rounded corners*
20,1,$1+$1,$2,$3,$4,$5,0*
20,1,$1+$1,$4,$5,$6,$7,0*
20,1,$1+$1,$6,$7,$8,$9,0*
20,1,$1+$1,$8,$9,$2,$3,0*%
G04 Aperture macros list end*
%ADD10C,0.500000*%
%ADD11RoundRect,0.250000X0.650000X-0.350000X0.650000X0.350000X-0.650000X0.350000X-0.650000X-0.350000X0*%
%ADD12RoundRect,0.150000X0.625000X-0.150000X0.625000X0.150000X-0.625000X0.150000X-0.625000X-0.150000X0*%
%ADD13RoundRect,0.250000X-0.650000X0.350000X-0.650000X-0.350000X0.650000X-0.350000X0.650000X0.350000X0*%
%ADD14RoundRect,0.150000X-0.625000X0.150000X-0.625000X-0.150000X0.625000X-0.150000X0.625000X0.150000X0*%
%ADD15O,1.700000X1.700000*%
%ADD16R,1.700000X1.700000*%
%ADD17RoundRect,0.250000X0.350000X0.650000X-0.350000X0.650000X-0.350000X-0.650000X0.350000X-0.650000X0*%
%ADD18RoundRect,0.150000X0.150000X0.625000X-0.150000X0.625000X-0.150000X-0.625000X0.150000X-0.625000X0*%
%ADD19C,1.500000*%
%ADD20R,1.500000X1.500000*%
%ADD21O,1.600000X1.600000*%
%ADD22R,1.600000X1.600000*%
%ADD23C,1.600000*%
%ADD24C,1.524000*%
G04 APERTURE END LIST*
D10*
%TO.C,mouse-bite-3mm-slot*%
X37088000Y-55880000D03*
X37088000Y-58880000D03*
X37838000Y-58880000D03*
X37850000Y-55880000D03*
X38600000Y-55880000D03*
X38600000Y-58880000D03*
X39350000Y-55880000D03*
X39350000Y-58880000D03*
X40124000Y-55880000D03*
X40124000Y-58880000D03*
%TD*%
%TO.C,mouse-bite-3mm-slot7*%
X106088000Y-84280000D03*
X106088000Y-87280000D03*
X106838000Y-87280000D03*
X106850000Y-84280000D03*
X107600000Y-84280000D03*
X107600000Y-87280000D03*
X108350000Y-84280000D03*
X108350000Y-87280000D03*
X109124000Y-84280000D03*
X109124000Y-87280000D03*
%TD*%
%TO.C,mouse-bite-3mm-slot6*%
X83088000Y-84280000D03*
X83088000Y-87280000D03*
X83838000Y-87280000D03*
X83850000Y-84280000D03*
X84600000Y-84280000D03*
X84600000Y-87280000D03*
X85350000Y-84280000D03*
X85350000Y-87280000D03*
X86124000Y-84280000D03*
X86124000Y-87280000D03*
%TD*%
%TO.C,mouse-bite-3mm-slot5*%
X60088000Y-84280000D03*
X60088000Y-87280000D03*
X60838000Y-87280000D03*
X60850000Y-84280000D03*
X61600000Y-84280000D03*
X61600000Y-87280000D03*
X62350000Y-84280000D03*
X62350000Y-87280000D03*
X63124000Y-84280000D03*
X63124000Y-87280000D03*
%TD*%
%TO.C,mouse-bite-3mm-slot4*%
X37088000Y-84280000D03*
X37088000Y-87280000D03*
X37838000Y-87280000D03*
X37850000Y-84280000D03*
X38600000Y-84280000D03*
X38600000Y-87280000D03*
X39350000Y-84280000D03*
X39350000Y-87280000D03*
X40124000Y-84280000D03*
X40124000Y-87280000D03*
%TD*%
%TO.C,mouse-bite-3mm-slot3*%
X106088000Y-55880000D03*
X106088000Y-58880000D03*
X106838000Y-58880000D03*
X106850000Y-55880000D03*
X107600000Y-55880000D03*
X107600000Y-58880000D03*
X108350000Y-55880000D03*
X108350000Y-58880000D03*
X109124000Y-55880000D03*
X109124000Y-58880000D03*
%TD*%
%TO.C,mouse-bite-3mm-slot2*%
X83088000Y-55880000D03*
X83088000Y-58880000D03*
X83838000Y-58880000D03*
X83850000Y-55880000D03*
X84600000Y-55880000D03*
X84600000Y-58880000D03*
X85350000Y-55880000D03*
X85350000Y-58880000D03*
X86124000Y-55880000D03*
X86124000Y-58880000D03*
%TD*%
%TO.C,mouse-bite-3mm-slot1*%
X60088000Y-55880000D03*
X60088000Y-58880000D03*
X60838000Y-58880000D03*
X60850000Y-55880000D03*
X61600000Y-55880000D03*
X61600000Y-58880000D03*
X62350000Y-55880000D03*
X62350000Y-58880000D03*
X63124000Y-55880000D03*
X63124000Y-58880000D03*
%TD*%
D11*
%TO.C,J4*%
X47225000Y-100600000D03*
X47225000Y-106200000D03*
D12*
X51100000Y-101900000D03*
X51100000Y-102900000D03*
X51100000Y-103900000D03*
X51100000Y-104900000D03*
%TD*%
D13*
%TO.C,J2*%
X115413000Y-109892000D03*
X115413000Y-104292000D03*
D14*
X111538000Y-108592000D03*
X111538000Y-107592000D03*
X111538000Y-106592000D03*
X111538000Y-105592000D03*
%TD*%
D15*
%TO.C,J1*%
X52324000Y-110902000D03*
X54864000Y-110902000D03*
X57404000Y-110902000D03*
X59944000Y-110902000D03*
D16*
X62484000Y-110902000D03*
%TD*%
D17*
%TO.C,J5*%
X35886000Y-111507000D03*
X41486000Y-111507000D03*
D18*
X37186000Y-107632000D03*
X38186000Y-107632000D03*
X39186000Y-107632000D03*
X40186000Y-107632000D03*
%TD*%
D15*
%TO.C,J3*%
X66548000Y-89058000D03*
X69088000Y-89058000D03*
X71628000Y-89058000D03*
X74168000Y-89058000D03*
X76708000Y-89058000D03*
X79248000Y-89058000D03*
X81788000Y-89058000D03*
X84328000Y-89058000D03*
X86868000Y-89058000D03*
X89408000Y-89058000D03*
X91948000Y-89058000D03*
X94488000Y-89058000D03*
X97028000Y-89058000D03*
X99568000Y-89058000D03*
X102108000Y-89058000D03*
X104648000Y-89058000D03*
X107188000Y-89058000D03*
X109728000Y-89058000D03*
X112268000Y-89058000D03*
D16*
X114808000Y-89058000D03*
%TD*%
D19*
%TO.C,Q2*%
X88032000Y-96932000D03*
X88032000Y-94392000D03*
D20*
X88032000Y-91852000D03*
%TD*%
D21*
%TO.C,U3*%
X84300000Y-110920000D03*
X81760000Y-110920000D03*
X79220000Y-110920000D03*
X76680000Y-110920000D03*
X74140000Y-110920000D03*
X71600000Y-110920000D03*
X69060000Y-110920000D03*
X66520000Y-110920000D03*
X66520000Y-103300000D03*
X69060000Y-103300000D03*
X71600000Y-103300000D03*
X74140000Y-103300000D03*
X76680000Y-103300000D03*
X79220000Y-103300000D03*
X81760000Y-103300000D03*
D22*
X84300000Y-103300000D03*
%TD*%
D21*
%TO.C,R1*%
X92710000Y-100742000D03*
D23*
X92710000Y-110902000D03*
%TD*%
D21*
%TO.C,U4*%
X66548000Y-92614000D03*
X69088000Y-92614000D03*
X71628000Y-92614000D03*
X74168000Y-92614000D03*
X76708000Y-92614000D03*
X79248000Y-92614000D03*
X81788000Y-92614000D03*
X84328000Y-92614000D03*
X84328000Y-100234000D03*
X81788000Y-100234000D03*
X79248000Y-100234000D03*
X76708000Y-100234000D03*
X74168000Y-100234000D03*
X71628000Y-100234000D03*
X69088000Y-100234000D03*
D22*
X66548000Y-100234000D03*
%TD*%
D21*
%TO.C,RN1*%
X62484000Y-95662000D03*
X62484000Y-98202000D03*
X62484000Y-100742000D03*
X62484000Y-103282000D03*
D22*
X62484000Y-105822000D03*
%TD*%
D21*
%TO.C,U2*%
X96789000Y-92604000D03*
X99329000Y-92604000D03*
X101869000Y-92604000D03*
X104409000Y-92604000D03*
X106949000Y-92604000D03*
X109489000Y-92604000D03*
X112029000Y-92604000D03*
X114569000Y-92604000D03*
X114569000Y-100224000D03*
X112029000Y-100224000D03*
X109489000Y-100224000D03*
X106949000Y-100224000D03*
X104409000Y-100224000D03*
X101869000Y-100224000D03*
X99329000Y-100224000D03*
D22*
X96789000Y-100224000D03*
%TD*%
D21*
%TO.C,RN2*%
X31574000Y-94138000D03*
X31574000Y-96678000D03*
X31574000Y-99218000D03*
X31574000Y-101758000D03*
D22*
X31574000Y-104298000D03*
%TD*%
D21*
%TO.C,U5*%
X42506000Y-89073000D03*
X42506000Y-91613000D03*
X42506000Y-94153000D03*
X42506000Y-96693000D03*
X42506000Y-99233000D03*
X42506000Y-101773000D03*
X42506000Y-104313000D03*
X42506000Y-106853000D03*
X34886000Y-106853000D03*
X34886000Y-104313000D03*
X34886000Y-101773000D03*
X34886000Y-99233000D03*
X34886000Y-96693000D03*
X34886000Y-94153000D03*
X34886000Y-91613000D03*
D22*
X34886000Y-89073000D03*
%TD*%
D21*
%TO.C,R2*%
X88392000Y-100742000D03*
D23*
X88392000Y-110902000D03*
%TD*%
D24*
%TO.C,U6*%
X47050000Y-89010000D03*
X47050000Y-91550000D03*
X57210000Y-108060000D03*
X59750000Y-89010000D03*
X59750000Y-91550000D03*
X59750000Y-108060000D03*
X47050000Y-108060000D03*
X49590000Y-108060000D03*
%TD*%
D21*
%TO.C,U1*%
X96769000Y-103272000D03*
X99309000Y-103272000D03*
X101849000Y-103272000D03*
X104389000Y-103272000D03*
X106929000Y-103272000D03*
X109469000Y-103272000D03*
X112009000Y-103272000D03*
X112009000Y-110892000D03*
X109469000Y-110892000D03*
X106929000Y-110892000D03*
X104389000Y-110892000D03*
X101849000Y-110892000D03*
X99309000Y-110892000D03*
D22*
X96769000Y-110892000D03*
%TD*%
D19*
%TO.C,Q1*%
X93218000Y-93376000D03*
X93218000Y-95916000D03*
D20*
X93218000Y-98456000D03*
%TD*%
D11*
%TO.C,J4*%
X47225000Y-72200000D03*
X47225000Y-77800000D03*
D12*
X51100000Y-73500000D03*
X51100000Y-74500000D03*
X51100000Y-75500000D03*
X51100000Y-76500000D03*
%TD*%
D13*
%TO.C,J2*%
X115413000Y-81492000D03*
X115413000Y-75892000D03*
D14*
X111538000Y-80192000D03*
X111538000Y-79192000D03*
X111538000Y-78192000D03*
X111538000Y-77192000D03*
%TD*%
D15*
%TO.C,J1*%
X52324000Y-82502000D03*
X54864000Y-82502000D03*
X57404000Y-82502000D03*
X59944000Y-82502000D03*
D16*
X62484000Y-82502000D03*
%TD*%
D17*
%TO.C,J5*%
X35886000Y-83107000D03*
X41486000Y-83107000D03*
D18*
X37186000Y-79232000D03*
X38186000Y-79232000D03*
X39186000Y-79232000D03*
X40186000Y-79232000D03*
%TD*%
D15*
%TO.C,J3*%
X66548000Y-60658000D03*
X69088000Y-60658000D03*
X71628000Y-60658000D03*
X74168000Y-60658000D03*
X76708000Y-60658000D03*
X79248000Y-60658000D03*
X81788000Y-60658000D03*
X84328000Y-60658000D03*
X86868000Y-60658000D03*
X89408000Y-60658000D03*
X91948000Y-60658000D03*
X94488000Y-60658000D03*
X97028000Y-60658000D03*
X99568000Y-60658000D03*
X102108000Y-60658000D03*
X104648000Y-60658000D03*
X107188000Y-60658000D03*
X109728000Y-60658000D03*
X112268000Y-60658000D03*
D16*
X114808000Y-60658000D03*
%TD*%
D19*
%TO.C,Q2*%
X88032000Y-68532000D03*
X88032000Y-65992000D03*
D20*
X88032000Y-63452000D03*
%TD*%
D21*
%TO.C,U3*%
X84300000Y-82520000D03*
X81760000Y-82520000D03*
X79220000Y-82520000D03*
X76680000Y-82520000D03*
X74140000Y-82520000D03*
X71600000Y-82520000D03*
X69060000Y-82520000D03*
X66520000Y-82520000D03*
X66520000Y-74900000D03*
X69060000Y-74900000D03*
X71600000Y-74900000D03*
X74140000Y-74900000D03*
X76680000Y-74900000D03*
X79220000Y-74900000D03*
X81760000Y-74900000D03*
D22*
X84300000Y-74900000D03*
%TD*%
D21*
%TO.C,R1*%
X92710000Y-72342000D03*
D23*
X92710000Y-82502000D03*
%TD*%
D21*
%TO.C,U4*%
X66548000Y-64214000D03*
X69088000Y-64214000D03*
X71628000Y-64214000D03*
X74168000Y-64214000D03*
X76708000Y-64214000D03*
X79248000Y-64214000D03*
X81788000Y-64214000D03*
X84328000Y-64214000D03*
X84328000Y-71834000D03*
X81788000Y-71834000D03*
X79248000Y-71834000D03*
X76708000Y-71834000D03*
X74168000Y-71834000D03*
X71628000Y-71834000D03*
X69088000Y-71834000D03*
D22*
X66548000Y-71834000D03*
%TD*%
D21*
%TO.C,RN1*%
X62484000Y-67262000D03*
X62484000Y-69802000D03*
X62484000Y-72342000D03*
X62484000Y-74882000D03*
D22*
X62484000Y-77422000D03*
%TD*%
D21*
%TO.C,U2*%
X96789000Y-64204000D03*
X99329000Y-64204000D03*
X101869000Y-64204000D03*
X104409000Y-64204000D03*
X106949000Y-64204000D03*
X109489000Y-64204000D03*
X112029000Y-64204000D03*
X114569000Y-64204000D03*
X114569000Y-71824000D03*
X112029000Y-71824000D03*
X109489000Y-71824000D03*
X106949000Y-71824000D03*
X104409000Y-71824000D03*
X101869000Y-71824000D03*
X99329000Y-71824000D03*
D22*
X96789000Y-71824000D03*
%TD*%
D21*
%TO.C,RN2*%
X31574000Y-65738000D03*
X31574000Y-68278000D03*
X31574000Y-70818000D03*
X31574000Y-73358000D03*
D22*
X31574000Y-75898000D03*
%TD*%
D21*
%TO.C,U5*%
X42506000Y-60673000D03*
X42506000Y-63213000D03*
X42506000Y-65753000D03*
X42506000Y-68293000D03*
X42506000Y-70833000D03*
X42506000Y-73373000D03*
X42506000Y-75913000D03*
X42506000Y-78453000D03*
X34886000Y-78453000D03*
X34886000Y-75913000D03*
X34886000Y-73373000D03*
X34886000Y-70833000D03*
X34886000Y-68293000D03*
X34886000Y-65753000D03*
X34886000Y-63213000D03*
D22*
X34886000Y-60673000D03*
%TD*%
D21*
%TO.C,R2*%
X88392000Y-72342000D03*
D23*
X88392000Y-82502000D03*
%TD*%
D24*
%TO.C,U6*%
X47050000Y-60610000D03*
X47050000Y-63150000D03*
X57210000Y-79660000D03*
X59750000Y-60610000D03*
X59750000Y-63150000D03*
X59750000Y-79660000D03*
X47050000Y-79660000D03*
X49590000Y-79660000D03*
%TD*%
D21*
%TO.C,U1*%
X96769000Y-74872000D03*
X99309000Y-74872000D03*
X101849000Y-74872000D03*
X104389000Y-74872000D03*
X106929000Y-74872000D03*
X109469000Y-74872000D03*
X112009000Y-74872000D03*
X112009000Y-82492000D03*
X109469000Y-82492000D03*
X106929000Y-82492000D03*
X104389000Y-82492000D03*
X101849000Y-82492000D03*
X99309000Y-82492000D03*
D22*
X96769000Y-82492000D03*
%TD*%
D19*
%TO.C,Q1*%
X93218000Y-64976000D03*
X93218000Y-67516000D03*
D20*
X93218000Y-70056000D03*
%TD*%
D21*
%TO.C,U1*%
X96769000Y-46472000D03*
X99309000Y-46472000D03*
X101849000Y-46472000D03*
X104389000Y-46472000D03*
X106929000Y-46472000D03*
X109469000Y-46472000D03*
X112009000Y-46472000D03*
X112009000Y-54092000D03*
X109469000Y-54092000D03*
X106929000Y-54092000D03*
X104389000Y-54092000D03*
X101849000Y-54092000D03*
X99309000Y-54092000D03*
D22*
X96769000Y-54092000D03*
%TD*%
D19*
%TO.C,Q1*%
X93218000Y-36576000D03*
X93218000Y-39116000D03*
D20*
X93218000Y-41656000D03*
%TD*%
D24*
%TO.C,U6*%
X47050000Y-32210000D03*
X47050000Y-34750000D03*
X57210000Y-51260000D03*
X59750000Y-32210000D03*
X59750000Y-34750000D03*
X59750000Y-51260000D03*
X47050000Y-51260000D03*
X49590000Y-51260000D03*
%TD*%
D21*
%TO.C,R2*%
X88392000Y-43942000D03*
D23*
X88392000Y-54102000D03*
%TD*%
D21*
%TO.C,U5*%
X42506000Y-32273000D03*
X42506000Y-34813000D03*
X42506000Y-37353000D03*
X42506000Y-39893000D03*
X42506000Y-42433000D03*
X42506000Y-44973000D03*
X42506000Y-47513000D03*
X42506000Y-50053000D03*
X34886000Y-50053000D03*
X34886000Y-47513000D03*
X34886000Y-44973000D03*
X34886000Y-42433000D03*
X34886000Y-39893000D03*
X34886000Y-37353000D03*
X34886000Y-34813000D03*
D22*
X34886000Y-32273000D03*
%TD*%
D21*
%TO.C,RN2*%
X31574000Y-37338000D03*
X31574000Y-39878000D03*
X31574000Y-42418000D03*
X31574000Y-44958000D03*
D22*
X31574000Y-47498000D03*
%TD*%
D21*
%TO.C,U2*%
X96789000Y-35804000D03*
X99329000Y-35804000D03*
X101869000Y-35804000D03*
X104409000Y-35804000D03*
X106949000Y-35804000D03*
X109489000Y-35804000D03*
X112029000Y-35804000D03*
X114569000Y-35804000D03*
X114569000Y-43424000D03*
X112029000Y-43424000D03*
X109489000Y-43424000D03*
X106949000Y-43424000D03*
X104409000Y-43424000D03*
X101869000Y-43424000D03*
X99329000Y-43424000D03*
D22*
X96789000Y-43424000D03*
%TD*%
D21*
%TO.C,RN1*%
X62484000Y-38862000D03*
X62484000Y-41402000D03*
X62484000Y-43942000D03*
X62484000Y-46482000D03*
D22*
X62484000Y-49022000D03*
%TD*%
D21*
%TO.C,U4*%
X66548000Y-35814000D03*
X69088000Y-35814000D03*
X71628000Y-35814000D03*
X74168000Y-35814000D03*
X76708000Y-35814000D03*
X79248000Y-35814000D03*
X81788000Y-35814000D03*
X84328000Y-35814000D03*
X84328000Y-43434000D03*
X81788000Y-43434000D03*
X79248000Y-43434000D03*
X76708000Y-43434000D03*
X74168000Y-43434000D03*
X71628000Y-43434000D03*
X69088000Y-43434000D03*
D22*
X66548000Y-43434000D03*
%TD*%
D21*
%TO.C,R1*%
X92710000Y-43942000D03*
D23*
X92710000Y-54102000D03*
%TD*%
D21*
%TO.C,U3*%
X84300000Y-54120000D03*
X81760000Y-54120000D03*
X79220000Y-54120000D03*
X76680000Y-54120000D03*
X74140000Y-54120000D03*
X71600000Y-54120000D03*
X69060000Y-54120000D03*
X66520000Y-54120000D03*
X66520000Y-46500000D03*
X69060000Y-46500000D03*
X71600000Y-46500000D03*
X74140000Y-46500000D03*
X76680000Y-46500000D03*
X79220000Y-46500000D03*
X81760000Y-46500000D03*
D22*
X84300000Y-46500000D03*
%TD*%
D15*
%TO.C,J3*%
X66548000Y-32258000D03*
X69088000Y-32258000D03*
X71628000Y-32258000D03*
X74168000Y-32258000D03*
X76708000Y-32258000D03*
X79248000Y-32258000D03*
X81788000Y-32258000D03*
X84328000Y-32258000D03*
X86868000Y-32258000D03*
X89408000Y-32258000D03*
X91948000Y-32258000D03*
X94488000Y-32258000D03*
X97028000Y-32258000D03*
X99568000Y-32258000D03*
X102108000Y-32258000D03*
X104648000Y-32258000D03*
X107188000Y-32258000D03*
X109728000Y-32258000D03*
X112268000Y-32258000D03*
D16*
X114808000Y-32258000D03*
%TD*%
D15*
%TO.C,J1*%
X52324000Y-54102000D03*
X54864000Y-54102000D03*
X57404000Y-54102000D03*
X59944000Y-54102000D03*
D16*
X62484000Y-54102000D03*
%TD*%
D19*
%TO.C,Q2*%
X88032000Y-40132000D03*
X88032000Y-37592000D03*
D20*
X88032000Y-35052000D03*
%TD*%
D11*
%TO.C,J4*%
X47225000Y-43800000D03*
X47225000Y-49400000D03*
D12*
X51100000Y-45100000D03*
X51100000Y-46100000D03*
X51100000Y-47100000D03*
X51100000Y-48100000D03*
%TD*%
D17*
%TO.C,J5*%
X35886000Y-54707000D03*
X41486000Y-54707000D03*
D18*
X37186000Y-50832000D03*
X38186000Y-50832000D03*
X39186000Y-50832000D03*
X40186000Y-50832000D03*
%TD*%
D13*
%TO.C,J2*%
X115413000Y-53092000D03*
X115413000Y-47492000D03*
D14*
X111538000Y-51792000D03*
X111538000Y-50792000D03*
X111538000Y-49792000D03*
X111538000Y-48792000D03*
%TD*%
M02*
