%TF.GenerationSoftware,KiCad,Pcbnew,7.0.7*%
%TF.CreationDate,2023-10-06T22:38:46+01:00*%
%TF.ProjectId,nixie-controller-breakaway-panelized,6e697869-652d-4636-9f6e-74726f6c6c65,rev?*%
%TF.SameCoordinates,Original*%
%TF.FileFunction,Profile,NP*%
%FSLAX46Y46*%
G04 Gerber Fmt 4.6, Leading zero omitted, Abs format (unit mm)*
G04 Created by KiCad (PCBNEW 7.0.7) date 2023-10-06 22:38:46*
%MOMM*%
%LPD*%
G01*
G04 APERTURE LIST*
%TA.AperFunction,Profile*%
%ADD10C,0.100000*%
%TD*%
G04 APERTURE END LIST*
D10*
X29542000Y-87280000D02*
X35600000Y-87280000D01*
X29542000Y-84280000D02*
X35600000Y-84280000D01*
X29542000Y-58880000D02*
X35600000Y-58880000D01*
X87600000Y-87280000D02*
X104600000Y-87280000D01*
X87600000Y-84280000D02*
X104600000Y-84280000D01*
X64600000Y-87280000D02*
X81600000Y-87280000D01*
X64600000Y-84280000D02*
X81600000Y-84280000D01*
X41600000Y-87280000D02*
X58600000Y-87280000D01*
X41600000Y-84280000D02*
X58600000Y-84280000D01*
X41600000Y-58880000D02*
X58600000Y-58880000D01*
X64600000Y-58880000D02*
X81600000Y-58880000D01*
X87600000Y-58880000D02*
X104600000Y-58880000D01*
X110600000Y-87280000D02*
X116586000Y-87280000D01*
X110600000Y-84280000D02*
X116586000Y-84280000D01*
X110600000Y-58880000D02*
X116586000Y-58880000D01*
X87600000Y-55880000D02*
X104600000Y-55880000D01*
X64600000Y-55880000D02*
X81600000Y-55880000D01*
X41600000Y-55880000D02*
X58600000Y-55880000D01*
X110600000Y-84280000D02*
G75*
G03*
X110600000Y-87280000I0J-1500000D01*
G01*
X104600000Y-87280000D02*
G75*
G03*
X104600000Y-84280000I0J1500000D01*
G01*
X87600000Y-84280000D02*
G75*
G03*
X87600000Y-87280000I0J-1500000D01*
G01*
X81600000Y-87280000D02*
G75*
G03*
X81600000Y-84280000I0J1500000D01*
G01*
X64600000Y-84280000D02*
G75*
G03*
X64600000Y-87280000I0J-1500000D01*
G01*
X58600000Y-87280000D02*
G75*
G03*
X58600000Y-84280000I0J1500000D01*
G01*
X41600000Y-84280000D02*
G75*
G03*
X41600000Y-87280000I0J-1500000D01*
G01*
X35600000Y-87280000D02*
G75*
G03*
X35600000Y-84280000I0J1500000D01*
G01*
X110600000Y-55880000D02*
G75*
G03*
X110600000Y-58880000I0J-1500000D01*
G01*
X104600000Y-58880000D02*
G75*
G03*
X104600000Y-55880000I0J1500000D01*
G01*
X87600000Y-55880000D02*
G75*
G03*
X87600000Y-58880000I0J-1500000D01*
G01*
X81600000Y-58880000D02*
G75*
G03*
X81600000Y-55880000I0J1500000D01*
G01*
X64600000Y-55880000D02*
G75*
G03*
X64600000Y-58880000I0J-1500000D01*
G01*
X58600000Y-58880000D02*
G75*
G03*
X58600000Y-55880000I0J1500000D01*
G01*
X41600000Y-55880000D02*
G75*
G03*
X41600000Y-58880000I0J-1500000D01*
G01*
X35600000Y-58880000D02*
G75*
G03*
X35600000Y-55880000I0J1500000D01*
G01*
X29542000Y-55880000D02*
X35600000Y-55880000D01*
X29542000Y-87280000D02*
X29542000Y-112680000D01*
X101600000Y-112680000D02*
X116586000Y-112680000D01*
X116586000Y-112680000D02*
X116586000Y-87280000D01*
X29542000Y-112680000D02*
X101600000Y-112680000D01*
X29542000Y-58880000D02*
X29542000Y-84280000D01*
X116586000Y-84280000D02*
X116586000Y-58880000D01*
X116586000Y-55880000D02*
X116586000Y-30480000D01*
X110600000Y-55880000D02*
X116586000Y-55880000D01*
X29542000Y-30480000D02*
X29542000Y-55880000D01*
X29542000Y-30480000D02*
X101600000Y-30480000D01*
X116586000Y-30480000D02*
X101600000Y-30480000D01*
M02*
